<?xml version="1.0" encoding="utf-8"?>
<!-- Generator: Adobe Illustrator 16.0.0, SVG Export Plug-In . SVG Version: 6.00 Build 0)  -->
<!DOCTYPE svg PUBLIC "-//W3C//DTD SVG 1.1//EN" "http://www.w3.org/Graphics/SVG/1.1/DTD/svg11.dtd">
<svg version="1.1" id="Layer_1" xmlns="http://www.w3.org/2000/svg" xmlns:xlink="http://www.w3.org/1999/xlink" x="0px" y="0px"
	 width="92px" height="23.877px" viewBox="0 0 92 23.877" enable-background="new 0 0 92 23.877" xml:space="preserve">
<g>
	<g>
		<path fill="#2171FF" d="M61.213,11.288c1.115,0,2.045-0.904,2.045-2.019V2.196c0-1.117-0.93-2.021-2.045-2.021
			c-1.117,0-2.043,0.904-2.043,2.021V9.27C59.17,10.384,60.096,11.288,61.213,11.288L61.213,11.288z M61.213,11.288"/>
		<path fill="#2171FF" d="M65.58,1.923c-0.25-0.104-0.539-0.077-0.768,0.074c-0.227,0.151-0.367,0.406-0.367,0.682v2.684
			c0,0.295,0.16,0.565,0.414,0.711c2.199,1.264,3.633,3.613,3.633,6.299c0,4.018-3.266,7.288-7.285,7.288
			c-4.012,0-7.271-3.271-7.271-7.288c0-2.684,1.475-5.034,3.637-6.295c0.252-0.147,0.406-0.42,0.406-0.71V2.679
			c0-0.275-0.139-0.53-0.365-0.682c-0.227-0.153-0.516-0.179-0.77-0.074c-4.109,1.713-6.949,5.748-6.949,10.449
			c0,6.257,5.07,11.33,11.324,11.33c6.256,0,11.313-5.073,11.313-11.33C72.531,7.671,69.689,3.636,65.58,1.923L65.58,1.923z
			 M65.58,1.923"/>
	</g>
	<g>
		<path d="M12.828,5.27c-3.75,0-6.656,2.906-6.656,6.719s2.906,6.75,6.656,6.75c1.969,0,4.125-1,5.688-2.563l2.906,3.156
			c-2.313,2.375-5.656,3.906-8.844,3.906c-6.531,0-11.469-4.844-11.469-11.188c0-6.313,5.031-11.063,11.656-11.063
			c3.156,0,6.469,1.406,8.625,3.625l-2.875,3.5C17.016,6.395,14.859,5.27,12.828,5.27z"/>
		<path d="M46.828,12.082c0,6.313-5.063,11.156-11.75,11.156s-11.75-4.813-11.75-11.156c0-6.375,5.063-11.094,11.75-11.094
			S46.828,5.738,46.828,12.082z M28.391,12.082c0,3.844,3.094,6.844,6.75,6.844s6.625-3,6.625-6.844s-2.969-6.781-6.625-6.781
			C31.453,5.301,28.391,8.238,28.391,12.082z"/>
		<path d="M81.516,1.145v17.563h9.375v4.313H76.578V1.145H81.516z"/>
	</g>
</g>
</svg>
