<?xml version="1.0" encoding="utf-8"?>
<!-- Generator: Adobe Illustrator 24.2.1, SVG Export Plug-In . SVG Version: 6.00 Build 0)  -->
<svg version="1.1" id="Layer_1" xmlns="http://www.w3.org/2000/svg" xmlns:xlink="http://www.w3.org/1999/xlink" x="0px" y="0px"
	 viewBox="0 0 300 300" style="enable-background:new 0 0 300 300;" xml:space="preserve">
<style type="text/css">
	.st0{clip-path:url(#SVGID_2_);}
	.st1{clip-path:url(#SVGID_4_);fill:#FEFEFE;}
</style>
<g>
	<defs>
		<path id="SVGID_1_" d="M98.9,179.7v51.7c0,3.3-2.7,6-6.1,6H71c-3.4,0-6.1-2.7-6.1-6v-51.7H54.9c-3.4,0-6.1-2.7-6.1-6v-42.1
			c0-8,6.5-14.5,14.6-14.5h3.3c9.8,4.3,20.9,4.3,30.7,0h3.3c8,0,14.6,6.5,14.6,14.5v42.1c0,3.3-2.7,6-6.1,6H98.9z M102.2,82.7
			c0-11.1-9.1-20.1-20.2-20.1c-11.2,0-20.2,9-20.2,20.1c0,11.1,9.1,20.1,20.2,20.1C93.1,102.7,102.2,93.7,102.2,82.7z M205.3,90.5
			V80.1h-24.8v62.8h24.8v-10.2c0-5,4-9,8.9-9h28.2c4.9,0,8.9,3.9,8.9,8.8v34.9c0,5-4,9-8.9,9h-28.2c-4.9,0-8.9-3.9-8.9-8.8v-10.4
			h-24.8v62.8h24.8v-10.4c0-4.9,4-8.8,8.9-8.8h28.2c4.9,0,8.9,4,8.9,8.8v35c0,4.9-4,8.8-8.9,8.8h-28.2c-4.9,0-8.9-4-8.9-8.8V234
			h-24.8v20.9c0,2.9-2.4,5.3-5.4,5.3h-3.5c-3,0-5.4-2.4-5.4-5.3v-98h-25.9v-0.5c-1.9-0.8-3.2-2.7-3.2-4.9v-3.5c0-2.2,1.3-4,3.2-4.9
			v-0.4l25.9,0V45.1c0-2.9,2.4-5.3,5.4-5.3h3.5c3,0,5.4,2.4,5.4,5.3V66h24.8V55.5c0-4.9,4-8.8,8.9-8.8h28.2c4.9,0,8.9,3.9,8.9,8.8
			v35c0,4.9-4,8.8-8.9,8.8h-28.2C209.3,99.3,205.3,95.4,205.3,90.5z M219.7,85.8h18v-26h-18V85.8z M219.6,240.5h18v-26h-18V240.5z
			 M219.7,162.9h18v-25.5h-18V162.9z"/>
	</defs>
	<clipPath id="SVGID_2_">
		<use xlink:href="#SVGID_1_"  style="overflow:visible;"/>
	</clipPath>
	<g class="st0">
		<defs>
			<rect id="SVGID_3_" x="-784.7" y="-280.6" width="1869.4" height="3560"/>
		</defs>
		<clipPath id="SVGID_4_">
			<use xlink:href="#SVGID_3_"  style="overflow:visible;"/>
		</clipPath>
		<rect x="41.8" y="32.8" class="st1" width="216.3" height="234.4"/>
	</g>
</g>
</svg>
