<svg id="Layer_1" data-name="Layer 1" xmlns="http://www.w3.org/2000/svg" viewBox="0 0 1078.5 828.2"><defs><style>.cls-1{fill:gray;}.cls-2{fill:none;stroke:#299fd7;stroke-miterlimit:10;stroke-width:1.5px;}.cls-3{fill:#29a9e0;}.cls-4{fill:#fff;}</style></defs><path class="cls-1" d="M191,704.2l2.5-1.6-1-1.9-1.9,1Zm-43.8,20.5,1.1,6,3,.8,5.2-3,4.6-2.7-1.7-2.5.5-2.5-2.2,1.3-3-.8,1.7-1.1,2,.8,4-1.9.5-1.6-2.5-.8.8-2-2.8,2-4.9,3.7-5,3Zm-9.2,13,1.6,1.9,1-1.1-.8-2Zm-24.4,1.9,1.1-2.4,2.2.3-.8,2h-2.5Zm-3-3.1,1.7,2,2.2-1.7-1.6-1.3Zm-50.7,4.7,3.5-2.4,3.5-1,2.7.3.5,1.7,2,.5,2-2-.3-1.7,2.8-.6,3,2.7-1.1,1.9-4.6,1.1-2.8-.5-3.8-1.1-4.6,1.6L61,742Zm14.2-75.7,1.1,2.7,1.1,1.7-1.1.8L73,667.5v-2Zm21.5,14.6,3.8.8,3.8,1,.8,1-1.7,3.8-3.2-.2-3.5-3.7Zm2.7-34.7,2.2,5.5-.2,1-3-.3-1.9-4.1-1.9-1.6H91l-.2-2.7,1.9-2.5,1.1,2.5,1.6,1.6Zm119.2-30-.3,88.5,1.7,1,3.2.2,1.6-1.1h2.7l.2,3,7.2,7,.5,2.7,3.5-2,.6-.2.3-3.2,1.6-1.7,1.1-.2,2-1.6,3.2,2.2.6,3,2,1.1,1.1,2.5,4,1.9,3.5,6.2,2.8,4,2.4,2.8,1.6,3.8,5.2,1.9,5.4,2.2,1,4.6.5,3.2-1,3.5-1.9,2.4-1.7-.8-1.6-3.2-2.8-1.6-1.9-1.1-.8.8,1.6,2.8.2,3.8-1.1.5-2-2-2.2-1.3.5,1.7,1.3,1.9-.8.8a3.14,3.14,0,0,1-1.3-1c-.5-.6-2.2-3.5-2.2-3.5l-1-2.4s-.3,1.3-1,1a4.93,4.93,0,0,1-1.3-1.6l1.9-2-1.6-1.6v-5.2h-.8l-.8,3.5-1.1.5-1-3.8-.6-3.8-.8-.5.3,5.9V742l-1.6-1.3-3.7-6.2-2.2-.5-.6-3.8-1.7-3-1.7-1.1v-2.4l2.2-1.3-.5-.3-2.7.6-3.5-2.5-2.7-3-5-2.7-4.1-2.7,1.3-3.3v-1.7l-1.9,1.7-3,1.1-3.8-1.1-5.9-2.5h-5.7l-.6.5-6.7-4-2.2-.3-2.8-6-3.7.3-3.7,1.6.5,4.7,1.1-3,1,.3-1.6,4.6,3.3-2.8.6,1.7-4,4.6-1.3-.3-.5-2-1.3-.8-1.3,1.1-2.8-1.9-3.2,2.2-1.9,2.2-3.5,2.2-4.9-.2-.5-2.2,3.8-.6v-1.3l-2.4-.6,1-2.5,2.4-4v-1.9l.2-.8,4.6-2.4,1,1.3h2.8l-1.3-2.7-3.8-.3-5.2,2.8L165,699l-1.9,2.7-1.1,2.4-4.4,1.6-3.2,2.7-.3,1.7,2.4,1,.8,2.2-2.8,3.3-6.7,4.4-8.1,4.4-2.2,1.1-5.5,1.1-5.5,2.4,1.9,1.3-1.6,1.6-.5,1.1-2.8-1-3.3.2-.8,2.4h-1l.3-2.5-3.7,1.3-3,1-3.5-1.3-3,2H102l-2.2,1.3-1.7.8-2.2-.3-2.7-1.1-2.4.6-1,1-1.7-1.1v-2l3.2-1.3,6.5.6,4.6-1.7,2.2-2.2,3-.6,1.9-.8,2.8.2,1.7,1.3,1-.3,2.4-2.8,3.2-1,3.5-.6,1.3-.3.6.5h.8l1.3-3.8,4.1-1.6,2-3.8,2.4-4.7,1.7-1.6.3-2.7-1.7,1.3-3.5.6-.6-2.5-1.3-.3-1,1-.2,3-1.6-.2-1.6-6-1.3,1.3-1.1-.5-.3-2-4.1.2-2.2,1.1-2.7-.3,1.6-1.6.5-2.7-.6-2,1.6-1,1.3-.2-.6-1.9v-4.6l-1-1-.8,1.6H111l-1.6-1.3-.6-4-2.2-3.7v-1l2.2-.8.2-2.2,1.1-1.1-.8-.5-1.3.5-1.1-2.8,1-5.2,4.7-3.3,2.7-1.7,2-3.8,2.8-1.3,2.7,1.1.3,2.5,2.5-.3,3.3-2.5,1.7.6,1,.6h1.7l2.4-1.3.8-4.6s.3-3,1-3.5a7.84,7.84,0,0,0,1-1l-1.1-2-2.7.8-3.3.8-2-.5-3.7-1.9-5.2-.2-3.7-3.8.5-4,.6-2.5-2.2-1.9-2-3.8.5-.8,7-.5h2.2l1,1h.6l-.2-1.7,4-.6,2.7.3,1.6,1.1-1.6,2.2-.5,1.6,2.8,1.7L139,638l1.9-1-2.4-4.6-1-3.3,1-.8-3.5-2-.5-1.1.5-1.7-.8-4-3-4.9-2.5-4.4,3-2H135l1.9.6,4.4-.2,3.8-3.7,1.1-3.2,3.8-2.5,1.7,1,2.8-.6,3.8-2.2,1.1-.2,1,.8,4.7-.2,2.8-3.2H169l3.7,2.5,2,2.2-.5,1.1.6,1.1,1.7-1.7,4,.3.3,3.8,2,1.6,7.4.6,6.5,4.4,1.6-1,5.4,2.7,2.2-.6,2-.8,5,2Z"/><path class="cls-1" d="M394.6,699.7l1.7-1.3,3.5,1.7,7.9,3.7,3.5,2.2,1.7,2.5,2,4.6,4.1,2.7-.3,1.3-4,3.3-4.4,1.6-1.6-.6-3.2,1.9-2.5,3.3-2.4,3-1.9-.2-3.7-2.7-.3-4.7.6-2.5-1.7-5.9-2.2-1.9-.2-2.7,2.4-1,2.2-3.2.5-1-1.7-1.9Zm-17.2-16.1,2.4-3,4.9,2.5,4.6,1.1,4.6,2.8v2l-3.7,1.9-5,1-2.5-1.6Zm-7.2,1.2,2,4,3.2-1.1.3-1.7-1.7-2.2-3.8-.3Zm-5.5-5.4,1.3-2,4.9,1,.6-.5,6.3.6-.3,1.3-2.7,1.6-4.6-.3Zm-20.9-9.2,3.8,5.7,2.5-.3,1.1-.5,1.6,1.3,3.8-.2,1-1.6-3-1.9-2-3.8-2.2-3.7-6,3ZM312,659.9l6.3,2.7,2.2-.3,1.7-4-.6-3.5-4.4-.5L313,656Zm-10.6,3.8,2-3.7,2.4-.3.3.8-2.2,3.2Z"/><polygon class="cls-1" points="698.8 552.2 699.5 552.4 700.8 549.6 702.4 545 704.7 545.6 708 551.9 708 552.9 705.2 554.9 708 555.2 713.3 552.6 713 544.7 710.4 542.8 708.4 540.8 708.8 536.6 719.7 535.1 746.3 532.1 753.2 531.4 759 531.5 758.5 529.3 757 528.4 756 527.3 757.1 524.6 756.6 519.2 755 514.6 755.8 509.3 757.6 504.3 757.4 502.5 755.5 501.8 755 498.1 752.2 494.6 750.1 487.8 748.7 480.9 746.8 475.7 742.9 459.1 739.2 451 738.4 445.2 738.5 442.9 729.2 443.7 705 446 692.3 446.8 692.1 453.4 692.3 470.7 691.6 502.9 691.3 517.5 694.2 536.9 695.8 552.2 698.8 552.2"/><polygon class="cls-1" points="656.2 427.5 649.5 426.8 650.5 423.6 653.7 420.9 654.3 418.5 652.4 415.5 619.4 416.8 595.3 417.5 570.8 417.8 572.4 425 572.5 433.8 573.9 445.1 574.2 484.6 576.4 486.3 579.5 485 582.5 486.3 582.9 496.7 609 496.5 636.8 495.7 637.7 493.7 637.4 489.8 635.7 486.6 637.2 485.1 635.8 482.9 636.5 480.4 637.6 474.3 640.4 471.9 639.6 469.6 643.7 463.8 646.3 462.7 646.2 460.9 645.7 459.1 648.7 453.1 651.3 452 651.5 448.6 653.7 447.1 654.6 442.9 653.2 438.7 657.5 436.2 657.8 434.1 659.1 429.7 660 426.5 656.2 427.5"/><polygon class="cls-1" points="187.7 472.7 187.4 474.3 187.9 475.3 207.5 486.4 220.1 494.3 235.3 503.2 252.7 513.5 265.4 516 291.7 518.8 298 477.8 305.2 422.8 309.8 390.7 284.3 386.9 221.4 375.5 221.2 376.7 218.5 393.8 216.3 397.7 213.4 397.5 212.2 394.8 209.5 394.4 208.2 393.3 207.1 393.4 204.9 395.1 204.6 402.2 204.3 403.7 203.8 416.7 202.2 419.2 201.8 422.6 204.7 427.8 205.9 433.5 206.6 434.6 207.7 435.5 207.3 438 205.5 439.3 202 440.9 200.4 442.8 198.7 446.5 198.2 451.6 195.1 454.6 193.1 455.5 193 461.5 192.4 463.2 192.9 464 197 464.4 196 467.5 194.3 470 190.4 470.4 187.7 472.7"/><path class="cls-1" d="M174.9,468.8,154.5,466l-10.4-1.6-.5-1.9v-9.7l-.3-3.3-2.7-4.4-.8-2.4-4-4.4-3-4.9-2.8-.2-3.3-.8-.3-1,1.6-.6-.6-3.3-1.6-2.2-5-.8-4-2.2-1.1-2.4-2.7-5-3-3.2h-3l-4-2.2-4.7-1.9-4.4-.5-2.5-2.8.5-2,1.9-7.4.8-2v-2.5l-1.7-1-.5-3-1.6-2.7-3.5-6L86,374.5l-1.6-4.9-1.7-5.5-3.3-4.6-.5-3,.8-4h1.1l2.2-1.7,1.1-3.7-1-2.8-2.8-.5-2-2.7-2.2-3.8L76,329l.6-2,.6-2.4.5-2.5-5.9-6.5v-2.2l.3-.5.3-3.3-1.3-4.1-2.4-5-2.8-4.7-1.9-4,1-3.8.6-6,1.9-3.2.3-6.7-1.1-3.7L65,264l-2.8-4.4.8-3.3,1.6-4.4,1.9-.8.3-1.1,3.2-2.7,5.4-12.2.2-7.7,1.8-5.1,40.1,12.2,26.5,6.8-8.3,32.4-9,34.3,13.1,19.9,43.7,64.5,17.7,27-.4,3.2,2.9,5.4,1.1,5.6,1,1.6.7.6-.2,1.4-1.5,1-3.5,1.7-2,2.2-1.8,4L197,451l-2.7,2.6-2.4,1.1-.1,6.4-.6,2,1,1.8,3.1.3-.4,1.7-1.5,2.1-4,.6Z"/><polygon class="cls-1" points="441.6 313 404.3 309.4 322.4 300.4 320.1 323.3 312.9 375.5 310.9 389.7 346.1 393.8 385 398.3 420.9 401.4 435.7 402.1 441.6 313"/><polygon class="cls-1" points="930.4 266.8 934.1 263.5 936.1 261.3 936.9 261.9 939.7 260.4 945.1 259.2 952.3 255.6 951.7 251.2 950.9 246.7 949.2 240.5 944.8 241.6 922.2 246.5 922.8 249.7 924.4 257.2 924.4 265.8 923.4 268 925.2 270.3 930.4 266.8"/><polygon class="cls-1" points="912.1 325.1 911.1 325.6 907.4 323.1 905.5 318.3 903.5 314.5 901.2 313.5 899 309.8 899.5 307.7 900 305.3 900.1 304.2 899.5 304.3 897.7 305.3 895.7 307.1 895.5 307.4 896.9 311.6 899.3 317.4 903.1 334.1 908.3 333.8 914.5 332.7 912.1 325.1"/><path class="cls-1" d="M824.9,530.2l-5.4-.7-.7.8,1.6,4.6-.4,5.4-4.2-1-.2-2.9h-4.2l-5.5.7-33.6,2-8.5-.3L762,537l-2.6-4.4h-6.1l-6.8.5-36.7,4.4-.3,2.9,1.7,1.7,3,2.1.3,8.7,3.4-.6,6.2-2.2,6.2-.5,4.6-.6,7.9,1.9,8.4,4,1.7,1.6,3,1.1,1.7,2,.3,2.8,3.3-1.3h4l3.7-2,3.8-3.7,3.2.2.5-1.1-.8-1,.2-2,4.1-.8h2.7l3,1.6,4.4,1.6,2.5,3.8,2.8,1,1.1,3.5,3.5,1.7,1.7,2.7,2,.6,5.4,1.3,1.3,3.2,3.1,3.8v9.8l-1.6,4.9.3,2.8,1.3,5,1.9,4.1.8-.5,1.6-4.7-2.7-1-.3-.6,1.7-.6,4.7,1,.2,1.7-3.3,5.7-2.2,2.5,3.7,3.8,2.7,3.2,3,5.5,3,4,2.2,5.2,1.9.3,1.7-2.2,1.9,1.1,2.7,4.1.6,3.7,3.2,4.6.8-1.3,4,.3,3.7,2.4,3.5,5.4.8,3.5.3,3,1.1,1,1.3.5,2.5-1L862,651l4-.2,3.2-1.6,2.8-3.3-.5-2-.3-2.5.6-2-.3-2,2.5-1.3.3-3.5-.6-1.9-.5-12.4-1.3-7.9-4.7-8.5-3.7-6-2.7-5.5-3-3-3-7.7.7-1.4,1.1-1.3-1.7-3-4.1-3.8-5-5.7L842,558l-5.5-9.7-3.8-10.1-2.4-7.6Z"/><polygon class="cls-1" points="824.9 529.2 819.1 528.4 817.7 530.1 819.3 535 819 539 816.7 538.4 816.5 535.3 811.1 535.3 805.6 536 772.2 538 764.2 537.7 762.8 536.4 760.2 532 759.3 528.5 757.7 527.6 757.2 527.1 758.1 524.8 757.7 519.1 756 514.5 756.8 509.4 758.6 504.4 758.4 501.8 756.4 501.1 756 497.8 753.1 494.2 751.2 487.7 749.6 480.5 747.8 475.5 743.9 458.9 740.3 450.6 739.4 445.2 739.6 442.8 743 442.5 757.1 440.8 776.3 438.7 782.9 437.6 783.4 439 781.1 440 780.2 442.3 780.6 444.3 782 446 786.5 448.8 789.8 448.7 793.1 453.5 793.7 455.2 796.1 458.1 796.6 459.9 801.5 461.7 804.6 464 807 467.1 809.4 468.5 811.4 470.3 812.9 473.1 815.1 475.1 819.3 477 822.1 483.2 823.9 488.5 826.8 489.2 828.9 491.2 831 497.1 834 498.7 835.8 497.9 836.2 499.1 832.8 505.5 833.3 508.2 831.7 512.6 829.4 523 830.2 529.5 824.9 529.2"/><polygon class="cls-1" points="624.6 259.2 626.7 261.4 627.1 262.1 625 265.2 625.3 269.4 628 273.6 631.2 275.3 633.7 275.6 634.6 277.4 634.8 279.9 637.4 281 638.3 282.1 638.9 283.8 642.8 287.2 643.4 289.2 642.7 292.3 640.9 296.1 640.3 298.6 638.1 300.2 636.5 300.8 630.6 302.3 628.9 307.3 629.7 309.1 631.5 310.7 631.3 314.3 629.3 315.8 628.6 317.6 628.6 320.1 627.2 320.5 625.4 322 624.9 323.7 625.3 325.5 623.9 326.5 621.6 323.7 620.1 320.8 611.5 321.7 601.2 322.3 550.2 323.5 548.5 319.1 548.1 312.1 546.7 307.8 545.9 302.4 543.7 298.6 542.6 293.8 539.8 285.7 538.7 279.9 537.2 278 535.9 275 537.7 271 538.9 264.7 536.1 262.4 535.8 259.9 536.5 257.5 538.4 257.1 601.7 256.5 623.6 255.8 624.6 259.2"/><polygon class="cls-1" points="229.4 97.6 224.4 115.7 219.7 137.3 216.2 154.1 215.8 164.1 217 168.7 220.7 171.5 220.5 175.5 216.4 180.1 211.8 186.9 210.8 189.9 209.6 191.1 207.7 191.9 203.3 197.4 202.9 200.6 202.4 201.7 203.1 202.8 205.8 202.7 206.9 205 204.4 211 203.2 215.4 194.1 252 215.5 256.6 256.4 264.8 292.5 271.1 297.5 240.9 301.5 215.9 298.7 213.4 298.3 210.7 297.4 209.6 295.3 210.6 294.5 213.3 291.2 213.8 287.2 212.2 283.2 212.3 280.6 213 277.1 211.5 274.6 211.7 272.2 213.7 270.1 212.6 269.4 208.5 270.1 205.5 267.5 202.4 264.1 199.8 261.3 186.2 261.2 181.3 260.9 181.2 260.7 181.6 255.4 185.3 253.6 185 250.6 181.5 250.4 178.3 257.7 160.6 257.2 158.6 253.7 157.4 253.1 156.1 250.4 152.6 245.6 142 242.3 140.4 240.3 135.2 241.6 130.5 238.3 122.6 242.8 100.3 229.4 97.6"/><polygon class="cls-1" points="688.7 291 687.9 288.3 686.5 284.5 684.9 282.6 683.3 279.9 682.9 274.2 666.4 276.1 648.4 277.1 635.6 277.1 635.9 279.3 638.1 280.2 639.3 281.7 639.7 283.1 643.7 286.7 644.5 289.2 643.7 292.6 642 296.4 641.1 299.2 638.7 301.2 636.7 301.8 631.3 303.1 630 307.4 630.6 308.5 632.5 310.4 632.3 314.8 630.2 316.5 629.6 317.8 629.6 320.7 627.8 321.4 626.3 322.6 625.9 323.9 626.3 325.9 624.7 327.3 623.7 330.2 624 334.2 626.4 341.5 633.7 349.3 639.6 353.2 639.6 357.7 640.3 359 647.1 359.6 649.9 361 649.2 364.7 646.9 371.1 646.1 374.2 648.2 378 654.8 383.5 659.8 384.3 662.1 389.6 664.1 393.2 663.2 396.1 664.8 400 666.5 402.2 668.2 401.9 669.2 399.6 671.7 397.8 674.6 396.8 680.9 399.4 681.4 399.2 681.4 398 680.2 395.2 680.6 392.3 683.1 390.7 686.6 389.4 686.1 388.1 685.3 386 686.5 384.7 687.5 381.9 687.5 377.7 688 372.6 690.6 369.5 692.4 365.6 695 361.5 694.5 356 692.6 352.7 692.3 349.2 693.1 343.7 692.4 336.3 691.3 319.9 689.8 304.1 688.9 291.9 688.7 291"/><polygon class="cls-1" points="693 292.9 694.6 293.9 695.7 293.6 697.9 291.6 700.5 289.8 715.3 288.6 734.4 286.8 736 302.8 741.1 347 740.5 350 741.8 351.6 742 353 739.7 354.6 735.9 356.4 732.6 356.8 732.1 361.8 727.2 365.5 724.2 369.6 724.4 372.1 723.9 373.6 720.3 373.6 718.8 371.8 713.4 374.9 713.7 378.1 712.7 378.3 712.2 377.4 709.7 375.6 706 377.2 704.5 380.2 703.3 379.6 701.6 377.7 697.1 378.2 691.2 379.3 688.6 380.6 688.6 377.9 689 373.1 691.4 370.1 693.2 366 696 361.7 695.5 355.7 693.7 352.4 693.3 349.1 694.2 343.6 693.5 336.3 692.5 323.2 689.9 292.1 693 292.9"/><polygon class="cls-1" points="551.1 337.8 505.8 337.2 463.7 336 441.2 335 436.8 402.2 461.9 403.2 508.2 405.4 556.2 406 569.3 405.7 570 369.4 568.7 357.9 566.1 355.9 563.7 352.8 561.3 349 561.9 345.9 563.7 344.5 563.7 342.3 562.8 341.6 560.1 341.4 556.5 337.8 551.1 337.8"/><polygon class="cls-1" points="676.8 412.7 689.8 412 689.9 407.8 694.4 407.8 725.9 404.4 772.6 400 778.4 396.3 782.4 394.1 782.5 392.1 788.8 384 793 380.3 795.2 377.8 791.8 375.8 789.2 373 786.1 369 785.5 366.7 782.9 365.3 781.9 363.3 781.7 357 779 354.9 777 353.8 776.5 351.4 775.2 351.6 773.1 352.9 770.5 355.7 768.6 353.9 766 353.4 763.5 354.8 761.1 354.8 759.2 352.8 753.4 352.7 751.6 348 748.6 346.4 746.4 347.3 742 347.5 741.5 349.6 742.8 351.2 743.1 353.4 740.2 355.4 736.2 357.3 733.5 357.7 733 362.4 727.9 366.1 725.3 370 725.5 372.2 724.5 374.6 719.9 374.5 718.5 373.2 714.5 375.4 714.7 378.9 712.2 379.5 711.4 378 709.6 376.8 706.8 377.9 705 381.6 702.7 380.5 701.2 378.9 697.4 379.3 691.6 380.3 688.7 381.7 687.4 385.2 686.4 386.2 688 390 683.6 391.5 681.6 392.9 681.2 395.2 682.5 397.7 682.5 400 680.8 400.4 674.5 397.8 672.1 398.7 670 400.2 669.2 402.1 671 404.5 670 406.4 669.9 409.8 667.5 411.2 665.3 412.9 676.8 412.7"/><polygon class="cls-1" points="593.6 572.4 602 572.1 612.7 575.8 619.4 576.9 623.2 575.4 626.5 576.5 629.8 577.5 630.7 575.4 627.4 574.2 624.7 574.7 621.9 573.1 622.7 571.5 625.9 570.5 627.8 572.1 629.6 571 633 571.6 634.5 574.1 634.8 576.5 639.5 576.8 641.3 578.7 640.5 580.3 639.2 581.2 640.8 582.8 649.5 586.6 653.3 585.2 654.3 582.7 657 582.1 658.9 580.5 660.2 581.6 661 584.6 658.6 585.4 659.3 586 662.8 584.7 665.2 581.2 666 580.7 663.8 580.3 664.7 578.7 664.4 577.1 666.6 576.6 667.8 575.3 668.4 576.1 669 579.3 673.4 579.9 677.5 581.9 678.5 583.4 681.5 583.4 682.7 584.5 685.1 581.3 685.1 579.7 683.7 579.7 680.2 576.9 674.2 576.1 670.9 573.7 672 570.9 674.4 571.2 674.6 570.6 672.7 569.6 672.7 569 676.1 569 677.9 565.8 676.6 563.9 676.3 561.1 674.7 561.3 672.7 563.5 672.1 566.1 668.9 565.5 667.9 563.7 669.7 561.7 671.7 559.9 669.4 553.2 665.9 549.7 666.9 542.1 666.7 541.6 665.4 541.8 631.1 543.3 630.3 540.8 631.1 532 640 516.6 639.1 513.9 640.5 513.5 640.9 511.5 638.7 509.4 638.8 507.4 636.7 502.8 636.3 497.5 636.4 496.7 609 497.6 582.9 497.7 583.3 507.7 584.1 517.6 584.6 521.4 587.3 526.1 588.2 530.6 592.7 536.8 593 540 593.6 540.9 592.9 549.5 590 554.2 591.2 556.7 590.7 559.4 589.9 567 588.5 570.1 588.7 573.9 593.6 572.4"/><path class="cls-1" d="M967.1,247.7l-.5-2.4.8-1.6,3-1.6.8,3.2-.5,1.9-2.5,1.6v1l2-1.6,4-4.7,4-2,4.4-1.6-.3-2.5-1-3-2-2.5-1.9-.8-2.2.2-.5.5,1,1.3,1.6-.8,2.2,1.7.8,2.8-1.9,1.9-2.4,1-3.7-.5-4-6.2-2.4-2.7H964l-1.1.8-2-2.7.3-1.6,2.5-5.4-3-4.6L957,219l-1.9,3-19,4.9-14.3,2.6-.6,11,.7,5.1,22.8-5,11.6-2.9,2.1,1.7,3.5,4.5,3,4.9Z"/><path class="cls-1" d="M897.5,342.8l1.1,2.6.2,1.9,1.1,2s.9-.9.9-1.2-.7-3.2-.7-3.2l-.7-2.4Zm15-.2,1.8-3.9.5-5-6.5,1.1-6,.3-3.9-17.4L896,312l-1.6-4.8-23,4.5-39,7.9,2.1,10.8,5-5.1,2.6-.7,1.4-1.6,1.9-2.8,1.7.7,2.7-.2,2.7-2.2,2.1-1.6,2.2-.6,1.6,1.1,2.8,1.5,2,1.9,1.3,1.5,5,1.7-.6,3,6,2.2,2.2-2.7,3.8,2.6-2.2,3.4-.7,3.4-1.9,2.7v2.2l.3.8,2.1,1.3L882,344l4.5-.1,3.2,1,2.2.3,1-2.2-1.6-2.2v-1.9l-2.5-2.2-2.2-5.7,1.3-5.5-.2-2.2-1.3-1.3s1.6-1.7,1.6-2.4a12.3,12.3,0,0,1,.5-2.2l2-1.3,2-1.7.5,1-1.6,1.7-1.3,3.8.3,1.1,1.9.3.5,5.7-2.2,1,.3,3.7.5-.2,1.1-2,1.7,1.9-1.7,1.3-.3,3.5,2.7,3.5,4,.5,1.7-.8,3.3,4.4,1,.4Z"/><path class="cls-1" d="M989.4,174.3l1.9,2s1.3.1,1.3-.2.2-2.1.2-2.1l.9-.8-.8-1.9-2.1.7Zm-6.9,6.1,1.6-1.6,1.5,1.1.6,2.5-1.8.9Zm-37.8-16.2,1.6.4v-2.7l.8-5.7,2.7-4.9,1.6-4.1-2-2.5v-6.2l.8-1,.8-2.8-.2-1.6-.2-5,1.9-5,3-9.2,2.2-4.4H959l1.3.2v1.1l1.3,2.4,2.8.6.8-.8v-1l4.1-3,1.9-1.9,1.6.2,6.2,2.5,2,1,9.4,31h6.2l.8,2,.2,5,3,2.4h.8l.2-.5-.5-1.1,2.9-.5,2,2.2,2.4,3.8v2l-2.2,4.9-2,.6-3.5,3.2-5,5.7h-1.3c-.6,0-1-2.2-1-2.2l-1.9.2-1,1.6-2.5,1.6-1,1.6,1.7,1.6-.5.6-.5,2.8-2-.2v-1.7l-.3-1.3-1.6.3-1.9-3.3-2.2,1.3L981,176l.3,1.1-.8,1.3.3,3.2.2,1.7-1.7,2.7-3,.5-.3,3-5.5,3.2-1.3.5-1.7-1.6-3.2,3.7,1,3.3-1.6,1.3-.2,4.6-1.1,6.5-2.3-.9-.5-3.2-4.1-1.1-.2-2.6-12.1-38.8Z"/><path class="cls-1" d="M680.9,212.6l-1.3-1.1-1.9-10.8-3.8-1.3-1.8-2.4L659,194.1l-2.9-1.1-8.4-2.3-8.1-1-4-5.5.7-.5,2.8-.8,3.7-2.4v-1l.6-.6,6.2-1,2.5-2,4.6-2.2.2-1.3,2-3,1.9-.8,1.3-1.9,2.4-2.4,4.6-2.5,4.9-.5,1.1,1.1-.3,1-3.8,1-1.6,3.2-2.4.8-.5,2.5-2.5,3.3-.3,2.7.8.5,1-1.1,3.7-3,1.3,1.3h2.4l3.3,1,1.6,1.1,1.6,3.2,2.8,2.8,4-.2,1.6-1,1.7,1.3,1.7.5,1.3-.8h1.1l1.7-1,4.1-3.7,3.5-1.1,6.8-.3,4.7-2,2.7-1.3,1.6.2v5.9l.5.3,3,.8,2-.5,6.3-1.7,1.1-1.1,1.6.5v7.3l3.3,3.2,1.3.6,1.3,1-1.3.3-.8-.3-3.8-.5-2.2.6-2.4-.2-3.3,1.6h-1.9l-6-1.3-5.4.2-2,2.7-7.3.6-2.5.8-1.1,3.2-1.3,1.1-.5-.2-1.6-1.7L691,199h-.6l-1.1-1.7-.8.2-2,4.6-1,4.1-3.3,7.1Zm34.5,75,19.8-2,.2,1.1,10.3-1.6,12.4-1.8.1-.6.2-1.6,2.2-3.8,2.1-1.8-.2-5.3,1.7-1.7,1.1-.3.2-3.7,1.6-3.1,1.1.6.2.6.8.2,2-1-.4-9.4-3.3-8.5-2.4-9.4-2.5-3.3-2.7-1.9-1.7,1.1-4,1.9-2,5.2-2.8,3.8-1.1.6-1.6-.6s-2.7-1.6-2.5-2.2.5-5.2.5-5.2l3.5-1.3.8-3.5.6-2.7,2.5-1.7-.3-10.4-1.7-2.4-1.3-.8-.8-2.2.8-.8,1.7.3.2-1.7-2.7-2.3-1.3-2.7H744l-4.7-1.6-5.7-3.5h-2.8l-.6.6-1-.5-3.2-2.4-3,1.9-3,2.4.3,3.7,1,.3,2.2.5.5.8-2.7.8-2.7.3-1.6,1.9-.3,2.2.3,1.7.3,5.7-3.7,2.2-.6-.2v-4.4l1.3-2.5.6-2.5-.8-.8-2,.8-1,4.4-2.8,1.1-1.9,2-.2,1,.6.8-.6,2.7-2.4.5v1.1l.8,2.5-1.1,6.3-1.7,4.1.6,4.9.5,1.1-.8,2.5-.3.8-.3,2.8,3.7,6.2,3,6.7,1.6,5-.8,4.9-1,6.2-2.5,5.4-.3,2.8-3.3,3.2Z"/><polygon class="cls-1" points="529.1 138.2 528.4 142.3 528.4 152.9 530.1 158.1 532.1 161.5 532.6 171.8 534.4 185.8 536.3 193.3 536.7 200 536.7 205.5 535.1 207.3 533.2 208.7 533.2 210.2 534.1 212 538.4 215.6 539.1 218.9 539.1 256.1 601.6 255.5 623.5 254.8 623 248.5 621.1 246.4 613.7 241.6 610 236.1 606.4 235.2 604.4 232.3 601.1 232.3 597.4 228.3 596.9 221.1 597 217.1 598.6 213.9 597.8 211.1 594.9 207.9 597.2 201.6 602.8 197.5 604.1 196 603.8 187.7 604.1 184.6 606.7 181.5 610.7 178.5 612 178.3 616.7 173.1 618.6 172.3 620.9 168.3 623.4 164.5 626.6 161.8 631.6 159.8 641.1 155.5 645.2 153.7 645.8 151.3 641.2 151.7 640.5 152.8 639.9 152.8 638 149.6 628.8 149.9 627.8 150.8 626.7 150.8 626.2 149.4 625.4 147.5 622.7 148.1 619.4 151.4 617.7 152.2 614.5 152.2 611.8 151.2 611.8 149 610.5 148.8 610 149.3 607.3 148 606.7 145 605.2 145.5 604.7 146.5 602.2 146 596.7 143.5 592.7 140.8 589.7 140.8 588.3 139.8 585.9 140.4 584.8 141.5 584.5 142.9 579.5 142.9 579.5 140.7 573 140.4 572.7 138.8 567.7 138.8 566 137.2 564.5 130.9 563.7 125.2 561.7 124.3 559.3 123.8 558.7 124 558.4 132.5 527.2 132.5 529.1 138.2"/><polygon class="cls-1" points="662.2 419.9 662.7 413.8 667 410.2 669 409.2 669 406.2 669.7 404.5 668.6 402.9 666.1 403.2 663.9 400.6 662.2 396 663.1 393.3 661 389.9 659.2 385.2 654.4 384.5 647.4 378.7 645.1 374.3 645.9 370.9 648.2 364.7 648.8 361.6 646.8 360.5 639.7 359.9 638.6 357.9 638.6 353.7 633.1 350.1 625.6 342 623.2 334.4 622.7 330.1 623.4 327.6 620.7 324.4 619.5 321.9 611.5 322.7 601.2 323.3 550.6 324.6 552 327.3 551.8 329.6 554.2 333.3 557.3 337.3 560.5 340.4 563.2 340.6 564.7 341.8 564.7 344.8 562.8 346.4 562.3 348.8 564.5 352.1 567 355.2 569.7 357.4 571 369.4 570.2 410.9 570.7 416.8 595.3 416.6 619.4 415.8 653.1 414.5 655.3 418.3 654.5 421.5 651.3 424.1 650.8 426 656.2 426.5 660.4 425.4 662.2 419.9"/><polygon class="cls-1" points="673.8 558.5 676.5 554.1 678.3 555 685.4 553 687.5 553.3 689.1 554.1 694.5 554.1 694.9 552.5 693.1 537.1 690.2 517.5 691.3 470.7 691.1 453.4 691.3 446.9 686.3 447.2 666 448.9 652.5 449.3 652.3 452.6 649.4 454 646.7 459.2 647.3 460.9 647.4 463.4 644.4 464.5 640.7 469.8 641.6 472.2 638.4 474.8 637.4 480.7 636.8 482.7 638.4 485.2 636.9 486.7 638.4 489.6 638.8 493.9 637.5 496.5 637.3 497.5 637.7 502.6 639.8 507.3 639.7 509.1 642.1 511.1 641.3 514.4 640.4 514.7 641 516.6 632.1 532.2 631.3 540.7 631.8 542.2 656.9 541.5 665.4 540.8 667.3 540.5 668 541.9 666.9 549.3 670.4 552.7 672.6 559.3 673.8 558.5"/><polygon class="cls-1" points="421.8 142.3 416.4 201.5 415 217.3 353.8 210.4 303 203.1 301.6 214.7 299.6 212.9 299.2 210.3 297.8 208.4 294.4 209.9 293.7 212.5 291.3 212.8 287.4 211.1 283.1 211.3 280.7 212 277.3 210.4 274.2 210.6 272.1 212.6 271.1 212 270.4 208.5 271.1 205.1 268.3 201.8 264.9 199.2 262.3 186.2 262.2 180.7 260.6 179.9 259.9 180.9 255.3 184.2 254 184.1 251.6 181.2 251.4 178.3 258.7 160.5 258.1 157.8 254.4 156.6 254 155.7 251.2 152 246.5 141.3 243.2 139.6 241.3 135.2 242.6 130.4 239.3 122.6 243.9 100.5 277.7 107.7 296.8 111.2 330.3 116.7 360.6 120.8 390.9 124.4 422.8 127.6 421.8 142.3"/><path class="cls-1" d="M862.7,439.6l-13.2-8-3.2-.8L829.1,433l-1.7-3.1-2.9-2.3-17.3.5-7.7.9-9.5,4.7-7,2.8-6.7,1.2-13.9,1.5.1-4.2,1.8-1.3,2.8-.7.7-3.9,4-2.6,4-1.6,4.7-3.8,4.6-2.4.7-3.3,4.2-3.9.7,1,2.6.2,2.5-3.7,1.8-.4,2.7.3,1.9-4.1,2.6-2.5.5-1.9.1-3.6,4.6.1,39.9-5.8,59.6-12.7,2.1,5,3.7,6.7,2.5,2.5.6,2.4-2.5.2.8.6-.3,4.4-2.7,1.3-.6,2.2-1.3,3-3.8,1.7-2.5-.3-1.6-.2-1.7-1.3.3,1.3v1h2l.8,1.3-2,6.5h4.4l.6,1.7,2.4-2.4,1.3-.5-2,3.7-3.2,5h-1.3l-1.1-.5-2.8.6-5.4,2.5-6.7,5.5-3.5,4.9-2,6.7-.5,2.5-4.9.5-5.3,1.6Z"/><polygon class="cls-1" points="535.7 200 535.3 193.5 533.4 186 531.5 171.9 531 161.8 529.1 158.5 527.4 153 527.4 142.2 528 138.3 526.2 132.5 496.5 131.9 477.3 131.3 449.8 129.9 423.7 127.7 422.8 142.6 417.9 195.4 476.7 199.4 535.7 201.2 535.7 200"/><polygon class="cls-1" points="535 280.7 533.9 278.3 533.4 276.6 530.4 275 525.4 273.4 523.2 272.2 520.5 272.3 516.6 272.7 512.3 273.9 506.1 269.7 503.8 267.6 492.7 268.2 449.7 265.7 412.8 263.5 408.4 308.7 442.7 312.1 441.2 334 463.7 335 505.8 336.3 551.1 336.9 555.8 336.9 553.5 333.8 550.8 329.8 550.9 327.4 549.5 324.6 547.5 319.2 547.1 312.3 545.6 308 545.1 302.8 542.7 299 541.7 294.1 538.8 285.9 537.8 280.4 535 280.7"/><polygon class="cls-1" points="961.1 215.4 962.3 212.1 959.5 210.8 959 207.6 954.7 206.5 954.4 203.4 942.3 164.6 941.6 164.6 940.9 166.3 940.3 165.8 939.3 164.7 937.7 166.7 937.5 169.1 938 177.8 940 180.7 940 185.1 936 190.1 933.5 191.1 933.5 191.8 934.6 193.7 934.6 202.7 933.8 212.2 933.6 217.1 934.6 218.5 934.4 223.4 933.9 224.9 934.9 226.1 940.2 224.8 954.5 221.2 956.3 218.2 960.4 216.2 961.1 215.4"/><polygon class="cls-1" points="901 305.5 901.1 304 903.9 302.6 905.7 299.7 907.5 297.2 910.9 293.9 910.9 292.7 904.6 288.4 903.5 285.6 900.7 285.3 900.6 284.4 899.9 282.1 902.2 281 902.4 278 901 276.6 901.3 275.4 903.2 272.2 903.2 269 905.8 265.7 911.6 268.3 918.2 270.3 920.8 271.5 920.9 273.4 920.4 276.2 920.8 280.9 918.7 282.8 917.5 283.9 918 284.4 920.8 284.1 922 283.2 923.6 286.8 923.8 296.5 924.5 297.6 923.3 303.3 920.1 310.1 917.3 314.2 916.5 319.2 914.3 321.7 913.5 321.7 913.2 318.9 914 317.8 913.8 316.3 909.6 315.7 904.7 313.3 901.4 310.3 900.3 308.2 901 305.5"/><polygon class="cls-1" points="327.7 513.8 310.4 511.1 309.1 521.1 292.8 519 299 477.9 306.2 422.8 310.8 390.8 346 394.8 384.8 399.4 417.9 402.3 417.6 413.5 416.1 413.4 408.5 514.6 379.1 512.7 339.6 508.9 340.3 515.4 327.7 513.8"/><polygon class="cls-1" points="175.3 248.9 215.4 257.7 242.3 263 231.3 318.1 225.7 348.9 222.3 365 220.2 376.5 217.5 393.5 215.7 396.7 214 396.6 212.8 393.9 209.9 393.4 208.6 392.2 206.7 392.3 205.8 393.2 203.9 394.5 203.6 402.1 203.3 403.6 202.8 416.5 201.6 418.3 184.3 391.9 140.7 327.6 127.8 307.9 136.7 274.1 145 241.7 175.3 248.9"/><polygon class="cls-1" points="921.5 276.2 922 273.4 921.8 270.9 918.7 269.4 911.9 267.3 905.7 264.6 905.1 264.2 902.3 263.9 900.2 262.3 898 256.2 894.6 255.7 892.1 253.2 852.4 261.6 819.6 267.8 819.1 261.1 820.8 259.8 822.1 258.7 823.1 257 825 255.9 827 254 827.5 252.4 829.7 249.6 830.8 248.5 830.6 247.5 829.3 244.3 827.4 244.1 825.4 237.8 828.4 235.9 833 234.4 837.1 233 840.4 232.5 847 232.3 848.9 233.6 850.6 233.8 852.8 232.5 855.5 231.3 860.9 230.8 863 229 864.9 225.6 866.6 223.7 868.7 223.7 870.7 222.5 870.9 220.2 869.3 218 869 216.4 870.2 214.3 870.2 212.7 868.3 212.7 866.4 211.9 865.6 210.7 865.4 208 871.4 202.3 872 201.5 873.6 198.5 876.6 193.8 879.4 190 881.6 187.5 884.1 185.7 887.3 184.4 893 183.1 896.3 183.3 900.9 181.7 908.6 179.4 909.3 184.5 911.8 191.3 912.6 196.4 911.6 200.8 914.3 205.5 915.1 207.5 914.2 210.8 918 212.6 920.8 223.2 920.8 229.2 920.2 240.5 921 246.1 921.8 249.8 923.3 257.3 923.3 265.7 922.2 268.1 924.4 270.9 924.9 271.9 922.9 273.7 923.2 275.1 924.6 274.8 926.1 273.4 928.5 270.7 929.6 270.1 931.3 270.7 933.7 270.9 941.9 266.9 944.9 264.1 946.2 262.5 950.6 264.2 947 267.9 943 270.9 935.6 276.4 933 277.4 926.9 279.4 922.8 280.6 921.8 280.1 921.5 276.2"/><polygon class="cls-1" points="735.4 287.8 737.2 303.9 742.1 346.4 746.2 346.2 748.6 345.4 752.3 347.3 754.1 351.6 759.6 351.7 761.5 353.8 763.3 353.8 765.8 352.3 769 352.9 770.5 354.2 772.4 352.1 774.8 350.7 777.3 350.3 777.9 353.1 779.5 354.1 782.2 356.2 783.1 356.4 785.1 356.3 786.4 355.7 786.4 353.5 788.1 351.9 788.2 347 789.4 342.6 791.3 341.3 792.4 342 793.4 343.1 794.1 343.3 794.6 342.9 793.6 340.1 793.6 337.8 794.8 336.4 797.4 332.7 798.7 331.1 801 331.6 803.2 330.1 806.3 326.7 808.5 322.8 808.7 317.2 809.3 312 809.3 307.3 808 304 809.3 302.1 810.6 300.9 810 298 805.5 271.4 799.1 275.3 795.1 277.7 791.6 281.5 787.4 285.5 784.1 286.4 781.1 286.9 775.4 289.6 773.2 289.8 769.7 286.6 764.3 287.2 761.6 285.6 759.3 284.3 735.4 287.8"/><polygon class="cls-1" points="474.5 415.9 472.6 441.1 471.7 459.8 471.9 461.4 476 465.1 477.8 466.1 478.7 466.1 479.6 463.9 481.2 465.9 482.9 466 483.2 465.8 483.4 464.6 486.3 466.1 485.9 469.7 489.8 470.2 492.4 471.3 496.7 471.9 499.1 473.5 501.7 471.8 505.3 472.5 507.6 475.7 508.9 475.8 508.9 478.2 511 478.9 513.6 476.8 515.5 477.4 518.3 477.5 519 479.9 523.6 481.7 525.3 481.4 527.3 477.1 528.6 477.1 529.8 479.2 534.1 480.1 537.7 481.4 540.8 482.2 542.4 481.5 543.1 478.7 547.8 478.7 549.8 479.7 552.6 477.7 554 477.7 554.6 479.1 558.4 479.1 560.4 477.3 562.8 477.9 564.6 480.2 567.7 481.9 571.2 482.9 573.2 484.1 572.9 445.2 571.4 433.9 571.3 425 569.8 418.1 569.1 411.1 569.3 406.6 556.2 406.9 508.2 406.4 461.9 404.2 418.9 402.4 418.5 413.5 474.5 415.9"/><polygon class="cls-1" points="117.6 233.6 146.9 241.1 175.4 247.8 193 251.7 202.1 215.3 203.4 210.7 205.9 205 205.1 203.7 202.5 203.8 201.2 201.9 201.8 200.4 202.2 197 207.1 191.1 209.1 190.1 210 189.3 210.7 186.5 211.6 185.4 215.6 179.4 219.4 175.3 219.6 171.9 216.1 169.4 214.9 164.6 201.3 160.7 185.5 157.1 170.1 157.5 169 156.1 163.7 158 159 157.5 156.6 155.9 155.2 156.4 150.4 156.1 148.3 154.7 143.3 152.8 142.2 152.7 137.6 151.4 135.7 153 129.3 152.8 123.8 148.8 124 139.2 121.8 135.5 117.6 134.9 116.9 132.3 114.4 131.8 108.4 134 106 140.7 102.7 151.1 99.4 157.8 94.2 172.4 87.5 186.5 79.1 199.5 77.1 202.6 76.3 211.5 74.9 217.7 77.7 221.3 117.6 233.6"/><polygon class="cls-1" points="810.8 268.1 812.2 267.6 818.1 261.9 818.8 269.1 853.5 262.3 891.7 254.2 894.1 256.6 897.3 257 899.4 262.8 901.9 264.8 904.8 265.2 904.9 265.3 902.2 268.6 902.2 271.9 900.2 275.1 900 277 901.4 278.4 901.1 280.3 898.7 281.5 899.7 285 899.9 286.1 902.8 286.5 903.7 289 909.9 293.1 909.9 293.5 906.6 296.6 905.1 298.9 903.3 301.8 900.5 303 899.1 303.3 896.9 304.7 895.2 306.1 872 310.6 832 318.7 820.2 320.1 816.2 320.8 810.9 297.6 806.5 270.8 810.8 268.1"/><polygon class="cls-1" points="952.7 251 951.9 246.5 950.3 240.3 956.2 238.7 957.7 240 961.2 244.5 964.1 249.1 961.2 250.5 959.9 250.3 958.7 252.2 956.3 254.1 953.4 255.3 952.7 251"/><polygon class="cls-1" points="834 497.5 831.8 496.4 829.9 490.6 827.3 488.2 824.7 487.7 823.1 483 820 476.2 815.7 474.4 813.7 472.5 812.5 469.8 810 467.7 807.6 466.4 805.3 463.4 802 460.9 797.5 459.1 797 457.7 794.7 454.8 794.1 453.2 790.2 447.6 786.7 447.7 782.6 445.2 781.4 443.9 781.2 442.5 781.8 440.8 784.6 439.5 783.8 437.4 790.4 434.6 799.9 429.9 807.3 429 824.3 428.5 826.7 430.4 828.5 434.1 833.3 433.2 846.4 431.7 849.1 432.5 862.1 440.2 872.6 448.8 867.1 454.4 864.4 460.7 863.9 467.2 862.2 468 861.1 470.8 858.6 471.5 856.4 475.2 853.6 478 851.2 481.5 849.6 482.3 845.8 485.9 842.8 486.1 843.9 489.4 838.7 494.9 836.3 496.5 834 497.5"/><polygon class="cls-1" points="535.7 256.6 534.8 259.9 535.2 263 537.9 265.1 536.6 270.7 534.8 275 536.3 278.4 537 279.5 535.7 279.6 535 278 534.3 275.9 530.9 274 525.9 272.5 523.4 271.1 520.4 271.2 516.3 271.6 512.4 272.9 506.9 269 504.1 266.5 492.8 267.3 449.8 264.8 412.9 262.5 414.5 236.8 417.4 201.6 417.8 196.4 476.7 200.5 535.7 202.2 535.7 205 534.3 206.6 532.3 208.1 532.2 210.4 533.3 212.7 537.6 216.2 538.1 219 538.1 256.2 535.7 256.6"/><polygon class="cls-1" points="742.7 441.5 729.1 442.8 705 445.1 666 447.9 653.8 448.3 654.7 447.6 655.6 443 654.4 439.3 658.4 436.9 658.9 434.3 660.1 429.8 663.2 420 663.7 414.2 664 414 676.8 413.8 690.9 412.9 691 408.9 694.6 408.8 726.1 405.4 782 400 792.7 398.4 800.6 398.2 803.1 396.3 804.4 396.6 804.3 400 803.9 401.6 801.4 403.9 799.7 407.7 797.7 407.2 795.2 408.2 792.9 411.6 791.4 411.4 790.6 410.1 789.5 410.6 785 414.7 784.2 417.9 779.8 420.2 775.4 423.9 771.5 425.5 766.9 428.4 766.3 432.1 763.7 432.6 761.6 434.4 761.4 439.4 742.7 441.5"/><polygon class="cls-1" points="340.7 509.9 379.1 513.6 409.4 515.6 417.1 414.4 473.4 416.9 471.7 441 470.6 459.7 470.8 461.7 475.4 466 477.5 467.1 479.3 467.1 479.9 465.9 480.6 466.8 483.1 467 484.2 466.4 484.2 466.2 485.2 466.7 484.8 470.5 489.5 471.3 492 472.2 496.3 472.9 499 474.8 501.9 472.8 504.7 473.4 507 476.6 507.8 476.8 507.8 478.9 511.2 480.1 513.8 477.9 515.4 478.4 517.6 478.5 518.2 480.7 523.6 482.8 526 482.2 527.9 478.1 528 478.1 529.2 480.1 533.9 481 537.4 482.3 540.8 483.4 543.3 482.1 544 479.8 547.7 479.8 549.9 480.8 553 478.7 553.4 478.7 553.9 480.2 558.8 480.2 560.8 478.3 562.1 478.7 563.9 480.9 567.3 482.9 570.8 483.9 573.4 485.3 576.2 487.4 579.4 486.2 581.6 487 582.3 507.7 583 517.6 583.6 521.8 586.3 526.4 587.3 531 591.6 537.1 591.9 540.4 592.6 541.2 591.8 549.2 588.8 554.1 590.2 556.8 589.7 559.3 588.8 566.8 587.5 569.9 587.8 574.2 582 575.9 571.7 580.5 570.7 582.5 568 584.5 565.8 586 564.5 586.9 558.6 592.4 555.8 594.5 550.3 597.8 544.4 600.3 537.9 603.9 536 605.4 530 609.1 526.5 609.8 522.4 615.5 518.3 615.8 517.2 617.7 519.6 619.7 518.1 625.4 516.7 630.1 515.6 634.1 514.8 638.8 515.6 641.2 517.5 648.5 518.5 654.8 520.4 657.6 519.3 659.2 516.1 661.1 510.2 657.1 504.5 656 503.2 656.5 499.8 655.9 495.5 652.6 490.1 651.5 482.2 648 480.1 643.9 478.7 637.2 475.4 635.2 474.8 632.9 475.4 632.2 475.7 628.7 474.4 628.1 473.7 627.1 475.1 622.5 473.4 620.1 470.1 618.8 466.6 614.2 462.9 607.4 458.5 604.7 458.7 602.7 453.2 590 452.4 585.6 450.5 583.7 450.3 582.1 444.1 576.6 441.4 573.4 441.4 572.3 438.7 570.1 431.7 568.9 424 568.3 420.8 565.9 416.1 567.8 412.4 569.4 410 572.7 409 576.5 404.4 582.8 402 585.3 399.3 584.3 397.4 583.1 395.4 582.5 391.4 580.1 391.4 579.5 389.5 577.5 384.1 575.4 376.5 567.3 374.1 562.4 374.1 554 370.8 547.3 370.3 544.5 368.6 543.5 367.5 541.3 362.3 539.1 360.9 537.5 353.6 529.3 352.2 526 347.4 523.6 345.8 519 343.1 516 341.4 515.5 340.7 509.9"/><polygon class="cls-1" points="284.4 385.9 309.9 389.6 311.8 375.4 319.1 323.1 321.5 300.3 288.1 296.7 290.4 283.1 292.3 272.2 256.3 265.8 243.4 263.3 232.4 318.1 226.8 349.1 223.4 365.1 221.6 374.6 284.4 385.9"/><path class="cls-1" d="M850,389.9l-40,5.8-5-.1-2.3-.3-2.6,2-7.6.1-10.7,1.7-6.9.6,4.2-2.7,4.2-2.4v-2.2l5.9-7.6,4.2-3.8,2.3-2.6,3.7,4.5,3.9.9,2.8-1,2.1-1.6,2.5,1.2,4.8-1.3,1.8-4.6,2.5.7,3.3-2.4,1.7.4,2.9-3.3.2-2.8-.8-1.2,5-10.9,1.9-5.4.5-4.9.7-.2,1.1,1.8,1.6,1.2,4-.2,1.8-8.4,3.1-.6.8-2.7,2.9-2.3,1.1-2.2,1.9-4.5.1-4.8,3.7,1.5,6.8,3.2.3-5.4,3.5,1.2-.6,3,8.9,3.2,1.5,1.9-.8,3.4-1.3,1.3-.5,1.8.5,2.5,2.1,1.3,4,1.5,3,1,5.1.9,2.3,2.2,3.3.4.9,1.2-.4,4.9,1.5,1.1-.5,2,1.2.8-.2,1.5-2.8-.1.1,1.7,2.4,1.6.1,1.4,1.9,1.9.5,2.6-2.7,1.5,1.7,1.6,6-1.8,3.8,6.4Zm62.4-46.2-.2,2.9-3,3.9-.4,4.8.5,3.5-1.9,5.2-2.3,2-1.6-4.8.4-5.6,1.7-4.4.7-3.4-.1-1.8Z"/><polygon class="cls-1" points="910.4 184.3 912.9 191.1 913.7 196.5 912.6 200.6 915.2 205.1 916.2 207.5 915.4 210.2 918.9 211.8 921.9 223 921.9 228.4 933.8 226.3 932.7 225.1 933.4 223.2 933.6 218.7 932.5 217.3 932.7 212.4 933.6 202.8 933.6 194 932.4 192.1 932.4 190.4 935.3 189.3 939 184.7 939 181 937 178.2 936.7 172.2 909.6 179.2 910.4 184.3"/><path class="cls-1" d="M134.9,81.8l2.1-.2.5,1.5,1.6-1.7h2.4l.8,1.6-1.6,1.8.6.8-.7,2.1-1.5.4s-.9.1-.9-.2a21.42,21.42,0,0,1,1.6-2.7l-1.8-.6-.3,1.6-.7.6-1.6-2.4ZM125,139.2l-2.4-4.5-4.2-.7-.4-2.5-2.6-.6-3-.5-1.9,1-2.4-3,.3-3,2.8-.3,1.7-4.1-2.7-1.1.2-3.8,4.6-.6-2.8-2.8-1.6-7.4.6-3V94l-1.9-3.3,2.4-9.7,2.2.5,2.5,3,2.8,2.7,3.3,2,4.7,2.2,3.2.6,3,1.6,3.5,1,2.4-.2V91.9l1.3-1.1,2.2-1.3.3,1.1.3,1.9L141,93l-.3,2.2,1.9,1.6,1.1,2.5.6,2,1.6-.2.2-1.3-1-1.3-.5-3.3.8-1.9-.6-1.6V89l1.9-3.7-1.1-2.7-2.5-5,.3-.8,1.5-.8,4.6,1.6,10,2.8,8.9,2,20.7,5.9,23.8,5.9,15.5,3.6-5,18.2-4.7,21.6-3.5,16.8-.4,9.5L201.4,160l-15.8-3.6-15,.3-1.1-1.6-5.9,2.2-4-.4-2.7-1.9-1.8.7-4.3-.3L149,154l-5.3-1.9-1.2-.2-5-1.4-2,1.7-5.9-.3-4.8-3.5Z"/><polygon class="cls-1" points="608.6 182.9 611.6 183.4 614.6 182.8 622.3 179.4 625.3 177.5 627.5 176.7 629.4 178.2 628.3 179.3 626.3 182.6 625.7 184.5 626.7 185.1 628.6 184.1 629.7 183.9 632.5 184.7 633.2 185.9 634.3 186.1 634.9 184.9 639.1 190.4 647.6 191.7 656.1 194 658.8 195.1 671.5 197.8 673.1 200.2 676.9 201.4 678.6 212 680.3 213.4 681.9 214.4 680.7 216.7 678.8 218.4 676.7 223.3 675.3 225.8 675.5 227.6 677.1 227.9 678.2 226 679.8 225.1 680.6 222.8 682.6 220.9 685.4 216.7 689.7 210.2 690.6 209.7 690.9 210.7 690.7 213.1 687.7 220.2 684.9 226.1 684.3 229.4 683.7 232.1 684.5 233.4 684.3 236.2 682.4 238.7 681.9 240.6 682.5 244.3 683.1 247.8 681.5 250.5 680.7 253.5 679.7 256.7 680.8 259.2 681.4 265.5 683.1 270.2 682.9 273.3 666.4 275.2 648.3 276.2 635.1 276.2 634.4 274.6 631.4 274.2 628.7 272.9 626.3 269.1 626 265.3 628.1 262.3 627.6 260.9 625.4 258.6 624.6 255.2 623.9 248.1 621.8 245.5 614.5 240.9 610.6 235.3 607.1 234.2 604.8 231.3 601.5 231.3 598.5 227.9 597.9 221.2 598 217.3 599.6 214 598.8 210.7 596.2 207.8 598 202.2 603.4 198.3 605.1 196.3 604.9 187.9 605.1 185 607.6 182.1 608.6 182.9"/><polygon class="cls-1" points="833.9 332.5 839.9 326.2 842.6 325.4 844.3 323.9 845.8 321.6 847 321.9 850.2 321.7 854.9 317.9 856.5 317.4 857.9 318.5 860.5 319.7 863.7 322.8 863.2 327.3 857.6 324.6 852.7 322.7 852.6 328.8 849.9 334.7 846.9 337.2 846 339.6 842.9 340.1 841.2 348.5 838.3 348.7 837.1 347.7 835.9 345.6 833.6 346.1 833.1 351.4 831.2 356.7 826 368.1 827 369.5 826.9 371.6 824.6 374.2 822.9 373.8 819.7 376.2 816.8 375.3 815 380.4 811 381.4 808.4 380.1 805.8 382.1 803.5 382.8 800.2 382 796.2 377.3 792.6 375 790 372.4 787 368.6 786.5 366.2 783.6 364.5 783 363.1 782.7 357.3 783.1 357.4 785.5 357.2 787.4 356.2 787.4 353.9 789.2 352.3 789.3 347 790.2 343.2 791.3 342.5 791.8 342.8 792.8 343.9 794.6 344.5 795.7 343.1 794.7 339.9 794.7 338.3 797.9 333.5 799.1 332.1 801.2 332.7 803.9 330.8 807.1 327.3 809.6 323 809.8 317.2 810.3 312.3 810.3 307.2 809.2 304.1 810.1 302.7 810.9 302 815.4 322 819.8 321.2 831.4 319.8 833.9 332.5"/><polygon class="cls-1" points="413.5 236.7 411.9 263 407.3 308.6 404.5 308.3 318.3 298.9 289.4 295.8 291.4 283.4 298.6 240.9 302.5 215.8 303.9 204.2 353.8 211.5 415 218.2 413.5 236.7"/><polygon class="cls-1" points="878.4 331.9 877.2 330.3 876.2 329.4 877.3 327.8 879.6 329.3 878.4 331.9"/><path class="cls-2" d="M261.5,591.8v55M113,523.8h80.4l68,68h85l54,54"/><path class="cls-3" d="M859.2,392a2233,2233,0,0,0-698.1,0V322.8a2233,2233,0,0,1,698.1,0Z"/><path class="cls-4" d="M198.3,351.9c-3,.4-6,.9-9,1.3v6.1l10.6-1.5v3.8c-5.1.7-10.2,1.4-15.2,2.2V341c5.1-.7,10.1-1.5,15.2-2.2v3.8l-10.5,1.5v5.4c3-.4,6-.9,9-1.3C198.3,349.4,198.3,350.7,198.3,351.9Z"/><path class="cls-4" d="M206.8,343.6c0,.6.1,1.3.1,1.9a6.51,6.51,0,0,1,4.9-2.9c1.8-.2,3.1.1,4,1s1.3,2.5,1.3,4.6v11l-4.5.6V348.9a2.65,2.65,0,0,0-.6-2,2.57,2.57,0,0,0-2.1-.4,3.77,3.77,0,0,0-2.9,2v12l-4.5.6v-17C203.9,344,205.3,343.8,206.8,343.6Z"/><path class="cls-4" d="M228.6,358a7.75,7.75,0,0,1-6.1-1.5c-1.6-1.3-2.3-3.3-2.3-5.8v-.4a10.44,10.44,0,0,1,1-4.7,9.66,9.66,0,0,1,2.8-3.5,8.63,8.63,0,0,1,4.1-1.6,6.4,6.4,0,0,1,5.5,1.5c1.3,1.3,2,3.3,2,6v1.9c-3.6.4-7.2.9-10.8,1.4a3.61,3.61,0,0,0,1.3,2.5,3.31,3.31,0,0,0,2.8.6A5.68,5.68,0,0,0,233,352l2.2,2.2a8.79,8.79,0,0,1-2.8,2.6A11.3,11.3,0,0,1,228.6,358Zm-.5-13.9a3.25,3.25,0,0,0-2.2,1.2,5.51,5.51,0,0,0-1.1,2.8c2.1-.3,4.2-.5,6.3-.8v-.4a2.79,2.79,0,0,0-.8-2.2A2.55,2.55,0,0,0,228.1,344.1Z"/><path class="cls-4" d="M248,342.6a7.59,7.59,0,0,0-1.6.1,4,4,0,0,0-3.4,2.1v11.1c-1.5.2-3,.4-4.5.5v-17c1.4-.2,2.8-.3,4.3-.5,0,.7.1,1.3.1,2a4.87,4.87,0,0,1,3.8-2.8,6.53,6.53,0,0,1,1.4,0C248,339.7,248,341.2,248,342.6Z"/><path class="cls-4" d="M250.8,355V332.2l8-.9q4.2-.45,6.3.9a4.87,4.87,0,0,1,2.1,4.4,5.86,5.86,0,0,1-.9,3.1,6.11,6.11,0,0,1-2.4,2.1,4.53,4.53,0,0,1,2.8,1.5,4.72,4.72,0,0,1,1,3.2,6.71,6.71,0,0,1-2.1,5.2,10.32,10.32,0,0,1-6,2.4C256.7,354.3,253.8,354.7,250.8,355Zm4.7-13.8c1.2-.1,2.3-.3,3.5-.4,2.4-.3,3.6-1.4,3.6-3.2a2.34,2.34,0,0,0-.9-2.1,4.48,4.48,0,0,0-2.8-.4c-1.1.1-2.2.2-3.3.4C255.5,337.4,255.5,339.3,255.5,341.2Zm0,3.3v6.2c1.3-.2,2.7-.3,4-.5a4.16,4.16,0,0,0,2.6-1.1,3.17,3.17,0,0,0,.9-2.3c0-2.1-1.1-3-3.2-2.8C258.4,344.2,256.9,344.4,255.5,344.5Z"/><path class="cls-4" d="M281.1,351.7a5.27,5.27,0,0,1-.5-1.5,6.34,6.34,0,0,1-4.3,2.3,5.52,5.52,0,0,1-4.1-1,4.06,4.06,0,0,1-1.6-3.5,5.56,5.56,0,0,1,2-4.4,11,11,0,0,1,5.8-2.1c.7-.1,1.4-.1,2.1-.2v-1a2.44,2.44,0,0,0-.6-1.8,2.19,2.19,0,0,0-1.9-.5,3,3,0,0,0-1.8.7,2.18,2.18,0,0,0-.7,1.6c-1.5.2-3,.3-4.5.5a4.9,4.9,0,0,1,.9-2.8,6.27,6.27,0,0,1,2.6-2.2,9.36,9.36,0,0,1,3.7-1.1,6.72,6.72,0,0,1,5,1.1A4.91,4.91,0,0,1,285,340v7.4a7,7,0,0,0,.7,3.6v.3C284.2,351.4,282.6,351.5,281.1,351.7Zm-3.7-2.8a4.78,4.78,0,0,0,1.8-.6,4,4,0,0,0,1.3-1.3v-2.9c-.6.1-1.1.1-1.7.2q-3.45.3-3.6,2.7v.3a1.49,1.49,0,0,0,.6,1.3A1.94,1.94,0,0,0,277.4,348.9Z"/><path class="cls-4" d="M293,333.5c0,.6.1,1.3.1,1.9a6.3,6.3,0,0,1,4.9-2.7,4.36,4.36,0,0,1,4,1.2c.9,1,1.3,2.5,1.3,4.6v11c-1.5.1-3,.3-4.5.4V339a2.65,2.65,0,0,0-.6-2,3,3,0,0,0-2.1-.5,3.66,3.66,0,0,0-2.9,1.9v12c-1.5.1-3,.3-4.5.4v-17C290.1,333.8,291.6,333.6,293,333.5Z"/><path class="cls-4" d="M313.3,341.8c-.5.6-1.1,1.2-1.6,1.8v5.2c-1.5.1-3,.3-4.5.4V325.1c1.5-.1,3-.3,4.5-.4V338l.9-1.2,4.3-5.5c1.8-.2,3.6-.3,5.4-.5l-6.1,7.6c2.2,3.1,4.4,6.2,6.7,9.3-1.7.1-3.5.3-5.2.4C316.2,346.1,314.7,343.9,313.3,341.8Z"/><path class="cls-4" d="M352,334.6a14.61,14.61,0,0,1-1.2,6,10.07,10.07,0,0,1-3.4,4.2,11.15,11.15,0,0,1-5.1,1.8,9.55,9.55,0,0,1-5.1-1,8.69,8.69,0,0,1-3.5-3.6,12.61,12.61,0,0,1-1.2-5.7v-1.1a14.28,14.28,0,0,1,1.2-6,10.21,10.21,0,0,1,3.4-4.2,11.15,11.15,0,0,1,5.1-1.8,9.55,9.55,0,0,1,5.1,1,7.69,7.69,0,0,1,3.4,3.7,13.36,13.36,0,0,1,1.2,5.8A2.48,2.48,0,0,1,352,334.6Zm-4.8-.7c0-2.4-.4-4.2-1.3-5.4a4,4,0,0,0-3.7-1.6,4.6,4.6,0,0,0-3.7,2.1,9.52,9.52,0,0,0-1.3,5.5v1.1a8.84,8.84,0,0,0,1.3,5.3,3.76,3.76,0,0,0,3.7,1.6,4.29,4.29,0,0,0,3.6-2.1,10.38,10.38,0,0,0,1.3-5.5A3.08,3.08,0,0,0,347.2,333.9Z"/><path class="cls-4" d="M356.7,345.2V331.6c-.8.1-1.7.1-2.5.2v-3.3c.8-.1,1.7-.1,2.5-.2v-1.4a6.05,6.05,0,0,1,1.6-4.5,6.72,6.72,0,0,1,4.6-1.9,10.18,10.18,0,0,1,2.3.2v3.5a5.72,5.72,0,0,0-1.4-.1,2.41,2.41,0,0,0-2.6,2.6v1.4c1.1-.1,2.3-.1,3.4-.2v3.3c-1.1.1-2.3.1-3.4.2V345C359.7,345,358.2,345.1,356.7,345.2Z"/><path class="cls-4" d="M368.6,344.4V330.8c-.8.1-1.7.1-2.5.2v-3.3c.8-.1,1.7-.1,2.5-.2v-1.4a6.05,6.05,0,0,1,1.6-4.5,7.21,7.21,0,0,1,4.6-1.9,10.18,10.18,0,0,1,2.3.2v3.5a5.72,5.72,0,0,0-1.4-.1,2.41,2.41,0,0,0-2.6,2.6v1.4c1.1-.1,2.3-.1,3.4-.2v3.3c-1.1.1-2.3.1-3.4.2v13.6C371.6,344.2,370.1,344.3,368.6,344.4Z"/><path class="cls-4" d="M387,343.6a8.31,8.31,0,0,1-6.1-1.9c-1.6-1.4-2.3-3.4-2.3-6v-.4a10,10,0,0,1,1-4.6,7.8,7.8,0,0,1,6.9-4.6A6.78,6.78,0,0,1,392,328a8.61,8.61,0,0,1,2,6.1V336l-10.8.6a3.84,3.84,0,0,0,1.3,2.6,3.75,3.75,0,0,0,2.8.8,5.36,5.36,0,0,0,4.1-2.1c.7.8,1.5,1.6,2.2,2.4a7.32,7.32,0,0,1-2.8,2.4A11.16,11.16,0,0,1,387,343.6Zm-.5-13.9a3.47,3.47,0,0,0-2.2,1,4.81,4.81,0,0,0-1.1,2.7c2.1-.1,4.2-.2,6.3-.4v-.4a3.2,3.2,0,0,0-.8-2.3A3,3,0,0,0,386.5,329.7Z"/><path class="cls-4" d="M406.5,329.6a4.27,4.27,0,0,0-1.6,0,3.64,3.64,0,0,0-3.4,1.9v11.1c-1.5.1-3,.1-4.5.2v-17c1.4-.1,2.9-.1,4.3-.2,0,.7.1,1.3.1,2a4.51,4.51,0,0,1,3.8-2.5,6.15,6.15,0,0,1,1.4.1C406.5,326.7,406.5,328.1,406.5,329.6Z"/><path class="cls-4" d="M418.2,337.1a1.44,1.44,0,0,0-.8-1.3,8.45,8.45,0,0,0-2.6-.7c-4-.7-6.1-2.3-6.1-4.9a4.91,4.91,0,0,1,1.9-3.9,7.84,7.84,0,0,1,4.9-1.7,7.64,7.64,0,0,1,5.2,1.3,4.65,4.65,0,0,1,1.9,3.9c-1.5.1-3,.1-4.5.2a2.27,2.27,0,0,0-.6-1.6,2.81,2.81,0,0,0-2-.6,2.44,2.44,0,0,0-1.8.6,1.76,1.76,0,0,0-.6,1.3,1.31,1.31,0,0,0,.7,1.2,7.73,7.73,0,0,0,2.4.7c1.1.2,2.1.4,2.9.6,2.4.8,3.6,2.3,3.6,4.4a4.7,4.7,0,0,1-2,3.8,8.47,8.47,0,0,1-5.2,1.6,7.82,7.82,0,0,1-3.8-.6,5.88,5.88,0,0,1-2.6-2,4.9,4.9,0,0,1-.9-2.8c1.4-.1,2.9-.1,4.3-.2a2,2,0,0,0,.9,1.8,3.16,3.16,0,0,0,2.2.5,3,3,0,0,0,2-.6C418,338.1,418.2,337.6,418.2,337.1Z"/><path class="cls-4" d="M453.3,329.7a14,14,0,0,1-1,5.6,10.5,10.5,0,0,1-2.9,3.9l3.8,2.9-3,2.7c-1.6-1.3-3.3-2.5-4.9-3.8a9.85,9.85,0,0,1-1.7.2,8.79,8.79,0,0,1-5.1-1.2,9.23,9.23,0,0,1-3.5-3.8,13.36,13.36,0,0,1-1.2-5.8v-1.1a14.61,14.61,0,0,1,1.2-6,10.57,10.57,0,0,1,3.4-4.1,9,9,0,0,1,5.1-1.5,9.63,9.63,0,0,1,5.1,1.2,9,9,0,0,1,3.4,3.8,13.82,13.82,0,0,1,1.2,5.9A4.48,4.48,0,0,1,453.3,329.7Zm-4.8-.9c0-2.4-.4-4.2-1.3-5.4a4.33,4.33,0,0,0-3.7-1.8,4.27,4.27,0,0,0-3.7,2,9.39,9.39,0,0,0-1.3,5.4v1.1a9.39,9.39,0,0,0,1.3,5.4,3.9,3.9,0,0,0,3.7,1.8,4,4,0,0,0,3.6-2,10.38,10.38,0,0,0,1.3-5.5A3.08,3.08,0,0,0,448.5,328.8Z"/><path class="cls-4" d="M466.9,338.6a6.45,6.45,0,0,1-8.9.6,6.21,6.21,0,0,1-1.5-4.6V323.5c1.5,0,3-.1,4.5-.1v11c0,1.8.8,2.6,2.4,2.6a3.39,3.39,0,0,0,3.2-1.7v-12c1.5,0,3-.1,4.6-.1v17c-1.4,0-2.9.1-4.3.1A4.85,4.85,0,0,0,466.9,338.6Z"/><path class="cls-4" d="M485,340a5.27,5.27,0,0,1-.5-1.5,6.21,6.21,0,0,1-8.4.5,4.38,4.38,0,0,1-1.6-3.6,5,5,0,0,1,2-4.2,9.55,9.55,0,0,1,5.8-1.5h2.1v-1a2.88,2.88,0,0,0-.6-1.9,2.23,2.23,0,0,0-1.9-.7,2.44,2.44,0,0,0-1.8.6,2.13,2.13,0,0,0-.7,1.5c-1.5,0-3,0-4.5.1a4.39,4.39,0,0,1,.9-2.7,6.7,6.7,0,0,1,2.6-2,11.1,11.1,0,0,1,3.7-.8,7.65,7.65,0,0,1,5,1.5,5.45,5.45,0,0,1,1.8,4.4v7.4a7,7,0,0,0,.7,3.6v.3Zm-3.8-3.1a4.14,4.14,0,0,0,1.9-.5,3,3,0,0,0,1.3-1.2v-2.9h-1.7q-3.45,0-3.6,2.4v.3a1.82,1.82,0,0,0,.6,1.4A1.72,1.72,0,0,0,481.2,336.9Z"/><path class="cls-4" d="M497.5,339.9h-4.6V315.8h4.6Z"/><path class="cls-4" d="M501.5,318.5a2.19,2.19,0,0,1,.7-1.7,2.94,2.94,0,0,1,1.9-.7,2.49,2.49,0,0,1,1.9.7,2.41,2.41,0,0,1,0,3.4,2.87,2.87,0,0,1-1.8.7,2.14,2.14,0,0,1-1.8-.7A2,2,0,0,1,501.5,318.5Zm4.9,21.4h-4.6v-17h4.6Z"/><path class="cls-4" d="M515.9,318.7v4.2h2.9v3.3h-2.9v8.5c0,.6.1,1.1.4,1.3s.7.4,1.4.4a4.89,4.89,0,0,0,1.3-.1v3.4a8.63,8.63,0,0,1-2.8.4c-3.2,0-4.8-1.6-4.9-4.8v-9.1h-2.5v-3.3h2.5v-4.2Z"/><path class="cls-4" d="M528,333.5c1-3.5,2.1-7,3.1-10.5,1.6,0,3.3,0,4.9.1-2.3,6.5-4.6,13-6.8,19.5-.1.3-.3.6-.4.9a5.16,5.16,0,0,1-5,3.3,6.93,6.93,0,0,1-2-.3v-3.4h.7a3.16,3.16,0,0,0,1.9-.4,2.68,2.68,0,0,0,1-1.3,7.84,7.84,0,0,0,.5-1.4l-6-17.1h4.9C525.9,326.5,527,330,528,333.5Z"/><path class="cls-4" d="M558.7,334.4a2.58,2.58,0,0,0-.9-2.1,13.6,13.6,0,0,0-3.4-1.6c-1.6-.6-2.9-1.1-3.9-1.6-2.6-1.4-3.9-3.4-3.9-5.7a5.58,5.58,0,0,1,1-3.3,6.22,6.22,0,0,1,3-2.2,11.83,11.83,0,0,1,8.8.3,7,7,0,0,1,3,2.6,6.71,6.71,0,0,1,1.1,3.7c-1.6,0-3.1-.1-4.7-.1a3.17,3.17,0,0,0-1-2.5,4.1,4.1,0,0,0-2.8-.9,4.15,4.15,0,0,0-2.7.7,2.25,2.25,0,0,0,.1,3.8,17.46,17.46,0,0,0,3.3,1.5,16.08,16.08,0,0,1,5.9,3.1,6.11,6.11,0,0,1,1.8,4.5,5.55,5.55,0,0,1-2.2,4.6,10,10,0,0,1-6.1,1.6,10.61,10.61,0,0,1-4.8-1.1A8.17,8.17,0,0,1,547,337a6.39,6.39,0,0,1-1.1-3.9c1.6,0,3.2.1,4.7.1q0,3.75,4.5,3.9a4.76,4.76,0,0,0,2.6-.6A2.64,2.64,0,0,0,558.7,334.4Z"/><path class="cls-4" d="M574.5,341.1a8.69,8.69,0,0,1-6.1-2.5,8.29,8.29,0,0,1-2.4-6.2V332a9.33,9.33,0,0,1,1-4.5,7.39,7.39,0,0,1,2.8-3,8,8,0,0,1,4.1-1,7.43,7.43,0,0,1,5.5,2.4,9.33,9.33,0,0,1,2,6.3v1.9l-10.8-.3a4.32,4.32,0,0,0,1.3,2.7,3.93,3.93,0,0,0,2.8,1.1,4.47,4.47,0,0,0,4.1-1.8c.7.9,1.5,1.7,2.2,2.6a6.89,6.89,0,0,1-2.8,2.2A10.36,10.36,0,0,1,574.5,341.1Zm-.6-13.9a2.94,2.94,0,0,0-2.2.9,4.79,4.79,0,0,0-1.1,2.6c2.1.1,4.2.1,6.3.2v-.4a3.65,3.65,0,0,0-.8-2.4A2.66,2.66,0,0,0,573.9,327.2Z"/><path class="cls-4" d="M593.9,328.7a11.55,11.55,0,0,0-1.6-.2,3.3,3.3,0,0,0-3.4,1.6v11.1c-1.5-.1-3-.1-4.5-.2V324c1.4,0,2.9.1,4.3.1,0,.7.1,1.4.1,2a4,4,0,0,1,3.8-2.2,3.19,3.19,0,0,1,1.4.3C594,325.8,593.9,327.3,593.9,328.7Z"/><path class="cls-4" d="M602.8,336.3c1.1-3.8,2.1-7.5,3.2-11.3,1.6.1,3.2.1,4.7.2-1.9,5.6-3.8,11.1-5.7,16.7-1.4-.1-2.9-.1-4.3-.2-1.9-5.7-3.8-11.5-5.7-17.2,1.6.1,3.2.1,4.7.2C600.7,328.6,601.7,332.4,602.8,336.3Z"/><path class="cls-4" d="M613,320.9a1.86,1.86,0,0,1,.7-1.6,2.88,2.88,0,0,1,1.9-.6,2.94,2.94,0,0,1,1.9.7,2.41,2.41,0,0,1,0,3.4,2.79,2.79,0,0,1-1.8.6,2.48,2.48,0,0,1-1.8-.7A2,2,0,0,1,613,320.9Zm4.8,21.6c-1.5-.1-3-.1-4.6-.2v-17c1.5.1,3,.1,4.6.2Z"/><path class="cls-4" d="M629,339.7a2.67,2.67,0,0,0,2-.6,2.2,2.2,0,0,0,.8-1.8c1.4.1,2.8.2,4.3.2a5.61,5.61,0,0,1-.9,3.1,6.41,6.41,0,0,1-2.5,2.1,7.22,7.22,0,0,1-3.6.6,8.07,8.07,0,0,1-5.8-2.6,9.58,9.58,0,0,1-2.1-6.5v-.3a8.79,8.79,0,0,1,2.1-6.2,6.64,6.64,0,0,1,5.7-2,7.43,7.43,0,0,1,5.1,2.1,7,7,0,0,1,2,4.9c-1.4-.1-2.8-.2-4.3-.2a3.29,3.29,0,0,0-.8-2.2,2.58,2.58,0,0,0-2.1-.9,2.5,2.5,0,0,0-2.4,1,6.76,6.76,0,0,0-.8,3.7v.5a7.41,7.41,0,0,0,.8,3.8A3.26,3.26,0,0,0,629,339.7Z"/><path class="cls-4" d="M646.8,344.4a8.87,8.87,0,0,1-6.1-2.7,8.37,8.37,0,0,1-2.3-6.2v-.4a9.33,9.33,0,0,1,1-4.5,6.56,6.56,0,0,1,2.8-2.9,7.06,7.06,0,0,1,4.1-.8,7.51,7.51,0,0,1,5.5,2.5,9.61,9.61,0,0,1,2,6.4v1.9c-3.6-.2-7.2-.5-10.8-.7a4.32,4.32,0,0,0,1.3,2.7,4.49,4.49,0,0,0,2.8,1.2,4.68,4.68,0,0,0,4.1-1.6c.7.9,1.5,1.8,2.2,2.6a6.69,6.69,0,0,1-2.8,2.1A11.39,11.39,0,0,1,646.8,344.4Zm-.5-14a2.54,2.54,0,0,0-2.2.8,4.48,4.48,0,0,0-1.1,2.6c2.1.1,4.2.3,6.3.4v-.4a3.65,3.65,0,0,0-.8-2.4A3,3,0,0,0,646.3,330.4Z"/><path class="cls-4" d="M683.9,346.7c-1.6-.1-3.1-.2-4.7-.4-3.1-5.2-6.1-10.5-9.2-15.7v15l-4.7-.3V322.5l4.7.3c3.1,5.2,6.1,10.5,9.2,15.7V323.4c1.6.1,3.1.2,4.7.4Z"/><path class="cls-4" d="M697.9,347.8a5,5,0,0,1-.5-1.6,5.32,5.32,0,0,1-4.3,1.5,6,6,0,0,1-4.1-1.8,4.92,4.92,0,0,1-1.6-3.8,4.55,4.55,0,0,1,2-4c1.3-.9,3.3-1.2,5.8-1,.7.1,1.4.1,2.1.2v-1a2.88,2.88,0,0,0-.6-1.9,2.64,2.64,0,0,0-1.9-.9,2.43,2.43,0,0,0-1.8.4,1.81,1.81,0,0,0-.7,1.5c-1.5-.1-3-.2-4.5-.4a4.39,4.39,0,0,1,.9-2.7,5.54,5.54,0,0,1,2.6-1.8,9,9,0,0,1,3.7-.4,7.86,7.86,0,0,1,5,2,6.18,6.18,0,0,1,1.8,4.6v7.4a7.62,7.62,0,0,0,.7,3.7v.3C701,348.1,699.4,347.9,697.9,347.8Zm-3.7-3.5a3.08,3.08,0,0,0,1.9-.3,2.85,2.85,0,0,0,1.3-1.1V340c-.6,0-1.1-.1-1.7-.1q-3.45-.3-3.6,2.1v.3a1.82,1.82,0,0,0,.6,1.4A1.92,1.92,0,0,0,694.2,344.3Z"/><path class="cls-4" d="M711.1,327.8V332l2.9.3v3.3l-2.9-.3v8.5a2,2,0,0,0,.4,1.4,1.67,1.67,0,0,0,1.4.5,5.63,5.63,0,0,0,1.3,0v3.4a12.29,12.29,0,0,1-2.7.2c-3.2-.3-4.8-2-4.9-5.3v-9.1c-.8-.1-1.7-.1-2.5-.2v-3.3c.8.1,1.7.1,2.5.2v-4.2C708,327.5,709.5,327.7,711.1,327.8Z"/><path class="cls-4" d="M716.8,328.1a1.86,1.86,0,0,1,.7-1.6,2.39,2.39,0,0,1,1.9-.5,3.67,3.67,0,0,1,1.9.8,2.34,2.34,0,0,1,.7,1.7,1.86,1.86,0,0,1-.7,1.6,2.27,2.27,0,0,1-1.8.5,2.54,2.54,0,0,1-1.8-.8A1.77,1.77,0,0,1,716.8,328.1Zm4.8,21.8c-1.5-.1-3-.3-4.5-.4v-17c1.5.1,3,.3,4.5.4Z"/><path class="cls-4" d="M724.9,341.6a8.68,8.68,0,0,1,1-4.4,5.86,5.86,0,0,1,2.8-2.8,8.68,8.68,0,0,1,9.8,2,9.31,9.31,0,0,1,2.4,6v1.2a7.78,7.78,0,0,1-2.2,6,7.17,7.17,0,0,1-5.8,1.8,8.59,8.59,0,0,1-5.9-2.9,9.58,9.58,0,0,1-2.2-6.6C724.9,341.7,724.9,341.7,724.9,341.6Zm4.6.8a6.89,6.89,0,0,0,.9,3.8,3.36,3.36,0,0,0,2.6,1.5,2.73,2.73,0,0,0,2.6-1,6.74,6.74,0,0,0,.9-4,7.13,7.13,0,0,0-.9-3.8,3.47,3.47,0,0,0-2.6-1.6,2.73,2.73,0,0,0-2.6,1A7.56,7.56,0,0,0,729.5,342.4Z"/><path class="cls-4" d="M748.3,335.7c0,.7.1,1.3.1,2a5.07,5.07,0,0,1,4.9-1.7,5.72,5.72,0,0,1,4,2,7.92,7.92,0,0,1,1.3,4.9v11c-1.5-.2-3-.3-4.5-.5V342.5a3.4,3.4,0,0,0-.6-2.2,3.41,3.41,0,0,0-5,.4v12c-1.5-.2-3-.3-4.5-.5v-17C745.4,335.3,746.9,335.5,748.3,335.7Z"/><path class="cls-4" d="M777.1,349.7c.7-3.5,1.5-7,2.2-10.5,1.5.2,2.9.4,4.4.5-1.4,5.5-2.9,11-4.3,16.4-1.3-.2-2.5-.3-3.8-.5-1.1-3.7-2.1-7.4-3.2-11.1-1.1,3.4-2.1,6.9-3.2,10.3-1.3-.1-2.5-.3-3.8-.4-1.4-5.8-2.9-11.6-4.3-17.5,1.5.2,2.9.3,4.4.5.7,3.7,1.5,7.4,2.2,11,1-3.5,2.1-7,3.1-10.4,1.1.1,2.2.3,3.3.4C775.1,342.3,776.1,346,777.1,349.7Z"/><path class="cls-4" d="M786.2,335.7a1.86,1.86,0,0,1,.7-1.6,2.37,2.37,0,0,1,1.9-.4,2.61,2.61,0,0,1,1.8.9,2.41,2.41,0,0,1,.7,1.8,1.86,1.86,0,0,1-.7,1.6,2.23,2.23,0,0,1-1.8.4,2.61,2.61,0,0,1-1.8-.9A2.69,2.69,0,0,1,786.2,335.7Zm4.8,21.9-4.5-.6V340l4.5.6Z"/><path class="cls-4" d="M794.4,349.4a9.25,9.25,0,0,1,1.8-6.1,5.07,5.07,0,0,1,4.9-1.7,6.08,6.08,0,0,1,4.1,2.4v-8.7l4.5.6V360c-1.4-.2-2.7-.4-4.1-.5-.1-.6-.1-1.2-.2-1.8a4.37,4.37,0,0,1-4.3,1.5,6.93,6.93,0,0,1-4.8-3A10.77,10.77,0,0,1,794.4,349.4Zm4.5,1a8.25,8.25,0,0,0,.8,3.8,3.6,3.6,0,0,0,2.4,1.6,2.69,2.69,0,0,0,3-1.4v-6.7a3.5,3.5,0,0,0-2.9-2.2C800,345.2,798.9,346.8,798.9,350.4Z"/><path class="cls-4" d="M821.2,362a9.73,9.73,0,0,1-6.1-3.1,9,9,0,0,1-2.3-6.4v-.4a8.68,8.68,0,0,1,1-4.4,5.63,5.63,0,0,1,2.8-2.7,7,7,0,0,1,4.1-.5,8.19,8.19,0,0,1,5.5,3,10.28,10.28,0,0,1,2,6.5v1.9l-10.8-1.5a5.15,5.15,0,0,0,1.3,2.9,4.7,4.7,0,0,0,2.8,1.4,4.51,4.51,0,0,0,4.1-1.3l2.2,2.8a5.8,5.8,0,0,1-2.7,1.9A26,26,0,0,1,821.2,362Zm-.5-14a2.75,2.75,0,0,0-2.2.6,4.16,4.16,0,0,0-1.1,2.5l6.3.9v-.4a4.15,4.15,0,0,0-.8-2.5A3.12,3.12,0,0,0,820.7,348Z"/><path class="cls-4" d="M833.8,358.9a2.61,2.61,0,0,1,1.8.9,2.41,2.41,0,0,1,.7,1.8,1.86,1.86,0,0,1-.7,1.6,2.23,2.23,0,0,1-1.8.4,2.83,2.83,0,0,1-1.8-.9,2.41,2.41,0,0,1-.7-1.8,1.86,1.86,0,0,1,.7-1.6A2.43,2.43,0,0,1,833.8,358.9Zm1.9-2.2c-1.2-.2-2.5-.4-3.7-.5-.2-5.3-.4-10.6-.5-15.9,1.6.2,3.2.5,4.8.7C836,346.2,835.8,351.5,835.7,356.7Z"/></svg>