<svg xmlns="http://www.w3.org/2000/svg" xmlns:xlink="http://www.w3.org/1999/xlink" viewBox="0 0 973.13 442.54"><defs><style>.cls-1{fill:url(#radial-gradient);}.cls-16,.cls-2,.cls-8{fill:#fff;}.cls-2{stroke:#29a9e0;}.cls-10,.cls-11,.cls-12,.cls-13,.cls-14,.cls-16,.cls-18,.cls-2,.cls-25{stroke-miterlimit:10;}.cls-16,.cls-2{stroke-width:2px;}.cls-3{font-size:15px;font-family:Roboto-Light, Roboto;font-weight:300;}.cls-4{letter-spacing:-0.01em;}.cls-5{letter-spacing:-0.01em;}.cls-6{letter-spacing:-0.01em;}.cls-7{fill:#29a9e0;}.cls-9{fill:url(#radial-gradient-2);}.cls-10,.cls-11,.cls-12,.cls-13,.cls-14,.cls-18,.cls-25{fill:none;stroke:#4d4d4d;}.cls-11{stroke-dasharray:3.22 3.22;}.cls-12{stroke-dasharray:2.89 2.89;}.cls-13{stroke-dasharray:3.02 3.02;}.cls-14{stroke-dasharray:3.05 3.05;}.cls-15{fill:url(#radial-gradient-3);}.cls-16{stroke:#0c7ac0;}.cls-17,.cls-23,.cls-24{fill:#0c7ac0;}.cls-18{stroke-dasharray:3.26 3.26;}.cls-19{letter-spacing:-0.02em;}.cls-20{fill:url(#radial-gradient-4);}.cls-21{fill:url(#radial-gradient-5);}.cls-22{letter-spacing:-0.01em;}.cls-23{font-size:30px;}.cls-23,.cls-24{font-family:Roboto-Bold, Roboto;font-weight:700;}.cls-24{font-size:28.43px;}.cls-25{stroke-dasharray:2.89 2.89;}.cls-26{fill:url(#radial-gradient-6);}.cls-27{fill:url(#radial-gradient-7);}</style><radialGradient id="radial-gradient" cx="60" cy="-5460.92" r="34.41" gradientTransform="translate(-21.9 1050.69) scale(1 0.18)" gradientUnits="userSpaceOnUse"><stop offset="0" stop-color="#999" stop-opacity="0.3"/><stop offset="1" stop-color="#fff"/></radialGradient><radialGradient id="radial-gradient-2" cx="190.98" cy="-5460.92" r="34.41" xlink:href="#radial-gradient"/><radialGradient id="radial-gradient-3" cx="941.14" cy="-5418.43" r="45.96" xlink:href="#radial-gradient"/><radialGradient id="radial-gradient-4" cx="669.31" cy="-5460.92" r="34.41" xlink:href="#radial-gradient"/><radialGradient id="radial-gradient-5" cx="449.53" cy="-4022.03" r="37.33" xlink:href="#radial-gradient"/><radialGradient id="radial-gradient-6" cx="527.29" cy="-5460.92" r="34.41" xlink:href="#radial-gradient"/><radialGradient id="radial-gradient-7" cx="800.77" cy="-5456.45" r="39.14" xlink:href="#radial-gradient"/></defs><g id="Layer_2" data-name="Layer 2"><g id="Design"><ellipse class="cls-1" cx="38.1" cy="86.84" rx="34.41" ry="6.07"/><circle class="cls-2" cx="37.48" cy="53.44" r="36.48"/><path d="M23.76,124.23h-.9V113.56h.9Z" transform="translate(-21.9)"/><path d="M26.28,116.18l-.52-.38a3.16,3.16,0,0,0,.68-1.86v-1h.87v.74A3.18,3.18,0,0,1,26.28,116.18Z" transform="translate(-21.9)"/><path d="M29.77,116.3l0,1.29a2.86,2.86,0,0,1,1.09-1.07,3,3,0,0,1,1.47-.36,2.22,2.22,0,0,1,2.38,1.54,2.88,2.88,0,0,1,1.13-1.14,3.14,3.14,0,0,1,1.57-.4c1.7,0,2.57.93,2.6,2.78v5.29h-.88V119a2.35,2.35,0,0,0-.45-1.58,1.87,1.87,0,0,0-1.47-.51,2.34,2.34,0,0,0-1.6.61,2.14,2.14,0,0,0-.72,1.45v5.25H34v-5.29a2.23,2.23,0,0,0-.48-1.52,1.94,1.94,0,0,0-1.46-.5,2.25,2.25,0,0,0-1.42.47,2.82,2.82,0,0,0-.88,1.4v5.44h-.88V116.3Z" transform="translate(-21.9)"/><path d="M47.27,114.28v2h1.64V117H47.27v5.29a1.63,1.63,0,0,0,.24,1,.9.9,0,0,0,.79.32,5,5,0,0,0,.71-.07l0,.71a2.9,2.9,0,0,1-.94.13,1.57,1.57,0,0,1-1.31-.53,2.48,2.48,0,0,1-.41-1.54V117H44.94v-.72h1.45v-2Z" transform="translate(-21.9)"/><path d="M51.6,117.64a3,3,0,0,1,1.11-1.09,2.89,2.89,0,0,1,1.47-.39,2.39,2.39,0,0,1,1.9.72A3.21,3.21,0,0,1,56.7,119v5.2h-.87V119a2.36,2.36,0,0,0-.45-1.58,1.73,1.73,0,0,0-1.41-.52,2.19,2.19,0,0,0-1.44.51,3,3,0,0,0-.93,1.37v5.43h-.87V113h.87Z" transform="translate(-21.9)"/><path d="M58.91,114a.56.56,0,0,1,.16-.41.57.57,0,0,1,.44-.17.55.55,0,0,1,.44.17.57.57,0,0,1,.17.41.57.57,0,0,1-.17.42.59.59,0,0,1-.44.17.6.6,0,0,1-.44-.17A.57.57,0,0,1,58.91,114Zm1,10.22h-.88V116.3h.88Z" transform="translate(-21.9)"/><path d="M63.16,116.3l0,1.36a3.22,3.22,0,0,1,1.11-1.12,3,3,0,0,1,1.47-.38,2.39,2.39,0,0,1,1.9.72A3.26,3.26,0,0,1,68.3,119v5.2h-.87V119a2.48,2.48,0,0,0-.45-1.58,1.77,1.77,0,0,0-1.42-.52,2.23,2.23,0,0,0-1.44.51,3,3,0,0,0-.93,1.37v5.43h-.87V116.3Z" transform="translate(-21.9)"/><path d="M72.45,120.24l-1,1v3h-.88V113h.88v7.2l.83-.89,3-3h1.11l-3.36,3.34,3.65,4.59h-1Z" transform="translate(-21.9)"/><path d="M77.86,114a.56.56,0,0,1,.16-.41.55.55,0,0,1,.44-.17.58.58,0,0,1,.61.58.57.57,0,0,1-.17.42.6.6,0,0,1-.44.17.59.59,0,0,1-.44-.17A.57.57,0,0,1,77.86,114Zm1,10.22H78V116.3h.88Z" transform="translate(-21.9)"/><path d="M82.11,116.3l0,1.36a3.16,3.16,0,0,1,1.12-1.12,2.93,2.93,0,0,1,1.47-.38,2.39,2.39,0,0,1,1.9.72,3.26,3.26,0,0,1,.63,2.15v5.2h-.87V119a2.42,2.42,0,0,0-.46-1.58,1.73,1.73,0,0,0-1.41-.52,2.23,2.23,0,0,0-1.44.51,3,3,0,0,0-.93,1.37v5.43h-.87V116.3Z" transform="translate(-21.9)"/><path d="M89.16,120.19a4.73,4.73,0,0,1,.82-2.94,2.66,2.66,0,0,1,2.24-1.09,2.75,2.75,0,0,1,2.46,1.29l0-1.15h.82v7.77a3.34,3.34,0,0,1-.86,2.42,3.06,3.06,0,0,1-2.32.9,3.63,3.63,0,0,1-1.58-.37,3,3,0,0,1-1.18-1l.49-.53a2.78,2.78,0,0,0,2.21,1.15A2.25,2.25,0,0,0,94,126a2.6,2.6,0,0,0,.64-1.8v-1a2.84,2.84,0,0,1-2.45,1.18,2.67,2.67,0,0,1-2.22-1.1,4.87,4.87,0,0,1-.83-3Zm.88.16a4.18,4.18,0,0,0,.61,2.39,2,2,0,0,0,1.72.87,2.33,2.33,0,0,0,2.29-1.45v-3.68a2.47,2.47,0,0,0-.89-1.16,2.35,2.35,0,0,0-1.39-.4,2,2,0,0,0-1.72.87A4.41,4.41,0,0,0,90,120.35Z" transform="translate(-21.9)"/><path d="M27,138.15a4.62,4.62,0,0,1,.45-2.06,3.33,3.33,0,0,1,1.25-1.42,3.36,3.36,0,0,1,1.83-.51,3.27,3.27,0,0,1,2.57,1.11,4.3,4.3,0,0,1,1,2.94v.18a4.76,4.76,0,0,1-.44,2.07,3.4,3.4,0,0,1-1.25,1.42,3.45,3.45,0,0,1-1.84.5A3.25,3.25,0,0,1,28,141.27a4.26,4.26,0,0,1-1-3Zm.88.24a3.57,3.57,0,0,0,.74,2.33,2.47,2.47,0,0,0,3.85,0,3.7,3.7,0,0,0,.74-2.4v-.17a3.91,3.91,0,0,0-.34-1.66,2.63,2.63,0,0,0-.94-1.17,2.41,2.41,0,0,0-1.4-.42,2.36,2.36,0,0,0-1.91.92,3.77,3.77,0,0,0-.74,2.41Z" transform="translate(-21.9)"/><path d="M36.5,142.23V135H35.19v-.72H36.5v-1a2.55,2.55,0,0,1,.62-1.86,2.23,2.23,0,0,1,1.72-.66,3.48,3.48,0,0,1,.93.13l-.06.72a4,4,0,0,0-.8-.08,1.43,1.43,0,0,0-1.13.45,1.85,1.85,0,0,0-.4,1.28v1h1.89V135H37.38v7.21Z" transform="translate(-21.9)"/><path d="M44.13,138.19a4.77,4.77,0,0,1,.82-2.94,2.66,2.66,0,0,1,2.24-1.09,2.76,2.76,0,0,1,2.45,1.26V131h.87v11.25h-.82l0-1.06a2.83,2.83,0,0,1-2.47,1.21A2.63,2.63,0,0,1,45,141.27a4.76,4.76,0,0,1-.84-3Zm.89.16a4.19,4.19,0,0,0,.6,2.39,2,2,0,0,0,1.72.87,2.36,2.36,0,0,0,2.3-1.42v-3.72a2.34,2.34,0,0,0-2.29-1.55,2,2,0,0,0-1.72.87A4.42,4.42,0,0,0,45,138.35Z" transform="translate(-21.9)"/><path d="M52.33,138.15a4.62,4.62,0,0,1,.45-2.06A3.33,3.33,0,0,1,54,134.67a3.36,3.36,0,0,1,1.83-.51,3.27,3.27,0,0,1,2.57,1.11,4.3,4.3,0,0,1,1,2.94v.18a4.63,4.63,0,0,1-.45,2.07,3.31,3.31,0,0,1-1.24,1.42,3.45,3.45,0,0,1-1.84.5,3.25,3.25,0,0,1-2.56-1.11,4.26,4.26,0,0,1-1-3Zm.88.24a3.57,3.57,0,0,0,.74,2.33,2.47,2.47,0,0,0,3.85,0,3.7,3.7,0,0,0,.74-2.4v-.17a4.07,4.07,0,0,0-.34-1.66,2.65,2.65,0,0,0-1-1.17,2.47,2.47,0,0,0-3.3.5,3.77,3.77,0,0,0-.74,2.41Z" transform="translate(-21.9)"/><path d="M61.17,132a.56.56,0,0,1,.16-.41.54.54,0,0,1,.44-.17.57.57,0,0,1,.44.17.56.56,0,0,1,.16.41.57.57,0,0,1-.16.42.6.6,0,0,1-.44.17.57.57,0,0,1-.44-.17A.57.57,0,0,1,61.17,132Zm1,10.22h-.88V134.3h.88Z" transform="translate(-21.9)"/><path d="M65.41,134.3l0,1.36a3.16,3.16,0,0,1,1.12-1.12,2.93,2.93,0,0,1,1.47-.38,2.39,2.39,0,0,1,1.9.72,3.26,3.26,0,0,1,.63,2.15v5.2h-.88V137a2.36,2.36,0,0,0-.45-1.58,1.73,1.73,0,0,0-1.41-.52,2.19,2.19,0,0,0-1.44.51,3,3,0,0,0-.93,1.37v5.43h-.87V134.3Z" transform="translate(-21.9)"/><path d="M72.47,138.19a4.73,4.73,0,0,1,.82-2.94,2.66,2.66,0,0,1,2.24-1.09A2.75,2.75,0,0,1,78,135.45l0-1.15h.82v7.77a3.34,3.34,0,0,1-.85,2.42,3.07,3.07,0,0,1-2.33.9A3.58,3.58,0,0,1,74.1,145a3.15,3.15,0,0,1-1.19-1l.49-.53a2.8,2.8,0,0,0,2.22,1.15,2.25,2.25,0,0,0,1.71-.65,2.6,2.6,0,0,0,.64-1.8v-1a2.84,2.84,0,0,1-2.46,1.18,2.66,2.66,0,0,1-2.21-1.1,4.8,4.8,0,0,1-.83-3Zm.88.16a4.18,4.18,0,0,0,.61,2.39,2,2,0,0,0,1.71.87,2.35,2.35,0,0,0,2.3-1.45v-3.68a2.47,2.47,0,0,0-.89-1.16,2.35,2.35,0,0,0-1.39-.4,2,2,0,0,0-1.72.87A4.41,4.41,0,0,0,73.35,138.35Z" transform="translate(-21.9)"/><path d="M89.79,142.23a3.91,3.91,0,0,1-.17-1.11,3.1,3.1,0,0,1-1.18.93,3.54,3.54,0,0,1-1.51.33,2.68,2.68,0,0,1-1.85-.64,2.08,2.08,0,0,1-.7-1.61,2.12,2.12,0,0,1,1-1.83,4.62,4.62,0,0,1,2.68-.68h1.59v-.9a1.74,1.74,0,0,0-.52-1.34,2.19,2.19,0,0,0-1.53-.48,2.33,2.33,0,0,0-1.51.47,1.38,1.38,0,0,0-.6,1.12h-.88a2,2,0,0,1,.88-1.64,3.37,3.37,0,0,1,2.16-.69,3.1,3.1,0,0,1,2.09.66,2.36,2.36,0,0,1,.78,1.85v3.75a4.62,4.62,0,0,0,.25,1.72v.09ZM87,141.6a2.92,2.92,0,0,0,1.57-.43,2.48,2.48,0,0,0,1-1.13V138.3H88.05a4,4,0,0,0-2.06.48,1.44,1.44,0,0,0-.74,1.27,1.42,1.42,0,0,0,.5,1.11A1.89,1.89,0,0,0,87,141.6Z" transform="translate(-21.9)"/><path d="M26.67,152.3l0,1.36a3.14,3.14,0,0,1,1.11-1.12,3,3,0,0,1,1.47-.38,2.39,2.39,0,0,1,1.9.72,3.26,3.26,0,0,1,.63,2.15v5.2h-.87V155a2.48,2.48,0,0,0-.45-1.58,1.77,1.77,0,0,0-1.42-.52,2.23,2.23,0,0,0-1.44.51,3.07,3.07,0,0,0-.93,1.37v5.43h-.87V152.3Z" transform="translate(-21.9)"/><path d="M37.14,160.38a3.4,3.4,0,0,1-3.1-1.89,4.36,4.36,0,0,1-.45-2v-.31a4.75,4.75,0,0,1,.44-2.06,3.56,3.56,0,0,1,1.24-1.44,3,3,0,0,1,1.71-.52,2.88,2.88,0,0,1,2.29,1,4,4,0,0,1,.85,2.69v.49H34.46v.17a3.36,3.36,0,0,0,.77,2.25,2.47,2.47,0,0,0,2,.9,2.62,2.62,0,0,0,2.22-1.08L40,159A3.21,3.21,0,0,1,37.14,160.38ZM37,152.9a2.23,2.23,0,0,0-1.67.73,3.36,3.36,0,0,0-.82,2h4.75v-.1a2.89,2.89,0,0,0-.65-1.86A2,2,0,0,0,37,152.9Z" transform="translate(-21.9)"/><path d="M43.72,158.4l.13.69.18-.72,1.9-6.07h.75l1.88,6,.21.83.16-.77,1.63-6.08h.91l-2.31,7.93h-.75l-2-6.29-.1-.43-.09.44-2,6.28h-.75l-2.3-7.93H42Z" transform="translate(-21.9)"/><path d="M57.65,153.64a3,3,0,0,1,1.11-1.09,2.86,2.86,0,0,1,1.47-.39,2.35,2.35,0,0,1,1.89.72,3.15,3.15,0,0,1,.63,2.15v5.2h-.87V155a2.36,2.36,0,0,0-.45-1.58,1.74,1.74,0,0,0-1.41-.52,2.19,2.19,0,0,0-1.44.51,3,3,0,0,0-.93,1.37v5.43h-.87V149h.87Z" transform="translate(-21.9)"/><path d="M64.53,156.15a4.61,4.61,0,0,1,.44-2.06,3.33,3.33,0,0,1,3.09-1.93,3.25,3.25,0,0,1,2.56,1.11,4.25,4.25,0,0,1,1,2.94v.18a4.76,4.76,0,0,1-.44,2.07,3.33,3.33,0,0,1-1.25,1.42,3.45,3.45,0,0,1-1.84.5,3.27,3.27,0,0,1-2.56-1.11,4.31,4.31,0,0,1-1-3Zm.88.24a3.57,3.57,0,0,0,.73,2.33,2.47,2.47,0,0,0,3.85,0,3.64,3.64,0,0,0,.74-2.4v-.17a3.91,3.91,0,0,0-.34-1.66,2.63,2.63,0,0,0-.94-1.17,2.4,2.4,0,0,0-1.39-.42,2.34,2.34,0,0,0-1.91.92,3.71,3.71,0,0,0-.74,2.41Z" transform="translate(-21.9)"/><path d="M74.21,152.3l0,1.29a2.89,2.89,0,0,1,1.1-1.07,3,3,0,0,1,1.46-.36,2.21,2.21,0,0,1,2.38,1.54,2.91,2.91,0,0,1,1.14-1.14,3.08,3.08,0,0,1,1.57-.4c1.69,0,2.56.93,2.6,2.78v5.29h-.88V155a2.4,2.4,0,0,0-.46-1.58,1.87,1.87,0,0,0-1.47-.51,2.34,2.34,0,0,0-1.6.61,2.18,2.18,0,0,0-.72,1.45v5.25h-.88v-5.29a2.23,2.23,0,0,0-.48-1.52,1.93,1.93,0,0,0-1.45-.5,2.26,2.26,0,0,0-1.43.47,2.81,2.81,0,0,0-.87,1.4v5.44h-.88V152.3Z" transform="translate(-21.9)"/><path d="M89.77,160.38a3.43,3.43,0,0,1-1.82-.5,3.35,3.35,0,0,1-1.27-1.39,4.24,4.24,0,0,1-.46-2v-.31a4.75,4.75,0,0,1,.44-2.06,3.56,3.56,0,0,1,1.24-1.44,3,3,0,0,1,1.71-.52,2.88,2.88,0,0,1,2.29,1,4,4,0,0,1,.85,2.69v.49H87.09v.17a3.31,3.31,0,0,0,.78,2.25,2.44,2.44,0,0,0,1.94.9,2.86,2.86,0,0,0,1.24-.26,2.78,2.78,0,0,0,1-.82l.55.42A3.21,3.21,0,0,1,89.77,160.38Zm-.16-7.48a2.19,2.19,0,0,0-1.66.73,3.3,3.3,0,0,0-.83,2h4.76v-.1a3,3,0,0,0-.66-1.86A2,2,0,0,0,89.61,152.9Z" transform="translate(-21.9)"/><path d="M27,171.05a3.83,3.83,0,0,0-.6-.05,2.14,2.14,0,0,0-1.39.46,2.53,2.53,0,0,0-.8,1.33v5.44h-.88V170.3h.86l0,1.26a2.32,2.32,0,0,1,2.23-1.4,1.53,1.53,0,0,1,.58.09Z" transform="translate(-21.9)"/><path d="M31.26,178.38a3.49,3.49,0,0,1-1.83-.5,3.42,3.42,0,0,1-1.27-1.39,4.36,4.36,0,0,1-.45-2v-.31a4.75,4.75,0,0,1,.44-2.06,3.56,3.56,0,0,1,1.24-1.44,3,3,0,0,1,1.71-.52,2.89,2.89,0,0,1,2.29,1,4,4,0,0,1,.84,2.69v.49H28.58v.17a3.36,3.36,0,0,0,.77,2.25,2.47,2.47,0,0,0,1.95.9,2.62,2.62,0,0,0,2.22-1.08l.55.42A3.21,3.21,0,0,1,31.26,178.38Zm-.16-7.48a2.21,2.21,0,0,0-1.67.73,3.36,3.36,0,0,0-.82,2h4.75v-.1a2.89,2.89,0,0,0-.65-1.86A2,2,0,0,0,31.1,170.9Z" transform="translate(-21.9)"/><path d="M36.74,170.3l0,1.29a2.89,2.89,0,0,1,1.1-1.07,3,3,0,0,1,1.46-.36,2.22,2.22,0,0,1,2.38,1.54,2.84,2.84,0,0,1,1.14-1.14,3.07,3.07,0,0,1,1.56-.4c1.7,0,2.57.93,2.6,2.78v5.29h-.87V173a2.4,2.4,0,0,0-.46-1.58,1.87,1.87,0,0,0-1.47-.51,2.34,2.34,0,0,0-1.6.61,2.18,2.18,0,0,0-.72,1.45v5.25H41v-5.29a2.23,2.23,0,0,0-.48-1.52,1.93,1.93,0,0,0-1.45-.5,2.26,2.26,0,0,0-1.43.47,2.81,2.81,0,0,0-.87,1.4v5.44H35.9V170.3Z" transform="translate(-21.9)"/><path d="M48.75,174.15a4.75,4.75,0,0,1,.44-2.06,3.42,3.42,0,0,1,1.26-1.42,3.36,3.36,0,0,1,1.83-.51,3.24,3.24,0,0,1,2.56,1.11,4.25,4.25,0,0,1,1,2.94v.18a4.63,4.63,0,0,1-.45,2.07,3.27,3.27,0,0,1-1.25,1.42,3.42,3.42,0,0,1-1.83.5,3.25,3.25,0,0,1-2.56-1.11,4.26,4.26,0,0,1-1-3Zm.88.24a3.52,3.52,0,0,0,.74,2.33,2.47,2.47,0,0,0,3.85,0,3.7,3.7,0,0,0,.73-2.4v-.17a4.07,4.07,0,0,0-.33-1.66,2.65,2.65,0,0,0-.95-1.17,2.38,2.38,0,0,0-1.39-.42,2.34,2.34,0,0,0-1.91.92,3.77,3.77,0,0,0-.74,2.41Z" transform="translate(-21.9)"/><path d="M57.28,174.19a4.77,4.77,0,0,1,.83-2.94,2.64,2.64,0,0,1,2.23-1.09,2.76,2.76,0,0,1,2.45,1.26V167h.87v11.25h-.82l0-1.06a2.86,2.86,0,0,1-2.48,1.21,2.64,2.64,0,0,1-2.21-1.11,4.76,4.76,0,0,1-.84-3Zm.89.16a4.11,4.11,0,0,0,.61,2.39,2,2,0,0,0,1.71.87,2.35,2.35,0,0,0,2.3-1.42v-3.72a2.32,2.32,0,0,0-2.28-1.55,2,2,0,0,0-1.72.87A4.34,4.34,0,0,0,58.17,174.35Z" transform="translate(-21.9)"/><path d="M69,178.38a3.49,3.49,0,0,1-1.83-.5,3.42,3.42,0,0,1-1.27-1.39,4.36,4.36,0,0,1-.45-2v-.31a4.61,4.61,0,0,1,.44-2.06,3.54,3.54,0,0,1,1.23-1.44,3,3,0,0,1,1.72-.52,2.89,2.89,0,0,1,2.29,1,4,4,0,0,1,.84,2.69v.49H66.36v.17a3.36,3.36,0,0,0,.77,2.25,2.46,2.46,0,0,0,2,.9,2.89,2.89,0,0,0,1.24-.26,2.75,2.75,0,0,0,1-.82l.55.42A3.2,3.2,0,0,1,69,178.38Zm-.16-7.48a2.21,2.21,0,0,0-1.67.73,3.36,3.36,0,0,0-.82,2h4.75v-.1a2.89,2.89,0,0,0-.65-1.86A2,2,0,0,0,68.88,170.9Z" transform="translate(-21.9)"/><path d="M74.7,178.23h-.88V167h.88Z" transform="translate(-21.9)"/><path d="M77,168a.56.56,0,0,1,.16-.41.65.65,0,0,1,.88,0,.57.57,0,0,1,.17.41.57.57,0,0,1-.17.42.65.65,0,0,1-.88,0A.57.57,0,0,1,77,168Zm1,10.22h-.88V170.3h.88Z" transform="translate(-21.9)"/><path d="M81.28,170.3l0,1.36a3.14,3.14,0,0,1,1.11-1.12,3,3,0,0,1,1.47-.38,2.39,2.39,0,0,1,1.9.72,3.26,3.26,0,0,1,.63,2.15v5.2h-.87V173a2.48,2.48,0,0,0-.45-1.58,1.77,1.77,0,0,0-1.42-.52,2.23,2.23,0,0,0-1.44.51,3,3,0,0,0-.93,1.37v5.43h-.87V170.3Z" transform="translate(-21.9)"/><path d="M88.33,174.19a4.73,4.73,0,0,1,.83-2.94,2.63,2.63,0,0,1,2.23-1.09,2.75,2.75,0,0,1,2.46,1.29l.05-1.15h.82v7.77a3.34,3.34,0,0,1-.86,2.42,3,3,0,0,1-2.32.9A3.63,3.63,0,0,1,90,181a3.12,3.12,0,0,1-1.18-1l.49-.53a2.79,2.79,0,0,0,2.21,1.15,2.25,2.25,0,0,0,1.71-.65,2.56,2.56,0,0,0,.64-1.8v-1a2.84,2.84,0,0,1-2.45,1.18,2.64,2.64,0,0,1-2.21-1.1,4.8,4.8,0,0,1-.84-3Zm.89.16a4.11,4.11,0,0,0,.61,2.39,2,2,0,0,0,1.71.87,2.33,2.33,0,0,0,2.29-1.45v-3.68a2.45,2.45,0,0,0-.88-1.16,2.38,2.38,0,0,0-1.4-.4,2,2,0,0,0-1.72.87A4.42,4.42,0,0,0,89.22,174.35Z" transform="translate(-21.9)"/><path d="M42.06,192.35a4.77,4.77,0,0,1-.82,2.94,2.63,2.63,0,0,1-2.2,1.09,3,3,0,0,1-2.49-1.15v4.05h-.87v-11h.81l0,1.12A2.82,2.82,0,0,1,39,188.16a2.65,2.65,0,0,1,2.23,1.07,4.89,4.89,0,0,1,.81,3Zm-.88-.16a4.09,4.09,0,0,0-.62-2.39,2,2,0,0,0-1.74-.88,2.32,2.32,0,0,0-2.27,1.52v3.8a2.36,2.36,0,0,0,.9,1,2.62,2.62,0,0,0,1.39.36,2,2,0,0,0,1.72-.89A4.46,4.46,0,0,0,41.18,192.19Z" transform="translate(-21.9)"/><path d="M47.66,189.05a3.61,3.61,0,0,0-.59-.05,2.12,2.12,0,0,0-1.39.46,2.48,2.48,0,0,0-.81,1.33v5.44H44V188.3h.86v1.26a2.35,2.35,0,0,1,2.24-1.4,1.57,1.57,0,0,1,.58.09Z" transform="translate(-21.9)"/><path d="M48.42,192.15a4.75,4.75,0,0,1,.44-2.06A3.33,3.33,0,0,1,52,188.16a3.25,3.25,0,0,1,2.56,1.11,4.25,4.25,0,0,1,1,2.94v.18a4.76,4.76,0,0,1-.44,2.07,3.33,3.33,0,0,1-1.25,1.42,3.45,3.45,0,0,1-1.84.5,3.27,3.27,0,0,1-2.56-1.11,4.31,4.31,0,0,1-1-3Zm.88.24a3.57,3.57,0,0,0,.73,2.33,2.48,2.48,0,0,0,3.86,0,3.7,3.7,0,0,0,.73-2.4v-.17a3.91,3.91,0,0,0-.34-1.66,2.63,2.63,0,0,0-.94-1.17A2.4,2.4,0,0,0,52,188.9a2.34,2.34,0,0,0-1.91.92,3.71,3.71,0,0,0-.74,2.41Z" transform="translate(-21.9)"/><path d="M58.25,188.3v8.87a2.4,2.4,0,0,1-.53,1.68,2,2,0,0,1-1.55.58,2.23,2.23,0,0,1-.77-.14v-.72a2.16,2.16,0,0,0,.66.1c.87,0,1.3-.5,1.3-1.5V188.3Zm-.44-2.87a.57.57,0,0,1,.45.17.56.56,0,0,1,.16.41.57.57,0,0,1-.16.42.61.61,0,0,1-.45.17.57.57,0,0,1-.59-.59.56.56,0,0,1,.16-.41A.53.53,0,0,1,57.81,185.43Z" transform="translate(-21.9)"/><path d="M63.79,196.38a3.4,3.4,0,0,1-3.1-1.89,4.36,4.36,0,0,1-.45-2v-.31a4.75,4.75,0,0,1,.44-2.06,3.56,3.56,0,0,1,1.24-1.44,3,3,0,0,1,1.71-.52,2.88,2.88,0,0,1,2.29,1,4,4,0,0,1,.84,2.69v.49H61.11v.17a3.36,3.36,0,0,0,.77,2.25,2.47,2.47,0,0,0,1.95.9,2.62,2.62,0,0,0,2.22-1.08l.55.42A3.21,3.21,0,0,1,63.79,196.38Zm-.16-7.48a2.21,2.21,0,0,0-1.67.73,3.36,3.36,0,0,0-.82,2h4.75v-.1a2.89,2.89,0,0,0-.65-1.86A2,2,0,0,0,63.63,188.9Z" transform="translate(-21.9)"/><path d="M71.4,195.64a2.37,2.37,0,0,0,1.54-.52,1.86,1.86,0,0,0,.67-1.34h.84A2.47,2.47,0,0,1,74,195.1a2.77,2.77,0,0,1-1.11.94,3.38,3.38,0,0,1-1.48.34,3.07,3.07,0,0,1-2.47-1.09,4.35,4.35,0,0,1-.91-2.91v-.27a4.84,4.84,0,0,1,.41-2.07,3.14,3.14,0,0,1,1.17-1.39,3.23,3.23,0,0,1,1.79-.49,3.08,3.08,0,0,1,2.15.77,2.83,2.83,0,0,1,.91,2h-.84a2.28,2.28,0,0,0-4.06-1.22,3.85,3.85,0,0,0-.65,2.4v.26a3.79,3.79,0,0,0,.65,2.37A2.23,2.23,0,0,0,71.4,195.64Z" transform="translate(-21.9)"/><path d="M77.56,186.28v2H79.2V189H77.56v5.29a1.63,1.63,0,0,0,.24,1,.9.9,0,0,0,.79.32,5,5,0,0,0,.71-.07l0,.71a2.9,2.9,0,0,1-.94.13,1.57,1.57,0,0,1-1.31-.53,2.48,2.48,0,0,1-.41-1.54V189H75.22v-.72h1.46v-2Z" transform="translate(-21.9)"/><path d="M80.94,195.7a.6.6,0,0,1,.16-.43.59.59,0,0,1,.46-.18.6.6,0,0,1,.46.18.61.61,0,0,1,.17.43.57.57,0,0,1-.17.42.64.64,0,0,1-.46.17.62.62,0,0,1-.46-.17A.57.57,0,0,1,80.94,195.7Z" transform="translate(-21.9)"/><path d="M170.32,124.23h-.9V113.56h.9Z" transform="translate(-21.9)"/><path d="M177.29,124.23V117H176v-.72h1.32v-1a2.59,2.59,0,0,1,.61-1.86,2.27,2.27,0,0,1,1.73-.66,3.48,3.48,0,0,1,.93.13l-.07.72a3.94,3.94,0,0,0-.8-.08,1.41,1.41,0,0,0-1.12.45,1.86,1.86,0,0,0-.41,1.28v1h1.89V117h-1.89v7.21Z" transform="translate(-21.9)"/><path d="M181.57,114a.56.56,0,0,1,.16-.41.65.65,0,0,1,.88,0,.57.57,0,0,1,.17.41.57.57,0,0,1-.17.42.65.65,0,0,1-.88,0A.57.57,0,0,1,181.57,114Zm1,10.22h-.88V116.3h.88Z" transform="translate(-21.9)"/><path d="M185.82,116.3l0,1.36a3.14,3.14,0,0,1,1.11-1.12,3,3,0,0,1,1.47-.38,2.39,2.39,0,0,1,1.9.72A3.26,3.26,0,0,1,191,119v5.2h-.87V119a2.48,2.48,0,0,0-.45-1.58,1.77,1.77,0,0,0-1.42-.52,2.23,2.23,0,0,0-1.44.51,3,3,0,0,0-.93,1.37v5.43H185V116.3Z" transform="translate(-21.9)"/><path d="M192.87,120.19a4.77,4.77,0,0,1,.83-2.94,2.63,2.63,0,0,1,2.23-1.09,2.76,2.76,0,0,1,2.45,1.26V113h.87v11.25h-.82l0-1.06a2.83,2.83,0,0,1-2.47,1.21,2.63,2.63,0,0,1-2.21-1.11,4.76,4.76,0,0,1-.84-3Zm.89.16a4.11,4.11,0,0,0,.61,2.39,2,2,0,0,0,1.71.87,2.36,2.36,0,0,0,2.3-1.42v-3.72a2.34,2.34,0,0,0-2.29-1.55,2,2,0,0,0-1.72.87A4.42,4.42,0,0,0,193.76,120.35Z" transform="translate(-21.9)"/><path d="M210.21,124.23a3.91,3.91,0,0,1-.17-1.11,3.1,3.1,0,0,1-1.18.93,3.54,3.54,0,0,1-1.51.33,2.68,2.68,0,0,1-1.85-.64,2.09,2.09,0,0,1-.71-1.61,2.13,2.13,0,0,1,1-1.83,4.6,4.6,0,0,1,2.68-.68H210v-.9a1.74,1.74,0,0,0-.52-1.34,2.19,2.19,0,0,0-1.53-.48,2.38,2.38,0,0,0-1.52.47,1.38,1.38,0,0,0-.6,1.12H205a2,2,0,0,1,.87-1.64,3.41,3.41,0,0,1,2.16-.69,3.11,3.11,0,0,1,2.1.66,2.36,2.36,0,0,1,.78,1.85v3.75a4.66,4.66,0,0,0,.24,1.72v.09Zm-2.76-.63a2.87,2.87,0,0,0,1.57-.43,2.45,2.45,0,0,0,1-1.13V120.3h-1.57a4,4,0,0,0-2.05.48,1.44,1.44,0,0,0-.74,1.27,1.42,1.42,0,0,0,.5,1.11A1.88,1.88,0,0,0,207.45,123.6Z" transform="translate(-21.9)"/><path d="M156.33,141.64a2.32,2.32,0,0,0,1.53-.52,1.82,1.82,0,0,0,.67-1.34h.84a2.38,2.38,0,0,1-.45,1.32,2.91,2.91,0,0,1-1.11.94,3.42,3.42,0,0,1-1.48.34,3.06,3.06,0,0,1-2.47-1.09,4.36,4.36,0,0,1-.92-2.91v-.27a5,5,0,0,1,.41-2.07,3.11,3.11,0,0,1,3-1.88,3.08,3.08,0,0,1,2.15.77,2.86,2.86,0,0,1,.9,2h-.84a2.14,2.14,0,0,0-.67-1.5,2.37,2.37,0,0,0-3.38.28,3.85,3.85,0,0,0-.66,2.4v.26a3.79,3.79,0,0,0,.66,2.37A2.2,2.2,0,0,0,156.33,141.64Z" transform="translate(-21.9)"/><path d="M160.64,138.15a4.75,4.75,0,0,1,.44-2.06,3.42,3.42,0,0,1,1.26-1.42,3.36,3.36,0,0,1,1.83-.51,3.24,3.24,0,0,1,2.56,1.11,4.25,4.25,0,0,1,1,2.94v.18a4.63,4.63,0,0,1-.45,2.07,3.27,3.27,0,0,1-1.25,1.42,3.42,3.42,0,0,1-1.83.5,3.25,3.25,0,0,1-2.56-1.11,4.26,4.26,0,0,1-1-3Zm.88.24a3.52,3.52,0,0,0,.74,2.33,2.47,2.47,0,0,0,3.85,0,3.7,3.7,0,0,0,.73-2.4v-.17a4.07,4.07,0,0,0-.33-1.66,2.65,2.65,0,0,0-.95-1.17,2.38,2.38,0,0,0-1.39-.42,2.34,2.34,0,0,0-1.91.92,3.77,3.77,0,0,0-.74,2.41Z" transform="translate(-21.9)"/><path d="M170.36,134.3l0,1.36a3.22,3.22,0,0,1,1.11-1.12,3,3,0,0,1,1.47-.38,2.37,2.37,0,0,1,1.9.72,3.15,3.15,0,0,1,.63,2.15v5.2h-.87V137a2.48,2.48,0,0,0-.45-1.58,1.77,1.77,0,0,0-1.42-.52,2.23,2.23,0,0,0-1.44.51,3.05,3.05,0,0,0-.92,1.37v5.43h-.87V134.3Z" transform="translate(-21.9)"/><path d="M179.13,132.28v2h1.64V135h-1.64v5.29a1.63,1.63,0,0,0,.24,1,.89.89,0,0,0,.79.32,5.09,5.09,0,0,0,.71-.07l0,.71a2.9,2.9,0,0,1-.94.13,1.56,1.56,0,0,1-1.31-.53,2.42,2.42,0,0,1-.41-1.54V135h-1.46v-.72h1.46v-2Z" transform="translate(-21.9)"/><path d="M186.25,135.05a3.83,3.83,0,0,0-.6-.05,2.14,2.14,0,0,0-1.39.46,2.53,2.53,0,0,0-.8,1.33v5.44h-.88V134.3h.86l0,1.26a2.32,2.32,0,0,1,2.23-1.4,1.53,1.53,0,0,1,.58.09Z" transform="translate(-21.9)"/><path d="M192.34,142.23a4.31,4.31,0,0,1-.17-1.11,3.14,3.14,0,0,1-1.17.93,3.58,3.58,0,0,1-1.52.33,2.7,2.7,0,0,1-1.85-.64,2.08,2.08,0,0,1-.7-1.61,2.12,2.12,0,0,1,1-1.83,4.63,4.63,0,0,1,2.69-.68h1.58v-.9a1.74,1.74,0,0,0-.52-1.34,2.19,2.19,0,0,0-1.53-.48,2.33,2.33,0,0,0-1.51.47,1.38,1.38,0,0,0-.6,1.12h-.88a2,2,0,0,1,.88-1.64,3.37,3.37,0,0,1,2.16-.69,3.1,3.1,0,0,1,2.09.66,2.4,2.4,0,0,1,.79,1.85v3.75a4.66,4.66,0,0,0,.24,1.72v.09Zm-2.75-.63a2.89,2.89,0,0,0,1.57-.43,2.48,2.48,0,0,0,1-1.13V138.3H190.6a3.9,3.9,0,0,0-2,.48,1.48,1.48,0,0,0-.25,2.38A1.89,1.89,0,0,0,189.59,141.6Z" transform="translate(-21.9)"/><path d="M198.3,141.64a2.37,2.37,0,0,0,1.54-.52,1.86,1.86,0,0,0,.67-1.34h.84a2.47,2.47,0,0,1-.46,1.32,2.81,2.81,0,0,1-1.1.94,3.46,3.46,0,0,1-1.49.34,3.07,3.07,0,0,1-2.47-1.09,4.35,4.35,0,0,1-.91-2.91v-.27a4.84,4.84,0,0,1,.41-2.07,3.14,3.14,0,0,1,1.17-1.39,3.23,3.23,0,0,1,1.79-.49,3.08,3.08,0,0,1,2.15.77,2.83,2.83,0,0,1,.91,2h-.84a2.28,2.28,0,0,0-4.06-1.22,3.91,3.91,0,0,0-.65,2.4v.26a3.86,3.86,0,0,0,.65,2.37A2.23,2.23,0,0,0,198.3,141.64Z" transform="translate(-21.9)"/><path d="M204.46,132.28v2h1.64V135h-1.64v5.29a1.63,1.63,0,0,0,.24,1,.9.9,0,0,0,.79.32,5,5,0,0,0,.71-.07l0,.71a2.9,2.9,0,0,1-.94.13,1.57,1.57,0,0,1-1.31-.53,2.48,2.48,0,0,1-.41-1.54V135h-1.46v-.72h1.46v-2Z" transform="translate(-21.9)"/><path d="M207.29,138.15a4.75,4.75,0,0,1,.44-2.06,3.33,3.33,0,0,1,3.09-1.93,3.25,3.25,0,0,1,2.56,1.11,4.25,4.25,0,0,1,1,2.94v.18a4.63,4.63,0,0,1-.44,2.07,3.33,3.33,0,0,1-1.25,1.42,3.45,3.45,0,0,1-1.84.5,3.27,3.27,0,0,1-2.56-1.11,4.31,4.31,0,0,1-1-3Zm.88.24a3.57,3.57,0,0,0,.73,2.33,2.48,2.48,0,0,0,3.86,0,3.7,3.7,0,0,0,.73-2.4v-.17a4.07,4.07,0,0,0-.33-1.66,2.65,2.65,0,0,0-.95-1.17,2.38,2.38,0,0,0-1.39-.42,2.34,2.34,0,0,0-1.91.92,3.71,3.71,0,0,0-.74,2.41Z" transform="translate(-21.9)"/><path d="M219.83,135.05a3.61,3.61,0,0,0-.59-.05,2.14,2.14,0,0,0-1.39.46,2.6,2.6,0,0,0-.81,1.33v5.44h-.87V134.3H217v1.26a2.35,2.35,0,0,1,2.24-1.4,1.53,1.53,0,0,1,.58.09Z" transform="translate(-21.9)"/><path d="M226.17,142.23h-.9V131.56h.9Z" transform="translate(-21.9)"/><path d="M150.59,158.4l.13.69.18-.72,1.9-6.07h.75l1.88,6,.2.83.17-.77,1.63-6.08h.91L156,160.23h-.75l-2-6.29-.1-.43-.09.44-2,6.28h-.75L148,152.3h.9Z" transform="translate(-21.9)"/><path d="M165,160.23a4.31,4.31,0,0,1-.17-1.11,3.06,3.06,0,0,1-1.17.93,3.57,3.57,0,0,1-1.51.33,2.67,2.67,0,0,1-1.85-.64,2.09,2.09,0,0,1-.71-1.61,2.12,2.12,0,0,1,1-1.83,4.63,4.63,0,0,1,2.69-.68h1.59v-.9a1.75,1.75,0,0,0-.53-1.34,2.18,2.18,0,0,0-1.52-.48,2.34,2.34,0,0,0-1.52.47,1.38,1.38,0,0,0-.6,1.12h-.88a2,2,0,0,1,.88-1.64,3.37,3.37,0,0,1,2.16-.69,3.1,3.1,0,0,1,2.09.66,2.4,2.4,0,0,1,.79,1.85v3.75a4.66,4.66,0,0,0,.24,1.72v.09Zm-2.75-.63a2.89,2.89,0,0,0,1.57-.43,2.5,2.5,0,0,0,1-1.13V156.3h-1.57a3.9,3.9,0,0,0-2,.48,1.48,1.48,0,0,0-.25,2.38A1.89,1.89,0,0,0,162.25,159.6Z" transform="translate(-21.9)"/><path d="M168.87,152.3l0,1.36a3.22,3.22,0,0,1,1.11-1.12,3,3,0,0,1,1.47-.38,2.37,2.37,0,0,1,1.9.72A3.15,3.15,0,0,1,174,155v5.2h-.87V155a2.48,2.48,0,0,0-.45-1.58,1.77,1.77,0,0,0-1.42-.52,2.23,2.23,0,0,0-1.44.51,3,3,0,0,0-.92,1.37v5.43H168V152.3Z" transform="translate(-21.9)"/><path d="M177.64,150.28v2h1.64V153h-1.64v5.29a1.71,1.71,0,0,0,.23,1,.92.92,0,0,0,.8.32,5.09,5.09,0,0,0,.71-.07l0,.71a3,3,0,0,1-.94.13,1.56,1.56,0,0,1-1.31-.53,2.42,2.42,0,0,1-.41-1.54V153H175.3v-.72h1.46v-2Z" transform="translate(-21.9)"/><path d="M186.1,150.28v2h1.64V153H186.1v5.29a1.63,1.63,0,0,0,.24,1,.91.91,0,0,0,.8.32,5.23,5.23,0,0,0,.71-.07l0,.71a2.88,2.88,0,0,1-.93.13,1.58,1.58,0,0,1-1.32-.53,2.48,2.48,0,0,1-.41-1.54V153h-1.45v-.72h1.45v-2Z" transform="translate(-21.9)"/><path d="M188.93,156.15a4.75,4.75,0,0,1,.44-2.06,3.42,3.42,0,0,1,1.26-1.42,3.34,3.34,0,0,1,1.83-.51,3.24,3.24,0,0,1,2.56,1.11,4.25,4.25,0,0,1,1,2.94v.18a4.63,4.63,0,0,1-.45,2.07,3.27,3.27,0,0,1-1.25,1.42,3.42,3.42,0,0,1-1.83.5,3.25,3.25,0,0,1-2.56-1.11,4.26,4.26,0,0,1-1-3Zm.88.24a3.52,3.52,0,0,0,.74,2.33,2.47,2.47,0,0,0,3.85,0,3.7,3.7,0,0,0,.73-2.4v-.17a4.07,4.07,0,0,0-.33-1.66,2.65,2.65,0,0,0-1-1.17,2.38,2.38,0,0,0-1.39-.42,2.34,2.34,0,0,0-1.91.92,3.77,3.77,0,0,0-.74,2.41Z" transform="translate(-21.9)"/><path d="M203.36,158.4l.13.69.18-.72,1.9-6.07h.75l1.88,6,.21.83.16-.77,1.63-6.08h.91l-2.31,7.93h-.75l-2-6.29-.1-.43-.09.44-2,6.28h-.75l-2.3-7.93h.9Z" transform="translate(-21.9)"/><path d="M212.29,156.15a4.61,4.61,0,0,1,.44-2.06,3.33,3.33,0,0,1,3.09-1.93,3.25,3.25,0,0,1,2.56,1.11,4.25,4.25,0,0,1,1,2.94v.18a4.76,4.76,0,0,1-.44,2.07,3.33,3.33,0,0,1-1.25,1.42,3.45,3.45,0,0,1-1.84.5,3.27,3.27,0,0,1-2.56-1.11,4.31,4.31,0,0,1-1-3Zm.88.24a3.57,3.57,0,0,0,.73,2.33,2.47,2.47,0,0,0,3.85,0,3.7,3.7,0,0,0,.74-2.4v-.17a3.91,3.91,0,0,0-.34-1.66,2.63,2.63,0,0,0-.94-1.17,2.4,2.4,0,0,0-1.39-.42,2.34,2.34,0,0,0-1.91.92,3.71,3.71,0,0,0-.74,2.41Z" transform="translate(-21.9)"/><path d="M224.83,153.05a3.61,3.61,0,0,0-.59-.05,2.12,2.12,0,0,0-1.39.46,2.48,2.48,0,0,0-.81,1.33v5.44h-.87V152.3H222v1.26a2.35,2.35,0,0,1,2.24-1.4,1.57,1.57,0,0,1,.58.09Z" transform="translate(-21.9)"/><path d="M228.1,156.24l-1,1v3h-.88V149h.88v7.2l.82-.89,3-3h1.1l-3.36,3.34,3.66,4.59h-1.05Z" transform="translate(-21.9)"/><path d="M177.37,176.4l.13.69.18-.72,1.9-6.07h.75l1.88,6,.21.83.17-.77,1.62-6.08h.91l-2.31,7.93h-.74l-2-6.29-.09-.43-.1.44-2,6.28h-.75l-2.3-7.93h.91Z" transform="translate(-21.9)"/><path d="M186.73,168a.6.6,0,0,1,.16-.41.57.57,0,0,1,.44-.17.57.57,0,0,1,.45.17.56.56,0,0,1,.16.41.57.57,0,0,1-.16.42.61.61,0,0,1-.45.17.57.57,0,0,1-.6-.59Zm1,10.22h-.88V170.3h.88Z" transform="translate(-21.9)"/><path d="M191.51,168.28v2h1.64V171h-1.64v5.29a1.63,1.63,0,0,0,.24,1,.9.9,0,0,0,.79.32,5.09,5.09,0,0,0,.71-.07l0,.71a2.9,2.9,0,0,1-.94.13,1.56,1.56,0,0,1-1.31-.53,2.48,2.48,0,0,1-.41-1.54V171h-1.46v-.72h1.46v-2Z" transform="translate(-21.9)"/><path d="M195.84,171.64a3,3,0,0,1,1.1-1.09,2.89,2.89,0,0,1,1.47-.39,2.37,2.37,0,0,1,1.9.72,3.15,3.15,0,0,1,.63,2.15v5.2h-.87V173a2.42,2.42,0,0,0-.45-1.58,1.77,1.77,0,0,0-1.42-.52,2.23,2.23,0,0,0-1.44.51,3.05,3.05,0,0,0-.92,1.37v5.43H195V167h.87Z" transform="translate(-21.9)"/><path d="M203.12,177.7a.6.6,0,0,1,.16-.43.68.68,0,0,1,.92,0,.61.61,0,0,1,.17.43.57.57,0,0,1-.17.42.71.71,0,0,1-.92,0A.57.57,0,0,1,203.12,177.7Z" transform="translate(-21.9)"/><text class="cls-3" transform="translate(358.97 374.49)">I apply for my loan <tspan class="cls-4" x="124.25" y="0">t</tspan><tspan x="128.92" y="0">o </tspan><tspan x="10.05" y="18">get my new home </tspan><tspan x="-1.18" y="36">imp</tspan><tspan class="cls-4" x="23.79" y="36">r</tspan><tspan class="cls-5" x="28.69" y="36">o</tspan><tspan class="cls-6" x="36.98" y="36">v</tspan><tspan x="44.1" y="36">ement p</tspan><tspan class="cls-4" x="97.91" y="36">r</tspan><tspan x="102.81" y="36">oject.</tspan></text><circle class="cls-7" cx="37.48" cy="53.44" r="33.22"/><path class="cls-8" d="M80.21,55.55a1,1,0,0,1-.59.31h-.09a.9.9,0,0,1-.59-.2L59.38,39.35,39.83,55.66a1,1,0,0,1-.68.2.92.92,0,0,1-.59-.31l-1.76-2.1a.92.92,0,0,1,.12-1.27L57.24,35.26a3.47,3.47,0,0,1,4.29,0L68.43,41V35.51a.88.88,0,0,1,.9-.9h5.43a.88.88,0,0,1,.9.9V47l6.19,5.14A.91.91,0,0,1,82,53.45ZM75.66,69a1.82,1.82,0,0,1-1.81,1.81H63V59.93H55.77V70.78H44.92A1.82,1.82,0,0,1,43.11,69V55.41c0-.06,0-.12,0-.18L59.38,41.84,75.63,55.23a.38.38,0,0,1,0,.18Z" transform="translate(-21.9)"/><ellipse class="cls-9" cx="169.09" cy="86.84" rx="34.41" ry="6.07"/><circle class="cls-2" cx="168.47" cy="53.44" r="36.48"/><circle class="cls-7" cx="168.47" cy="53.44" r="33.22"/><line class="cls-10" x1="120.68" y1="53.44" x2="119.18" y2="53.44"/><line class="cls-11" x1="115.96" y1="53.44" x2="85.38" y2="53.44"/><line class="cls-10" x1="83.77" y1="53.44" x2="82.27" y2="53.44"/><line class="cls-10" x1="254.68" y1="53.44" x2="253.18" y2="53.44"/><line class="cls-11" x1="249.96" y1="53.44" x2="219.38" y2="53.44"/><line class="cls-10" x1="217.77" y1="53.44" x2="216.27" y2="53.44"/><line class="cls-10" x1="356.98" y1="53.18" x2="355.48" y2="53.18"/><line class="cls-12" x1="352.59" y1="53.18" x2="330.95" y2="53.18"/><line class="cls-10" x1="329.5" y1="53.18" x2="328" y2="53.18"/><line class="cls-10" x1="459.08" y1="53.18" x2="457.58" y2="53.18"/><line class="cls-12" x1="454.7" y1="53.18" x2="433.06" y2="53.18"/><line class="cls-10" x1="431.61" y1="53.18" x2="430.11" y2="53.18"/><line class="cls-10" x1="379.19" y1="308.71" x2="377.69" y2="308.71"/><line class="cls-13" x1="374.68" y1="308.71" x2="339.99" y2="308.71"/><line class="cls-10" x1="338.48" y1="308.71" x2="336.98" y2="308.71"/><line class="cls-10" x1="290.91" y1="277.48" x2="290.91" y2="275.98"/><line class="cls-14" x1="290.91" y1="272.93" x2="290.91" y2="231.78"/><line class="cls-10" x1="290.91" y1="230.26" x2="290.91" y2="228.76"/><path d="M891.05,119.53h-5.32v4.64h6.12V125h-7.08V113.6h7v.82h-6.08v4.29h5.32Z" transform="translate(-21.9)"/><path d="M894.54,116.53l0,1.44a3.28,3.28,0,0,1,1.18-1.19,3.14,3.14,0,0,1,1.57-.41,2.53,2.53,0,0,1,2,.77,3.47,3.47,0,0,1,.67,2.29V125h-.93v-5.56a2.63,2.63,0,0,0-.48-1.68,1.89,1.89,0,0,0-1.51-.56,2.39,2.39,0,0,0-1.54.54,3.36,3.36,0,0,0-1,1.47V125h-.93v-8.45Z" transform="translate(-21.9)"/><path d="M905.72,125.14a3.62,3.62,0,0,1-2-.54,3.55,3.55,0,0,1-1.36-1.48,4.64,4.64,0,0,1-.48-2.13v-.33a4.93,4.93,0,0,1,.47-2.2,3.65,3.65,0,0,1,1.32-1.53,3.25,3.25,0,0,1,1.82-.56,3.08,3.08,0,0,1,2.45,1,4.27,4.27,0,0,1,.9,2.87v.52h-6V121a3.55,3.55,0,0,0,.82,2.4,2.62,2.62,0,0,0,2.07,1,3,3,0,0,0,1.33-.28,2.9,2.9,0,0,0,1-.87l.59.44A3.41,3.41,0,0,1,905.72,125.14Zm-.18-8a2.31,2.31,0,0,0-1.77.77,3.51,3.51,0,0,0-.88,2.08H908v-.1a3.11,3.11,0,0,0-.7-2A2.14,2.14,0,0,0,905.54,117.17Z" transform="translate(-21.9)"/><path d="M914.61,117.32a4.13,4.13,0,0,0-.63,0,2.26,2.26,0,0,0-1.48.49,2.64,2.64,0,0,0-.86,1.41V125h-.93v-8.45h.91l0,1.34a2.48,2.48,0,0,1,2.38-1.5,1.51,1.51,0,0,1,.62.1Z" transform="translate(-21.9)"/><path d="M916.31,125V113.6h3.36a4.38,4.38,0,0,1,2.77.76,2.67,2.67,0,0,1,.95,2.22,2.54,2.54,0,0,1-.48,1.54,2.66,2.66,0,0,1-1.32.93,2.76,2.76,0,0,1,1.6,1,2.73,2.73,0,0,1,.6,1.75,2.94,2.94,0,0,1-1,2.35,4,4,0,0,1-2.71.85Zm1-6.27h2.63a3,3,0,0,0,1.86-.57,1.93,1.93,0,0,0,.66-1.59,1.89,1.89,0,0,0-.68-1.61,3.4,3.4,0,0,0-2.07-.52h-2.4Zm0,.81v4.65h2.88a2.87,2.87,0,0,0,2-.63,2.19,2.19,0,0,0,.72-1.74,2.11,2.11,0,0,0-.69-1.67,2.77,2.77,0,0,0-1.91-.61Z" transform="translate(-21.9)"/><path d="M931.23,125a4.81,4.81,0,0,1-.18-1.18,3.21,3.21,0,0,1-1.25,1,3.9,3.9,0,0,1-1.62.35,2.84,2.84,0,0,1-2-.68,2.37,2.37,0,0,1,.28-3.68,4.9,4.9,0,0,1,2.86-.72H931v-1a1.84,1.84,0,0,0-.55-1.42,2.31,2.31,0,0,0-1.63-.52,2.57,2.57,0,0,0-1.62.5,1.47,1.47,0,0,0-.64,1.2h-.94a2.15,2.15,0,0,1,.94-1.74,3.6,3.6,0,0,1,2.3-.74,3.23,3.23,0,0,1,2.23.71,2.5,2.5,0,0,1,.84,2v4a5,5,0,0,0,.26,1.84V125Zm-2.94-.67a3.07,3.07,0,0,0,1.68-.46,2.61,2.61,0,0,0,1.07-1.21v-1.86h-1.67a4.12,4.12,0,0,0-2.19.52,1.53,1.53,0,0,0-.78,1.36,1.51,1.51,0,0,0,.52,1.18A2,2,0,0,0,928.29,124.31Z" transform="translate(-21.9)"/><path d="M935.36,116.53l0,1.44a3.23,3.23,0,0,1,1.19-1.19,3.09,3.09,0,0,1,1.57-.41,2.5,2.5,0,0,1,2,.77,3.47,3.47,0,0,1,.67,2.29V125h-.93v-5.56a2.57,2.57,0,0,0-.48-1.68,1.88,1.88,0,0,0-1.51-.56,2.39,2.39,0,0,0-1.54.54,3.26,3.26,0,0,0-1,1.47V125h-.93v-8.45Z" transform="translate(-21.9)"/><path d="M945.26,120.72l-1.07,1V125h-.94V113h.94v7.68l.89-1,3.23-3.18h1.18l-3.59,3.56,3.9,4.89h-1.12Z" transform="translate(-21.9)"/><path d="M960,122.83a1.34,1.34,0,0,0-.55-1.12,4.43,4.43,0,0,0-1.69-.66,7.86,7.86,0,0,1-1.74-.54,2.33,2.33,0,0,1-.93-.76,1.86,1.86,0,0,1-.3-1.08,2,2,0,0,1,.84-1.65,3.41,3.41,0,0,1,2.14-.65,3.46,3.46,0,0,1,2.27.7,2.22,2.22,0,0,1,.85,1.82H960a1.52,1.52,0,0,0-.62-1.23,2.45,2.45,0,0,0-1.57-.49,2.38,2.38,0,0,0-1.48.41,1.27,1.27,0,0,0-.56,1.06,1.13,1.13,0,0,0,.47,1,4.77,4.77,0,0,0,1.69.64,7.59,7.59,0,0,1,1.84.62,2.31,2.31,0,0,1,.91.79,2,2,0,0,1,.3,1.11,2,2,0,0,1-.86,1.71,3.69,3.69,0,0,1-2.26.65,3.76,3.76,0,0,1-2.39-.72,2.21,2.21,0,0,1-.92-1.81h.94a1.66,1.66,0,0,0,.69,1.28,2.86,2.86,0,0,0,1.68.46,2.71,2.71,0,0,0,1.58-.43A1.3,1.3,0,0,0,960,122.83Z" transform="translate(-21.9)"/><path d="M966.36,125.14a3.62,3.62,0,0,1-2-.54,3.55,3.55,0,0,1-1.36-1.48,4.64,4.64,0,0,1-.48-2.13v-.33a4.93,4.93,0,0,1,.47-2.2,3.65,3.65,0,0,1,1.32-1.53,3.25,3.25,0,0,1,1.82-.56,3.08,3.08,0,0,1,2.45,1,4.27,4.27,0,0,1,.9,2.87v.52h-6V121a3.55,3.55,0,0,0,.82,2.4,2.62,2.62,0,0,0,2.08,1,2.8,2.8,0,0,0,2.36-1.15l.59.44A3.41,3.41,0,0,1,966.36,125.14Zm-.18-8a2.31,2.31,0,0,0-1.77.77,3.51,3.51,0,0,0-.88,2.08h5.07v-.1a3.11,3.11,0,0,0-.7-2A2.14,2.14,0,0,0,966.18,117.17Z" transform="translate(-21.9)"/><path d="M972.24,116.53l0,1.44a3.31,3.31,0,0,1,1.19-1.19,3.09,3.09,0,0,1,1.57-.41,2.5,2.5,0,0,1,2,.77,3.42,3.42,0,0,1,.67,2.29V125h-.93v-5.56a2.51,2.51,0,0,0-.48-1.68,1.88,1.88,0,0,0-1.51-.56,2.35,2.35,0,0,0-1.53.54,3.2,3.2,0,0,0-1,1.47V125h-.93v-8.45Z" transform="translate(-21.9)"/><path d="M979.76,120.67a5.12,5.12,0,0,1,.88-3.13,2.83,2.83,0,0,1,2.39-1.17,2.94,2.94,0,0,1,2.61,1.35V113h.93v12h-.88l0-1.13a3,3,0,0,1-2.64,1.29,2.82,2.82,0,0,1-2.35-1.18,5.09,5.09,0,0,1-.9-3.18Zm1,.17a4.34,4.34,0,0,0,.65,2.55,2.09,2.09,0,0,0,1.82.93,2.54,2.54,0,0,0,2.46-1.52v-4a2.51,2.51,0,0,0-2.44-1.65,2.13,2.13,0,0,0-1.84.93A4.76,4.76,0,0,0,980.71,120.84Z" transform="translate(-21.9)"/><path d="M994.09,122.83a1.35,1.35,0,0,0-.56-1.12,4.31,4.31,0,0,0-1.68-.66,8.15,8.15,0,0,1-1.75-.54,2.37,2.37,0,0,1-.92-.76,1.86,1.86,0,0,1-.3-1.08,2,2,0,0,1,.84-1.65,3.39,3.39,0,0,1,2.14-.65,3.46,3.46,0,0,1,2.27.7,2.22,2.22,0,0,1,.85,1.82H994a1.5,1.5,0,0,0-.62-1.23,2.8,2.8,0,0,0-3-.08,1.24,1.24,0,0,0-.56,1.06,1.15,1.15,0,0,0,.46,1,4.92,4.92,0,0,0,1.7.64,7.75,7.75,0,0,1,1.84.62,2.38,2.38,0,0,1,.91.79,2,2,0,0,1,.3,1.11,2,2,0,0,1-.87,1.71,3.64,3.64,0,0,1-2.25.65,3.76,3.76,0,0,1-2.39-.72,2.19,2.19,0,0,1-.92-1.81h.94a1.6,1.6,0,0,0,.69,1.28,2.83,2.83,0,0,0,1.68.46,2.71,2.71,0,0,0,1.58-.43A1.3,1.3,0,0,0,994.09,122.83Z" transform="translate(-21.9)"/><path d="M904.56,135.73l0,1.37a3.14,3.14,0,0,1,1.17-1.15,3.28,3.28,0,0,1,1.57-.38,2.37,2.37,0,0,1,2.53,1.64,3.15,3.15,0,0,1,1.22-1.21,3.27,3.27,0,0,1,1.67-.43c1.81,0,2.73,1,2.77,3v5.64h-.94v-5.57a2.48,2.48,0,0,0-.49-1.68,2,2,0,0,0-1.56-.55,2.5,2.5,0,0,0-1.7.65,2.31,2.31,0,0,0-.78,1.56v5.59h-.94v-5.64a2.25,2.25,0,0,0-.51-1.62,2,2,0,0,0-1.55-.54,2.32,2.32,0,0,0-1.51.51,2.85,2.85,0,0,0-.94,1.49v5.8h-.94v-8.45Z" transform="translate(-21.9)"/><path d="M921.16,144.34a3.62,3.62,0,0,1-1.95-.54,3.52,3.52,0,0,1-1.35-1.48,4.52,4.52,0,0,1-.49-2.13v-.33a5.07,5.07,0,0,1,.47-2.2,3.8,3.8,0,0,1,1.32-1.53,3.26,3.26,0,0,1,1.83-.56,3.06,3.06,0,0,1,2.44,1.05,4.27,4.27,0,0,1,.9,2.87V140h-6v.18a3.56,3.56,0,0,0,.83,2.4,2.6,2.6,0,0,0,2.07,1,2.84,2.84,0,0,0,2.37-1.15l.58.44A3.39,3.39,0,0,1,921.16,144.34Zm-.17-8a2.33,2.33,0,0,0-1.78.77,3.64,3.64,0,0,0-.88,2.08h5.07v-.1a3.05,3.05,0,0,0-.69-2A2.16,2.16,0,0,0,921,136.37Z" transform="translate(-21.9)"/><path d="M935.38,144.18a4.81,4.81,0,0,1-.18-1.18,3.28,3.28,0,0,1-1.25,1,3.9,3.9,0,0,1-1.62.35,2.84,2.84,0,0,1-2-.68,2.24,2.24,0,0,1-.75-1.72,2.27,2.27,0,0,1,1-2,5,5,0,0,1,2.87-.72h1.69v-1a1.81,1.81,0,0,0-.56-1.42,2.28,2.28,0,0,0-1.63-.52,2.54,2.54,0,0,0-1.61.5,1.47,1.47,0,0,0-.64,1.2h-.94a2.15,2.15,0,0,1,.94-1.74,3.6,3.6,0,0,1,2.3-.74,3.25,3.25,0,0,1,2.23.71,2.5,2.5,0,0,1,.84,2v4a5,5,0,0,0,.26,1.84v.09Zm-2.94-.67a3.07,3.07,0,0,0,1.68-.46,2.61,2.61,0,0,0,1.07-1.21V140h-1.67a4.12,4.12,0,0,0-2.19.52,1.54,1.54,0,0,0-.79,1.36,1.52,1.52,0,0,0,.53,1.18A2,2,0,0,0,932.44,143.51Z" transform="translate(-21.9)"/><path d="M948.33,141.37a1.87,1.87,0,0,0-.57-1.41,5.36,5.36,0,0,0-2-1.05,5.89,5.89,0,0,1-2.48-1.31,3.11,3.11,0,0,1,.07-4,3.22,3.22,0,0,1,2.13-.9v-1.58h.79v1.58a3,3,0,0,1,2.13,1,3.73,3.73,0,0,1,.76,2.46h-.93a2.86,2.86,0,0,0-.64-1.95,2.19,2.19,0,0,0-1.74-.72,2.43,2.43,0,0,0-1.73.58,2,2,0,0,0-.62,1.55,1.9,1.9,0,0,0,.57,1.47,5.46,5.46,0,0,0,1.94,1,8.5,8.5,0,0,1,2,.9,2.75,2.75,0,0,1,.93,1,2.92,2.92,0,0,1,.31,1.4,2.8,2.8,0,0,1-.8,2.07,3.4,3.4,0,0,1-2.2.89v1.48h-.79v-1.47a3.61,3.61,0,0,1-2.43-1,3.35,3.35,0,0,1-.86-2.43h.94a2.54,2.54,0,0,0,.71,1.91,2.75,2.75,0,0,0,2,.69,2.68,2.68,0,0,0,1.81-.59A1.94,1.94,0,0,0,948.33,141.37Z" transform="translate(-21.9)"/><path d="M953.3,138h1a3.26,3.26,0,0,0,1.41-.28,2.12,2.12,0,0,0,.91-.78,2,2,0,0,0,.32-1.15,2.31,2.31,0,0,0-.62-1.71,2.4,2.4,0,0,0-1.77-.62,2.52,2.52,0,0,0-1.79.65,2.2,2.2,0,0,0-.7,1.7h-.94a3,3,0,0,1,.45-1.61,2.87,2.87,0,0,1,1.23-1.13,3.79,3.79,0,0,1,1.75-.4,3.43,3.43,0,0,1,2.44.84,3,3,0,0,1,.89,2.31,2.54,2.54,0,0,1-.52,1.52,3.12,3.12,0,0,1-1.43,1,2.93,2.93,0,0,1,1.61,1,2.74,2.74,0,0,1,.55,1.72,3.07,3.07,0,0,1-.95,2.35,3.58,3.58,0,0,1-2.55.9,4.23,4.23,0,0,1-1.86-.41,3,3,0,0,1-1.78-2.84h.94a2.27,2.27,0,0,0,.75,1.77,2.8,2.8,0,0,0,1.95.69,2.72,2.72,0,0,0,1.89-.62,2.35,2.35,0,0,0,.67-1.81,2.11,2.11,0,0,0-.73-1.74,3.32,3.32,0,0,0-2.15-.6h-.94Z" transform="translate(-21.9)"/><path d="M967,139.44a6.28,6.28,0,0,1-.88,3.65,3.34,3.34,0,0,1-5.19,0,6,6,0,0,1-.92-3.56v-2a6.16,6.16,0,0,1,.89-3.63,3,3,0,0,1,2.6-1.23,3,3,0,0,1,2.58,1.19,6,6,0,0,1,.92,3.51Zm-.94-2a5.64,5.64,0,0,0-.63-3,2.36,2.36,0,0,0-3.84,0,5.43,5.43,0,0,0-.65,2.88v2.24a5.49,5.49,0,0,0,.66,3,2.14,2.14,0,0,0,1.92,1,2.11,2.11,0,0,0,1.89-1,5.51,5.51,0,0,0,.65-2.95Z" transform="translate(-21.9)"/><path d="M975.82,139.44a6.28,6.28,0,0,1-.89,3.65,3,3,0,0,1-2.6,1.25,3,3,0,0,1-2.58-1.23,6,6,0,0,1-.92-3.56v-2a6.16,6.16,0,0,1,.89-3.63,3,3,0,0,1,2.6-1.23,3,3,0,0,1,2.58,1.19,6,6,0,0,1,.92,3.51Zm-.94-2a5.54,5.54,0,0,0-.64-3,2.35,2.35,0,0,0-3.83,0,5.33,5.33,0,0,0-.66,2.88v2.24a5.49,5.49,0,0,0,.66,3,2.14,2.14,0,0,0,1.92,1,2.11,2.11,0,0,0,1.9-1,5.61,5.61,0,0,0,.65-2.95Z" transform="translate(-21.9)"/><path d="M909.8,159.07a5,5,0,0,1,.88-3.14,2.83,2.83,0,0,1,2.38-1.16,3,3,0,0,1,2.63,1.37l0-1.21h.87v8.28a3.55,3.55,0,0,1-.91,2.58,3.27,3.27,0,0,1-2.48,1,3.78,3.78,0,0,1-1.68-.4,3.22,3.22,0,0,1-1.27-1l.53-.56a3,3,0,0,0,2.36,1.22,2.41,2.41,0,0,0,1.83-.69,2.78,2.78,0,0,0,.67-1.92v-1.06a3,3,0,0,1-2.61,1.25,2.82,2.82,0,0,1-2.36-1.18,5,5,0,0,1-.89-3.16Zm.94.17a4.41,4.41,0,0,0,.65,2.55,2.1,2.1,0,0,0,1.83.93,2.48,2.48,0,0,0,2.44-1.54v-3.93a2.56,2.56,0,0,0-.94-1.24,2.51,2.51,0,0,0-1.48-.43,2.13,2.13,0,0,0-1.84.93A4.7,4.7,0,0,0,910.74,159.24Z" transform="translate(-21.9)"/><path d="M919,152.48a.6.6,0,0,1,.64-.62.65.65,0,0,1,.48.18.64.64,0,0,1,.17.44.65.65,0,1,1-1.29,0Zm1.1,10.9h-.93v-8.45h.93Z" transform="translate(-21.9)"/><path d="M923.31,163.38v-7.69h-1.4v-.76h1.4v-1a2.78,2.78,0,0,1,.66-2,2.42,2.42,0,0,1,1.84-.69,3.54,3.54,0,0,1,1,.13l-.07.77a3.82,3.82,0,0,0-.85-.09,1.55,1.55,0,0,0-1.21.48,2,2,0,0,0-.43,1.37v1.05h2v.76h-2v7.69Z" transform="translate(-21.9)"/><path d="M929.38,152.76v2.17h1.75v.76h-1.75v5.64a1.76,1.76,0,0,0,.26,1,1,1,0,0,0,.85.34,4.73,4.73,0,0,0,.75-.08l0,.76a3,3,0,0,1-1,.14,1.68,1.68,0,0,1-1.4-.56,2.66,2.66,0,0,1-.43-1.65v-5.64h-1.56v-.76h1.56v-2.17Z" transform="translate(-21.9)"/><path d="M940.09,162.75a2.49,2.49,0,0,0,1.63-.55,2,2,0,0,0,.72-1.43h.9a2.63,2.63,0,0,1-.49,1.41,3,3,0,0,1-1.18,1,3.55,3.55,0,0,1-1.58.36,3.28,3.28,0,0,1-2.64-1.16,4.67,4.67,0,0,1-1-3.11V159a5.31,5.31,0,0,1,.43-2.21,3.31,3.31,0,0,1,3.17-2,3.26,3.26,0,0,1,2.29.83,3.06,3.06,0,0,1,1,2.18h-.9a2.27,2.27,0,0,0-2.36-2.21,2.35,2.35,0,0,0-2,.91,4.17,4.17,0,0,0-.7,2.56v.28a4.08,4.08,0,0,0,.7,2.52A2.38,2.38,0,0,0,940.09,162.75Z" transform="translate(-21.9)"/><path d="M950.54,163.38a4.81,4.81,0,0,1-.18-1.18,3.28,3.28,0,0,1-1.25,1,3.9,3.9,0,0,1-1.62.35,2.84,2.84,0,0,1-2-.68,2.24,2.24,0,0,1-.75-1.72,2.27,2.27,0,0,1,1-2,5,5,0,0,1,2.87-.71h1.69v-1a1.82,1.82,0,0,0-.56-1.42,2.28,2.28,0,0,0-1.63-.52,2.54,2.54,0,0,0-1.61.5,1.47,1.47,0,0,0-.64,1.2H945a2.15,2.15,0,0,1,.94-1.74,3.6,3.6,0,0,1,2.3-.74,3.3,3.3,0,0,1,2.23.71,2.5,2.5,0,0,1,.84,2v4a5,5,0,0,0,.26,1.84v.09Zm-2.94-.67a3.07,3.07,0,0,0,1.68-.46,2.61,2.61,0,0,0,1.07-1.21v-1.86h-1.67a4.12,4.12,0,0,0-2.19.52,1.54,1.54,0,0,0-.79,1.36,1.52,1.52,0,0,0,.53,1.18A2,2,0,0,0,947.6,162.71Z" transform="translate(-21.9)"/><path d="M957.68,155.72a4.23,4.23,0,0,0-.63-.05,2.24,2.24,0,0,0-1.48.49,2.65,2.65,0,0,0-.87,1.41v5.81h-.93v-8.45h.92v1.34a2.49,2.49,0,0,1,2.39-1.5,1.46,1.46,0,0,1,.61.1Z" transform="translate(-21.9)"/><path d="M958.63,159.07a5.12,5.12,0,0,1,.88-3.13,2.83,2.83,0,0,1,2.39-1.17,2.94,2.94,0,0,1,2.61,1.35v-4.74h.93v12h-.88l0-1.13a3,3,0,0,1-2.64,1.29,2.82,2.82,0,0,1-2.35-1.18,5.09,5.09,0,0,1-.9-3.18Zm1,.17a4.34,4.34,0,0,0,.65,2.55,2.1,2.1,0,0,0,1.83.93,2.51,2.51,0,0,0,2.45-1.52v-4a2.51,2.51,0,0,0-2.44-1.65,2.1,2.1,0,0,0-1.83.93A4.7,4.7,0,0,0,959.58,159.24Z" transform="translate(-21.9)"/><path d="M967.88,162.83a.6.6,0,0,1,.17-.45.58.58,0,0,1,.47-.19.61.61,0,0,1,.47.19.6.6,0,0,1,.17.45.56.56,0,0,1-.17.43.64.64,0,0,1-.47.18.61.61,0,0,1-.47-.18A.56.56,0,0,1,967.88,162.83Zm1-2.62H968l0-8.21h1Z" transform="translate(-21.9)"/><ellipse class="cls-15" cx="919.24" cy="94.34" rx="45.96" ry="8.11"/><circle class="cls-16" cx="918.41" cy="49.73" r="48.73"/><circle class="cls-17" cx="918.41" cy="49.73" r="44.37"/><line class="cls-10" x1="727.14" y1="53.44" x2="725.64" y2="53.44"/><line class="cls-18" x1="722.38" y1="53.44" x2="697.9" y2="53.44"/><line class="cls-10" x1="696.27" y1="53.44" x2="694.77" y2="53.44"/><line class="cls-10" x1="858.24" y1="53.44" x2="856.74" y2="53.44"/><line class="cls-18" x1="853.47" y1="53.44" x2="829" y2="53.44"/><line class="cls-10" x1="827.37" y1="53.44" x2="825.87" y2="53.44"/><text class="cls-3" transform="translate(603.82 124.23)">My cont<tspan class="cls-19" x="52.94" y="0">r</tspan><tspan x="57.69" y="0">ac</tspan><tspan class="cls-4" x="73.45" y="0">t</tspan><tspan x="78.13" y="0">or </tspan><tspan x="2.45" y="18">signs up with </tspan><tspan x="12.81" y="36">EnerBank.</tspan></text><ellipse class="cls-20" cx="647.41" cy="86.84" rx="34.41" ry="6.07"/><circle class="cls-2" cx="646.8" cy="53.44" r="36.48"/><circle class="cls-7" cx="646.8" cy="53.44" r="33.22"/><ellipse class="cls-21" cx="427.63" cy="340.8" rx="37.33" ry="6.59"/><text class="cls-3" transform="translate(264.77 124.23)">I ask my <tspan x="-12.56" y="18">cont</tspan><tspan class="cls-19" x="16.63" y="18">r</tspan><tspan x="21.38" y="18">ac</tspan><tspan class="cls-4" x="37.14" y="18">t</tspan><tspan x="41.82" y="18">or if </tspan><tspan x="-3.88" y="36">th</tspan><tspan class="cls-6" x="9.18" y="36">e</tspan><tspan x="16.83" y="36">y of</tspan><tspan class="cls-22" x="40.97" y="36">f</tspan><tspan x="45.76" y="36">er </tspan><tspan x="-1.39" y="54">p</tspan><tspan class="cls-5" x="6.92" y="54">a</tspan><tspan x="14.85" y="54">yment </tspan><tspan x="-14.83" y="72">options f</tspan><tspan class="cls-4" x="42.92" y="72">r</tspan><tspan x="47.82" y="72">om </tspan><tspan x="-5.64" y="90">EnerBank.</tspan></text><circle class="cls-2" cx="427.44" cy="308.71" r="34.85"/><circle class="cls-7" cx="427.44" cy="308.71" r="31.73"/><path class="cls-17" d="M324.59,43.91a12.23,12.23,0,0,1,6.31,1.41c1.49.93,1.84,3.54,1.06,7.85q-1.09,6-4,7.13a16.68,16.68,0,0,1-6.57,1.06l3.19-17.51Zm-3.37,18.55h2.24c2.7,0,4.54.77,5.52,2.27s1.12,4.13.44,7.88q-1.25,6.85-4.43,8.25a17.21,17.21,0,0,1-7.37,1.3Zm7.47-.88q.53-.12,1.05-.27a8.29,8.29,0,0,0,1.08-.39,15.56,15.56,0,0,0,4.86-2.87,9.21,9.21,0,0,0,3-5.63q.81-4.45-1.4-6.51a11.17,11.17,0,0,0-5.19-2.75,19.65,19.65,0,0,0-2.78-.41l-2.51-.17-3.07,0-9,0-.22,1.23,3.56,0-7,38.31-3.56,0-.21,1.16,13.47.08q6.71,0,10.84-2.84a12.25,12.25,0,0,0,5.12-8.25q.84-4.64-1.27-7.22a9.17,9.17,0,0,0-5.09-3.27l-.83-.13-.82-.12Z" transform="translate(-21.9)"/><path class="cls-17" d="M311.14,70.6l2.4-13.19-.88.06a2,2,0,0,0,0,.24,1,1,0,0,1,0,.25c0,.08,0,.17,0,.25s0,.16-.05.24q-1.11,6.13-4.11,8.57a10.67,10.67,0,0,1-7.21,2.36l-6.53,0,3.59-19.71h2a4.2,4.2,0,0,1,4.25,2.54,11.32,11.32,0,0,1,.36,6.47h.83l3.37-18.49-.93,0c-.74,4.05-1.84,6.44-3.3,7.14a14.17,14.17,0,0,1-6.32,1l3.2-17.55,6.79.1a5.53,5.53,0,0,1,5.14,2.79q1.62,2.77.82,7.63h.87l2-11.66-25.73-.15-.22,1.23,3.59,0-7,38.55-3.58,0-.22,1.17Z" transform="translate(-21.9)"/><text class="cls-23" transform="translate(256.52 315.83)">YES?</text><text class="cls-24" transform="translate(367.15 63.74)">NO?</text><path class="cls-8" d="M680.79,62.74a5.92,5.92,0,0,1-5.91,5.92H657.8a5.92,5.92,0,0,1-5.92-5.92V45.66a5.92,5.92,0,0,1,5.92-5.91h17.08a5.88,5.88,0,0,1,2.4.51.7.7,0,0,1,.37.48.63.63,0,0,1-.19.59l-1,1a.64.64,0,0,1-.66.16,3.63,3.63,0,0,0-.92-.12H657.8a3.3,3.3,0,0,0-3.29,3.28V62.74A3.3,3.3,0,0,0,657.8,66h17.08a3.3,3.3,0,0,0,3.28-3.29V60.16a.6.6,0,0,1,.19-.45l1.31-1.32a.65.65,0,0,1,.72-.14.64.64,0,0,1,.41.59Zm3.94-13.13L670.94,63.4H665V57.49l13.8-13.8ZM672.5,59.05l-3.12-3.12L667,58.31v1.15h2v2h1.15Zm6-12.38-7.19,7.19a.48.48,0,0,0,0,.67.48.48,0,0,0,.68,0l7.19-7.18a.5.5,0,0,0,0-.68A.49.49,0,0,0,678.47,46.67Zm7.58,1.62-5.92-5.91L682,40.49a2,2,0,0,1,2.79,0l3.12,3.12a2,2,0,0,1,0,2.79Z" transform="translate(-21.9)"/><line class="cls-10" x1="597.64" y1="53.44" x2="596.14" y2="53.44"/><line class="cls-25" x1="593.25" y1="53.44" x2="554.2" y2="53.44"/><line class="cls-10" x1="552.75" y1="53.44" x2="551.25" y2="53.44"/><path d="M480.8,119.24h-5v5h-.91V113.56h6.61v.77h-5.7v4.15h5Z" transform="translate(-21.9)"/><path d="M483.11,114a.56.56,0,0,1,.16-.41.54.54,0,0,1,.44-.17.57.57,0,0,1,.44.17.56.56,0,0,1,.16.41.57.57,0,0,1-.16.42.6.6,0,0,1-.44.17.57.57,0,0,1-.44-.17A.57.57,0,0,1,483.11,114Zm1,10.22h-.88V116.3h.88Z" transform="translate(-21.9)"/><path d="M487.5,124.23h-.88V113h.88Z" transform="translate(-21.9)"/><path d="M490.86,124.23H490V113h.88Z" transform="translate(-21.9)"/><path d="M496.41,120.15a4.61,4.61,0,0,1,.44-2.06,3.33,3.33,0,0,1,3.09-1.93,3.25,3.25,0,0,1,2.56,1.11,4.25,4.25,0,0,1,1,2.94v.18a4.76,4.76,0,0,1-.44,2.07,3.33,3.33,0,0,1-1.25,1.42,3.45,3.45,0,0,1-1.84.5,3.27,3.27,0,0,1-2.56-1.11,4.31,4.31,0,0,1-1-3Zm.88.24a3.57,3.57,0,0,0,.73,2.33,2.47,2.47,0,0,0,3.85,0,3.7,3.7,0,0,0,.74-2.4v-.17a3.91,3.91,0,0,0-.34-1.66,2.63,2.63,0,0,0-.94-1.17,2.4,2.4,0,0,0-1.39-.42,2.34,2.34,0,0,0-1.91.92,3.71,3.71,0,0,0-.74,2.41Z" transform="translate(-21.9)"/><path d="M510.39,123.22a2.85,2.85,0,0,1-2.53,1.16,2.44,2.44,0,0,1-1.92-.74,3.23,3.23,0,0,1-.68-2.18V116.3h.87v5c0,1.51.61,2.26,1.83,2.26a2.24,2.24,0,0,0,2.41-1.57V116.3h.88v7.93h-.85Z" transform="translate(-21.9)"/><path d="M514.89,114.28v2h1.64V117h-1.64v5.29a1.63,1.63,0,0,0,.24,1,.91.91,0,0,0,.8.32,5.23,5.23,0,0,0,.71-.07l0,.71a2.88,2.88,0,0,1-.93.13,1.58,1.58,0,0,1-1.32-.53,2.48,2.48,0,0,1-.41-1.54V117h-1.45v-.72H514v-2Z" transform="translate(-21.9)"/><path d="M523.36,114.28v2H525V117h-1.64v5.29a1.63,1.63,0,0,0,.24,1,.9.9,0,0,0,.79.32,5,5,0,0,0,.71-.07l0,.71a2.9,2.9,0,0,1-.94.13,1.56,1.56,0,0,1-1.31-.53,2.48,2.48,0,0,1-.41-1.54V117H521v-.72h1.46v-2Z" transform="translate(-21.9)"/><path d="M527.69,117.64a3,3,0,0,1,1.1-1.09,2.9,2.9,0,0,1,1.48-.39,2.35,2.35,0,0,1,1.89.72,3.15,3.15,0,0,1,.63,2.15v5.2h-.87V119a2.36,2.36,0,0,0-.45-1.58,1.75,1.75,0,0,0-1.42-.52,2.23,2.23,0,0,0-1.44.51,3.05,3.05,0,0,0-.92,1.37v5.43h-.87V113h.87Z" transform="translate(-21.9)"/><path d="M538.12,124.38a3.4,3.4,0,0,1-3.1-1.89,4.36,4.36,0,0,1-.45-2v-.31a4.61,4.61,0,0,1,.44-2.06,3.54,3.54,0,0,1,1.23-1.44,3,3,0,0,1,1.72-.52,2.86,2.86,0,0,1,2.28,1,4,4,0,0,1,.85,2.69v.49h-5.65v.17a3.31,3.31,0,0,0,.77,2.25,2.46,2.46,0,0,0,1.95.9,2.89,2.89,0,0,0,1.24-.26,2.84,2.84,0,0,0,1-.82l.55.42A3.2,3.2,0,0,1,538.12,124.38ZM538,116.9a2.21,2.21,0,0,0-1.67.73,3.29,3.29,0,0,0-.82,2h4.75v-.1a2.89,2.89,0,0,0-.65-1.86A2,2,0,0,0,538,116.9Z" transform="translate(-21.9)"/><path d="M547.08,124.23V117h-1.32v-.72h1.32v-1a2.59,2.59,0,0,1,.61-1.86,2.27,2.27,0,0,1,1.73-.66,3.48,3.48,0,0,1,.93.13l-.07.72a3.91,3.91,0,0,0-.79-.08,1.43,1.43,0,0,0-1.13.45,1.86,1.86,0,0,0-.41,1.28v1h1.89V117H548v7.21Z" transform="translate(-21.9)"/><path d="M550.93,120.15a4.75,4.75,0,0,1,.44-2.06,3.33,3.33,0,0,1,3.09-1.93,3.25,3.25,0,0,1,2.56,1.11,4.25,4.25,0,0,1,1,2.94v.18a4.63,4.63,0,0,1-.44,2.07,3.33,3.33,0,0,1-1.25,1.42,3.45,3.45,0,0,1-1.84.5,3.27,3.27,0,0,1-2.56-1.11,4.31,4.31,0,0,1-1-3Zm.88.24a3.57,3.57,0,0,0,.73,2.33,2.48,2.48,0,0,0,3.86,0,3.7,3.7,0,0,0,.73-2.4v-.17a3.91,3.91,0,0,0-.34-1.66,2.63,2.63,0,0,0-.94-1.17,2.4,2.4,0,0,0-1.39-.42,2.34,2.34,0,0,0-1.91.92,3.71,3.71,0,0,0-.74,2.41Z" transform="translate(-21.9)"/><path d="M563.47,117.05a3.61,3.61,0,0,0-.59,0,2.12,2.12,0,0,0-1.39.46,2.48,2.48,0,0,0-.81,1.33v5.44h-.87V116.3h.86v1.26a2.35,2.35,0,0,1,2.24-1.4,1.57,1.57,0,0,1,.58.09Z" transform="translate(-21.9)"/><path d="M565.66,116.3l0,1.29a2.89,2.89,0,0,1,1.1-1.07,3,3,0,0,1,1.46-.36,2.22,2.22,0,0,1,2.38,1.54,2.84,2.84,0,0,1,1.14-1.14,3.07,3.07,0,0,1,1.56-.4c1.7,0,2.57.93,2.6,2.78v5.29h-.88V119a2.35,2.35,0,0,0-.45-1.58,1.87,1.87,0,0,0-1.47-.51,2.34,2.34,0,0,0-1.6.61,2.14,2.14,0,0,0-.72,1.45v5.25h-.88v-5.29a2.23,2.23,0,0,0-.48-1.52,1.94,1.94,0,0,0-1.46-.5,2.25,2.25,0,0,0-1.42.47,2.82,2.82,0,0,0-.88,1.4v5.44h-.87V116.3Z" transform="translate(-21.9)"/><path d="M468.65,138.15a4.75,4.75,0,0,1,.44-2.06,3.42,3.42,0,0,1,1.26-1.42,3.36,3.36,0,0,1,1.83-.51,3.24,3.24,0,0,1,2.56,1.11,4.25,4.25,0,0,1,1,2.94v.18a4.63,4.63,0,0,1-.45,2.07,3.31,3.31,0,0,1-1.24,1.42,3.45,3.45,0,0,1-1.84.5,3.25,3.25,0,0,1-2.56-1.11,4.26,4.26,0,0,1-1-3Zm.88.24a3.57,3.57,0,0,0,.74,2.33,2.47,2.47,0,0,0,3.85,0,3.7,3.7,0,0,0,.74-2.4v-.17a4.07,4.07,0,0,0-.34-1.66,2.65,2.65,0,0,0-.95-1.17,2.38,2.38,0,0,0-1.39-.42,2.34,2.34,0,0,0-1.91.92,3.77,3.77,0,0,0-.74,2.41Z" transform="translate(-21.9)"/><path d="M478.37,134.3l0,1.36a3.22,3.22,0,0,1,1.11-1.12,3,3,0,0,1,1.48-.38,2.36,2.36,0,0,1,1.89.72,3.15,3.15,0,0,1,.63,2.15v5.2h-.87V137a2.36,2.36,0,0,0-.45-1.58,1.75,1.75,0,0,0-1.42-.52,2.23,2.23,0,0,0-1.44.51,3.05,3.05,0,0,0-.92,1.37v5.43h-.87V134.3Z" transform="translate(-21.9)"/><path d="M490.79,132.28v2h1.64V135h-1.64v5.29a1.63,1.63,0,0,0,.23,1,.92.92,0,0,0,.8.32,5.23,5.23,0,0,0,.71-.07l0,.71a3,3,0,0,1-.94.13,1.56,1.56,0,0,1-1.31-.53,2.42,2.42,0,0,1-.41-1.54V135h-1.46v-.72h1.46v-2Z" transform="translate(-21.9)"/><path d="M495.11,135.64a3,3,0,0,1,1.11-1.09,2.89,2.89,0,0,1,1.47-.39,2.39,2.39,0,0,1,1.9.72,3.26,3.26,0,0,1,.63,2.15v5.2h-.87V137a2.48,2.48,0,0,0-.45-1.58,1.77,1.77,0,0,0-1.42-.52,2.23,2.23,0,0,0-1.44.51,3,3,0,0,0-.93,1.37v5.43h-.87V131h.87Z" transform="translate(-21.9)"/><path d="M502.42,132a.6.6,0,0,1,.16-.41.57.57,0,0,1,.44-.17.57.57,0,0,1,.45.17.56.56,0,0,1,.16.41.57.57,0,0,1-.16.42.61.61,0,0,1-.45.17.57.57,0,0,1-.6-.59Zm1,10.22h-.88V134.3h.88Z" transform="translate(-21.9)"/><path d="M510.58,140.22a1.24,1.24,0,0,0-.52-1.05,4,4,0,0,0-1.58-.62,7.46,7.46,0,0,1-1.64-.51,2.29,2.29,0,0,1-.86-.71,1.76,1.76,0,0,1-.28-1,1.89,1.89,0,0,1,.78-1.55,3.15,3.15,0,0,1,2-.61,3.32,3.32,0,0,1,2.13.65,2.12,2.12,0,0,1,.8,1.71h-.88a1.42,1.42,0,0,0-.58-1.15,2.6,2.6,0,0,0-2.86-.08,1.19,1.19,0,0,0-.52,1,1.09,1.09,0,0,0,.43.92,4.56,4.56,0,0,0,1.59.59,8.15,8.15,0,0,1,1.73.58,2.32,2.32,0,0,1,.85.74,2,2,0,0,1-.53,2.65,3.39,3.39,0,0,1-2.11.61,3.63,3.63,0,0,1-2.25-.67,2.09,2.09,0,0,1-.86-1.7h.88a1.55,1.55,0,0,0,.65,1.2,2.71,2.71,0,0,0,1.58.43,2.49,2.49,0,0,0,1.48-.41A1.18,1.18,0,0,0,510.58,140.22Z" transform="translate(-21.9)"/><path d="M523.45,138.35a4.77,4.77,0,0,1-.82,2.94,2.63,2.63,0,0,1-2.2,1.09,3,3,0,0,1-2.49-1.15v4.05h-.87v-11h.82l0,1.12a2.82,2.82,0,0,1,2.48-1.26,2.65,2.65,0,0,1,2.23,1.07,4.89,4.89,0,0,1,.81,3Zm-.88-.16a4,4,0,0,0-.62-2.39,2,2,0,0,0-1.74-.88,2.32,2.32,0,0,0-2.27,1.52v3.8a2.36,2.36,0,0,0,.9,1,2.64,2.64,0,0,0,1.39.36,2,2,0,0,0,1.72-.89A4.38,4.38,0,0,0,522.57,138.19Z" transform="translate(-21.9)"/><path d="M530.4,142.23a3.91,3.91,0,0,1-.17-1.11,3.1,3.1,0,0,1-1.18.93,3.54,3.54,0,0,1-1.51.33,2.68,2.68,0,0,1-1.85-.64,2.09,2.09,0,0,1-.71-1.61,2.11,2.11,0,0,1,1-1.83,4.6,4.6,0,0,1,2.68-.68h1.59v-.9a1.78,1.78,0,0,0-.52-1.34,2.19,2.19,0,0,0-1.53-.48,2.36,2.36,0,0,0-1.52.47,1.38,1.38,0,0,0-.6,1.12h-.88a2.06,2.06,0,0,1,.88-1.64,3.41,3.41,0,0,1,2.16-.69,3.08,3.08,0,0,1,2.09.66,2.37,2.37,0,0,1,.79,1.85v3.75a4.66,4.66,0,0,0,.24,1.72v.09Zm-2.76-.63a2.87,2.87,0,0,0,1.57-.43,2.5,2.5,0,0,0,1-1.13V138.3h-1.57a3.93,3.93,0,0,0-2,.48,1.44,1.44,0,0,0-.74,1.27,1.42,1.42,0,0,0,.5,1.11A1.86,1.86,0,0,0,527.64,141.6Z" transform="translate(-21.9)"/><path d="M533.08,138.19a4.73,4.73,0,0,1,.82-2.94,2.64,2.64,0,0,1,2.24-1.09,2.75,2.75,0,0,1,2.46,1.29l0-1.15h.82v7.77a3.34,3.34,0,0,1-.85,2.42,3.08,3.08,0,0,1-2.33.9,3.58,3.58,0,0,1-1.57-.37,3.08,3.08,0,0,1-1.19-1l.49-.53a2.8,2.8,0,0,0,2.22,1.15,2.25,2.25,0,0,0,1.71-.65,2.6,2.6,0,0,0,.64-1.8v-1a2.86,2.86,0,0,1-2.46,1.18,2.65,2.65,0,0,1-2.21-1.1,4.8,4.8,0,0,1-.83-3Zm.88.16a4.11,4.11,0,0,0,.61,2.39,2,2,0,0,0,1.71.87,2.35,2.35,0,0,0,2.3-1.45v-3.68a2.47,2.47,0,0,0-.89-1.16,2.37,2.37,0,0,0-1.39-.4,2,2,0,0,0-1.72.87A4.41,4.41,0,0,0,534,138.35Z" transform="translate(-21.9)"/><path d="M544.82,142.38a3.44,3.44,0,0,1-1.83-.5,3.35,3.35,0,0,1-1.27-1.39,4.24,4.24,0,0,1-.46-2v-.31a4.62,4.62,0,0,1,.45-2.06,3.47,3.47,0,0,1,1.23-1.44,3,3,0,0,1,1.72-.52,2.86,2.86,0,0,1,2.28,1,4,4,0,0,1,.85,2.69v.49h-5.65v.17a3.31,3.31,0,0,0,.77,2.25,2.44,2.44,0,0,0,1.94.9,2.83,2.83,0,0,0,1.24-.26,2.78,2.78,0,0,0,1-.82l.55.42A3.2,3.2,0,0,1,544.82,142.38Zm-.16-7.48a2.21,2.21,0,0,0-1.67.73,3.36,3.36,0,0,0-.83,2h4.76v-.1a3,3,0,0,0-.65-1.86A2,2,0,0,0,544.66,134.9Z" transform="translate(-21.9)"/><path d="M549.31,144.22l-.52-.38a3.12,3.12,0,0,0,.69-1.85v-1.14h.86v.92A3.14,3.14,0,0,1,549.31,144.22Z" transform="translate(-21.9)"/><path d="M557.91,140.4l.13.69.18-.72,1.9-6.07h.75l1.88,6,.21.83.17-.77,1.62-6.08h.91l-2.31,7.93h-.74l-2-6.29-.09-.43-.1.44-2,6.28h-.75l-2.3-7.93h.91Z" transform="translate(-21.9)"/><path d="M567.27,132a.6.6,0,0,1,.16-.41.57.57,0,0,1,.44-.17.57.57,0,0,1,.45.17.56.56,0,0,1,.16.41.57.57,0,0,1-.16.42.61.61,0,0,1-.45.17.57.57,0,0,1-.6-.59Zm1,10.22h-.88V134.3h.88Z" transform="translate(-21.9)"/><path d="M572.05,132.28v2h1.64V135h-1.64v5.29a1.63,1.63,0,0,0,.24,1,.89.89,0,0,0,.79.32,5.09,5.09,0,0,0,.71-.07l0,.71a2.9,2.9,0,0,1-.94.13,1.56,1.56,0,0,1-1.31-.53,2.48,2.48,0,0,1-.41-1.54V135h-1.46v-.72h1.46v-2Z" transform="translate(-21.9)"/><path d="M576.38,135.64a3,3,0,0,1,1.1-1.09,2.89,2.89,0,0,1,1.47-.39,2.37,2.37,0,0,1,1.9.72,3.15,3.15,0,0,1,.63,2.15v5.2h-.87V137a2.48,2.48,0,0,0-.45-1.58,1.77,1.77,0,0,0-1.42-.52,2.23,2.23,0,0,0-1.44.51,3.05,3.05,0,0,0-.92,1.37v5.43h-.88V131h.88Z" transform="translate(-21.9)"/><path d="M458,159l2.32-6.67h.94l-3.38,9.28-.18.41a2.12,2.12,0,0,1-2,1.44,2.94,2.94,0,0,1-.68-.1v-.73l.45.05a1.66,1.66,0,0,0,1.05-.32,2.47,2.47,0,0,0,.67-1.1l.39-1.07-3-7.86h1Z" transform="translate(-21.9)"/><path d="M462,156.15a4.62,4.62,0,0,1,.45-2.06,3.33,3.33,0,0,1,1.25-1.42,3.37,3.37,0,0,1,1.84-.51,3.27,3.27,0,0,1,2.56,1.11,4.3,4.3,0,0,1,1,2.94v.18a4.76,4.76,0,0,1-.44,2.07,3.4,3.4,0,0,1-1.25,1.42,3.45,3.45,0,0,1-1.84.5,3.27,3.27,0,0,1-2.56-1.11,4.26,4.26,0,0,1-1-3Zm.88.24a3.57,3.57,0,0,0,.74,2.33,2.47,2.47,0,0,0,3.85,0,3.7,3.7,0,0,0,.74-2.4v-.17a3.91,3.91,0,0,0-.34-1.66,2.63,2.63,0,0,0-.94-1.17,2.4,2.4,0,0,0-1.39-.42,2.36,2.36,0,0,0-1.92.92,3.77,3.77,0,0,0-.74,2.41Z" transform="translate(-21.9)"/><path d="M476,159.22a2.85,2.85,0,0,1-2.53,1.16,2.47,2.47,0,0,1-1.93-.74,3.23,3.23,0,0,1-.67-2.18V152.3h.87v5c0,1.51.61,2.26,1.83,2.26A2.24,2.24,0,0,0,476,158V152.3h.88v7.93H476Z" transform="translate(-21.9)"/><path d="M482.79,153.05a3.61,3.61,0,0,0-.59-.05,2.12,2.12,0,0,0-1.39.46,2.48,2.48,0,0,0-.81,1.33v5.44h-.87V152.3H480v1.26a2.33,2.33,0,0,1,2.23-1.4,1.5,1.5,0,0,1,.58.09Z" transform="translate(-21.9)"/><path d="M490.75,159.64a2.37,2.37,0,0,0,1.54-.52,1.86,1.86,0,0,0,.67-1.34h.84a2.47,2.47,0,0,1-.46,1.32,2.81,2.81,0,0,1-1.1.94,3.46,3.46,0,0,1-1.49.34,3.07,3.07,0,0,1-2.47-1.09,4.35,4.35,0,0,1-.91-2.91v-.27a4.84,4.84,0,0,1,.41-2.07,3.14,3.14,0,0,1,1.17-1.39,3.23,3.23,0,0,1,1.79-.49,3.12,3.12,0,0,1,2.16.77,2.86,2.86,0,0,1,.9,2H493a2.28,2.28,0,0,0-4.06-1.22,3.91,3.91,0,0,0-.65,2.4v.26a3.86,3.86,0,0,0,.65,2.37A2.23,2.23,0,0,0,490.75,159.64Z" transform="translate(-21.9)"/><path d="M495.07,156.15a4.61,4.61,0,0,1,.44-2.06,3.33,3.33,0,0,1,1.25-1.42,3.37,3.37,0,0,1,1.84-.51,3.25,3.25,0,0,1,2.56,1.11,4.3,4.3,0,0,1,1,2.94v.18a4.76,4.76,0,0,1-.44,2.07,3.33,3.33,0,0,1-1.25,1.42,3.45,3.45,0,0,1-1.84.5,3.27,3.27,0,0,1-2.56-1.11,4.26,4.26,0,0,1-1-3Zm.88.24a3.57,3.57,0,0,0,.73,2.33,2.47,2.47,0,0,0,3.85,0,3.7,3.7,0,0,0,.74-2.4v-.17a3.91,3.91,0,0,0-.34-1.66,2.63,2.63,0,0,0-.94-1.17,2.48,2.48,0,0,0-3.31.5,3.76,3.76,0,0,0-.73,2.41Z" transform="translate(-21.9)"/><path d="M504.79,152.3l0,1.36a3.06,3.06,0,0,1,1.11-1.12,2.93,2.93,0,0,1,1.47-.38,2.39,2.39,0,0,1,1.9.72,3.26,3.26,0,0,1,.63,2.15v5.2h-.87V155a2.42,2.42,0,0,0-.46-1.58,1.73,1.73,0,0,0-1.41-.52,2.23,2.23,0,0,0-1.44.51,3,3,0,0,0-.93,1.37v5.43H504V152.3Z" transform="translate(-21.9)"/><path d="M513.55,150.28v2h1.64V153h-1.64v5.29a1.63,1.63,0,0,0,.24,1,.9.9,0,0,0,.79.32,5.2,5.2,0,0,0,.72-.07l0,.71a2.88,2.88,0,0,1-.93.13,1.58,1.58,0,0,1-1.32-.53,2.48,2.48,0,0,1-.41-1.54V153h-1.45v-.72h1.45v-2Z" transform="translate(-21.9)"/><path d="M520.67,153.05a3.61,3.61,0,0,0-.59-.05,2.12,2.12,0,0,0-1.39.46,2.48,2.48,0,0,0-.81,1.33v5.44H517V152.3h.86v1.26a2.34,2.34,0,0,1,2.24-1.4,1.48,1.48,0,0,1,.57.09Z" transform="translate(-21.9)"/><path d="M526.77,160.23a3.91,3.91,0,0,1-.17-1.11,3.1,3.1,0,0,1-1.18.93,3.54,3.54,0,0,1-1.51.33,2.68,2.68,0,0,1-1.85-.64,2.09,2.09,0,0,1-.71-1.61,2.11,2.11,0,0,1,1-1.83,4.6,4.6,0,0,1,2.68-.68h1.59v-.9a1.78,1.78,0,0,0-.52-1.34,2.19,2.19,0,0,0-1.53-.48,2.36,2.36,0,0,0-1.52.47,1.38,1.38,0,0,0-.6,1.12h-.88a2.06,2.06,0,0,1,.88-1.64,3.41,3.41,0,0,1,2.16-.69,3.08,3.08,0,0,1,2.09.66,2.37,2.37,0,0,1,.79,1.85v3.75a4.66,4.66,0,0,0,.24,1.72v.09ZM524,159.6a2.87,2.87,0,0,0,1.57-.43,2.5,2.5,0,0,0,1-1.13V156.3H525a3.93,3.93,0,0,0-2,.48,1.44,1.44,0,0,0-.74,1.27,1.42,1.42,0,0,0,.5,1.11A1.86,1.86,0,0,0,524,159.6Z" transform="translate(-21.9)"/><path d="M532.73,159.64a2.32,2.32,0,0,0,1.53-.52,1.82,1.82,0,0,0,.67-1.34h.84a2.38,2.38,0,0,1-.45,1.32,2.91,2.91,0,0,1-1.11.94,3.42,3.42,0,0,1-1.48.34,3.06,3.06,0,0,1-2.47-1.09,4.36,4.36,0,0,1-.92-2.91v-.27a5,5,0,0,1,.41-2.07,3.11,3.11,0,0,1,3-1.88,3.08,3.08,0,0,1,2.15.77,2.82,2.82,0,0,1,.9,2h-.84a2.14,2.14,0,0,0-.67-1.5,2.37,2.37,0,0,0-3.38.28,3.85,3.85,0,0,0-.66,2.4v.26a3.79,3.79,0,0,0,.66,2.37A2.22,2.22,0,0,0,532.73,159.64Z" transform="translate(-21.9)"/><path d="M538.89,150.28v2h1.64V153h-1.64v5.29a1.63,1.63,0,0,0,.24,1,.89.89,0,0,0,.79.32,5.09,5.09,0,0,0,.71-.07l0,.71a3,3,0,0,1-.94.13,1.56,1.56,0,0,1-1.31-.53,2.48,2.48,0,0,1-.41-1.54V153h-1.46v-.72H538v-2Z" transform="translate(-21.9)"/><path d="M541.71,156.15a4.62,4.62,0,0,1,.45-2.06,3.33,3.33,0,0,1,1.25-1.42,3.36,3.36,0,0,1,1.83-.51,3.27,3.27,0,0,1,2.57,1.11,4.3,4.3,0,0,1,1,2.94v.18a4.76,4.76,0,0,1-.44,2.07,3.4,3.4,0,0,1-1.25,1.42,3.45,3.45,0,0,1-1.84.5,3.27,3.27,0,0,1-2.56-1.11,4.26,4.26,0,0,1-1-3Zm.88.24a3.57,3.57,0,0,0,.74,2.33,2.47,2.47,0,0,0,3.85,0,3.7,3.7,0,0,0,.74-2.4v-.17a3.91,3.91,0,0,0-.34-1.66,2.63,2.63,0,0,0-.94-1.17,2.41,2.41,0,0,0-1.4-.42,2.36,2.36,0,0,0-1.91.92,3.77,3.77,0,0,0-.74,2.41Z" transform="translate(-21.9)"/><path d="M554.26,153.05a3.61,3.61,0,0,0-.59-.05,2.12,2.12,0,0,0-1.39.46,2.48,2.48,0,0,0-.81,1.33v5.44h-.87V152.3h.86v1.26a2.33,2.33,0,0,1,2.23-1.4,1.5,1.5,0,0,1,.58.09Z" transform="translate(-21.9)"/><path d="M555.59,152.18l-.52-.38a3.16,3.16,0,0,0,.68-1.86v-1h.87v.74A3.14,3.14,0,0,1,555.59,152.18Z" transform="translate(-21.9)"/><path d="M562.35,158.22a1.24,1.24,0,0,0-.52-1.05,4,4,0,0,0-1.58-.62,7.46,7.46,0,0,1-1.64-.51,2.29,2.29,0,0,1-.86-.71,1.76,1.76,0,0,1-.28-1,1.89,1.89,0,0,1,.78-1.55,3.15,3.15,0,0,1,2-.61,3.32,3.32,0,0,1,2.13.65,2.12,2.12,0,0,1,.8,1.71h-.88a1.39,1.39,0,0,0-.58-1.15,2.6,2.6,0,0,0-2.86-.08,1.19,1.19,0,0,0-.52,1,1.09,1.09,0,0,0,.43.92,4.56,4.56,0,0,0,1.59.59,8.15,8.15,0,0,1,1.73.58,2.32,2.32,0,0,1,.85.74,2,2,0,0,1-.53,2.65,3.39,3.39,0,0,1-2.11.61,3.57,3.57,0,0,1-2.24-.67,2.07,2.07,0,0,1-.87-1.7h.88a1.55,1.55,0,0,0,.65,1.2,2.71,2.71,0,0,0,1.58.43,2.49,2.49,0,0,0,1.48-.41A1.18,1.18,0,0,0,562.35,158.22Z" transform="translate(-21.9)"/><path d="M568.8,150a.56.56,0,0,1,.16-.41.55.55,0,0,1,.44-.17.58.58,0,0,1,.61.58.57.57,0,0,1-.17.42.6.6,0,0,1-.44.17.59.59,0,0,1-.44-.17A.57.57,0,0,1,568.8,150Zm1,10.22H569V152.3h.88Z" transform="translate(-21.9)"/><path d="M573.05,152.3l0,1.36a3.06,3.06,0,0,1,1.11-1.12,2.93,2.93,0,0,1,1.47-.38,2.39,2.39,0,0,1,1.9.72,3.26,3.26,0,0,1,.63,2.15v5.2h-.87V155a2.48,2.48,0,0,0-.45-1.58,1.77,1.77,0,0,0-1.42-.52,2.23,2.23,0,0,0-1.44.51,3,3,0,0,0-.93,1.37v5.43h-.87V152.3Z" transform="translate(-21.9)"/><path d="M581.08,160.23V153h-1.31v-.72h1.31v-1a2.59,2.59,0,0,1,.62-1.86,2.25,2.25,0,0,1,1.73-.66,3.48,3.48,0,0,1,.93.13l-.07.72a3.94,3.94,0,0,0-.8-.08,1.45,1.45,0,0,0-1.13.45,1.85,1.85,0,0,0-.4,1.28v1h1.89V153H582v7.21Z" transform="translate(-21.9)"/><path d="M584.93,156.15a4.62,4.62,0,0,1,.45-2.06,3.33,3.33,0,0,1,1.25-1.42,3.36,3.36,0,0,1,1.83-.51,3.27,3.27,0,0,1,2.57,1.11,4.3,4.3,0,0,1,1,2.94v.18a4.76,4.76,0,0,1-.44,2.07,3.4,3.4,0,0,1-1.25,1.42,3.45,3.45,0,0,1-1.84.5,3.27,3.27,0,0,1-2.56-1.11,4.26,4.26,0,0,1-1-3Zm.88.24a3.57,3.57,0,0,0,.74,2.33,2.47,2.47,0,0,0,3.85,0,3.7,3.7,0,0,0,.74-2.4v-.17a3.91,3.91,0,0,0-.34-1.66,2.63,2.63,0,0,0-.94-1.17,2.41,2.41,0,0,0-1.4-.42,2.36,2.36,0,0,0-1.91.92,3.77,3.77,0,0,0-.74,2.41Z" transform="translate(-21.9)"/><path d="M593.74,159.7a.6.6,0,0,1,.16-.43.68.68,0,0,1,.92,0,.61.61,0,0,1,.17.43.57.57,0,0,1-.17.42.71.71,0,0,1-.92,0A.57.57,0,0,1,593.74,159.7Z" transform="translate(-21.9)"/><ellipse class="cls-26" cx="505.39" cy="86.84" rx="34.41" ry="6.07"/><circle class="cls-2" cx="504.78" cy="53.44" r="36.48"/><circle class="cls-7" cx="504.78" cy="53.44" r="33.22"/><path class="cls-8" d="M960,70.1c-.89,1.15-8.09,7.74-20.17,7.74s-21.33-8.26-24.16-11.67c-.78-.9.12-1.3.64-1,8.47,5.15,21.7,13.62,43.06,3.5C960.24,68.28,960.9,68.94,960,70.1Zm-2.31-11.42-6.56,6.48c-2.57-2.43-4.51-4.45-4.51-4.45a5.35,5.35,0,0,1-.72-1c-5.23,8.18-21.21,7.66-21.21-5,0-11.79,14-13.38,19.59-13.58V37.5c0-.78.29-4.34-4.1-4.34,0,0-4.39,0-6.27,5.73l-8.5-.78c0-5.7,5.41-12.06,15.58-12.06s13,6.59,13,9.51v17C954,55.76,957.69,58.68,957.69,58.68ZM944.28,51.2V46.52c-3.9.11-9.74,1.21-9.74,6.67C934.54,59.06,944.28,60.44,944.28,51.2ZM964.6,70.36a9.58,9.58,0,0,1-2.46,3.58c-.63.52-1.09.32-.75-.43s2.23-5.38,1.48-6.36-4.28-.49-5.55-.38-1.51.24-1.62,0c-.26-.67,2.51-1.8,4.33-2s4.74-.08,5.32.67C965.79,66,965.35,68.51,964.6,70.36Z" transform="translate(-21.9)"/><path class="cls-8" d="M451.25,323.45v3.8a.69.69,0,0,1-.69.7h-2.93a.71.71,0,0,1-.7-.7v-3.8a13.78,13.78,0,0,1-8-3.89.72.72,0,0,1,0-.89l2.24-2.94a.7.7,0,0,1,.5-.26.61.61,0,0,1,.52.2s3.09,2.93,6.93,2.93c2.13,0,4.44-1.13,4.44-3.58,0-2.09-2.57-3.11-5.5-4.29-3.91-1.54-8.78-3.5-8.78-9,0-4,3.13-7.3,7.67-8.17v-3.92a.7.7,0,0,1,.7-.69h2.93a.68.68,0,0,1,.69.69v3.83a11.75,11.75,0,0,1,6.85,3,.69.69,0,0,1,.11.82l-1.76,3.18a.64.64,0,0,1-.5.34.7.7,0,0,1-.59-.15,10,10,0,0,0-5.91-2.34c-2.76,0-4.67,1.36-4.67,3.34,0,2.31,2.65,3.33,5.74,4.52,4,1.55,8.52,3.31,8.52,8.54C459,319.19,455.86,322.69,451.25,323.45Z" transform="translate(-21.9)"/><text class="cls-3" transform="translate(734.42 124.23)">I apply for my <tspan x="-2.22" y="18">loan </tspan><tspan class="cls-4" x="29.46" y="18">t</tspan><tspan x="34.13" y="18">o get my </tspan><tspan x="10.15" y="36">new home </tspan><tspan x="0.89" y="54">imp</tspan><tspan class="cls-4" x="25.86" y="54">r</tspan><tspan class="cls-5" x="30.76" y="54">o</tspan><tspan class="cls-6" x="39.05" y="54">v</tspan><tspan x="46.17" y="54">ement </tspan><tspan x="20" y="72">p</tspan><tspan class="cls-4" x="28.32" y="72">r</tspan><tspan x="33.22" y="72">oject.</tspan></text><ellipse class="cls-27" cx="778.87" cy="87.63" rx="39.14" ry="6.91"/><circle class="cls-2" cx="778.87" cy="53.98" r="36.54"/><circle class="cls-7" cx="778.87" cy="53.98" r="33.26"/><path class="cls-8" d="M803.24,69.43v4a.72.72,0,0,1-.73.73h-3.08a.73.73,0,0,1-.73-.73v-4a14.37,14.37,0,0,1-8.36-4.08.75.75,0,0,1-.05-.93l2.35-3.08a.72.72,0,0,1,.52-.27.63.63,0,0,1,.55.2S797,64.35,801,64.35c2.23,0,4.65-1.18,4.65-3.76,0-2.19-2.69-3.26-5.77-4.49-4.1-1.62-9.2-3.67-9.2-9.39,0-4.19,3.28-7.65,8-8.57V34a.73.73,0,0,1,.73-.73h3.08a.72.72,0,0,1,.73.73v4a12.29,12.29,0,0,1,7.17,3.13.72.72,0,0,1,.12.86l-1.85,3.33a.66.66,0,0,1-.52.36.74.74,0,0,1-.62-.16,10.49,10.49,0,0,0-6.19-2.46c-2.9,0-4.9,1.44-4.9,3.51,0,2.42,2.78,3.49,6,4.74,4.19,1.62,8.93,3.47,8.93,9C811.39,65,808.07,68.63,803.24,69.43Z" transform="translate(-21.9)"/><path class="cls-8" d="M190.37,32.74a10.4,10.4,0,1,0,10.39,10.4A10.41,10.41,0,0,0,190.37,32.74Zm19.12,34.38a11.07,11.07,0,0,0-11.05-11.05h-.64a17.33,17.33,0,0,1-14.87,0h-.63a11.07,11.07,0,0,0-11.05,11.05v3a4,4,0,0,0,4,4H205.5a4,4,0,0,0,4-4Z" transform="translate(-21.9)"/><rect class="cls-8" x="484.54" y="38.97" width="4.99" height="4.99" rx="2.5"/><rect class="cls-8" x="492.98" y="39.84" width="32.03" height="3.26"/><rect class="cls-8" x="484.54" y="46.95" width="4.99" height="4.99" rx="2.5"/><rect class="cls-8" x="492.98" y="47.82" width="32.03" height="3.26"/><rect class="cls-8" x="484.54" y="54.94" width="4.99" height="4.99" rx="2.5"/><rect class="cls-8" x="492.98" y="55.8" width="32.03" height="3.26"/><rect class="cls-8" x="484.54" y="62.92" width="4.99" height="4.99" rx="2.5"/><rect class="cls-8" x="492.98" y="63.78" width="32.03" height="3.26"/></g></g></svg>