<svg xmlns="http://www.w3.org/2000/svg" xmlns:xlink="http://www.w3.org/1999/xlink" width="165.831" height="144.802" viewBox="0 0 165.831 144.802">
  <defs>
    <clipPath id="clip-path">
      <path id="Clip_13" data-name="Clip 13" d="M0,0H143.206V107.918H0Z" transform="translate(0 0.302)" fill="none"/>
    </clipPath>
  </defs>
  <g id="Group_2" data-name="Group 2" transform="translate(0 -0.455)">
    <path id="Fill_1" data-name="Fill 1" d="M47.647,88.1H7.718c-3.9,0-6.684-1.99-7.454-5.323A8.209,8.209,0,0,1,0,80.119V7.452C0,5.711.369,3.328,2.128,1.864,3.674.317,5.481,0,7.718,0H47.647a8.356,8.356,0,0,1,5.589,1.864,7.4,7.4,0,0,1,2.129,5.588V80.119a9.128,9.128,0,0,1-.266,2.663,6.7,6.7,0,0,1-2.63,3.859A8.2,8.2,0,0,1,47.647,88.1ZM27.681,77.192a3.506,3.506,0,0,0-3.459,3.461,2.885,2.885,0,0,0,.7,2.325,3.294,3.294,0,0,0,2.491,1.136,3.605,3.605,0,0,0,3.726-3.461A3.507,3.507,0,0,0,27.681,77.192ZM4.791,9.847V73.2H50.042V9.847H4.791Z" transform="translate(110.466 57.153)" fill="#fefefe"/>
    <path id="Fill_6" data-name="Fill 6" d="M1.284,21.785A74.085,74.085,0,0,0,6.827,35.272h17.8a66.107,66.107,0,0,1-4.366-7.066c-1.36-2.566-1.107-4.438,1.057-6.228,1.934-1.6,3.8-3.289,5.744-4.868,1.8-1.458,2.513-2.98,2.16-4.73H8.041c-2.929,0-3.728-1.065-3.728-3.994V0c-4.54,6.725-5.4,13.907-3.029,21.785" transform="translate(6.6 73.255)" fill="#fefefe"/>
    <g id="Group_14" data-name="Group 14" transform="translate(0 0.153)">
      <path id="Clip_13-2" data-name="Clip 13" d="M0,0H143.206V107.918H0Z" transform="translate(0 0.302)" fill="none"/>
      <g id="Group_14-2" data-name="Group 14" clip-path="url(#clip-path)">
        <path id="Fill_12" data-name="Fill 12" d="M132.292,0H10.913C3.459,0,0,3.461,0,10.648V96.892c0,6.8,2.69,10.291,8.426,11.027A79.206,79.206,0,0,1,3.684,95.849C.825,86.358,2.146,77.6,7.608,69.821a18.355,18.355,0,0,1,3.3-3.677V15.972c0-3.726.267-3.994,4.259-3.994H127.5c3.993,0,4.259.269,4.259,3.994V51.641h11.446V10.914C143.206,3.728,139.479,0,132.292,0" transform="translate(0 0.301)" fill="#fefefe"/>
      </g>
    </g>
    <path id="Fill_15" data-name="Fill 15" d="M9.777,0c.309,2.992-.963,5.818-3.824,8.138-1.016.823-2,1.676-3.048,2.575-.883.763-1.766,1.525-2.664,2.267A3.117,3.117,0,0,0,0,13.2a4.629,4.629,0,0,0,.263.576,60.735,60.735,0,0,0,5.958,9.121H29.414v6.121c0,3.461-3.728,5.59-6.388,6.922-.437.218-.874.412-1.311.59.963.584,1.927,1.167,2.94,1.709a4.666,4.666,0,0,0,.69.312,3.814,3.814,0,0,0,.349-.39c1.508-1.887,3.091-3.7,4.621-5.46l.644-.742a8.729,8.729,0,0,1,6.7-3.315,9.959,9.959,0,0,1,5.195,1.606C48.112,33.464,52.167,35.8,56,37.811a9.9,9.9,0,0,1,4.244,3.979h3.771c.267,0,.267-.267.532-.267a2,2,0,0,0,1.065-1.862A2.238,2.238,0,0,0,64.549,37.8a.26.26,0,0,0-.265-.265h-.267a16.992,16.992,0,0,1-4.791-1.6c-2.661-1.332-6.388-3.728-6.388-6.922V22.892H74.931V0H9.777Z" transform="translate(30.477 85.634)" fill="#fefefe"/>
  </g>
</svg>
