<svg xmlns="http://www.w3.org/2000/svg" xmlns:xlink="http://www.w3.org/1999/xlink" width="11.512" height="16.094" viewBox="0 0 11.512 16.094">
  <defs>
    <clipPath id="clip-path">
      <path id="Clip_2" data-name="Clip 2" d="M0,0H11.512V16.094H0Z" transform="translate(0 0)" fill="none"/>
    </clipPath>
  </defs>
  <g id="Group_3" data-name="Group 3" transform="translate(0 0)">
    <path id="Clip_2-2" data-name="Clip 2" d="M0,0H11.512V16.094H0Z" transform="translate(0 0)" fill="none"/>
    <g id="Group_3-2" data-name="Group 3" clip-path="url(#clip-path)">
      <path id="Fill_1" data-name="Fill 1" d="M10.441,16.095H1.071A1.073,1.073,0,0,1,0,15.023V1.071A1.072,1.072,0,0,1,1.071,0h9.37a1.073,1.073,0,0,1,1.072,1.071V15.023A1.073,1.073,0,0,1,10.441,16.095ZM8.935,12.83a.859.859,0,1,0,.859.859A.86.86,0,0,0,8.935,12.83Zm-3.179,0a.859.859,0,1,0,.859.859A.86.86,0,0,0,5.756,12.83Zm-3.179,0a.859.859,0,1,0,.859.859A.86.86,0,0,0,2.578,12.83ZM8.935,9.622a.859.859,0,1,0,.859.859A.86.86,0,0,0,8.935,9.622Zm-3.179,0a.859.859,0,1,0,.859.859A.86.86,0,0,0,5.756,9.622Zm-3.179,0a.859.859,0,1,0,.859.859A.86.86,0,0,0,2.578,9.622ZM8.935,6.414a.86.86,0,1,0,.859.859A.86.86,0,0,0,8.935,6.414Zm-3.179,0a.86.86,0,1,0,.859.859A.86.86,0,0,0,5.756,6.414Zm-3.179,0a.86.86,0,1,0,.859.859A.86.86,0,0,0,2.578,6.414ZM2.029,1.948a.31.31,0,0,0-.311.31V4.271a.311.311,0,0,0,.311.311H9.483a.311.311,0,0,0,.311-.311V2.257a.31.31,0,0,0-.311-.31Z" transform="translate(0 0)" fill="#fff"/>
    </g>
  </g>
</svg>
