<svg xmlns="http://www.w3.org/2000/svg" xmlns:xlink="http://www.w3.org/1999/xlink" width="52.965" height="50.454" viewBox="0 0 52.965 50.454"><defs><clipPath id="a"><path d="M0,0H52.964V19.372H0Z" transform="translate(0 0.441)" fill="none"/></clipPath><clipPath id="b"><path d="M0,0H52.965V26.351H0Z" transform="translate(0 0.559)" fill="none"/></clipPath></defs><g transform="translate(0 -0.585)"><g transform="translate(0 0.144)"><path d="M0,0H52.964V19.372H0Z" transform="translate(0 0.441)" fill="none"/><g clip-path="url(#a)"><path d="M52.375,19.372H.59A.59.59,0,0,1,0,18.782V15.351A4.356,4.356,0,0,1,4.351,11h7.773V7.987A8,8,0,0,1,20.111,0H32.854a8,8,0,0,1,7.987,7.987V11h7.772a4.356,4.356,0,0,1,4.351,4.351v3.431A.59.59,0,0,1,52.375,19.372ZM20.111,5.85a2.139,2.139,0,0,0-2.137,2.137V11H34.992V7.987A2.139,2.139,0,0,0,32.854,5.85Z" transform="translate(0 0.441)" fill="#fff"/></g></g><g transform="translate(0 24.129)"><path d="M0,0H52.965V26.351H0Z" transform="translate(0 0.559)" fill="none"/><g clip-path="url(#b)"><path d="M48.614,26.351H4.35A4.355,4.355,0,0,1,0,22V.59A.59.59,0,0,1,.59,0H52.375a.591.591,0,0,1,.59.59V22A4.356,4.356,0,0,1,48.614,26.351ZM26.482,4.222a.545.545,0,0,0-.389.161L18.31,12.165a.551.551,0,0,0,.39.94h4.173a.551.551,0,0,1,.551.551v7.924a.551.551,0,0,0,.551.551h5.014a.551.551,0,0,0,.551-.551V13.656a.551.551,0,0,1,.551-.551h4.174a.55.55,0,0,0,.39-.94L26.871,4.383A.545.545,0,0,0,26.482,4.222Z" transform="translate(0 0.559)" fill="#fff"/></g></g></g></svg>