<svg xmlns="http://www.w3.org/2000/svg" width="84.148" height="84.148" viewBox="0 0 84.148 84.148">
  <g id="Group_6" data-name="Group 6" transform="translate(-1098.613 -634.793)">
    <g id="Group_45_Copy_2" data-name="Group 45 Copy 2" transform="translate(1100 636)">
      <path id="Fill_42" data-name="Fill 42" d="M80.841,40.421A40.42,40.42,0,1,1,40.42,0,40.42,40.42,0,0,1,80.841,40.421" transform="translate(0.267 0.447)" fill="#0087cd"/>
      <path id="Stroke_44" data-name="Stroke 44" d="M80.841,40.421A40.42,40.42,0,1,1,40.42,0,40.42,40.42,0,0,1,80.841,40.421" transform="translate(0.267 0.447)" fill="none" stroke="#fefefe" stroke-miterlimit="10" stroke-width="3.307"/>
    </g>
    <path id="Fill_46_Copy_2" data-name="Fill 46 Copy 2" d="M38.5,33H5.5A5.506,5.506,0,0,1,0,27.5V24.2a1.1,1.1,0,0,1,1.1-1.1H4.4V4.4A4.406,4.406,0,0,1,8.8,0H35.2a4.405,4.405,0,0,1,4.4,4.4V23.1h3.3A1.1,1.1,0,0,1,44,24.2v3.3A5.507,5.507,0,0,1,38.5,33ZM2.2,25.3v2.2a3.3,3.3,0,0,0,3.3,3.3h33a3.3,3.3,0,0,0,3.3-3.3V25.3H28.41A3.305,3.305,0,0,1,25.3,27.5H18.7a3.307,3.307,0,0,1-3.11-2.2ZM8.8,2.2A2.2,2.2,0,0,0,6.6,4.4V23.1h10.51a.578.578,0,0,1,.544.487A2.188,2.188,0,0,0,19.8,25.3h4.4a2.188,2.188,0,0,0,2.146-1.713.58.58,0,0,1,.544-.487H37.4V4.4a2.2,2.2,0,0,0-2.2-2.2Zm9.121,14.85a.547.547,0,0,1-.39-.161l-4.4-4.4a.548.548,0,0,1,0-.775l4.4-4.4a.552.552,0,0,1,.778,0l.778.777a.55.55,0,0,1,0,.777L15.857,12.1l3.232,3.232a.553.553,0,0,1,0,.779l-.778.778A.545.545,0,0,1,17.922,17.051Zm8.155,0a.547.547,0,0,1-.388-.159l-.778-.778a.541.541,0,0,1-.162-.385.55.55,0,0,1,.162-.393L28.144,12.1,24.912,8.866a.549.549,0,0,1,0-.778l.778-.779a.549.549,0,0,1,.776,0l4.4,4.4a.552.552,0,0,1,0,.778l-4.4,4.4A.547.547,0,0,1,26.077,17.049Z" transform="translate(1119 660)" fill="#fefefe"/>
  </g>
</svg>
