<svg xmlns="http://www.w3.org/2000/svg" xmlns:xlink="http://www.w3.org/1999/xlink" width="182.793" height="137.095" viewBox="0 0 182.793 137.095">
  <defs>
    <clipPath id="clip-path">
      <path id="Clip_2" data-name="Clip 2" d="M0,0H182.793V33.441H0Z" transform="translate(0 0.651)" fill="none"/>
    </clipPath>
    <clipPath id="clip-path-2">
      <path id="Clip_5" data-name="Clip 5" d="M0,0H146.236V103.653H0Z" transform="translate(0.254 0.06)" fill="none"/>
    </clipPath>
  </defs>
  <g id="Group_7_Copy" data-name="Group 7 Copy" transform="translate(0 -0.226)">
    <g id="Group_3" data-name="Group 3" transform="translate(0 103.228)">
      <path id="Clip_2-2" data-name="Clip 2" d="M0,0H182.793V33.441H0Z" transform="translate(0 0.651)" fill="none"/>
      <g id="Group_3-2" data-name="Group 3" clip-path="url(#clip-path)">
        <path id="Fill_1" data-name="Fill 1" d="M178.226.005h-13.71V0H118.533a14.451,14.451,0,0,1-13.425,9.146H77.691A14.459,14.459,0,0,1,64.26,0H18.28V.005H4.57A4.569,4.569,0,0,0,0,4.576v6.016a22.874,22.874,0,0,0,22.847,22.85h137.1a22.873,22.873,0,0,0,22.847-22.85V4.576a4.568,4.568,0,0,0-4.567-4.57" transform="translate(0 0.651)" fill="#fefefe"/>
      </g>
    </g>
    <g id="Group_6" data-name="Group 6" transform="translate(18.026 0.165)">
      <path id="Clip_5-2" data-name="Clip 5" d="M0,0H146.236V103.653H0Z" transform="translate(0.254 0.06)" fill="none"/>
      <g id="Group_6-2" data-name="Group 6" clip-path="url(#clip-path-2)">
        <path id="Fill_4" data-name="Fill 4" d="M86.826,103.655H59.408a12.992,12.992,0,0,1-12.237-8.663L47,94.509H0V18.28A18.3,18.3,0,0,1,18.277,0H127.956a18.3,18.3,0,0,1,18.28,18.28V94.509h-47l-.173.482A12.984,12.984,0,0,1,86.826,103.655ZM32.441,20.009a2.715,2.715,0,0,0-2.713,2.71v56.95a5.43,5.43,0,0,0,5.426,5.422h78.64a2.716,2.716,0,0,0,2.713-2.713v-2.71a2.716,2.716,0,0,0-2.713-2.714H37.863V22.719a2.713,2.713,0,0,0-2.71-2.71Zm64.54,5.425a2.316,2.316,0,0,0-2.167,2.17V66.652a2.349,2.349,0,0,0,2.167,2.17h3.8a2.317,2.317,0,0,0,2.17-2.17V27.6a2.317,2.317,0,0,0-2.17-2.17ZM80.711,41.7a2.316,2.316,0,0,0-2.17,2.167V66.652a2.317,2.317,0,0,0,2.17,2.17h3.8a2.35,2.35,0,0,0,2.17-2.17V43.871a2.349,2.349,0,0,0-2.17-2.167ZM64.439,30.855a2.35,2.35,0,0,0-2.17,2.17V66.652a2.35,2.35,0,0,0,2.17,2.17h3.8a2.317,2.317,0,0,0,2.17-2.17V33.025a2.317,2.317,0,0,0-2.17-2.17Zm-16.27,21.7A2.317,2.317,0,0,0,46,54.72V66.652a2.317,2.317,0,0,0,2.169,2.17h3.794a2.317,2.317,0,0,0,2.17-2.17V54.72a2.317,2.317,0,0,0-2.17-2.17Z" transform="translate(0.254 0.059)" fill="#fefefe"/>
      </g>
    </g>
  </g>
</svg>
