<svg xmlns="http://www.w3.org/2000/svg" width="84" height="84" viewBox="0 0 84 84">
  <g id="Group_1" data-name="Group 1" transform="translate(-270 -857)">
    <path id="Fill_9_Copy" data-name="Fill 9 Copy" d="M42,0A42,42,0,1,0,84,42,42,42,0,0,0,42,0" transform="translate(270 857)" fill="#0079c2"/>
    <path id="Fill_1" data-name="Fill 1" d="M23.029,40.2A52.319,52.319,0,0,0,2.216,35.522,2.232,2.232,0,0,1,0,33.29V2.245A2.243,2.243,0,0,1,2.259,0,52.5,52.5,0,0,1,23.68,4.975a.994.994,0,0,1,.573.9V39.418a.864.864,0,0,1-1.224.783" transform="translate(286 880)" fill="#fefefe"/>
    <path id="Fill_3" data-name="Fill 3" d="M1.225,40.2a52.314,52.314,0,0,1,20.812-4.678,2.233,2.233,0,0,0,2.217-2.232V2.245A2.244,2.244,0,0,0,21.994,0,52.5,52.5,0,0,0,.573,4.975a.994.994,0,0,0-.573.9V39.418a.865.865,0,0,0,1.225.783" transform="translate(313.518 880)" fill="#fefefe"/>
  </g>
</svg>
