<svg xmlns="http://www.w3.org/2000/svg" xmlns:xlink="http://www.w3.org/1999/xlink" width="219.868" height="49.527" viewBox="0 0 219.868 49.527"><defs><clipPath id="a"><path d="M0,0H150.878V34.094H0Z" transform="translate(0.171 0.165)" fill="none"/></clipPath><clipPath id="b"><path d="M0,0H7.211V7.069H0Z" transform="translate(0.052 0.108)" fill="none"/></clipPath><clipPath id="c"><path d="M0,0H6.446V7.725H0Z" transform="translate(0 0.252)" fill="none"/></clipPath></defs><g transform="translate(0 -0.309)"><path d="M8.293,33.9c-3.03,0-5.318-1-6.8-2.983S-.372,25.775.379,21.53L3.848,1.787h-2.8L1.215.82H12.248l-.17.967h-2.8L5.987,20.462c-.412,2.348-.659,4.068-.734,5.112a8.425,8.425,0,0,0,.192,2.7,3.046,3.046,0,0,0,.083.338c.03.1.074.214.121.337A4.707,4.707,0,0,0,7.27,31.255a4.485,4.485,0,0,0,2.686.769,7.557,7.557,0,0,0,4.006-1.13,8.4,8.4,0,0,0,2.958-3.1,2.515,2.515,0,0,1,.138-.288,2.289,2.289,0,0,0,.14-.29,13.855,13.855,0,0,0,1.079-2.864c.285-1.07.617-2.683.986-4.8L21.506,6.788a9.767,9.767,0,0,0,.181-3.972c-.225-.693-1.075-1.03-2.6-1.03L19.251.82h6.618l-.176.967h-.248a2.477,2.477,0,0,0-1.989,1.2,14.555,14.555,0,0,0-1.207,4.284L20.06,19.74a38.311,38.311,0,0,1-1.735,6.893,12.957,12.957,0,0,1-2.507,4.142,9.334,9.334,0,0,1-3.347,2.383A11.16,11.16,0,0,1,8.293,33.9Zm22.133-.193h-.358a8.668,8.668,0,0,1-2.3-.506,11.421,11.421,0,0,1-1.975-.941c-.624-.344-1.17-.676-1.623-.986a2.248,2.248,0,0,0-.926-.455.69.69,0,0,0-.628.311c-.137.218-.257.431-.368.652l-.006.048-.01.048a2.35,2.35,0,0,1-.176.382,1.739,1.739,0,0,1-.238.34.393.393,0,0,0-.012.071c0,.017-.007.042-.014.072a.2.2,0,0,0-.054.1.331.331,0,0,1-.009.055.393.393,0,0,0-.008.04h-.61L23.069,20.8h.68c.006.4.012.77.02,1.135,0,.348.024.714.062,1.087a18.641,18.641,0,0,0,1.85,6.715,4.966,4.966,0,0,0,4.657,3.053,5.782,5.782,0,0,0,4.148-1.728,8.234,8.234,0,0,0,2.28-4.567c.4-2.295-.007-3.857-1.22-4.642a16.648,16.648,0,0,0-4.208-1.9,1.155,1.155,0,0,0-.2-.071.9.9,0,0,1-.179-.063l-.024-.01c-1-.331-1.951-.7-2.828-1.088a4.871,4.871,0,0,1-2.164-1.8A6.39,6.39,0,0,1,24.9,14.039a14.63,14.63,0,0,1,0-3.461,3.687,3.687,0,0,1,.053-.506c.031-.175.06-.342.09-.5A12.485,12.485,0,0,1,28.43,2.79,8.259,8.259,0,0,1,34.4.1a5.837,5.837,0,0,1,2.242.406,15.188,15.188,0,0,1,1.8.888c.5.3.985.6,1.441.895A2.156,2.156,0,0,0,41.02,2.7a.83.83,0,0,0,.753-.386A4.8,4.8,0,0,0,42.245.869L42.934.82l-1.813,10.3H40.4A15.842,15.842,0,0,0,39.162,4.2a4.719,4.719,0,0,0-4.57-3.136A5.528,5.528,0,0,0,30.8,2.619a6.512,6.512,0,0,0-2.1,3.764A4.411,4.411,0,0,0,29.191,9.9a7.19,7.19,0,0,0,3.637,1.987c.325.106.6.191.871.264.333.1.612.164.877.216.288.1.56.191.833.266.331.092.611.161.879.218a6.532,6.532,0,0,1,3.882,3.465,11.048,11.048,0,0,1,.463,6.561,14.807,14.807,0,0,1-3.706,7.8A8.788,8.788,0,0,1,30.425,33.711Zm14.655-.772h-6.9l.162-.914c.067,0,.137,0,.214,0a3.555,3.555,0,0,0,2.31-.676,8.1,8.1,0,0,0,1.84-2.888L55.261,0H55.8l3.455,32.024h2.3l-.161.914H50.577l.162-.914h2.73l-.816-9.241H46.04l-2.38,5.342c-.21.5-.382.948-.527,1.373a8.586,8.586,0,0,0-.309,1.13,1.04,1.04,0,0,0,.328,1.111,2.6,2.6,0,0,0,1.5.336l.582-.05-.159.914Zm6.467-22.687h0l-5.042,11.52h6.071l-1.03-11.52Z" transform="translate(151.352 0.932)" fill="#fff"/><g transform="translate(0 0.144)"><path d="M0,0H150.878V34.094H0Z" transform="translate(0.171 0.165)" fill="none"/><g clip-path="url(#a)"><path d="M49.493,34.095a5.822,5.822,0,0,1-5.281-2.963,10.6,10.6,0,0,1-1-7.482,15.044,15.044,0,0,1,3.694-7.74,8.517,8.517,0,0,1,6.3-3.155,5.156,5.156,0,0,1,4.6,2.888,10.46,10.46,0,0,1,1.079,6.946H48.462c-.221,1.385-.412,2.683-.569,3.858-.16,1.211-.257,2.087-.306,2.757a4.377,4.377,0,0,0,.654,2.824,2.512,2.512,0,0,0,2.182,1.055,6.075,6.075,0,0,0,4.217-1.9,13.611,13.611,0,0,0,3.2-5.127l.657-.049a13.544,13.544,0,0,1-3.646,6.017A7.891,7.891,0,0,1,49.493,34.095Zm3.332-20.566a2.659,2.659,0,0,0-2.2.956,7.968,7.968,0,0,0-1.236,3.252c-.131.606-.261,1.241-.4,1.941-.111.572-.222,1.172-.357,1.946h5.316L54.1,20.8c.008-.047.017-.1.027-.151s.022-.12.033-.186l.014-.083c.017-.1.034-.2.053-.305s.037-.237.052-.409.035-.292.056-.41c.028-.162.056-.319.086-.484.02-.11.04-.229.062-.354l.03-.172a12.362,12.362,0,0,0,.107-3.252A1.571,1.571,0,0,0,52.825,13.529ZM106.606,34a2.627,2.627,0,0,1-1.911-.671,3.547,3.547,0,0,1-.86-2.166A6.267,6.267,0,0,1,98.412,34a5.48,5.48,0,0,1-4.243-1.514,4.835,4.835,0,0,1-.883-4.261,6.246,6.246,0,0,1,2.759-4.549,12.722,12.722,0,0,1,4.593-1.713,18.359,18.359,0,0,1,2.237-.243c.669-.03,1.326-.062,1.955-.094h.575l.542-3.284c.314-1.914.291-3.225-.069-3.9s-1.215-1.011-2.552-1.011c-.1,0-.342.016-.676.046a9.25,9.25,0,0,0-1.162.194,7.237,7.237,0,0,0-1.312.5,1.144,1.144,0,0,0-.715.794l-.008.047a.6.6,0,0,0,.288.288,2.563,2.563,0,0,1,.52.435,2.233,2.233,0,0,1,.509.769,2.371,2.371,0,0,1,.059,1.3,3.95,3.95,0,0,1-.968,2.026,2.236,2.236,0,0,1-1.651.817,1.546,1.546,0,0,1-1.463-.867,3.608,3.608,0,0,1-.2-2.313,5.216,5.216,0,0,1,2.412-3.514,8.862,8.862,0,0,1,4.982-1.349,4.6,4.6,0,0,1,.481.025,3.917,3.917,0,0,0,.48.023,8.778,8.778,0,0,1,2.494.654,6.611,6.611,0,0,1,1.956,1.223,3.213,3.213,0,0,1,1.011,1.926,11.09,11.09,0,0,1-.2,3.275l-1.711,9.734a5.3,5.3,0,0,0-.1,1.9.628.628,0,0,0,.638.553c.291,0,.577-.211.851-.627a7.13,7.13,0,0,0,.778-1.877l.521.1a7.046,7.046,0,0,1-1.75,3.3A3.841,3.841,0,0,1,106.606,34Zm-1.327-11.649a25.5,25.5,0,0,0-3.432.311,4.9,4.9,0,0,0-1.814.7,3.342,3.342,0,0,0-1.173,1.469,12.258,12.258,0,0,0-.764,2.815,7.742,7.742,0,0,0,0,3.851,1.879,1.879,0,0,0,1.944,1.205,3.526,3.526,0,0,0,2.771-1.251,7.668,7.668,0,0,0,1.512-3.709Zm32.088,11.216h-7.689l.141-.816h1.44l5.355-30.434h-2.156l.153-.868h3.413c.138,0,.274.006.4.006a5.307,5.307,0,0,0,1.926-.271A2.353,2.353,0,0,0,141.551,0l-4.164,23.65,6-5.741a1.362,1.362,0,0,0,.185-.145.744.744,0,0,0,.159-.194,6.339,6.339,0,0,0,.877-1.084,2.747,2.747,0,0,0,.415-.938,1.418,1.418,0,0,0-.087-1.034.975.975,0,0,0-.859-.313l-1.176-.048.143-.819h7.831l-.141.819a5.98,5.98,0,0,0-3.57,1.3,33.208,33.208,0,0,0-3.2,2.837c-.108.118-.205.218-.3.313l-.028.029a3.827,3.827,0,0,0-.283.285c-.215.236-.442.461-.635.651-.231.223-.43.413-.608.582l4.129,12.6h2.012l-.142.815H138.7l.147-.816H140.6l-2.513-8.81-.912.914-1.394,7.9h1.726l-.143.816Zm-18.972,0h-8.983l.143-.816h2.156l3.272-18.592h-2.155l.143-.819h3.558l3.264-.071-.691,4.019a9.213,9.213,0,0,1,2.984-3.274,7.009,7.009,0,0,1,3.87-1.156,4.119,4.119,0,0,1,3.383,1.591c.842,1.05,1.092,2.588.743,4.572l-2.415,13.73H129.1l-.141.816h-8.269l.149-.816h2.153l2.721-15.463a3.182,3.182,0,0,0-.2-2.119,1.645,1.645,0,0,0-1.553-.77,4.584,4.584,0,0,0-3.378,1.949A9.422,9.422,0,0,0,118.47,20.9l-2.088,11.847h2.159l-.145.816Zm-88.141,0H21.271l.143-.816H23.57l3.274-18.592H24.689l.141-.819h3.557l3.251-.021-.671,3.969a9.17,9.17,0,0,1,2.98-3.274,7.016,7.016,0,0,1,3.869-1.156A4.125,4.125,0,0,1,41.2,14.443a5.606,5.606,0,0,1,.742,4.572l-2.417,13.73h2.157l-.145.815H32.557l.14-.816h2.161l2.72-15.463a3.141,3.141,0,0,0-.206-2.119,1.634,1.634,0,0,0-1.552-.77,4.588,4.588,0,0,0-3.38,1.949A9.428,9.428,0,0,0,30.328,20.9L28.246,32.746H30.4l-.145.816Zm50.377,0h-10.6l.161-.914h2.8L78.316,2.41h-2.8l.168-.967H82.8l2.416-.05.564.035h.012c.443.027.9.055,1.4.088a15.027,15.027,0,0,1,2.192.311,8.83,8.83,0,0,1,4.1,2.144c1.16,1.072,1.539,2.8,1.128,5.125a7.312,7.312,0,0,1-2.329,4.454,12.244,12.244,0,0,1-3.818,2.284,6.048,6.048,0,0,1-.842.312c-.251.074-.481.135-.7.189l.355.051.173.025.328.049.322.048a7.236,7.236,0,0,1,4.026,2.552c1.11,1.346,1.456,3.261,1.028,5.691a9.7,9.7,0,0,1-3.986,6.525A14.545,14.545,0,0,1,80.631,33.562Zm.276-16.47L78.169,32.647l.29,0a13.458,13.458,0,0,0,5.5-1.061c1.657-.74,2.817-2.934,3.449-6.52.517-2.954.389-5.046-.383-6.217s-2.237-1.76-4.359-1.76ZM83.494,2.41l-.013.048h0L81.059,16.223c.092,0,.191,0,.308,0a12.994,12.994,0,0,0,4.858-.868c1.5-.606,2.539-2.5,3.093-5.635.594-3.387.3-5.467-.868-6.184a9.57,9.57,0,0,0-4.965-1.082ZM66.582,33.562H57.061l.143-.816h2.158l3.271-18.592H60.476l.142-.819h3.52l3.278-.071-.543,3.1a8.4,8.4,0,0,1,2.22-2.695,4.253,4.253,0,0,1,2.6-1.013,1.862,1.862,0,0,1,1.79.963,4.021,4.021,0,0,1,.235,2.646,4.983,4.983,0,0,1-1.158,2.5,2.657,2.657,0,0,1-2.009,1.017,1.579,1.579,0,0,1-1.441-.92,3.4,3.4,0,0,1-.265-2.262,5.5,5.5,0,0,1,.335-1.182,3.7,3.7,0,0,1,.579-.935.632.632,0,0,1,.117-.166c.024-.029.047-.053.068-.074s.032-.034.046-.049A4.6,4.6,0,0,0,67.5,16.51a18.318,18.318,0,0,0-1.58,5.3L64,32.746h2.733l-.147.815Zm-45.452,0H0l.164-.914h2.8L8.287,2.41h-2.8l.167-.967H25.773l-1.5,9.148h-.683a9.033,9.033,0,0,0-.673-5.971,4.359,4.359,0,0,0-4.039-2.164L13.567,2.41l-2.42,13.765.338,0a10.669,10.669,0,0,0,4.6-.8c1.136-.557,1.995-2.442,2.551-5.605l.728-.049-2.552,14.5h-.646a9.009,9.009,0,0,0-.313-5.071,3.3,3.3,0,0,0-3.335-1.967H10.966L8.247,32.647h5.272a8.314,8.314,0,0,0,5.461-1.882c1.547-1.273,2.617-3.538,3.181-6.733.008-.058.02-.123.035-.191l0-.013c.009-.06.019-.122.03-.179a1.016,1.016,0,0,0,.014-.194,1.109,1.109,0,0,1,.014-.175l0-.018.689-.052L21.13,33.561Z" transform="translate(0.171 0.164)" fill="#fff"/></g></g><g transform="translate(212.605 1.07)"><path d="M0,0H7.211V7.069H0Z" transform="translate(0.052 0.108)" fill="none"/><g clip-path="url(#b)"><path d="M3.615,7.069A3.631,3.631,0,0,1,1.053,6.037,3.5,3.5,0,0,1,0,3.515a3.446,3.446,0,0,1,1.053-2.49A3.648,3.648,0,0,1,3.615,0a3.535,3.535,0,1,1,0,7.069ZM3.615.7A2.734,2.734,0,0,0,.9,3.515a2.709,2.709,0,0,0,2.735,2.8A2.6,2.6,0,0,0,5.549,5.5a2.849,2.849,0,0,0,.759-1.97,2.908,2.908,0,0,0-.762-2A2.613,2.613,0,0,0,3.615.7ZM3.059,5.356H2.248V1.84A7.148,7.148,0,0,1,3.6,1.733a2.19,2.19,0,0,1,1.218.256.973.973,0,0,1,.341.77.9.9,0,0,1-.726.817v.042a1.026,1.026,0,0,1,.637.857,2.819,2.819,0,0,0,.259.878l-.876,0a2.143,2.143,0,0,1-.237-.695L4.171,4.5c-.066-.389-.283-.555-.724-.555H3.059V5.355Zm.47-3.042a1.821,1.821,0,0,0-.449.041V3.361h.387c.512,0,.806-.186.806-.511C4.273,2.5,4.009,2.314,3.529,2.314Z" transform="translate(0.052 0.108)" fill="#fff"/></g></g><g transform="translate(0 39.65)"><path d="M0,0H6.446V7.725H0Z" transform="translate(0 0.252)" fill="none"/><g clip-path="url(#c)"><path d="M1.531,7.726H0L3.993,0H5.551l.894,7.724H4.91L4.761,6.06H2.346L1.531,7.726ZM4.36,1.942l-1.42,2.9H4.65l-.259-2.9-.032,0Z" transform="translate(0 0.252)" fill="#fff"/></g></g><path d="M2.485.784A2.264,2.264,0,0,1,3.231.2,2.128,2.128,0,0,1,4.159,0a1.267,1.267,0,0,1,.773.235,1.149,1.149,0,0,1,.423.7A2.426,2.426,0,0,1,6.131.245,1.994,1.994,0,0,1,7.109,0a1.2,1.2,0,0,1,1.1.6,2.536,2.536,0,0,1,.127,1.778L7.638,5.848H6.107L6.8,2.359a1.632,1.632,0,0,0,.014-.931.522.522,0,0,0-.506-.233.929.929,0,0,0-.5.149,1.522,1.522,0,0,0-.429.41c-.008.049-.015.1-.022.15s-.016.106-.027.162L4.577,5.848H3.057L3.75,2.359a1.588,1.588,0,0,0,.011-.923.525.525,0,0,0-.514-.241.994.994,0,0,0-.477.122,1.476,1.476,0,0,0-.413.335l-.837,4.2H0L1.144.107H2.558Z" transform="translate(6.78 41.78)" fill="#fff"/><path d="M2.155,5.96a2,2,0,0,1-1.716-.8A2.575,2.575,0,0,1,.051,3.142L.083,2.93A3.866,3.866,0,0,1,1.071.8,2.536,2.536,0,0,1,2.953,0h.011A1.785,1.785,0,0,1,4.522.708,2.506,2.506,0,0,1,4.84,2.6l-.133.843H1.54a1.534,1.534,0,0,0,.2.967.856.856,0,0,0,.768.359,2.713,2.713,0,0,0,.789-.105,4.236,4.236,0,0,0,.747-.324l.26.957a3.21,3.21,0,0,1-.93.476A3.805,3.805,0,0,1,2.155,5.96ZM2.774,1.2a.791.791,0,0,0-.627.331,2.222,2.222,0,0,0-.4.862l.011.026H3.378L3.4,2.277a1.329,1.329,0,0,0-.067-.8A.57.57,0,0,0,2.774,1.2Z" transform="translate(15.84 41.78)" fill="#fff"/><path d="M3.778,1.476l-.61-.015a.937.937,0,0,0-.5.135,1.142,1.142,0,0,0-.373.385L1.521,5.848H0L1.145.107H2.564L2.48.844,2.506.86A1.946,1.946,0,0,1,3.07.225,1.219,1.219,0,0,1,3.778,0,1.439,1.439,0,0,1,4.01.02a1.151,1.151,0,0,1,.207.044Z" transform="translate(20.944 41.78)" fill="#fff"/><path d="M1.526,8.278H0L1.144,2.537H2.67L1.526,8.277ZM2.945,1.163H1.419L1.652,0H3.179L2.945,1.162Z" transform="translate(24.759 39.35)" fill="#fff"/><path d="M2.284,4.765a.849.849,0,0,0,.606-.239,1.12,1.12,0,0,0,.321-.641H4.594l.011.032a2.19,2.19,0,0,1-.837,1.476A2.609,2.609,0,0,1,2.1,5.96,1.9,1.9,0,0,1,.4,5.138,2.84,2.84,0,0,1,.054,3.062L.081,2.9A3.788,3.788,0,0,1,1.058.8,2.638,2.638,0,0,1,3.042,0,1.857,1.857,0,0,1,4.53.61,1.83,1.83,0,0,1,4.88,2.2l-.01.026H3.476a1.168,1.168,0,0,0-.083-.749A.566.566,0,0,0,2.851,1.2a.93.93,0,0,0-.823.482A3.182,3.182,0,0,0,1.606,2.9l-.027.158A2.907,2.907,0,0,0,1.59,4.312a.639.639,0,0,0,.694.452" transform="translate(27.708 41.78)" fill="#fff"/><path d="M1.412,5.96A1.388,1.388,0,0,1,.284,5.481,1.424,1.424,0,0,1,.045,4.229,1.983,1.983,0,0,1,.9,2.894a3.414,3.414,0,0,1,1.859-.437h.688L3.536,2a.914.914,0,0,0-.053-.655.559.559,0,0,0-.508-.215.807.807,0,0,0-.53.186.83.83,0,0,0-.282.5L.7,1.814l-.011-.03A1.916,1.916,0,0,1,1.534.5,3.025,3.025,0,0,1,3.3,0,1.939,1.939,0,0,1,4.73.531a1.557,1.557,0,0,1,.342,1.48L4.6,4.383a4.39,4.39,0,0,0-.1.774,3.7,3.7,0,0,0,.05.691H3.022a2.978,2.978,0,0,1-.047-.329c-.012-.121-.017-.234-.017-.346a2.708,2.708,0,0,1-.7.568A1.725,1.725,0,0,1,1.412,5.96ZM2.583,3.334a.966.966,0,0,0-.668.248,1.04,1.04,0,0,0-.338.594.563.563,0,0,0,.063.472.5.5,0,0,0,.419.166,1.181,1.181,0,0,0,.553-.148A1.516,1.516,0,0,0,3.075,4.3l.2-.969Z" transform="translate(32.84 41.78)" fill="#fff"/><path d="M1.949,1.029.747,2.887H0L.662,1.035.868,0H2.156Z" transform="translate(38.955 39.35)" fill="#fff"/><path d="M3.083,4.266a.474.474,0,0,0-.149-.445A1.81,1.81,0,0,0,2.166,3.5,2.809,2.809,0,0,1,.832,2.884,1.169,1.169,0,0,1,.525,1.778,1.942,1.942,0,0,1,1.308.5,2.654,2.654,0,0,1,2.961,0,2.146,2.146,0,0,1,4.5.52a1.334,1.334,0,0,1,.4,1.3l-.01.032H3.411a.763.763,0,0,0-.1-.568.6.6,0,0,0-.522-.211.8.8,0,0,0-.53.185A.723.723,0,0,0,2,1.709a.458.458,0,0,0,.127.439,1.815,1.815,0,0,0,.779.3,2.784,2.784,0,0,1,1.366.623,1.243,1.243,0,0,1,.3,1.134,1.869,1.869,0,0,1-.824,1.281,2.987,2.987,0,0,1-1.73.476A2.062,2.062,0,0,1,.434,5.37a1.423,1.423,0,0,1-.4-1.316l.011-.032h1.4a.758.758,0,0,0,.156.669.863.863,0,0,0,.623.207.947.947,0,0,0,.583-.17.714.714,0,0,0,.281-.462" transform="translate(39.846 41.78)" fill="#fff"/><path d="M2.542,3.177a2.26,2.26,0,0,1,.713-.554,1.847,1.847,0,0,1,.823-.193,1.281,1.281,0,0,1,1.166.607A2.553,2.553,0,0,1,5.382,4.87L4.7,8.277H3.178l.684-3.425a1.567,1.567,0,0,0-.005-.973.617.617,0,0,0-.583-.255,1.108,1.108,0,0,0-.487.114,1.452,1.452,0,0,0-.424.322L1.526,8.277H0L1.652,0H3.178Z" transform="translate(47.548 39.35)" fill="#fff"/><path d="M2.122,5.96A1.942,1.942,0,0,1,.41,5.137a2.83,2.83,0,0,1-.355-2.1l.016-.112a3.768,3.768,0,0,1,1-2.129A2.7,2.7,0,0,1,3.06,0,1.937,1.937,0,0,1,4.77.825a2.839,2.839,0,0,1,.36,2.1l-.015.112a3.8,3.8,0,0,1-1,2.132A2.7,2.7,0,0,1,2.122,5.96ZM2.869,1.2a.979.979,0,0,0-.835.486,3.068,3.068,0,0,0-.442,1.241l-.015.111A2.725,2.725,0,0,0,1.6,4.309a.672.672,0,0,0,.7.455.968.968,0,0,0,.826-.479,3.15,3.15,0,0,0,.451-1.253L3.6,2.922a2.666,2.666,0,0,0-.034-1.261A.666.666,0,0,0,2.869,1.2Z" transform="translate(53.615 41.78)" fill="#fff"/><path d="M2.485.784A2.264,2.264,0,0,1,3.231.2,2.128,2.128,0,0,1,4.159,0a1.267,1.267,0,0,1,.773.235,1.15,1.15,0,0,1,.423.7A2.423,2.423,0,0,1,6.131.245,1.993,1.993,0,0,1,7.109,0a1.2,1.2,0,0,1,1.1.6,2.536,2.536,0,0,1,.127,1.778L7.638,5.848H6.107L6.8,2.359a1.632,1.632,0,0,0,.014-.931.522.522,0,0,0-.506-.233.929.929,0,0,0-.5.149,1.522,1.522,0,0,0-.429.41c-.008.049-.015.1-.022.15s-.016.106-.027.162L4.577,5.848H3.057L3.75,2.359a1.59,1.59,0,0,0,.011-.923.526.526,0,0,0-.514-.241.994.994,0,0,0-.477.122,1.482,1.482,0,0,0-.413.335l-.837,4.2H0L1.144.107H2.558Z" transform="translate(59.116 41.78)" fill="#fff"/><path d="M2.155,5.96a2,2,0,0,1-1.716-.8A2.571,2.571,0,0,1,.051,3.142L.083,2.93A3.866,3.866,0,0,1,1.071.8,2.536,2.536,0,0,1,2.953,0h.011A1.785,1.785,0,0,1,4.522.708,2.5,2.5,0,0,1,4.839,2.6l-.132.843H1.54a1.534,1.534,0,0,0,.2.967.856.856,0,0,0,.768.359,2.722,2.722,0,0,0,.789-.105,4.274,4.274,0,0,0,.747-.324l.26.957a3.264,3.264,0,0,1-.93.476A3.805,3.805,0,0,1,2.155,5.96ZM2.774,1.2a.791.791,0,0,0-.627.331,2.222,2.222,0,0,0-.4.862l.011.026H3.378L3.4,2.277a1.329,1.329,0,0,0-.067-.8A.57.57,0,0,0,2.774,1.2Z" transform="translate(68.176 41.78)" fill="#fff"/><path d="M1.526,8.278H0L1.144,2.537H2.67L1.526,8.277ZM2.945,1.163H1.419L1.652,0H3.179L2.945,1.162Z" transform="translate(75.929 39.35)" fill="#fff"/><path d="M2.485.784A2.261,2.261,0,0,1,3.231.2,2.128,2.128,0,0,1,4.159,0a1.266,1.266,0,0,1,.773.235,1.149,1.149,0,0,1,.424.7A2.423,2.423,0,0,1,6.131.245,1.993,1.993,0,0,1,7.109,0a1.2,1.2,0,0,1,1.1.6,2.536,2.536,0,0,1,.127,1.778L7.638,5.848H6.107L6.8,2.359a1.632,1.632,0,0,0,.014-.931.522.522,0,0,0-.506-.233.929.929,0,0,0-.5.149,1.527,1.527,0,0,0-.429.41c-.008.049-.014.1-.021.15s-.016.106-.027.162L4.577,5.848H3.057L3.75,2.359a1.59,1.59,0,0,0,.011-.923.526.526,0,0,0-.514-.241.994.994,0,0,0-.477.122,1.478,1.478,0,0,0-.413.335l-.837,4.2H0L1.144.107H2.558Z" transform="translate(78.652 41.78)" fill="#fff"/><path d="M1.521,8.055H0L1.584.107h1.4L2.939.617A2.179,2.179,0,0,1,3.565.161,1.658,1.658,0,0,1,4.28,0,1.467,1.467,0,0,1,5.657.9a3.43,3.43,0,0,1,.185,2.229l-.02.112a4.208,4.208,0,0,1-.9,2.035A2.113,2.113,0,0,1,3.3,5.96a1.668,1.668,0,0,1-.716-.15,1.357,1.357,0,0,1-.529-.437L1.521,8.054Zm2.2-6.86a.9.9,0,0,0-.519.166,1.675,1.675,0,0,0-.44.465L2.251,4.393a.578.578,0,0,0,.289.283,1.265,1.265,0,0,0,.517.089.954.954,0,0,0,.781-.4A2.743,2.743,0,0,0,4.3,3.236l.022-.112a3.311,3.311,0,0,0,.034-1.4A.615.615,0,0,0,3.719,1.2Z" transform="translate(86.963 41.78)" fill="#fff"/><path d="M3.777,1.476l-.61-.015a.937.937,0,0,0-.5.135,1.142,1.142,0,0,0-.373.385L1.521,5.848H0L1.145.107H2.564L2.479.844,2.505.86A1.946,1.946,0,0,1,3.07.225,1.219,1.219,0,0,1,3.777,0,1.439,1.439,0,0,1,4.01.02a1.151,1.151,0,0,1,.207.044Z" transform="translate(93.166 41.78)" fill="#fff"/><path d="M2.122,5.96A1.942,1.942,0,0,1,.41,5.137a2.83,2.83,0,0,1-.355-2.1l.016-.112a3.768,3.768,0,0,1,1-2.129A2.7,2.7,0,0,1,3.059,0,1.938,1.938,0,0,1,4.77.825a2.839,2.839,0,0,1,.36,2.1l-.015.112a3.8,3.8,0,0,1-1,2.132A2.7,2.7,0,0,1,2.122,5.96ZM2.869,1.2a.979.979,0,0,0-.835.486,3.068,3.068,0,0,0-.442,1.241l-.015.111A2.725,2.725,0,0,0,1.6,4.309a.672.672,0,0,0,.7.455.968.968,0,0,0,.826-.479,3.15,3.15,0,0,0,.451-1.253L3.6,2.922a2.666,2.666,0,0,0-.034-1.261A.666.666,0,0,0,2.869,1.2Z" transform="translate(97.068 41.78)" fill="#fff"/><path d="M1.859,3.6l.011.451.031.006L2.055,3.6,3.453,0H5.048L2.336,5.74H.879L0,0H1.594Z" transform="translate(103.019 41.888)" fill="#fff"/><path d="M2.155,5.96a2,2,0,0,1-1.716-.8A2.575,2.575,0,0,1,.051,3.142L.083,2.93A3.866,3.866,0,0,1,1.071.8,2.536,2.536,0,0,1,2.953,0h.011A1.788,1.788,0,0,1,4.523.708,2.51,2.51,0,0,1,4.84,2.6l-.133.843H1.54a1.534,1.534,0,0,0,.2.967.856.856,0,0,0,.768.359,2.713,2.713,0,0,0,.789-.105,4.238,4.238,0,0,0,.747-.324l.26.957a3.21,3.21,0,0,1-.93.476A3.805,3.805,0,0,1,2.155,5.96ZM2.774,1.2a.791.791,0,0,0-.627.331,2.222,2.222,0,0,0-.4.862l.011.026H3.378L3.4,2.277a1.329,1.329,0,0,0-.067-.8A.57.57,0,0,0,2.774,1.2Z" transform="translate(107.957 41.78)" fill="#fff"/><path d="M2.485.784A2.264,2.264,0,0,1,3.231.2,2.127,2.127,0,0,1,4.159,0a1.266,1.266,0,0,1,.773.235,1.146,1.146,0,0,1,.423.7A2.427,2.427,0,0,1,6.131.245,1.993,1.993,0,0,1,7.109,0a1.2,1.2,0,0,1,1.1.6,2.534,2.534,0,0,1,.127,1.778L7.638,5.848H6.107L6.8,2.359a1.632,1.632,0,0,0,.014-.931.522.522,0,0,0-.506-.233.929.929,0,0,0-.5.149,1.522,1.522,0,0,0-.429.41c-.008.049-.015.1-.022.15s-.016.106-.027.162L4.577,5.848H3.057L3.75,2.359a1.589,1.589,0,0,0,.011-.923.525.525,0,0,0-.514-.241.994.994,0,0,0-.477.122,1.478,1.478,0,0,0-.413.335l-.837,4.2H0L1.144.107H2.558Z" transform="translate(113.068 41.78)" fill="#fff"/><path d="M2.155,5.96a2,2,0,0,1-1.716-.8A2.575,2.575,0,0,1,.051,3.142L.083,2.93A3.866,3.866,0,0,1,1.071.8,2.536,2.536,0,0,1,2.953,0h.011A1.785,1.785,0,0,1,4.522.708,2.5,2.5,0,0,1,4.839,2.6l-.132.843H1.54a1.534,1.534,0,0,0,.2.967.856.856,0,0,0,.768.359,2.722,2.722,0,0,0,.789-.105,4.275,4.275,0,0,0,.747-.324l.259.957a3.245,3.245,0,0,1-.929.476A3.805,3.805,0,0,1,2.155,5.96ZM2.774,1.2a.791.791,0,0,0-.627.331,2.222,2.222,0,0,0-.4.862l.011.026H3.378L3.4,2.277a1.329,1.329,0,0,0-.067-.8A.57.57,0,0,0,2.774,1.2Z" transform="translate(122.127 41.78)" fill="#fff"/><path d="M2.479.853A2.448,2.448,0,0,1,3.252.219,1.975,1.975,0,0,1,4.158,0,1.254,1.254,0,0,1,5.282.555a2.316,2.316,0,0,1,.137,1.706L4.7,5.848H3.173l.715-3.59a1.21,1.21,0,0,0-.029-.841.661.661,0,0,0-.585-.223.993.993,0,0,0-.484.128,1.573,1.573,0,0,0-.432.351L1.526,5.848H0L1.144.107H2.569Z" transform="translate(127.206 41.78)" fill="#fff"/><path d="M2.786,0,2.505,1.407h.906L3.194,2.494H2.288L1.705,5.417a.664.664,0,0,0,.022.491.354.354,0,0,0,.307.13,2.315,2.315,0,0,0,.257-.014,1.874,1.874,0,0,0,.251-.045L2.447,7.1a4.346,4.346,0,0,1-.514.12,3.47,3.47,0,0,1-.535.04A1.248,1.248,0,0,1,.339,6.808,1.711,1.711,0,0,1,.18,5.423L.763,2.494H0L.217,1.407H.98L1.26,0Z" transform="translate(133.472 40.481)" fill="#fff"/><path d="M1.525,8.277H0L1.652,0H3.178Z" transform="translate(139.352 39.35)" fill="#fff"/><path d="M2.155,5.96a2,2,0,0,1-1.716-.8A2.575,2.575,0,0,1,.051,3.142L.083,2.93A3.866,3.866,0,0,1,1.071.8,2.536,2.536,0,0,1,2.953,0h.011A1.785,1.785,0,0,1,4.522.708,2.506,2.506,0,0,1,4.84,2.6l-.133.843H1.54a1.534,1.534,0,0,0,.2.967.856.856,0,0,0,.768.359,2.713,2.713,0,0,0,.789-.105,4.236,4.236,0,0,0,.747-.324l.259.957a3.191,3.191,0,0,1-.929.476A3.805,3.805,0,0,1,2.155,5.96ZM2.774,1.2a.791.791,0,0,0-.627.331,2.222,2.222,0,0,0-.4.862l.011.026H3.378L3.4,2.277a1.329,1.329,0,0,0-.067-.8A.57.57,0,0,0,2.774,1.2Z" transform="translate(142.378 41.78)" fill="#fff"/><path d="M2.479.853A2.452,2.452,0,0,1,3.252.219,1.975,1.975,0,0,1,4.158,0,1.254,1.254,0,0,1,5.281.555a2.316,2.316,0,0,1,.137,1.706L4.7,5.848H3.172l.715-3.59a1.211,1.211,0,0,0-.029-.841.661.661,0,0,0-.585-.223.993.993,0,0,0-.485.128,1.573,1.573,0,0,0-.432.351L1.525,5.848H0L1.144.107H2.569Z" transform="translate(147.457 41.78)" fill="#fff"/><path d="M1.682,8.39A1.492,1.492,0,0,1,.3,7.546,3.03,3.03,0,0,1,.087,5.459l.022-.111a4.768,4.768,0,0,1,.926-2.184A2.086,2.086,0,0,1,2.678,2.43a1.46,1.46,0,0,1,.687.166,1.547,1.547,0,0,1,.532.466L4.505,0h1.53L4.383,8.277H3.059l.016-.561a2.351,2.351,0,0,1-.657.5A1.654,1.654,0,0,1,1.682,8.39ZM2.916,3.624a.962.962,0,0,0-.8.467,3.292,3.292,0,0,0-.482,1.257l-.021.112a2.748,2.748,0,0,0-.026,1.274.612.612,0,0,0,.652.459.915.915,0,0,0,.509-.159,1.707,1.707,0,0,0,.445-.448l.5-2.509A.707.707,0,0,0,3.4,3.741.931.931,0,0,0,2.916,3.624Z" transform="translate(153.498 39.35)" fill="#fff"/><path d="M2.155,5.96a2,2,0,0,1-1.716-.8A2.575,2.575,0,0,1,.051,3.142L.084,2.93A3.864,3.864,0,0,1,1.071.8,2.536,2.536,0,0,1,2.953,0h.011A1.788,1.788,0,0,1,4.523.708,2.51,2.51,0,0,1,4.84,2.6l-.133.843H1.54a1.534,1.534,0,0,0,.2.967.856.856,0,0,0,.768.359,2.713,2.713,0,0,0,.789-.105,4.238,4.238,0,0,0,.747-.324l.26.957a3.21,3.21,0,0,1-.93.476A3.805,3.805,0,0,1,2.155,5.96ZM2.774,1.2a.791.791,0,0,0-.627.331,2.222,2.222,0,0,0-.4.862l.011.026H3.378L3.4,2.277a1.329,1.329,0,0,0-.067-.8A.57.57,0,0,0,2.774,1.2Z" transform="translate(159.318 41.78)" fill="#fff"/><path d="M3.778,1.476l-.61-.015a.937.937,0,0,0-.5.135,1.138,1.138,0,0,0-.373.385L1.521,5.848H0L1.145.107H2.564L2.48.844,2.506.86A1.946,1.946,0,0,1,3.07.225,1.219,1.219,0,0,1,3.778,0a1.446,1.446,0,0,1,.233.02,1.163,1.163,0,0,1,.207.044Z" transform="translate(164.422 41.78)" fill="#fff"/><path d="M2.122,5.96A1.939,1.939,0,0,1,.411,5.137a2.826,2.826,0,0,1-.355-2.1l.015-.112a3.775,3.775,0,0,1,1-2.129A2.7,2.7,0,0,1,3.059,0,1.938,1.938,0,0,1,4.77.825a2.839,2.839,0,0,1,.36,2.1l-.015.112a3.8,3.8,0,0,1-1,2.132A2.7,2.7,0,0,1,2.122,5.96ZM2.868,1.2a.978.978,0,0,0-.834.486,3.068,3.068,0,0,0-.442,1.241l-.015.111A2.725,2.725,0,0,0,1.6,4.309a.672.672,0,0,0,.7.455.968.968,0,0,0,.826-.479,3.15,3.15,0,0,0,.451-1.253L3.6,2.922a2.666,2.666,0,0,0-.034-1.261A.667.667,0,0,0,2.868,1.2Z" transform="translate(171.004 41.78)" fill="#fff"/><path d="M0,8.388.927,3.735H.148L.366,2.648h.779l.127-.636A2.478,2.478,0,0,1,2.095.491,2.484,2.484,0,0,1,3.692,0a2.378,2.378,0,0,1,.365.029c.127.019.265.046.414.081L4.116,1.263c-.07-.014-.142-.026-.217-.037a1.776,1.776,0,0,0-.254-.017.763.763,0,0,0-.541.213,1.052,1.052,0,0,0-.3.589l-.127.636H3.708L3.491,3.735H2.458L1.531,8.388Z" transform="translate(176.881 39.24)" fill="#fff"/><path d="M2.284,4.765a.85.85,0,0,0,.607-.239,1.122,1.122,0,0,0,.321-.641H4.594l.011.032a2.19,2.19,0,0,1-.837,1.476A2.609,2.609,0,0,1,2.1,5.96,1.9,1.9,0,0,1,.4,5.138,2.837,2.837,0,0,1,.055,3.062L.08,2.9A3.788,3.788,0,0,1,1.058.8,2.639,2.639,0,0,1,3.042,0,1.857,1.857,0,0,1,4.53.61,1.829,1.829,0,0,1,4.88,2.2l-.011.026H3.476a1.17,1.17,0,0,0-.082-.749A.566.566,0,0,0,2.851,1.2a.93.93,0,0,0-.823.482A3.182,3.182,0,0,0,1.607,2.9l-.027.158a2.9,2.9,0,0,0,.011,1.253.638.638,0,0,0,.694.452" transform="translate(182.998 41.78)" fill="#fff"/><path d="M2.542,3.177a2.264,2.264,0,0,1,.713-.554,1.848,1.848,0,0,1,.823-.193,1.281,1.281,0,0,1,1.166.607A2.553,2.553,0,0,1,5.382,4.87L4.7,8.277H3.178l.684-3.425a1.567,1.567,0,0,0-.005-.973.617.617,0,0,0-.583-.255,1.106,1.106,0,0,0-.487.114,1.449,1.449,0,0,0-.424.322L1.526,8.277H0L1.652,0H3.178Z" transform="translate(188.011 39.35)" fill="#fff"/><path d="M2.122,5.96A1.942,1.942,0,0,1,.41,5.137a2.83,2.83,0,0,1-.355-2.1l.015-.112a3.775,3.775,0,0,1,1-2.129A2.7,2.7,0,0,1,3.059,0,1.938,1.938,0,0,1,4.77.825a2.839,2.839,0,0,1,.36,2.1l-.015.112a3.8,3.8,0,0,1-1,2.132A2.7,2.7,0,0,1,2.122,5.96ZM2.868,1.2a.978.978,0,0,0-.834.486,3.068,3.068,0,0,0-.442,1.241l-.015.111A2.725,2.725,0,0,0,1.6,4.309a.672.672,0,0,0,.7.455.968.968,0,0,0,.826-.479,3.15,3.15,0,0,0,.451-1.253L3.6,2.922a2.666,2.666,0,0,0-.034-1.261A.667.667,0,0,0,2.868,1.2Z" transform="translate(194.078 41.78)" fill="#fff"/><path d="M1.526,8.278H0L1.144,2.537H2.67L1.526,8.277ZM2.945,1.163H1.42L1.652,0H3.179L2.945,1.162Z" transform="translate(199.648 39.35)" fill="#fff"/><path d="M2.284,4.765a.849.849,0,0,0,.606-.239,1.12,1.12,0,0,0,.321-.641H4.594l.01.032a2.189,2.189,0,0,1-.837,1.476A2.609,2.609,0,0,1,2.1,5.96,1.9,1.9,0,0,1,.4,5.138,2.838,2.838,0,0,1,.054,3.062L.081,2.9A3.788,3.788,0,0,1,1.058.8,2.638,2.638,0,0,1,3.042,0,1.857,1.857,0,0,1,4.53.61,1.83,1.83,0,0,1,4.88,2.2l-.011.026H3.476a1.17,1.17,0,0,0-.083-.749A.566.566,0,0,0,2.851,1.2a.931.931,0,0,0-.823.482A3.182,3.182,0,0,0,1.607,2.9l-.027.158A2.907,2.907,0,0,0,1.59,4.312a.639.639,0,0,0,.694.452" transform="translate(202.597 41.78)" fill="#fff"/><path d="M2.155,5.96a2,2,0,0,1-1.716-.8A2.575,2.575,0,0,1,.051,3.142L.083,2.93A3.866,3.866,0,0,1,1.071.8,2.536,2.536,0,0,1,2.953,0h.011A1.785,1.785,0,0,1,4.522.708,2.5,2.5,0,0,1,4.839,2.6l-.132.843H1.54a1.534,1.534,0,0,0,.2.967.856.856,0,0,0,.768.359,2.722,2.722,0,0,0,.789-.105,4.275,4.275,0,0,0,.747-.324l.259.957a3.245,3.245,0,0,1-.929.476A3.805,3.805,0,0,1,2.155,5.96ZM2.774,1.2a.791.791,0,0,0-.627.331,2.222,2.222,0,0,0-.4.862l.011.026H3.378L3.4,2.277a1.329,1.329,0,0,0-.067-.8A.57.57,0,0,0,2.774,1.2Z" transform="translate(207.956 41.78)" fill="#fff"/></g></svg>