<svg xmlns="http://www.w3.org/2000/svg" viewBox="0 0 1150 800"><defs><style>.cls-1,.cls-19{fill:#e6e7e8;}.cls-2,.cls-22,.cls-5{fill:#0979be;}.cls-13,.cls-3{fill:#29a7df;}.cls-12,.cls-4{fill:#fff;}.cls-13,.cls-19,.cls-21,.cls-22,.cls-4{fill-rule:evenodd;}.cls-5{font-size:20px;font-family:Roboto-Bold, Roboto;font-weight:700;}.cls-6{letter-spacing:-0.01em;}.cls-7{letter-spacing:-0.02em;}.cls-8{letter-spacing:-0.01em;}.cls-18,.cls-20,.cls-9{fill:none;stroke-miterlimit:10;}.cls-9{stroke:#4d4d4d;stroke-width:2px;}.cls-10{letter-spacing:-0.01em;}.cls-11,.cls-21{fill:#4d4d4d;}.cls-14{letter-spacing:-0.03em;}.cls-15{letter-spacing:-0.02em;}.cls-16{letter-spacing:-0.01em;}.cls-17{letter-spacing:-0.01em;}.cls-18,.cls-20{stroke:#fff;}.cls-18{stroke-width:2.11px;}.cls-20{stroke-width:14.25px;}</style></defs><g id="Layer_2" data-name="Layer 2"><g id="Live_Type" data-name="Live Type"><rect class="cls-1" width="1150" height="800" rx="4.77"/><circle class="cls-2" cx="116.97" cy="142.32" r="9.89"/><path class="cls-2" d="M136.16,169.86c0-7.91-.22-8.13-3.95-10.55-4.11-2.26-14-2-15.24-2s-11.14-.28-15.25,2c-3.73,2.42-4,2.64-4,10.55s.88,27,.88,27-.44,5.71,2.63,8.57c2.42,2,3.74,8.13,4.62,17.14s2.2,29.22,2.2,29.22-.85,6.24,8.73,6.37h.28c9.57-.13,8.72-6.37,8.72-6.37s1.32-20.21,2.2-29.22,2.2-15.16,4.62-17.14c3.07-2.86,2.63-8.57,2.63-8.57S136.16,177.77,136.16,169.86Z"/><circle class="cls-2" cx="491.54" cy="142.32" r="9.89"/><path class="cls-2" d="M510.73,169.86c0-7.91-.22-8.13-4-10.55-4.11-2.26-14-2-15.24-2s-11.14-.28-15.25,2c-3.73,2.42-4,2.64-4,10.55s.88,27,.88,27-.44,5.71,2.63,8.57c2.42,2,3.74,8.13,4.62,17.14s2.2,29.22,2.2,29.22-.85,6.24,8.72,6.37h.29c9.57-.13,8.72-6.37,8.72-6.37s1.32-20.21,2.2-29.22,2.2-15.16,4.62-17.14c3.07-2.86,2.63-8.57,2.63-8.57S510.73,177.77,510.73,169.86Z"/><path class="cls-3" d="M187.61,190.68a1.49,1.49,0,0,1-.55-.1,1.45,1.45,0,0,1-.89-1.33V175.12H166.62a6.68,6.68,0,0,1-4.83-2.08A6.59,6.59,0,0,1,160,168.1a6.81,6.81,0,0,1,6.94-6.3h19.26V147.67a1.44,1.44,0,0,1,2.46-1l20.78,20.78a1.42,1.42,0,0,1,0,2l-20.78,20.78A1.44,1.44,0,0,1,187.61,190.68Z"/><path class="cls-4" d="M276.6,161.5h-8.46a6.62,6.62,0,0,0-1.07-4.15,3.45,3.45,0,0,0-2.86-1.37,3.2,3.2,0,0,0-2.68,1.12,4.56,4.56,0,0,0-.87,2.87,4.28,4.28,0,0,0,.93,2.86,10,10,0,0,0,3.49,2.22,32.39,32.39,0,0,1,8.71,5c1.86,1.68,2.78,4.08,2.78,7.2a9.52,9.52,0,0,1-2.79,7.15,12.29,12.29,0,0,1-7.53,3.19v5.14h-4.06v-5.16a13.86,13.86,0,0,1-8.22-3.47q-3.27-3-3.17-8.72l.08-.15h8.4q0,3.16,1.38,4.56a4.81,4.81,0,0,0,3.58,1.39,3.53,3.53,0,0,0,2.78-1.07,4.12,4.12,0,0,0,.94-2.81,4.58,4.58,0,0,0-1-3.13,9.78,9.78,0,0,0-3.44-2.19,30.24,30.24,0,0,1-8.78-4.86c-1.83-1.65-2.75-4.06-2.75-7.25a9.46,9.46,0,0,1,2.92-7.11,12.57,12.57,0,0,1,7.76-3.26v-5.39h4.06v5.5a11,11,0,0,1,9.89,11.72Z"/><circle class="cls-2" cx="240.33" cy="101.75" r="18.76"/><circle class="cls-2" cx="240.33" cy="235.17" r="18.76"/><text class="cls-5" transform="translate(100.84 328.99)">Choose <tspan class="cls-6" x="72.97" y="0">F</tspan><tspan class="cls-7" x="83.67" y="0">r</tspan><tspan x="90.62" y="0">om Our</tspan><tspan class="cls-8" x="0" y="24">P</tspan><tspan x="12.77" y="24">opular Loan P</tspan><tspan class="cls-7" x="136.78" y="24">r</tspan><tspan x="143.72" y="24">oducts</tspan></text><line class="cls-9" x1="306" y1="300.03" x2="98.65" y2="300.03"/><text class="cls-5" transform="translate(473.51 328.99)">Request Clickable<tspan x="0" y="24">Loan But</tspan><tspan class="cls-10" x="79.76" y="24">t</tspan><tspan x="86.22" y="24">on</tspan></text><line class="cls-9" x1="678.68" y1="300.03" x2="471.32" y2="300.03"/><rect class="cls-3" x="536.03" y="73.21" width="114.94" height="114.94" rx="8.67"/><path class="cls-3" d="M559.89,183.93c-.82,7.2-4.63,25.4-22.41,33.06a2.67,2.67,0,0,0,.92,5.12c29.85,1.48,55.58-18.48,64.24-36.29a3.41,3.41,0,0,0-3.08-4.89H563.28A3.4,3.4,0,0,0,559.89,183.93Z"/><path class="cls-11" d="M631.77,100.23l-5.5-6.59a6.11,6.11,0,0,0-4.33-1.8H561.28A6.11,6.11,0,0,0,555.17,98V158.6a6,6,0,0,0,.93,3.2h0l.07.08a5.84,5.84,0,0,0,.92,1.12l4.95,6h0a6.07,6.07,0,0,0,4.57,2.09h60.65a6.11,6.11,0,0,0,6.11-6.11V104.33A6.08,6.08,0,0,0,631.77,100.23Z"/><rect class="cls-12" x="555.17" y="91.84" width="71.43" height="71.43" rx="3.61"/><path class="cls-13" d="M591.22,107.79A19.77,19.77,0,1,0,611,127.56,19.77,19.77,0,0,0,591.22,107.79Zm7.4,15.77h-4.86a3.81,3.81,0,0,0-.61-2.38,2,2,0,0,0-1.65-.79A1.84,1.84,0,0,0,590,121a2.62,2.62,0,0,0-.49,1.64,2.43,2.43,0,0,0,.53,1.64,5.67,5.67,0,0,0,2,1.28,18.39,18.39,0,0,1,5,2.89,5.28,5.28,0,0,1,1.6,4.13,5.47,5.47,0,0,1-1.6,4.11,7.11,7.11,0,0,1-4.32,1.83v2.95h-2.33v-3a8,8,0,0,1-4.73-2,6.27,6.27,0,0,1-1.81-5l0-.09h4.82a3.6,3.6,0,0,0,.8,2.62,2.76,2.76,0,0,0,2,.8,2,2,0,0,0,1.6-.62,2.34,2.34,0,0,0,.54-1.61,2.67,2.67,0,0,0-.56-1.8,5.67,5.67,0,0,0-2-1.25,17.45,17.45,0,0,1-5-2.79,5.28,5.28,0,0,1-1.58-4.16,5.43,5.43,0,0,1,1.67-4.08,7.18,7.18,0,0,1,4.46-1.87v-3.1H593v3.16a6.28,6.28,0,0,1,5.67,6.73Z"/><path class="cls-11" d="M911.63,114.17l-3.43-4.11a3.83,3.83,0,0,0-2.71-1.13H867.63a3.81,3.81,0,0,0-3.81,3.82v37.86a3.77,3.77,0,0,0,.57,2h0l0,0a4,4,0,0,0,.58.71l3.09,3.74h0a3.77,3.77,0,0,0,2.85,1.31h37.87a3.81,3.81,0,0,0,3.81-3.81V116.73A3.78,3.78,0,0,0,911.63,114.17Z"/><rect class="cls-12" x="863.82" y="108.93" width="45.09" height="45.09" rx="3.61"/><text class="cls-5" transform="translate(847.49 328.99)">Place But<tspan class="cls-10" x="85.86" y="0">t</tspan><tspan x="92.32" y="0">on</tspan><tspan x="0" y="24">On </tspan><tspan class="cls-14" x="29.99" y="24">Y</tspan><tspan x="41.72" y="24">our </tspan><tspan class="cls-15" x="76.49" y="24">W</tspan><tspan x="93.68" y="24">ebsite</tspan></text><line class="cls-9" x1="1052.66" y1="300.03" x2="845.3" y2="300.03"/><path class="cls-11" d="M1005.79,80.05H857.72a8.64,8.64,0,0,0-8.64,8.64V191.43a8.64,8.64,0,0,0,8.64,8.64h48.44a2.77,2.77,0,0,1,2.64,3.61L902,225.53a3.46,3.46,0,0,0,3.29,4.55h53a3.46,3.46,0,0,0,3.29-4.55l-6.85-21.85a2.78,2.78,0,0,1,2.65-3.61h48.43a8.63,8.63,0,0,0,8.64-8.64V88.69A8.64,8.64,0,0,0,1005.79,80.05ZM857.72,85.8h148.07a2.89,2.89,0,0,1,2.89,2.89V173.1H854.83V88.69A2.9,2.9,0,0,1,857.72,85.8Zm71.44,98.28a2.6,2.6,0,1,1,2.6,2.6A2.59,2.59,0,0,1,929.16,184.08Z"/><rect class="cls-11" x="851.96" y="98.17" width="159.6" height="1.38"/><circle class="cls-12" cx="866.05" cy="92.04" r="2.23"/><circle class="cls-12" cx="874.79" cy="92.04" r="2.23"/><circle class="cls-12" cx="883.53" cy="92.04" r="2.23"/><path class="cls-13" d="M886.57,119a12.48,12.48,0,1,0,12.48,12.48A12.48,12.48,0,0,0,886.57,119Zm4.67,10h-3.07a2.41,2.41,0,0,0-.39-1.51,1.24,1.24,0,0,0-1-.49,1.15,1.15,0,0,0-1,.4,1.67,1.67,0,0,0-.32,1,1.53,1.53,0,0,0,.34,1,3.54,3.54,0,0,0,1.26.8,11.53,11.53,0,0,1,3.16,1.83,3.35,3.35,0,0,1,1,2.61,3.44,3.44,0,0,1-1,2.59,4.39,4.39,0,0,1-2.72,1.15v1.86H886v-1.86a5,5,0,0,1-3-1.26,3.94,3.94,0,0,1-1.15-3.16l0-.06h3a2.32,2.32,0,0,0,.5,1.66,1.77,1.77,0,0,0,1.3.5,1.28,1.28,0,0,0,1-.39,1.53,1.53,0,0,0,.34-1,1.7,1.7,0,0,0-.35-1.13,3.69,3.69,0,0,0-1.25-.79,11,11,0,0,1-3.18-1.76,3.34,3.34,0,0,1-1-2.63,3.42,3.42,0,0,1,1.06-2.58,4.61,4.61,0,0,1,2.81-1.18v-2h1.47v2a4,4,0,0,1,3.58,4.25Z"/><rect class="cls-11" x="929.16" y="108.93" width="42.34" height="2.75"/><rect class="cls-11" x="929.16" y="117.63" width="42.34" height="2.75"/><rect class="cls-11" x="929.16" y="126.32" width="42.34" height="2.75"/><rect class="cls-11" x="929.16" y="135.02" width="42.34" height="2.75"/><rect class="cls-11" x="929.16" y="143.71" width="42.34" height="2.75"/><rect class="cls-11" x="929.16" y="152.4" width="42.34" height="2.75"/><polygon class="cls-3" points="926.85 141.58 928.35 166.25 933.44 158.09 943.02 160.28 926.85 141.58"/><circle class="cls-2" cx="983.33" cy="145.46" r="32.42"/><path class="cls-2" d="M1030.55,274.87a6.45,6.45,0,0,0,6.44-6.2c.59-15.89,1.16-33.84,1.16-44.58,0-22-.6-23.16-10.43-29.55a15.81,15.81,0,0,0-1.78-1c-12.21-5.95-39.07-5.31-42.61-5.19-3.54-.12-30.39-.76-42.61,5.19a15.68,15.68,0,0,0-1.77,1c-9.84,6.39-10.43,7.59-10.43,29.55,0,10.74.57,28.69,1.16,44.58a6.44,6.44,0,0,0,6.44,6.2Z"/><path class="cls-13" d="M263.72,134a34.44,34.44,0,1,0,34.44,34.44A34.44,34.44,0,0,0,263.72,134ZM276.6,161.5h-8.46a6.62,6.62,0,0,0-1.07-4.15,3.45,3.45,0,0,0-2.86-1.37,3.2,3.2,0,0,0-2.68,1.12,4.56,4.56,0,0,0-.87,2.87,4.28,4.28,0,0,0,.93,2.86,10,10,0,0,0,3.49,2.22,32.39,32.39,0,0,1,8.71,5c1.86,1.68,2.78,4.08,2.78,7.2a9.52,9.52,0,0,1-2.79,7.15,12.29,12.29,0,0,1-7.53,3.19v5.14h-4.06v-5.16a13.86,13.86,0,0,1-8.22-3.47q-3.27-3-3.17-8.72l.08-.15h8.4q0,3.16,1.38,4.56a4.81,4.81,0,0,0,3.58,1.39,3.53,3.53,0,0,0,2.78-1.07,4.12,4.12,0,0,0,.94-2.81,4.58,4.58,0,0,0-1-3.13,9.78,9.78,0,0,0-3.44-2.19,30.24,30.24,0,0,1-8.78-4.86c-1.83-1.65-2.75-4.06-2.75-7.25a9.46,9.46,0,0,1,2.92-7.11,12.57,12.57,0,0,1,7.76-3.26v-5.39h4.06v5.5a11,11,0,0,1,9.89,11.72Z"/><text class="cls-5" transform="translate(100.84 702.11)">Homeowner P<tspan class="cls-16" x="126.76" y="0">r</tspan><tspan x="133.87" y="0">e-Bid</tspan><tspan x="0" y="24">Qualification</tspan></text><line class="cls-9" x1="306" y1="673.14" x2="98.65" y2="673.14"/><text class="cls-5" transform="translate(473.51 702.11)">Close the Deal</text><line class="cls-9" x1="678.68" y1="673.14" x2="471.32" y2="673.14"/><text class="cls-5" transform="translate(847.49 702.11)">Get <tspan class="cls-17" x="36.17" y="0">P</tspan><tspan x="48.96" y="0">aid</tspan></text><line class="cls-9" x1="1052.66" y1="673.14" x2="845.3" y2="673.14"/><path class="cls-3" d="M328.28,538.24c0,6.76-7.17,12.49-8.84,18.72-1.72,6.46,1.57,15-1.7,20.64s-12.38,7.13-17,11.78-6,13.72-11.77,17-14.19,0-20.64,1.7c-6.24,1.67-12,8.83-18.73,8.83s-12.49-7.16-18.73-8.83c-6.45-1.73-15,1.56-20.64-1.7s-7.12-12.39-11.77-17-13.72-6-17-11.78,0-14.18-1.7-20.64c-1.67-6.23-8.83-12-8.83-18.72s7.16-12.5,8.83-18.73c1.72-6.45-1.57-15,1.7-20.64s12.39-7.13,17-11.78,6.05-13.72,11.78-17,14.18,0,20.63-1.71c6.24-1.66,12-8.83,18.73-8.83s12.49,7.17,18.73,8.83c6.45,1.73,15-1.56,20.64,1.71s7.13,12.38,11.78,17,13.72,6.05,17,11.78,0,14.19,1.7,20.64C321.11,525.75,328.28,531.47,328.28,538.24Z"/><path class="cls-18" d="M317.13,538.24c0,5.8-6.15,10.72-7.58,16.07-1.48,5.54,1.34,12.87-1.46,17.72s-10.63,6.12-14.63,10.11-5.19,11.78-10.11,14.62-12.17,0-17.71,1.46c-5.36,1.44-10.27,7.59-16.08,7.59s-10.72-6.15-16.08-7.59c-5.53-1.48-12.86,1.35-17.71-1.46s-6.12-10.63-10.11-14.62S193.88,577,191,572s0-12.18-1.46-17.72C188.14,549,182,544,182,538.24s6.15-10.73,7.58-16.08c1.48-5.54-1.34-12.87,1.46-17.72s10.64-6.12,14.63-10.11,5.19-11.78,10.11-14.62,12.18,0,17.71-1.46c5.36-1.43,10.28-7.58,16.08-7.58s10.72,6.15,16.08,7.58c5.54,1.48,12.86-1.35,17.71,1.46s6.12,10.63,10.12,14.62,11.77,5.2,14.62,10.11,0,12.18,1.46,17.72C311,527.51,317.13,532.43,317.13,538.24Z"/><path class="cls-19" d="M228.75,578.32l-16.14-13.41a.65.65,0,0,1-.23-.49V533.77a8.69,8.69,0,0,0-8.69-8.69H188.92a8.7,8.7,0,0,0-8.7,8.69v2.79a.63.63,0,0,1-1,.49l-10.53-8.8a15.68,15.68,0,0,0-19.6,0L89,578.33a8.11,8.11,0,0,0-1,11.36l5.15,6.15a8.19,8.19,0,0,0,5.31,2.84,6.73,6.73,0,0,0,.89.05,8.31,8.31,0,0,0,4.85-1.6l.16-.11,1.2-1v38.74a11.43,11.43,0,0,0,11.4,11.4h36.21a.64.64,0,0,0,.64-.64V612a.63.63,0,0,1,.63-.64h9.33a.64.64,0,0,1,.64.64v33.52a.64.64,0,0,0,.64.64H201.2a11.41,11.41,0,0,0,11.4-11.4V599.2a1.49,1.49,0,0,1,2.2-1.31h0a8.2,8.2,0,0,0,3.64.82H219l.34-.05a8.14,8.14,0,0,0,5.22-2.8l5.18-6.19A8.2,8.2,0,0,0,228.75,578.32Z"/><polyline class="cls-20" points="227.77 534.03 247.74 554.01 284.93 516.82"/><path class="cls-21" d="M225.65,586.23l-5.18,6.19a2.8,2.8,0,0,1-1.76.91h-.25a2.69,2.69,0,0,1-1.76-.58l-57.85-48.23L101,592.75a2.91,2.91,0,0,1-2,.58,2.73,2.73,0,0,1-1.76-.93l-5.17-6.17a2.72,2.72,0,0,1,.33-3.77l60.09-50.07a10.32,10.32,0,0,1,12.71,0l20.41,17.06V533.14a2.64,2.64,0,0,1,2.67-2.68h16.05a2.64,2.64,0,0,1,2.67,2.68v34.11l18.31,15.21A2.76,2.76,0,0,1,225.65,586.23Z"/><path class="cls-21" d="M207.2,592.59V635.4a5.4,5.4,0,0,1-5.36,5.36H169.75V606H148.34v34.8h-32.1a5.39,5.39,0,0,1-5.34-5.36V592.59c0-.17.08-.35.08-.52l48.07-39.62,48.06,39.62a1.06,1.06,0,0,1,.09.52Z"/><line x1="590.88" y1="593.14" x2="615.83" y2="618.1"/><path class="cls-2" d="M629.47,521.69s-10.28,11.39-18.69,18.55c-4.27,3.63-12.37,5.23-20.25,1.65-11.11-6.45-20.4-3.39-20.4-3.39l-22.23,8s-14-11.11-31-25.32c-24.6,6.57-34.59,34.54-34.59,34.54l25.88,24.45,3.22,11.1.13.14c-.17.14-.33.28-.48.43l-5.54,5.54a6.11,6.11,0,0,0,0,8.62l.87.88a6.12,6.12,0,0,0,8.56.07l3.34-3.34,2.26-2.27a2.29,2.29,0,0,0,.21-.23l2.14,2.25-2.41,2.4-3.29,3.3-.07.07-.92.91a6.13,6.13,0,0,0,0,8.63l.88.87a6.1,6.1,0,0,0,8.62,0l6.44-6.44,2.13,2.23-6.39,6.39a6.11,6.11,0,0,0,0,8.63l.88.87a6.1,6.1,0,0,0,8.62,0l6.15-6.15,2.13,2.24-5.11,5.11a6.11,6.11,0,0,0,0,8.62l.87.87a6.25,6.25,0,0,0,8.62,0l4.87-4.87.93,1s.22.17,3.92,3.41c8.33,7.25,16.12-1.8,20.06-5.74,11.83,2.89,15.69-1,20.06-6.09,14.33-.71,14.33-7.16,15.76-11.82,12.9.72,15.84-9.58,14-15.76,10.75-10.39,12.84-19.27,12.84-19.27s8.86-14.25,20.33-23.2C654.14,529.51,629.47,521.69,629.47,521.69Z"/><path class="cls-1" d="M664.78,557.52c-9.39-29.41-28.2-41.12-31.67-40.49-1.65.27-4.47,3-11.54,10.31-4.73,4.87-10.63,10.94-13,12.11-5.09,2.55-10.26,4.56-17.29,1.38-11.57-6.72-21.25-3.65-21.7-3.5l-21.42,7.75c-3-2.39-15.57-12.47-30.34-24.76l-.62-.51-.77.21c-25.09,6.69-35.23,34.33-35.65,35.51l-.34,1,26.31,24.84,2.27,8.19-.22.2-5.53,5.54a9.2,9.2,0,0,0,0,13l.87.88h0a9.15,9.15,0,0,0,6.49,2.69,9.26,9.26,0,0,0,1.05-.07A9.21,9.21,0,0,0,514,620.9l.88.87a9.15,9.15,0,0,0,6.49,2.69,10.1,10.1,0,0,0,1.81-.18,9.18,9.18,0,0,0,2.5,8.3l.88.87a9.15,9.15,0,0,0,6.49,2.69,9.46,9.46,0,0,0,2.68-.4,8.93,8.93,0,0,0-.07,1,9.11,9.11,0,0,0,2.69,6.49l.87.88a9.22,9.22,0,0,0,13,0l3.69-3.69c.58.49,1.46,1.26,2.82,2.46a11.33,11.33,0,0,0,7.54,3.12c5.88,0,11-5.17,13.82-8.1h0a2,2,0,0,0,.4-.16c11.14,2.44,15.52-1,20.11-6.33,13.31-.86,14.91-6.93,16.08-11.38,0-.13.06-.25.1-.37h.1c6.47,0,10-2.73,11.89-5.1a14.33,14.33,0,0,0,2.54-11.76c9.34-9.28,12-17.43,12.45-19.26,5-6.27,17.93-22.11,20.58-24.41l.77-.66ZM506.34,606.93l-.87-.88a6.11,6.11,0,0,1,0-8.62l5.54-5.54a6.11,6.11,0,0,1,8.62,0l.87.88a6.11,6.11,0,0,1,0,8.62l-2.26,2.27L514.9,607A6.12,6.12,0,0,1,506.34,606.93ZM517,619.59l-.88-.87a6.13,6.13,0,0,1,0-8.63l.92-.91.07-.07,3.29-3.3,6.19-6.17a6,6,0,0,1,4.31-1.78,6.08,6.08,0,0,1,4.31,1.77l.87.88a6.11,6.11,0,0,1,0,8.62l-10.46,10.46A6.1,6.1,0,0,1,517,619.59Zm11.68,11.68-.88-.87a6.11,6.11,0,0,1,0-8.63l10.46-10.46a6.13,6.13,0,0,1,8.63,0l.87.87a6.1,6.1,0,0,1,0,8.62l-1,1h0l-.11.11-9.36,9.36A6.1,6.1,0,0,1,528.72,631.27ZM550,642a6.25,6.25,0,0,1-8.62,0l-.87-.87a6.11,6.11,0,0,1,0-8.62L549,624a6.08,6.08,0,0,1,8.62,0l.87.87a6.11,6.11,0,0,1,0,8.62Zm76.33-29.29c-2.13,2.7-5.6,4-10.11,3.9L592,592.32a1.55,1.55,0,0,0-2.19,2.18l24.09,24.09c-.06.22-.13.44-.19.67-1.08,4.07-2.18,8.28-12.89,9.06L580,607.52a1.55,1.55,0,0,0-2.19,2.18l20.11,20.11c-3.55,4.09-7.12,7.31-17.77,4.71l-.23-.06-4.81-4.81a1.55,1.55,0,0,0-2.19,2.18l4.45,4.44c-5.14,5.18-10.65,9.53-16.63,4.32-1.22-1.08-2.07-1.82-2.66-2.33l2.6-2.61a9.17,9.17,0,0,0,0-13l-.87-.87a9.12,9.12,0,0,0-7.53-2.62A9.21,9.21,0,0,0,550,610l-.87-.87a9.36,9.36,0,0,0-8.33-2.41,9.21,9.21,0,0,0,.2-1.9,9.1,9.1,0,0,0-2.68-6.49l-.87-.87a9.46,9.46,0,0,0-12.08-.78,9.13,9.13,0,0,0-2.66-6.09l-.87-.88a9.21,9.21,0,0,0-10.06-2l-2.25-8.08-25.44-24c2-4.76,11.9-26.49,32.42-32.43,13,10.82,24.23,19.84,28.55,23.3l-5.2,2.25a5.57,5.57,0,0,0-2.83,3.66c-.33,1.75.33,3.56,2,5.39,2.37,2.66,11.26,11.12,26.1,8.21,5.89-1.23,12.17-2.88,12.43-3s4.64-1.8,9.36,2.65c5.25,4.94,37.66,34.16,41.32,37.46A11.29,11.29,0,0,1,626.33,612.67Zm14.8-30.78-.31.63c0,.08-2,8.23-11.31,17.69-6-5.45-35.57-32.07-40.53-36.74-6.25-5.88-12.41-3.37-12.46-3.33s-6.27,1.65-12.06,2.85c-13.23,2.59-21.09-4.88-23.18-7.23A3.81,3.81,0,0,1,540,553a2.53,2.53,0,0,1,1.12-1.46h0l9.29-4,20.17-7.3c.08,0,8.76-2.77,19.28,3.33,8.38,3.81,14.76,1.3,20.08-1.36,2.82-1.41,8.41-7.16,13.81-12.72,3.68-3.79,8.72-9,9.74-9.41,2.72.08,19.14,10.54,28,37.46C656.88,562.26,641.81,581,641.13,581.89Z"/><path class="cls-11" d="M531.37,528.56l-38.49,44.66-15.67-11.84a4.35,4.35,0,0,1-1.16-5.59l27.35-48.44a4.12,4.12,0,0,1,6.54-.84Z"/><path class="cls-11" d="M617.27,528.11l38.49,44.66,15.67-11.85a4.33,4.33,0,0,0,1.16-5.58L645.24,506.9a4.11,4.11,0,0,0-6.53-.85Z"/><path class="cls-2" d="M929.74,579.22a44.72,44.72,0,0,0,11,4.89,40.47,40.47,0,0,0,23.28,0,44.46,44.46,0,0,0,11-4.89,25.3,25.3,0,0,0,8.27-8.32,21.06,21.06,0,0,0,3.2-11.22H918.27a21,21,0,0,0,3.19,11.22A25.42,25.42,0,0,0,929.74,579.22Z"/><path class="cls-2" d="M994.35,559.68v47.13a21,21,0,0,0-21,21h-42a21,21,0,0,0-21-21V559.68H899.9v73.37a5.33,5.33,0,0,0,5.25,5.24H999.6a5.33,5.33,0,0,0,5.25-5.24V559.68Z"/><path class="cls-11" d="M1035.7,515.8H869.19a9.14,9.14,0,0,0-9.14,9.14v76.68a9.14,9.14,0,0,0,9.14,9.14h17.65v-57.7a6.71,6.71,0,0,1,6.72-6.71h117.63a6.71,6.71,0,0,1,6.72,6.71v57.7h17.79a9.14,9.14,0,0,0,9.14-9.14V524.94A9.14,9.14,0,0,0,1035.7,515.8Z"/><circle class="cls-1" cx="515.29" cy="528.43" r="5.49"/><line class="cls-9" x1="406.46" y1="300.03" x2="369.65" y2="300.03"/><polyline class="cls-9" points="398.05 291.58 406.5 300.03 398.05 308.48"/><line class="cls-9" x1="780.7" y1="300.03" x2="743.89" y2="300.03"/><polyline class="cls-9" points="772.29 291.58 780.74 300.03 772.29 308.48"/><line class="cls-9" x1="406.46" y1="673.14" x2="369.65" y2="673.14"/><polyline class="cls-9" points="398.05 664.69 406.5 673.14 398.05 681.59"/><line class="cls-9" x1="780.7" y1="673.14" x2="743.89" y2="673.14"/><polyline class="cls-9" points="772.29 664.69 780.74 673.14 772.29 681.59"/><path class="cls-22" d="M1000.78,474h-8.54a6.68,6.68,0,0,0-1.09-4.19,3.49,3.49,0,0,0-2.89-1.39,3.21,3.21,0,0,0-2.71,1.14,4.63,4.63,0,0,0-.88,2.89,4.3,4.3,0,0,0,1,2.89,9.94,9.94,0,0,0,3.52,2.25,32.31,32.31,0,0,1,8.8,5.1q2.82,2.55,2.82,7.27a9.6,9.6,0,0,1-2.83,7.23,12.41,12.41,0,0,1-7.6,3.23v5.19h-4.11v-5.22a14,14,0,0,1-8.31-3.5q-3.31-3-3.2-8.82l.07-.15h8.5c0,2.13.46,3.67,1.39,4.61a4.87,4.87,0,0,0,3.62,1.4,3.54,3.54,0,0,0,2.81-1.08,4.12,4.12,0,0,0,1-2.84,4.67,4.67,0,0,0-1-3.16,9.93,9.93,0,0,0-3.49-2.21,30.58,30.58,0,0,1-8.87-4.92q-2.78-2.49-2.77-7.32a9.55,9.55,0,0,1,2.94-7.19,12.69,12.69,0,0,1,7.85-3.29v-5.45h4.1V462a11.09,11.09,0,0,1,10,11.85Z"/><path class="cls-22" d="M963.11,474h-8.55a6.75,6.75,0,0,0-1.08-4.19,3.5,3.5,0,0,0-2.89-1.39,3.19,3.19,0,0,0-2.71,1.14,4.56,4.56,0,0,0-.88,2.89,4.3,4.3,0,0,0,.94,2.89,10,10,0,0,0,3.52,2.25,32.39,32.39,0,0,1,8.81,5.1c1.88,1.7,2.81,4.12,2.81,7.27a9.63,9.63,0,0,1-2.82,7.23,12.44,12.44,0,0,1-7.61,3.23v5.19h-4.1v-5.22a14,14,0,0,1-8.32-3.5q-3.3-3-3.2-8.82l.08-.15h8.49c0,2.13.47,3.67,1.4,4.61a4.84,4.84,0,0,0,3.61,1.4,3.58,3.58,0,0,0,2.82-1.08,4.17,4.17,0,0,0,1-2.84,4.62,4.62,0,0,0-1-3.16,9.87,9.87,0,0,0-3.48-2.21,30.44,30.44,0,0,1-8.87-4.92q-2.77-2.49-2.78-7.32a9.55,9.55,0,0,1,2.94-7.19,12.72,12.72,0,0,1,7.85-3.29v-5.45h4.11V462a11.07,11.07,0,0,1,10,11.85Z"/><path class="cls-22" d="M925.43,474h-8.54a6.68,6.68,0,0,0-1.09-4.19,3.49,3.49,0,0,0-2.89-1.39,3.21,3.21,0,0,0-2.71,1.14,4.63,4.63,0,0,0-.88,2.89,4.3,4.3,0,0,0,.95,2.89,9.94,9.94,0,0,0,3.52,2.25,32.31,32.31,0,0,1,8.8,5.1q2.82,2.55,2.82,7.27a9.6,9.6,0,0,1-2.83,7.23,12.41,12.41,0,0,1-7.6,3.23v5.19h-4.11v-5.22a14,14,0,0,1-8.31-3.5q-3.31-3-3.2-8.82l.07-.15h8.5c0,2.13.46,3.67,1.39,4.61a4.87,4.87,0,0,0,3.62,1.4,3.54,3.54,0,0,0,2.81-1.08,4.12,4.12,0,0,0,1-2.84,4.67,4.67,0,0,0-1-3.16,9.93,9.93,0,0,0-3.49-2.21,30.58,30.58,0,0,1-8.87-4.92q-2.77-2.49-2.77-7.32a9.55,9.55,0,0,1,2.94-7.19,12.69,12.69,0,0,1,7.85-3.29v-5.45h4.1V462a11.09,11.09,0,0,1,10,11.85Z"/></g><g id="Outlined_Type" data-name="Outlined Type"><rect class="cls-1" width="1150" height="800" rx="4.77"/><circle class="cls-2" cx="116.97" cy="142.32" r="9.89"/><path class="cls-2" d="M136.16,169.86c0-7.91-.22-8.13-3.95-10.55-4.11-2.26-14-2-15.24-2s-11.14-.28-15.25,2c-3.73,2.42-4,2.64-4,10.55s.88,27,.88,27-.44,5.71,2.63,8.57c2.42,2,3.74,8.13,4.62,17.14s2.2,29.22,2.2,29.22-.85,6.24,8.73,6.37h.28c9.57-.13,8.72-6.37,8.72-6.37s1.32-20.21,2.2-29.22,2.2-15.16,4.62-17.14c3.07-2.86,2.63-8.57,2.63-8.57S136.16,177.77,136.16,169.86Z"/><circle class="cls-2" cx="491.54" cy="142.32" r="9.89"/><path class="cls-2" d="M510.73,169.86c0-7.91-.22-8.13-4-10.55-4.11-2.26-14-2-15.24-2s-11.14-.28-15.25,2c-3.73,2.42-4,2.64-4,10.55s.88,27,.88,27-.44,5.71,2.63,8.57c2.42,2,3.74,8.13,4.62,17.14s2.2,29.22,2.2,29.22-.85,6.24,8.72,6.37h.29c9.57-.13,8.72-6.37,8.72-6.37s1.32-20.21,2.2-29.22,2.2-15.16,4.62-17.14c3.07-2.86,2.63-8.57,2.63-8.57S510.73,177.77,510.73,169.86Z"/><path class="cls-3" d="M187.61,190.68a1.49,1.49,0,0,1-.55-.1,1.45,1.45,0,0,1-.89-1.33V175.12H166.62a6.68,6.68,0,0,1-4.83-2.08A6.59,6.59,0,0,1,160,168.1a6.81,6.81,0,0,1,6.94-6.3h19.26V147.67a1.44,1.44,0,0,1,2.46-1l20.78,20.78a1.42,1.42,0,0,1,0,2l-20.78,20.78A1.44,1.44,0,0,1,187.61,190.68Z"/><path class="cls-4" d="M276.6,161.5h-8.46a6.62,6.62,0,0,0-1.07-4.15,3.45,3.45,0,0,0-2.86-1.37,3.2,3.2,0,0,0-2.68,1.12,4.56,4.56,0,0,0-.87,2.87,4.28,4.28,0,0,0,.93,2.86,10,10,0,0,0,3.49,2.22,32.39,32.39,0,0,1,8.71,5c1.86,1.68,2.78,4.08,2.78,7.2a9.52,9.52,0,0,1-2.79,7.15,12.29,12.29,0,0,1-7.53,3.19v5.14h-4.06v-5.16a13.86,13.86,0,0,1-8.22-3.47q-3.27-3-3.17-8.72l.08-.15h8.4q0,3.16,1.38,4.56a4.81,4.81,0,0,0,3.58,1.39,3.53,3.53,0,0,0,2.78-1.07,4.12,4.12,0,0,0,.94-2.81,4.58,4.58,0,0,0-1-3.13,9.78,9.78,0,0,0-3.44-2.19,30.24,30.24,0,0,1-8.78-4.86c-1.83-1.65-2.75-4.06-2.75-7.25a9.46,9.46,0,0,1,2.92-7.11,12.57,12.57,0,0,1,7.76-3.26v-5.39h4.06v5.5a11,11,0,0,1,9.89,11.72Z"/><circle class="cls-2" cx="240.33" cy="101.75" r="18.76"/><circle class="cls-2" cx="240.33" cy="235.17" r="18.76"/><path class="cls-2" d="M113.27,324.26a5.05,5.05,0,0,1-1.69,3.61,6,6,0,0,1-4,1.32,5.32,5.32,0,0,1-4.3-1.84,7.52,7.52,0,0,1-1.57-5.05v-.87a8.57,8.57,0,0,1,.72-3.62,5.34,5.34,0,0,1,2.07-2.39,6.43,6.43,0,0,1,7.08.48,5.43,5.43,0,0,1,1.74,3.7h-2.93a3,3,0,0,0-.77-2,2.83,2.83,0,0,0-2-.62,2.5,2.5,0,0,0-2.2,1,5.92,5.92,0,0,0-.74,3.26v1.07a6.25,6.25,0,0,0,.7,3.37,2.44,2.44,0,0,0,2.2,1.07,2.89,2.89,0,0,0,2-.62,2.79,2.79,0,0,0,.77-1.92Z"/><path class="cls-2" d="M117.76,319.58a3.52,3.52,0,0,1,2.82-1.35q3.45,0,3.49,4V329h-2.82v-6.68a2,2,0,0,0-.39-1.35,1.68,1.68,0,0,0-1.3-.43,1.93,1.93,0,0,0-1.8,1V329h-2.82V314h2.82Z"/><path class="cls-2" d="M125.76,323.61a6.2,6.2,0,0,1,.61-2.8,4.39,4.39,0,0,1,1.74-1.9,5.09,5.09,0,0,1,2.64-.68,4.81,4.81,0,0,1,3.49,1.31,5.24,5.24,0,0,1,1.51,3.56l0,.72a5.5,5.5,0,0,1-1.36,3.9,4.71,4.71,0,0,1-3.64,1.47,4.78,4.78,0,0,1-3.65-1.46,5.63,5.63,0,0,1-1.36-4Zm2.82.2a3.94,3.94,0,0,0,.57,2.31,2,2,0,0,0,3.22,0,4.3,4.3,0,0,0,.58-2.52,3.86,3.86,0,0,0-.58-2.29,1.86,1.86,0,0,0-1.62-.81,1.84,1.84,0,0,0-1.6.81A4.34,4.34,0,0,0,128.58,323.81Z"/><path class="cls-2" d="M137.07,323.61a6.33,6.33,0,0,1,.6-2.8,4.47,4.47,0,0,1,1.75-1.9,5.09,5.09,0,0,1,2.64-.68,4.81,4.81,0,0,1,3.49,1.31,5.24,5.24,0,0,1,1.51,3.56l0,.72a5.5,5.5,0,0,1-1.36,3.9,4.71,4.71,0,0,1-3.64,1.47,4.78,4.78,0,0,1-3.65-1.46,5.63,5.63,0,0,1-1.36-4Zm2.82.2a3.94,3.94,0,0,0,.57,2.31,2,2,0,0,0,3.22,0,4.38,4.38,0,0,0,.58-2.52,3.93,3.93,0,0,0-.58-2.29,1.86,1.86,0,0,0-1.62-.81,1.84,1.84,0,0,0-1.6.81A4.34,4.34,0,0,0,139.89,323.81Z"/><path class="cls-2" d="M154.54,326.07a.91.91,0,0,0-.51-.81,5.56,5.56,0,0,0-1.65-.53q-3.76-.8-3.77-3.21a2.88,2.88,0,0,1,1.17-2.34,4.69,4.69,0,0,1,3.05-.95,5.1,5.1,0,0,1,3.22.95,3,3,0,0,1,1.2,2.46h-2.82a1.36,1.36,0,0,0-.39-1,2,2,0,0,0-2.32-.07,1,1,0,0,0-.39.82.85.85,0,0,0,.44.75,4.45,4.45,0,0,0,1.5.5,11.75,11.75,0,0,1,1.78.48,2.91,2.91,0,0,1,2.23,2.84A2.76,2.76,0,0,1,156,328.3a5.36,5.36,0,0,1-3.2.89,5.71,5.71,0,0,1-2.36-.47,4,4,0,0,1-1.61-1.3,3,3,0,0,1-.59-1.78H151a1.47,1.47,0,0,0,.55,1.15,2.27,2.27,0,0,0,1.39.4,2,2,0,0,0,1.22-.31A1,1,0,0,0,154.54,326.07Z"/><path class="cls-2" d="M164,329.19a5.18,5.18,0,0,1-3.78-1.43,5.06,5.06,0,0,1-1.46-3.79v-.28a6.34,6.34,0,0,1,.61-2.84,4.52,4.52,0,0,1,1.75-1.94,4.91,4.91,0,0,1,2.57-.68,4.38,4.38,0,0,1,3.41,1.37,5.55,5.55,0,0,1,1.25,3.88v1.15h-6.73a2.62,2.62,0,0,0,.83,1.66,2.46,2.46,0,0,0,1.74.62,3,3,0,0,0,2.55-1.18l1.38,1.56a4.31,4.31,0,0,1-1.71,1.4A5.77,5.77,0,0,1,164,329.19Zm-.32-8.68a1.76,1.76,0,0,0-1.36.57,3,3,0,0,0-.67,1.63h3.93v-.23A2.18,2.18,0,0,0,165,321,1.84,1.84,0,0,0,163.64,320.51Z"/><path class="cls-2" d="M183.63,323.18H178V329h-2.93V314.78h9.25v2.37H178v3.67h5.62Z"/><path class="cls-2" d="M191.53,321.07a7.8,7.8,0,0,0-1-.07,2.07,2.07,0,0,0-2.1,1.08V329h-2.83V318.43h2.67l.08,1.26a2.61,2.61,0,0,1,2.35-1.46,3.12,3.12,0,0,1,.88.13Z"/><path class="cls-2" d="M192.1,323.61a6.33,6.33,0,0,1,.6-2.8,4.47,4.47,0,0,1,1.75-1.9,5.09,5.09,0,0,1,2.64-.68,4.83,4.83,0,0,1,3.49,1.31,5.29,5.29,0,0,1,1.51,3.56l0,.72a5.5,5.5,0,0,1-1.36,3.9,4.71,4.71,0,0,1-3.64,1.47,4.76,4.76,0,0,1-3.65-1.46,5.63,5.63,0,0,1-1.36-4Zm2.82.2a3.94,3.94,0,0,0,.57,2.31,1.85,1.85,0,0,0,1.62.79,1.88,1.88,0,0,0,1.6-.78,4.38,4.38,0,0,0,.58-2.52,3.93,3.93,0,0,0-.58-2.29,1.86,1.86,0,0,0-1.62-.81,1.83,1.83,0,0,0-1.6.81A4.34,4.34,0,0,0,194.92,323.81Z"/><path class="cls-2" d="M206.49,318.43l.09,1.18a3.71,3.71,0,0,1,3-1.38,2.82,2.82,0,0,1,2.8,1.61,3.63,3.63,0,0,1,3.17-1.61,3.17,3.17,0,0,1,2.56,1,4.63,4.63,0,0,1,.84,3V329h-2.83v-6.73a2.06,2.06,0,0,0-.35-1.32,1.59,1.59,0,0,0-1.24-.41,1.76,1.76,0,0,0-1.76,1.21V329H210v-6.72a2,2,0,0,0-.36-1.33,1.55,1.55,0,0,0-1.23-.41,1.84,1.84,0,0,0-1.74,1V329h-2.82V318.43Z"/><path class="cls-2" d="M238,322.21a8.52,8.52,0,0,1-.75,3.68,5.56,5.56,0,0,1-2.12,2.44,6.27,6.27,0,0,1-6.32,0,5.66,5.66,0,0,1-2.15-2.43,8.2,8.2,0,0,1-.77-3.62v-.71a8.56,8.56,0,0,1,.75-3.69,5.59,5.59,0,0,1,2.14-2.45,6.24,6.24,0,0,1,6.32,0,5.53,5.53,0,0,1,2.14,2.45,8.55,8.55,0,0,1,.76,3.68Zm-3-.65a6,6,0,0,0-.8-3.4A2.63,2.63,0,0,0,232,317a2.59,2.59,0,0,0-2.27,1.15,5.83,5.83,0,0,0-.81,3.36v.7a6,6,0,0,0,.8,3.38,2.8,2.8,0,0,0,4.57,0,6.12,6.12,0,0,0,.8-3.37Z"/><path class="cls-2" d="M246.28,327.92a3.53,3.53,0,0,1-2.89,1.27,3.36,3.36,0,0,1-2.6-1,4.17,4.17,0,0,1-.91-2.86v-6.92h2.82v6.83c0,1.1.51,1.65,1.51,1.65a2,2,0,0,0,2-1v-7.49H249V329h-2.65Z"/><path class="cls-2" d="M257.08,321.07a7.94,7.94,0,0,0-1-.07,2.08,2.08,0,0,0-2.1,1.08V329h-2.82V318.43h2.67l.08,1.26a2.61,2.61,0,0,1,2.35-1.46,3.17,3.17,0,0,1,.88.13Z"/><path class="cls-2" d="M105,348v5h-2.93V338.78h5.54a6.43,6.43,0,0,1,2.82.58,4.29,4.29,0,0,1,1.87,1.67,4.61,4.61,0,0,1,.66,2.45,4.1,4.1,0,0,1-1.43,3.3,6,6,0,0,1-4,1.2Zm0-2.37h2.61a2.61,2.61,0,0,0,1.78-.54,2,2,0,0,0,.61-1.57,2.36,2.36,0,0,0-.62-1.69,2.27,2.27,0,0,0-1.7-.66H105Z"/><path class="cls-2" d="M114.26,347.61a6.33,6.33,0,0,1,.6-2.8,4.47,4.47,0,0,1,1.75-1.9,5,5,0,0,1,2.64-.68,4.83,4.83,0,0,1,3.49,1.31,5.29,5.29,0,0,1,1.51,3.56l0,.72a5.55,5.55,0,0,1-1.36,3.9,5.27,5.27,0,0,1-7.29,0,5.63,5.63,0,0,1-1.36-4Zm2.82.2a3.94,3.94,0,0,0,.57,2.31,1.85,1.85,0,0,0,1.62.79,1.89,1.89,0,0,0,1.6-.78,4.38,4.38,0,0,0,.57-2.52,3.93,3.93,0,0,0-.57-2.29,1.89,1.89,0,0,0-1.62-.81,1.83,1.83,0,0,0-1.6.81A4.34,4.34,0,0,0,117.08,347.81Z"/><path class="cls-2" d="M135.52,347.81a6.32,6.32,0,0,1-1.11,3.91,3.56,3.56,0,0,1-3,1.47,3.28,3.28,0,0,1-2.58-1.11v5H126V342.43h2.62l.1,1a3.32,3.32,0,0,1,2.68-1.23,3.55,3.55,0,0,1,3,1.45,6.51,6.51,0,0,1,1.09,4Zm-2.83-.21a4.12,4.12,0,0,0-.52-2.27,1.69,1.69,0,0,0-1.52-.8,1.85,1.85,0,0,0-1.82,1v4.33a1.86,1.86,0,0,0,1.84,1C132,350.91,132.69,349.81,132.69,347.6Z"/><path class="cls-2" d="M143.59,351.92a3.52,3.52,0,0,1-2.89,1.27,3.33,3.33,0,0,1-2.59-1,4.12,4.12,0,0,1-.91-2.86v-6.92H140v6.83q0,1.65,1.5,1.65a2,2,0,0,0,2-1v-7.49h2.84V353h-2.66Z"/><path class="cls-2" d="M151.43,353H148.6V338h2.83Z"/><path class="cls-2" d="M159.88,353a3.17,3.17,0,0,1-.28-.94,3.43,3.43,0,0,1-2.67,1.14,3.75,3.75,0,0,1-2.57-.9,2.88,2.88,0,0,1-1-2.26,3,3,0,0,1,1.24-2.58,6.16,6.16,0,0,1,3.6-.91h1.3v-.61a1.76,1.76,0,0,0-.37-1.17,1.51,1.51,0,0,0-1.19-.44,1.72,1.72,0,0,0-1.12.34,1.18,1.18,0,0,0-.4.94h-2.83a2.83,2.83,0,0,1,.57-1.7,3.7,3.7,0,0,1,1.6-1.22,5.8,5.8,0,0,1,2.33-.45,4.64,4.64,0,0,1,3.1,1,3.46,3.46,0,0,1,1.14,2.76v4.58a5.17,5.17,0,0,0,.42,2.28V353Zm-2.33-2a2.39,2.39,0,0,0,1.15-.28,1.81,1.81,0,0,0,.78-.74v-1.82h-1c-1.42,0-2.17.49-2.26,1.46v.17a1.13,1.13,0,0,0,.37.87A1.45,1.45,0,0,0,157.55,351Z"/><path class="cls-2" d="M170.42,345.07a7.94,7.94,0,0,0-1-.07,2.08,2.08,0,0,0-2.1,1.08V353h-2.82V342.43h2.67l.08,1.26a2.61,2.61,0,0,1,2.35-1.46,3.17,3.17,0,0,1,.88.13Z"/><path class="cls-2" d="M179.87,350.64h6.22V353h-9.15V338.78h2.93Z"/><path class="cls-2" d="M187.15,347.61a6.33,6.33,0,0,1,.6-2.8,4.47,4.47,0,0,1,1.75-1.9,5,5,0,0,1,2.64-.68,4.83,4.83,0,0,1,3.49,1.31,5.29,5.29,0,0,1,1.51,3.56l0,.72a5.55,5.55,0,0,1-1.36,3.9,5.27,5.27,0,0,1-7.29,0,5.63,5.63,0,0,1-1.36-4Zm2.82.2a3.94,3.94,0,0,0,.57,2.31,1.85,1.85,0,0,0,1.62.79,1.89,1.89,0,0,0,1.6-.78,4.38,4.38,0,0,0,.57-2.52,3.93,3.93,0,0,0-.57-2.29,1.89,1.89,0,0,0-1.62-.81,1.83,1.83,0,0,0-1.6.81A4.34,4.34,0,0,0,190,347.81Z"/><path class="cls-2" d="M205,353a2.9,2.9,0,0,1-.28-.94,3.44,3.44,0,0,1-2.67,1.14,3.73,3.73,0,0,1-2.57-.9,2.88,2.88,0,0,1-1-2.26,3,3,0,0,1,1.24-2.58,6.16,6.16,0,0,1,3.6-.91h1.3v-.61a1.77,1.77,0,0,0-.38-1.17,1.47,1.47,0,0,0-1.18-.44,1.72,1.72,0,0,0-1.12.34,1.18,1.18,0,0,0-.41.94h-2.82a2.83,2.83,0,0,1,.57-1.7,3.64,3.64,0,0,1,1.6-1.22,5.75,5.75,0,0,1,2.32-.45,4.63,4.63,0,0,1,3.1,1,3.44,3.44,0,0,1,1.15,2.76v4.58a5.17,5.17,0,0,0,.42,2.28V353Zm-2.34-2a2.4,2.4,0,0,0,1.16-.28,1.81,1.81,0,0,0,.78-.74v-1.82h-1.06c-1.41,0-2.16.49-2.25,1.46v.17a1.13,1.13,0,0,0,.37.87A1.42,1.42,0,0,0,202.68,351Z"/><path class="cls-2" d="M212.22,342.43l.08,1.22a3.71,3.71,0,0,1,3-1.42,3.06,3.06,0,0,1,2.5,1,4.57,4.57,0,0,1,.84,2.95V353h-2.82v-6.75a1.85,1.85,0,0,0-.39-1.31,1.76,1.76,0,0,0-1.3-.4,2,2,0,0,0-1.79,1V353h-2.82V342.43Z"/><path class="cls-2" d="M228.91,348v5H226V338.78h5.54a6.43,6.43,0,0,1,2.82.58,4.34,4.34,0,0,1,1.87,1.67,4.61,4.61,0,0,1,.65,2.45,4.07,4.07,0,0,1-1.43,3.3,6,6,0,0,1-4,1.2Zm0-2.37h2.62a2.57,2.57,0,0,0,1.77-.54,2,2,0,0,0,.61-1.57,2.36,2.36,0,0,0-.61-1.69,2.29,2.29,0,0,0-1.7-.66h-2.69Z"/><path class="cls-2" d="M244.64,345.07a8.06,8.06,0,0,0-1-.07,2.07,2.07,0,0,0-2.1,1.08V353H238.7V342.43h2.67l.07,1.26a2.64,2.64,0,0,1,2.36-1.46,3.17,3.17,0,0,1,.88.13Z"/><path class="cls-2" d="M245.2,347.61a6.33,6.33,0,0,1,.61-2.8,4.39,4.39,0,0,1,1.74-1.9,5.09,5.09,0,0,1,2.64-.68,4.85,4.85,0,0,1,3.5,1.31,5.24,5.24,0,0,1,1.5,3.56l0,.72a5.54,5.54,0,0,1-1.35,3.9,5.27,5.27,0,0,1-7.29,0,5.64,5.64,0,0,1-1.37-4Zm2.83.2a4,4,0,0,0,.56,2.31,1.87,1.87,0,0,0,1.62.79,1.89,1.89,0,0,0,1.61-.78,4.38,4.38,0,0,0,.57-2.52,3.93,3.93,0,0,0-.57-2.29,1.89,1.89,0,0,0-1.63-.81,1.84,1.84,0,0,0-1.6.81A4.43,4.43,0,0,0,248,347.81Z"/><path class="cls-2" d="M256.51,347.63a6.34,6.34,0,0,1,1.11-3.93,3.59,3.59,0,0,1,3-1.47,3.24,3.24,0,0,1,2.55,1.16V338H266v15h-2.54l-.14-1.12a3.32,3.32,0,0,1-2.72,1.32,3.58,3.58,0,0,1-3-1.47A6.59,6.59,0,0,1,256.51,347.63Zm2.82.21a4.23,4.23,0,0,0,.52,2.28,1.69,1.69,0,0,0,1.51.79,1.88,1.88,0,0,0,1.84-1.1v-4.18a1.86,1.86,0,0,0-1.82-1.1C260,344.53,259.33,345.63,259.33,347.84Z"/><path class="cls-2" d="M274.55,351.92a3.53,3.53,0,0,1-2.89,1.27,3.33,3.33,0,0,1-2.59-1,4.17,4.17,0,0,1-.92-2.86v-6.92H271v6.83q0,1.65,1.5,1.65a2,2,0,0,0,2-1v-7.49h2.83V353h-2.65Z"/><path class="cls-2" d="M283.81,350.91a1.84,1.84,0,0,0,1.27-.43,1.48,1.48,0,0,0,.5-1.14h2.65a3.69,3.69,0,0,1-.58,2,3.88,3.88,0,0,1-1.58,1.39,4.94,4.94,0,0,1-2.21.49,4.6,4.6,0,0,1-3.58-1.44,5.72,5.72,0,0,1-1.31-4v-.19a5.66,5.66,0,0,1,1.3-3.89,4.56,4.56,0,0,1,3.57-1.46,4.46,4.46,0,0,1,3.18,1.13,4,4,0,0,1,1.21,3h-2.65a2,2,0,0,0-.5-1.34,1.72,1.72,0,0,0-1.29-.51,1.69,1.69,0,0,0-1.49.72,4.11,4.11,0,0,0-.5,2.33v.29a4.26,4.26,0,0,0,.49,2.35A1.73,1.73,0,0,0,283.81,350.91Z"/><path class="cls-2" d="M293.22,339.83v2.6H295v2.07h-1.81v5.27a1.26,1.26,0,0,0,.23.84,1.12,1.12,0,0,0,.86.26,5.15,5.15,0,0,0,.83-.07v2.14a5.85,5.85,0,0,1-1.71.25q-3,0-3-3V344.5h-1.54v-2.07h1.54v-2.6Z"/><path class="cls-2" d="M302.32,350.07a.91.91,0,0,0-.51-.81,5.56,5.56,0,0,0-1.65-.53q-3.77-.8-3.76-3.21a2.87,2.87,0,0,1,1.16-2.34,4.71,4.71,0,0,1,3.05-.95,5.06,5.06,0,0,1,3.22.95,3,3,0,0,1,1.21,2.46h-2.82a1.33,1.33,0,0,0-.4-1,2,2,0,0,0-2.32-.07,1,1,0,0,0-.39.82.87.87,0,0,0,.44.75,4.45,4.45,0,0,0,1.5.5,11.43,11.43,0,0,1,1.78.48,2.92,2.92,0,0,1,2.24,2.84,2.78,2.78,0,0,1-1.24,2.34,5.42,5.42,0,0,1-3.21.89,5.63,5.63,0,0,1-2.35-.47,4,4,0,0,1-1.62-1.3,3,3,0,0,1-.59-1.78h2.68a1.45,1.45,0,0,0,.56,1.15,2.22,2.22,0,0,0,1.38.4,2,2,0,0,0,1.23-.31A1,1,0,0,0,302.32,350.07Z"/><line class="cls-9" x1="306" y1="300.03" x2="98.65" y2="300.03"/><path class="cls-2" d="M480.05,323.79h-2.34V329h-2.93V314.78h5.29A6,6,0,0,1,484,315.9a3.89,3.89,0,0,1,1.37,3.17,4.39,4.39,0,0,1-.63,2.43,4.34,4.34,0,0,1-1.91,1.55l3.08,5.81V329h-3.15Zm-2.34-2.37h2.36a2.43,2.43,0,0,0,1.71-.56,2,2,0,0,0,.61-1.55,2.14,2.14,0,0,0-.57-1.58,2.35,2.35,0,0,0-1.75-.58h-2.36Z"/><path class="cls-2" d="M492.22,329.19a5.18,5.18,0,0,1-3.78-1.43A5.06,5.06,0,0,1,487,324v-.28a6.34,6.34,0,0,1,.61-2.84,4.52,4.52,0,0,1,1.75-1.94,4.91,4.91,0,0,1,2.57-.68,4.38,4.38,0,0,1,3.41,1.37,5.55,5.55,0,0,1,1.25,3.88v1.15h-6.73a2.62,2.62,0,0,0,.83,1.66,2.46,2.46,0,0,0,1.74.62,3,3,0,0,0,2.55-1.18l1.38,1.56a4.31,4.31,0,0,1-1.71,1.4A5.77,5.77,0,0,1,492.22,329.19Zm-.32-8.68a1.76,1.76,0,0,0-1.36.57,3,3,0,0,0-.67,1.63h3.93v-.23a2.18,2.18,0,0,0-.51-1.46A1.84,1.84,0,0,0,491.9,320.51Z"/><path class="cls-2" d="M497.73,323.61a6.29,6.29,0,0,1,1.11-3.93,3.61,3.61,0,0,1,3-1.45,3.27,3.27,0,0,1,2.71,1.3l.18-1.1h2.48v14.63h-2.83v-5a3.26,3.26,0,0,1-2.56,1.1,3.62,3.62,0,0,1-3-1.46A6.71,6.71,0,0,1,497.73,323.61Zm2.82.2a4.11,4.11,0,0,0,.54,2.31,1.68,1.68,0,0,0,1.49.79,1.9,1.9,0,0,0,1.84-1v-4.37a1.88,1.88,0,0,0-1.82-1,1.72,1.72,0,0,0-1.51.79A4.56,4.56,0,0,0,500.55,323.81Z"/><path class="cls-2" d="M515.8,327.92a3.53,3.53,0,0,1-2.89,1.27,3.36,3.36,0,0,1-2.6-1,4.17,4.17,0,0,1-.91-2.86v-6.92h2.82v6.83c0,1.1.5,1.65,1.51,1.65a2,2,0,0,0,2-1v-7.49h2.83V329h-2.65Z"/><path class="cls-2" d="M525.52,329.19a5.18,5.18,0,0,1-3.78-1.43,5.06,5.06,0,0,1-1.46-3.79v-.28a6.34,6.34,0,0,1,.62-2.84,4.5,4.5,0,0,1,1.74-1.94,4.91,4.91,0,0,1,2.57-.68,4.38,4.38,0,0,1,3.41,1.37,5.55,5.55,0,0,1,1.25,3.88v1.15h-6.73a2.62,2.62,0,0,0,.83,1.66,2.48,2.48,0,0,0,1.74.62,3,3,0,0,0,2.55-1.18l1.39,1.56a4.42,4.42,0,0,1-1.72,1.4A5.77,5.77,0,0,1,525.52,329.19Zm-.32-8.68a1.76,1.76,0,0,0-1.36.57,3,3,0,0,0-.67,1.63h3.93v-.23a2.18,2.18,0,0,0-.51-1.46A1.84,1.84,0,0,0,525.2,320.51Z"/><path class="cls-2" d="M537.19,326.07a.91.91,0,0,0-.51-.81,5.58,5.58,0,0,0-1.64-.53c-2.52-.53-3.77-1.6-3.77-3.21a2.9,2.9,0,0,1,1.16-2.34,4.72,4.72,0,0,1,3.06-.95,5,5,0,0,1,3.21.95,3,3,0,0,1,1.21,2.46h-2.82a1.36,1.36,0,0,0-.39-1,2,2,0,0,0-2.33-.07,1,1,0,0,0-.39.82.86.86,0,0,0,.45.75,4.3,4.3,0,0,0,1.49.5,11.43,11.43,0,0,1,1.78.48,2.92,2.92,0,0,1,2.24,2.84,2.78,2.78,0,0,1-1.24,2.34,5.42,5.42,0,0,1-3.21.89,5.63,5.63,0,0,1-2.35-.47,4,4,0,0,1-1.62-1.3,3,3,0,0,1-.59-1.78h2.68a1.48,1.48,0,0,0,.56,1.15,2.22,2.22,0,0,0,1.38.4,2,2,0,0,0,1.23-.31A.94.94,0,0,0,537.19,326.07Z"/><path class="cls-2" d="M545.13,315.83v2.6h1.81v2.07h-1.81v5.27a1.26,1.26,0,0,0,.23.84,1.12,1.12,0,0,0,.86.26,5,5,0,0,0,.83-.07v2.14a5.85,5.85,0,0,1-1.71.25q-3,0-3-3V320.5h-1.54v-2.07h1.54v-2.6Z"/><path class="cls-2" d="M564.84,324.26a5,5,0,0,1-1.69,3.61,6,6,0,0,1-4,1.32,5.34,5.34,0,0,1-4.3-1.84,7.52,7.52,0,0,1-1.57-5.05v-.87a8.57,8.57,0,0,1,.72-3.62,5.34,5.34,0,0,1,2.07-2.39,6.43,6.43,0,0,1,7.08.48,5.43,5.43,0,0,1,1.74,3.7h-2.93a3,3,0,0,0-.77-2,2.83,2.83,0,0,0-2-.62,2.5,2.5,0,0,0-2.2,1,5.92,5.92,0,0,0-.74,3.26v1.07a6.25,6.25,0,0,0,.7,3.37,2.44,2.44,0,0,0,2.2,1.07,2.89,2.89,0,0,0,2-.62,2.79,2.79,0,0,0,.77-1.92Z"/><path class="cls-2" d="M569.56,329h-2.83V314h2.83Z"/><path class="cls-2" d="M571.86,315.69a1.36,1.36,0,0,1,.43-1,1.6,1.6,0,0,1,1.15-.41,1.63,1.63,0,0,1,1.16.41,1.48,1.48,0,0,1,0,2.1,1.8,1.8,0,0,1-2.29,0A1.39,1.39,0,0,1,571.86,315.69Zm3,13.3H572V318.43h2.83Z"/><path class="cls-2" d="M581.58,326.91a1.84,1.84,0,0,0,1.27-.43,1.53,1.53,0,0,0,.51-1.14H586a3.6,3.6,0,0,1-.58,2,3.88,3.88,0,0,1-1.58,1.39,4.94,4.94,0,0,1-2.21.49,4.61,4.61,0,0,1-3.58-1.44,5.72,5.72,0,0,1-1.31-4v-.19a5.66,5.66,0,0,1,1.3-3.89,4.56,4.56,0,0,1,3.57-1.46,4.46,4.46,0,0,1,3.18,1.13,4,4,0,0,1,1.21,3h-2.64a2,2,0,0,0-.51-1.34,1.89,1.89,0,0,0-2.78.21,4.11,4.11,0,0,0-.5,2.33v.29a4.17,4.17,0,0,0,.5,2.35A1.7,1.7,0,0,0,581.58,326.91Z"/><path class="cls-2" d="M591.45,324.76l-1,1V329h-2.83V314h2.83v8.32l.54-.71,2.71-3.17h3.39l-3.82,4.4,4.15,6.16h-3.24Z"/><path class="cls-2" d="M604.42,329a3.17,3.17,0,0,1-.28-.94,3.43,3.43,0,0,1-2.67,1.14,3.75,3.75,0,0,1-2.57-.9,2.88,2.88,0,0,1-1-2.26,3,3,0,0,1,1.24-2.58,6.16,6.16,0,0,1,3.6-.91H604v-.61a1.77,1.77,0,0,0-.38-1.17,1.47,1.47,0,0,0-1.18-.44,1.72,1.72,0,0,0-1.12.34,1.18,1.18,0,0,0-.41.94h-2.82a2.83,2.83,0,0,1,.57-1.7,3.7,3.7,0,0,1,1.6-1.22,5.78,5.78,0,0,1,2.32-.45,4.65,4.65,0,0,1,3.11,1,3.46,3.46,0,0,1,1.14,2.76v4.58a5.17,5.17,0,0,0,.42,2.28V329Zm-2.33-2a2.39,2.39,0,0,0,1.15-.28A1.81,1.81,0,0,0,604,326v-1.82h-1c-1.42,0-2.17.49-2.26,1.46v.17a1.13,1.13,0,0,0,.37.87A1.45,1.45,0,0,0,602.09,327Z"/><path class="cls-2" d="M618.54,323.81a6.43,6.43,0,0,1-1.08,4,3.58,3.58,0,0,1-3,1.42,3.28,3.28,0,0,1-2.74-1.32l-.13,1.12H609V314h2.82v5.39a3.2,3.2,0,0,1,2.57-1.15,3.63,3.63,0,0,1,3,1.42,6.37,6.37,0,0,1,1.1,4Zm-2.82-.21a4.17,4.17,0,0,0-.51-2.33,1.7,1.7,0,0,0-1.51-.74,1.87,1.87,0,0,0-1.86,1.1v4.17a1.89,1.89,0,0,0,1.88,1.11,1.72,1.72,0,0,0,1.79-1.34A6.85,6.85,0,0,0,615.72,323.6Z"/><path class="cls-2" d="M623.26,329h-2.83V314h2.83Z"/><path class="cls-2" d="M630.45,329.19a5.2,5.2,0,0,1-3.79-1.43A5.06,5.06,0,0,1,625.2,324v-.28a6.34,6.34,0,0,1,.62-2.84,4.5,4.5,0,0,1,1.74-1.94,4.91,4.91,0,0,1,2.57-.68,4.4,4.4,0,0,1,3.42,1.37,5.55,5.55,0,0,1,1.24,3.88v1.15h-6.73a2.67,2.67,0,0,0,.83,1.66,2.48,2.48,0,0,0,1.74.62,3,3,0,0,0,2.55-1.18l1.39,1.56a4.42,4.42,0,0,1-1.72,1.4A5.69,5.69,0,0,1,630.45,329.19Zm-.33-8.68a1.76,1.76,0,0,0-1.36.57,3,3,0,0,0-.67,1.63H632v-.23a2.08,2.08,0,0,0-.51-1.46A1.83,1.83,0,0,0,630.12,320.51Z"/><path class="cls-2" d="M477.71,350.64h6.22V353h-9.15V338.78h2.93Z"/><path class="cls-2" d="M485,347.61a6.33,6.33,0,0,1,.6-2.8,4.47,4.47,0,0,1,1.75-1.9,5,5,0,0,1,2.64-.68,4.83,4.83,0,0,1,3.49,1.31A5.29,5.29,0,0,1,495,347.1l0,.72a5.55,5.55,0,0,1-1.36,3.9,5.27,5.27,0,0,1-7.29,0,5.63,5.63,0,0,1-1.36-4Zm2.82.2a3.94,3.94,0,0,0,.57,2.31,1.85,1.85,0,0,0,1.62.79,1.89,1.89,0,0,0,1.6-.78,4.38,4.38,0,0,0,.57-2.52,3.93,3.93,0,0,0-.57-2.29,1.89,1.89,0,0,0-1.62-.81,1.83,1.83,0,0,0-1.6.81A4.34,4.34,0,0,0,487.81,347.81Z"/><path class="cls-2" d="M502.86,353a3.16,3.16,0,0,1-.29-.94,3.41,3.41,0,0,1-2.66,1.14,3.73,3.73,0,0,1-2.57-.9,2.88,2.88,0,0,1-1-2.26,3,3,0,0,1,1.24-2.58,6.16,6.16,0,0,1,3.6-.91h1.3v-.61a1.77,1.77,0,0,0-.38-1.17,1.47,1.47,0,0,0-1.18-.44,1.72,1.72,0,0,0-1.12.34,1.18,1.18,0,0,0-.41.94h-2.82a2.83,2.83,0,0,1,.57-1.7,3.64,3.64,0,0,1,1.6-1.22,5.75,5.75,0,0,1,2.32-.45,4.63,4.63,0,0,1,3.1,1,3.44,3.44,0,0,1,1.15,2.76v4.58a5.17,5.17,0,0,0,.42,2.28V353Zm-2.34-2a2.43,2.43,0,0,0,1.16-.28,1.81,1.81,0,0,0,.78-.74v-1.82H501.4c-1.41,0-2.16.49-2.25,1.46v.17a1.13,1.13,0,0,0,.37.87A1.42,1.42,0,0,0,500.52,351Z"/><path class="cls-2" d="M510.06,342.43l.08,1.22a3.71,3.71,0,0,1,3-1.42,3.06,3.06,0,0,1,2.5,1,4.57,4.57,0,0,1,.84,2.95V353H513.7v-6.75a1.85,1.85,0,0,0-.39-1.31,1.76,1.76,0,0,0-1.3-.4,2,2,0,0,0-1.79,1V353H507.4V342.43Z"/><path class="cls-2" d="M523.82,353V338.78h5a6.53,6.53,0,0,1,3.92,1,3.39,3.39,0,0,1,1.34,2.9,3.19,3.19,0,0,1-.54,1.84,3.12,3.12,0,0,1-1.49,1.17,3,3,0,0,1,1.72,1.1,3.28,3.28,0,0,1,.63,2,3.73,3.73,0,0,1-1.31,3.1,5.87,5.87,0,0,1-3.73,1.07Zm2.93-8.26h2.17c1.48,0,2.22-.61,2.22-1.76a1.66,1.66,0,0,0-.56-1.4,3,3,0,0,0-1.77-.42h-2.06Zm0,2.07v3.84h2.51a2.43,2.43,0,0,0,1.62-.49,1.68,1.68,0,0,0,.58-1.36,1.79,1.79,0,0,0-2-2Z"/><path class="cls-2" d="M542.73,351.92a3.53,3.53,0,0,1-2.89,1.27,3.33,3.33,0,0,1-2.59-1,4.17,4.17,0,0,1-.92-2.86v-6.92h2.83v6.83q0,1.65,1.5,1.65a2,2,0,0,0,2-1v-7.49h2.84V353h-2.66Z"/><path class="cls-2" d="M551,339.83v2.6h1.81v2.07H551v5.27a1.26,1.26,0,0,0,.23.84,1.12,1.12,0,0,0,.86.26,5,5,0,0,0,.83-.07v2.14a5.85,5.85,0,0,1-1.71.25q-3,0-3-3V344.5h-1.54v-2.07h1.54v-2.6Z"/><path class="cls-2" d="M557.73,339.83v2.6h1.81v2.07h-1.81v5.27a1.26,1.26,0,0,0,.23.84,1.12,1.12,0,0,0,.86.26,5.15,5.15,0,0,0,.83-.07v2.14a5.85,5.85,0,0,1-1.71.25q-3,0-3-3V344.5h-1.54v-2.07h1.54v-2.6Z"/><path class="cls-2" d="M560.38,347.61a6.33,6.33,0,0,1,.6-2.8,4.47,4.47,0,0,1,1.75-1.9,5.06,5.06,0,0,1,2.64-.68,4.83,4.83,0,0,1,3.49,1.31,5.29,5.29,0,0,1,1.51,3.56l0,.72a5.55,5.55,0,0,1-1.36,3.9,4.71,4.71,0,0,1-3.64,1.47,4.76,4.76,0,0,1-3.65-1.46,5.63,5.63,0,0,1-1.36-4Zm2.82.2a3.94,3.94,0,0,0,.57,2.31,1.85,1.85,0,0,0,1.62.79,1.89,1.89,0,0,0,1.6-.78,4.38,4.38,0,0,0,.58-2.52,3.93,3.93,0,0,0-.58-2.29,1.89,1.89,0,0,0-1.62-.81,1.83,1.83,0,0,0-1.6.81A4.34,4.34,0,0,0,563.2,347.81Z"/><path class="cls-2" d="M574.72,342.43l.09,1.22a3.71,3.71,0,0,1,3-1.42,3.06,3.06,0,0,1,2.5,1,4.63,4.63,0,0,1,.84,2.95V353h-2.82v-6.75a1.85,1.85,0,0,0-.39-1.31,1.76,1.76,0,0,0-1.3-.4,2,2,0,0,0-1.79,1V353h-2.82V342.43Z"/><line class="cls-9" x1="678.68" y1="300.03" x2="471.32" y2="300.03"/><rect class="cls-3" x="536.03" y="73.21" width="114.94" height="114.94" rx="8.67"/><path class="cls-3" d="M559.89,183.93c-.82,7.2-4.63,25.4-22.41,33.06a2.67,2.67,0,0,0,.92,5.12c29.85,1.48,55.58-18.48,64.24-36.29a3.41,3.41,0,0,0-3.08-4.89H563.28A3.4,3.4,0,0,0,559.89,183.93Z"/><path class="cls-11" d="M631.77,100.23l-5.5-6.59a6.11,6.11,0,0,0-4.33-1.8H561.28A6.11,6.11,0,0,0,555.17,98V158.6a6,6,0,0,0,.93,3.2h0l.07.08a5.84,5.84,0,0,0,.92,1.12l4.95,6h0a6.07,6.07,0,0,0,4.57,2.09h60.65a6.11,6.11,0,0,0,6.11-6.11V104.33A6.08,6.08,0,0,0,631.77,100.23Z"/><rect class="cls-12" x="555.17" y="91.84" width="71.43" height="71.43" rx="3.61"/><path class="cls-13" d="M591.22,107.79A19.77,19.77,0,1,0,611,127.56,19.77,19.77,0,0,0,591.22,107.79Zm7.4,15.77h-4.86a3.81,3.81,0,0,0-.61-2.38,2,2,0,0,0-1.65-.79A1.84,1.84,0,0,0,590,121a2.62,2.62,0,0,0-.49,1.64,2.43,2.43,0,0,0,.53,1.64,5.67,5.67,0,0,0,2,1.28,18.39,18.39,0,0,1,5,2.89,5.28,5.28,0,0,1,1.6,4.13,5.47,5.47,0,0,1-1.6,4.11,7.11,7.11,0,0,1-4.32,1.83v2.95h-2.33v-3a8,8,0,0,1-4.73-2,6.27,6.27,0,0,1-1.81-5l0-.09h4.82a3.6,3.6,0,0,0,.8,2.62,2.76,2.76,0,0,0,2,.8,2,2,0,0,0,1.6-.62,2.34,2.34,0,0,0,.54-1.61,2.67,2.67,0,0,0-.56-1.8,5.67,5.67,0,0,0-2-1.25,17.45,17.45,0,0,1-5-2.79,5.28,5.28,0,0,1-1.58-4.16,5.43,5.43,0,0,1,1.67-4.08,7.18,7.18,0,0,1,4.46-1.87v-3.1H593v3.16a6.28,6.28,0,0,1,5.67,6.73Z"/><path class="cls-11" d="M911.63,114.17l-3.43-4.11a3.83,3.83,0,0,0-2.71-1.13H867.63a3.81,3.81,0,0,0-3.81,3.82v37.86a3.77,3.77,0,0,0,.57,2h0l0,0a4,4,0,0,0,.58.71l3.09,3.74h0a3.77,3.77,0,0,0,2.85,1.31h37.87a3.81,3.81,0,0,0,3.81-3.81V116.73A3.78,3.78,0,0,0,911.63,114.17Z"/><rect class="cls-12" x="863.82" y="108.93" width="45.09" height="45.09" rx="3.61"/><path class="cls-2" d="M851.69,324v5h-2.93V314.78h5.55a6.43,6.43,0,0,1,2.82.58A4.34,4.34,0,0,1,859,317a4.7,4.7,0,0,1,.65,2.45,4.1,4.1,0,0,1-1.43,3.3,6,6,0,0,1-4,1.2Zm0-2.37h2.62a2.6,2.6,0,0,0,1.77-.54,2,2,0,0,0,.61-1.57,2.36,2.36,0,0,0-.61-1.69,2.29,2.29,0,0,0-1.7-.66h-2.69Z"/><path class="cls-2" d="M864.46,329h-2.84V314h2.84Z"/><path class="cls-2" d="M872.9,329a3.17,3.17,0,0,1-.28-.94,3.41,3.41,0,0,1-2.67,1.14,3.75,3.75,0,0,1-2.57-.9,2.88,2.88,0,0,1-1-2.26,3,3,0,0,1,1.25-2.58,6.13,6.13,0,0,1,3.59-.91h1.3v-.61a1.76,1.76,0,0,0-.37-1.17,1.5,1.5,0,0,0-1.19-.44,1.74,1.74,0,0,0-1.12.34,1.18,1.18,0,0,0-.4.94h-2.83a2.83,2.83,0,0,1,.57-1.7,3.7,3.7,0,0,1,1.6-1.22,5.8,5.8,0,0,1,2.33-.45,4.64,4.64,0,0,1,3.1,1,3.47,3.47,0,0,1,1.15,2.76v4.58a4.9,4.9,0,0,0,.42,2.28V329Zm-2.33-2a2.36,2.36,0,0,0,1.15-.28,1.81,1.81,0,0,0,.78-.74v-1.82h-1c-1.41,0-2.17.49-2.26,1.46v.17a1.16,1.16,0,0,0,.37.87A1.45,1.45,0,0,0,870.57,327Z"/><path class="cls-2" d="M881.9,326.91a1.84,1.84,0,0,0,1.27-.43,1.48,1.48,0,0,0,.5-1.14h2.65a3.69,3.69,0,0,1-.58,2,3.88,3.88,0,0,1-1.58,1.39,4.94,4.94,0,0,1-2.21.49,4.6,4.6,0,0,1-3.58-1.44,5.72,5.72,0,0,1-1.31-4v-.19a5.66,5.66,0,0,1,1.3-3.89,4.56,4.56,0,0,1,3.57-1.46,4.46,4.46,0,0,1,3.18,1.13,4,4,0,0,1,1.21,3h-2.65a2,2,0,0,0-.5-1.34,1.72,1.72,0,0,0-1.29-.51,1.69,1.69,0,0,0-1.49.72,4.11,4.11,0,0,0-.5,2.33v.29a4.26,4.26,0,0,0,.49,2.35A1.73,1.73,0,0,0,881.9,326.91Z"/><path class="cls-2" d="M892.8,329.19a5.22,5.22,0,0,1-3.79-1.43,5.06,5.06,0,0,1-1.46-3.79v-.28a6.34,6.34,0,0,1,.62-2.84,4.5,4.5,0,0,1,1.74-1.94,4.91,4.91,0,0,1,2.57-.68,4.4,4.4,0,0,1,3.42,1.37,5.55,5.55,0,0,1,1.24,3.88v1.15h-6.73a2.62,2.62,0,0,0,.83,1.66,2.48,2.48,0,0,0,1.74.62,3,3,0,0,0,2.55-1.18l1.39,1.56a4.42,4.42,0,0,1-1.72,1.4A5.73,5.73,0,0,1,892.8,329.19Zm-.33-8.68a1.76,1.76,0,0,0-1.36.57,3,3,0,0,0-.67,1.63h3.93v-.23a2.08,2.08,0,0,0-.51-1.46A1.83,1.83,0,0,0,892.47,320.51Z"/><path class="cls-2" d="M903.91,329V314.78h5a6.57,6.57,0,0,1,3.93,1,3.39,3.39,0,0,1,1.33,2.9,3.26,3.26,0,0,1-.53,1.84,3.14,3.14,0,0,1-1.5,1.17,3,3,0,0,1,1.73,1.1,3.28,3.28,0,0,1,.63,2,3.75,3.75,0,0,1-1.31,3.1,5.89,5.89,0,0,1-3.73,1.07Zm2.93-8.26H909c1.47,0,2.21-.61,2.21-1.76a1.64,1.64,0,0,0-.56-1.4,3,3,0,0,0-1.77-.42h-2Zm0,2.07v3.84h2.51a2.43,2.43,0,0,0,1.62-.49,1.71,1.71,0,0,0,.58-1.36,1.79,1.79,0,0,0-2-2Z"/><path class="cls-2" d="M922.82,327.92a3.54,3.54,0,0,1-2.9,1.27,3.35,3.35,0,0,1-2.59-1,4.17,4.17,0,0,1-.91-2.86v-6.92h2.82v6.83c0,1.1.5,1.65,1.51,1.65a2,2,0,0,0,2-1v-7.49h2.83V329h-2.66Z"/><path class="cls-2" d="M931.06,315.83v2.6h1.8v2.07h-1.8v5.27a1.26,1.26,0,0,0,.22.84,1.13,1.13,0,0,0,.86.26,5,5,0,0,0,.83-.07v2.14a5.75,5.75,0,0,1-1.71.25q-3,0-3-3V320.5h-1.55v-2.07h1.55v-2.6Z"/><path class="cls-2" d="M937.82,315.83v2.6h1.8v2.07h-1.8v5.27a1.26,1.26,0,0,0,.22.84,1.13,1.13,0,0,0,.86.26,5,5,0,0,0,.83-.07v2.14a5.75,5.75,0,0,1-1.71.25q-3,0-3-3V320.5h-1.54v-2.07H935v-2.6Z"/><path class="cls-2" d="M940.46,323.61a6.2,6.2,0,0,1,.61-2.8,4.39,4.39,0,0,1,1.74-1.9,5.09,5.09,0,0,1,2.64-.68,4.81,4.81,0,0,1,3.49,1.31,5.24,5.24,0,0,1,1.51,3.56l0,.72a5.5,5.5,0,0,1-1.36,3.9,4.7,4.7,0,0,1-3.64,1.47,4.78,4.78,0,0,1-3.65-1.46,5.68,5.68,0,0,1-1.36-4Zm2.82.2a3.94,3.94,0,0,0,.57,2.31,2,2,0,0,0,3.22,0,4.3,4.3,0,0,0,.58-2.52,3.86,3.86,0,0,0-.58-2.29,1.86,1.86,0,0,0-1.62-.81,1.84,1.84,0,0,0-1.6.81A4.34,4.34,0,0,0,943.28,323.81Z"/><path class="cls-2" d="M954.81,318.43l.09,1.22a3.68,3.68,0,0,1,3-1.42,3.05,3.05,0,0,1,2.5,1,4.57,4.57,0,0,1,.84,2.95V329h-2.82v-6.75a1.85,1.85,0,0,0-.39-1.31,1.74,1.74,0,0,0-1.3-.4,2,2,0,0,0-1.79,1V329h-2.82V318.43Z"/><path class="cls-2" d="M860.44,346.21a8.52,8.52,0,0,1-.74,3.68,5.56,5.56,0,0,1-2.12,2.44,6.29,6.29,0,0,1-6.33,0,5.73,5.73,0,0,1-2.15-2.43,8.48,8.48,0,0,1-.77-3.62v-.71a8.56,8.56,0,0,1,.76-3.69,5.53,5.53,0,0,1,2.14-2.45,6.24,6.24,0,0,1,6.32,0,5.59,5.59,0,0,1,2.14,2.45,8.55,8.55,0,0,1,.75,3.68Zm-3-.65a6,6,0,0,0-.8-3.4,2.83,2.83,0,0,0-4.56,0,6,6,0,0,0-.81,3.36v.7a6.1,6.1,0,0,0,.8,3.38,2.61,2.61,0,0,0,2.31,1.2,2.57,2.57,0,0,0,2.26-1.16,6,6,0,0,0,.8-3.37Z"/><path class="cls-2" d="M865,342.43l.09,1.22a3.71,3.71,0,0,1,3-1.42,3.06,3.06,0,0,1,2.5,1,4.57,4.57,0,0,1,.84,2.95V353h-2.82v-6.75a1.85,1.85,0,0,0-.39-1.31,1.78,1.78,0,0,0-1.3-.4,2,2,0,0,0-1.79,1V353h-2.82V342.43Z"/><path class="cls-2" d="M883.66,345.18l3-6.4h3.21l-4.67,9.06V353h-3v-5.15l-4.67-9.06h3.22Z"/><path class="cls-2" d="M889.86,347.61a6.33,6.33,0,0,1,.6-2.8,4.47,4.47,0,0,1,1.75-1.9,5,5,0,0,1,2.64-.68,4.83,4.83,0,0,1,3.49,1.31,5.29,5.29,0,0,1,1.51,3.56l0,.72a5.55,5.55,0,0,1-1.36,3.9,5.27,5.27,0,0,1-7.29,0,5.63,5.63,0,0,1-1.36-4Zm2.82.2a3.94,3.94,0,0,0,.57,2.31,1.85,1.85,0,0,0,1.62.79,1.89,1.89,0,0,0,1.6-.78,4.38,4.38,0,0,0,.57-2.52,3.93,3.93,0,0,0-.57-2.29,1.89,1.89,0,0,0-1.62-.81,1.83,1.83,0,0,0-1.6.81A4.34,4.34,0,0,0,892.68,347.81Z"/><path class="cls-2" d="M907.93,351.92a3.52,3.52,0,0,1-2.89,1.27,3.35,3.35,0,0,1-2.59-1,4.12,4.12,0,0,1-.91-2.86v-6.92h2.82v6.83q0,1.65,1.5,1.65a2.05,2.05,0,0,0,2-1v-7.49h2.83V353H908Z"/><path class="cls-2" d="M918.73,345.07a7.8,7.8,0,0,0-1-.07,2.07,2.07,0,0,0-2.1,1.08V353H912.8V342.43h2.66l.08,1.26a2.62,2.62,0,0,1,2.35-1.46,3.06,3.06,0,0,1,.88.13Z"/><path class="cls-2" d="M936.33,348.89l1.92-10.11h2.92L938,353h-3l-2.31-9.51L930.43,353h-2.95l-3.15-14.21h2.92l1.92,10.09,2.35-10.09H934Z"/><path class="cls-2" d="M947.12,353.19a5.18,5.18,0,0,1-3.78-1.43,5,5,0,0,1-1.46-3.79v-.28a6.34,6.34,0,0,1,.61-2.84,4.46,4.46,0,0,1,1.75-1.94,4.91,4.91,0,0,1,2.57-.68,4.38,4.38,0,0,1,3.41,1.37,5.55,5.55,0,0,1,1.25,3.88v1.15h-6.73a2.66,2.66,0,0,0,.82,1.66,2.48,2.48,0,0,0,1.75.62,3.06,3.06,0,0,0,2.55-1.18l1.38,1.56a4.28,4.28,0,0,1-1.72,1.4A5.69,5.69,0,0,1,947.12,353.19Zm-.32-8.68a1.76,1.76,0,0,0-1.36.57,3,3,0,0,0-.67,1.63h3.92v-.23a2.13,2.13,0,0,0-.5-1.46A1.84,1.84,0,0,0,946.8,344.51Z"/><path class="cls-2" d="M962.59,347.81a6.43,6.43,0,0,1-1.08,4,3.59,3.59,0,0,1-3,1.42,3.28,3.28,0,0,1-2.74-1.32l-.13,1.12h-2.54V338h2.82v5.39a3.2,3.2,0,0,1,2.57-1.15,3.63,3.63,0,0,1,3,1.42,6.43,6.43,0,0,1,1.1,4Zm-2.82-.21a4.17,4.17,0,0,0-.51-2.33,1.7,1.7,0,0,0-1.51-.74,1.87,1.87,0,0,0-1.86,1.1v4.17a1.89,1.89,0,0,0,1.88,1.11,1.72,1.72,0,0,0,1.79-1.34A6.85,6.85,0,0,0,959.77,347.6Z"/><path class="cls-2" d="M970.05,350.07a.91.91,0,0,0-.51-.81,5.56,5.56,0,0,0-1.65-.53q-3.76-.8-3.77-3.21a2.88,2.88,0,0,1,1.17-2.34,4.71,4.71,0,0,1,3.05-.95,5.08,5.08,0,0,1,3.22.95,3,3,0,0,1,1.21,2.46h-2.83a1.36,1.36,0,0,0-.39-1,2,2,0,0,0-2.32-.07,1,1,0,0,0-.39.82.87.87,0,0,0,.44.75,4.45,4.45,0,0,0,1.5.5,11.43,11.43,0,0,1,1.78.48A2.92,2.92,0,0,1,972.8,350a2.78,2.78,0,0,1-1.24,2.34,5.42,5.42,0,0,1-3.21.89,5.71,5.71,0,0,1-2.36-.47,4,4,0,0,1-1.61-1.3,3,3,0,0,1-.59-1.78h2.68a1.47,1.47,0,0,0,.55,1.15,2.27,2.27,0,0,0,1.39.4,2,2,0,0,0,1.23-.31A1,1,0,0,0,970.05,350.07Z"/><path class="cls-2" d="M974.59,339.69a1.36,1.36,0,0,1,.43-1,1.6,1.6,0,0,1,1.15-.41,1.63,1.63,0,0,1,1.16.41,1.48,1.48,0,0,1,0,2.1,1.8,1.8,0,0,1-2.29,0A1.39,1.39,0,0,1,974.59,339.69Zm3,13.3h-2.83V342.43h2.83Z"/><path class="cls-2" d="M983.29,339.83v2.6h1.81v2.07h-1.81v5.27a1.26,1.26,0,0,0,.23.84,1.13,1.13,0,0,0,.86.26,5,5,0,0,0,.83-.07v2.14a5.8,5.8,0,0,1-1.71.25q-3,0-3-3V344.5h-1.54v-2.07h1.54v-2.6Z"/><path class="cls-2" d="M991.54,353.19a5.22,5.22,0,0,1-3.79-1.43,5.06,5.06,0,0,1-1.46-3.79v-.28a6.34,6.34,0,0,1,.62-2.84,4.5,4.5,0,0,1,1.74-1.94,4.91,4.91,0,0,1,2.57-.68,4.4,4.4,0,0,1,3.42,1.37,5.55,5.55,0,0,1,1.24,3.88v1.15h-6.73a2.62,2.62,0,0,0,.83,1.66,2.48,2.48,0,0,0,1.74.62,3,3,0,0,0,2.55-1.18l1.39,1.56a4.42,4.42,0,0,1-1.72,1.4A5.69,5.69,0,0,1,991.54,353.19Zm-.33-8.68a1.76,1.76,0,0,0-1.36.57,3,3,0,0,0-.67,1.63h3.93v-.23a2.08,2.08,0,0,0-.51-1.46A1.83,1.83,0,0,0,991.21,344.51Z"/><line class="cls-9" x1="1052.66" y1="300.03" x2="845.3" y2="300.03"/><path class="cls-11" d="M1005.79,80.05H857.72a8.64,8.64,0,0,0-8.64,8.64V191.43a8.64,8.64,0,0,0,8.64,8.64h48.44a2.77,2.77,0,0,1,2.64,3.61L902,225.53a3.46,3.46,0,0,0,3.29,4.55h53a3.46,3.46,0,0,0,3.29-4.55l-6.85-21.85a2.78,2.78,0,0,1,2.65-3.61h48.43a8.63,8.63,0,0,0,8.64-8.64V88.69A8.64,8.64,0,0,0,1005.79,80.05ZM857.72,85.8h148.07a2.89,2.89,0,0,1,2.89,2.89V173.1H854.83V88.69A2.9,2.9,0,0,1,857.72,85.8Zm71.44,98.28a2.6,2.6,0,1,1,2.6,2.6A2.59,2.59,0,0,1,929.16,184.08Z"/><rect class="cls-11" x="851.96" y="98.17" width="159.6" height="1.38"/><circle class="cls-3" cx="866.05" cy="92.04" r="2.23"/><circle class="cls-3" cx="874.79" cy="92.04" r="2.23"/><circle class="cls-3" cx="883.53" cy="92.04" r="2.23"/><path class="cls-13" d="M886.57,119a12.48,12.48,0,1,0,12.48,12.48A12.48,12.48,0,0,0,886.57,119Zm4.67,10h-3.07a2.41,2.41,0,0,0-.39-1.51,1.24,1.24,0,0,0-1-.49,1.15,1.15,0,0,0-1,.4,1.67,1.67,0,0,0-.32,1,1.53,1.53,0,0,0,.34,1,3.54,3.54,0,0,0,1.26.8,11.53,11.53,0,0,1,3.16,1.83,3.35,3.35,0,0,1,1,2.61,3.44,3.44,0,0,1-1,2.59,4.39,4.39,0,0,1-2.72,1.15v1.86H886v-1.86a5,5,0,0,1-3-1.26,3.94,3.94,0,0,1-1.15-3.16l0-.06h3a2.32,2.32,0,0,0,.5,1.66,1.77,1.77,0,0,0,1.3.5,1.28,1.28,0,0,0,1-.39,1.53,1.53,0,0,0,.34-1,1.7,1.7,0,0,0-.35-1.13,3.69,3.69,0,0,0-1.25-.79,11,11,0,0,1-3.18-1.76,3.34,3.34,0,0,1-1-2.63,3.42,3.42,0,0,1,1.06-2.58,4.61,4.61,0,0,1,2.81-1.18v-2h1.47v2a4,4,0,0,1,3.58,4.25Z"/><rect class="cls-11" x="929.16" y="108.93" width="42.34" height="2.75"/><rect class="cls-11" x="929.16" y="117.63" width="42.34" height="2.75"/><rect class="cls-11" x="929.16" y="126.32" width="42.34" height="2.75"/><rect class="cls-11" x="929.16" y="135.02" width="42.34" height="2.75"/><rect class="cls-11" x="929.16" y="143.71" width="42.34" height="2.75"/><rect class="cls-11" x="929.16" y="152.4" width="42.34" height="2.75"/><polygon class="cls-3" points="926.85 141.58 928.35 166.25 933.44 158.09 943.02 160.28 926.85 141.58"/><circle class="cls-2" cx="983.33" cy="145.46" r="32.42"/><path class="cls-2" d="M1030.55,274.87a6.45,6.45,0,0,0,6.44-6.2c.59-15.89,1.16-33.84,1.16-44.58,0-22-.6-23.16-10.43-29.55a15.81,15.81,0,0,0-1.78-1c-12.21-5.95-39.07-5.31-42.61-5.19-3.54-.12-30.39-.76-42.61,5.19a15.68,15.68,0,0,0-1.77,1c-9.84,6.39-10.43,7.59-10.43,29.55,0,10.74.57,28.69,1.16,44.58a6.44,6.44,0,0,0,6.44,6.2Z"/><path class="cls-13" d="M263.72,134a34.44,34.44,0,1,0,34.44,34.44A34.44,34.44,0,0,0,263.72,134ZM276.6,161.5h-8.46a6.62,6.62,0,0,0-1.07-4.15,3.45,3.45,0,0,0-2.86-1.37,3.2,3.2,0,0,0-2.68,1.12,4.56,4.56,0,0,0-.87,2.87,4.28,4.28,0,0,0,.93,2.86,10,10,0,0,0,3.49,2.22,32.39,32.39,0,0,1,8.71,5c1.86,1.68,2.78,4.08,2.78,7.2a9.52,9.52,0,0,1-2.79,7.15,12.29,12.29,0,0,1-7.53,3.19v5.14h-4.06v-5.16a13.86,13.86,0,0,1-8.22-3.47q-3.27-3-3.17-8.72l.08-.15h8.4q0,3.16,1.38,4.56a4.81,4.81,0,0,0,3.58,1.39,3.53,3.53,0,0,0,2.78-1.07,4.12,4.12,0,0,0,.94-2.81,4.58,4.58,0,0,0-1-3.13,9.78,9.78,0,0,0-3.44-2.19,30.24,30.24,0,0,1-8.78-4.86c-1.83-1.65-2.75-4.06-2.75-7.25a9.46,9.46,0,0,1,2.92-7.11,12.57,12.57,0,0,1,7.76-3.26v-5.39h4.06v5.5a11,11,0,0,1,9.89,11.72Z"/><path class="cls-2" d="M113.68,702.11h-2.93V696H105v6.1h-2.93V687.89H105v5.76h5.71v-5.76h2.93Z"/><path class="cls-2" d="M115.61,696.72a6.33,6.33,0,0,1,.61-2.8A4.39,4.39,0,0,1,118,692a5.09,5.09,0,0,1,2.64-.68,4.85,4.85,0,0,1,3.5,1.31,5.26,5.26,0,0,1,1.5,3.56l0,.72a5.54,5.54,0,0,1-1.35,3.9,5.27,5.27,0,0,1-7.29,0,5.64,5.64,0,0,1-1.37-4Zm2.83.2a4,4,0,0,0,.56,2.31,1.88,1.88,0,0,0,1.62.8,1.9,1.9,0,0,0,1.61-.79,4.38,4.38,0,0,0,.57-2.52,4,4,0,0,0-.57-2.29,1.89,1.89,0,0,0-1.63-.81,1.84,1.84,0,0,0-1.6.81A4.43,4.43,0,0,0,118.44,696.92Z"/><path class="cls-2" d="M130,691.54l.09,1.18a3.69,3.69,0,0,1,3-1.38,2.83,2.83,0,0,1,2.81,1.62,3.62,3.62,0,0,1,3.17-1.62,3.17,3.17,0,0,1,2.56,1,4.63,4.63,0,0,1,.84,3v6.75h-2.83v-6.74a2,2,0,0,0-.36-1.32,1.56,1.56,0,0,0-1.24-.41,1.75,1.75,0,0,0-1.75,1.21v7.26h-2.83v-6.73a2,2,0,0,0-.36-1.33,1.58,1.58,0,0,0-1.23-.41,1.84,1.84,0,0,0-1.74,1v7.48h-2.82V691.54Z"/><path class="cls-2" d="M149.54,702.3a5.17,5.17,0,0,1-3.78-1.42,5.06,5.06,0,0,1-1.46-3.8v-.28a6.34,6.34,0,0,1,.61-2.84,4.56,4.56,0,0,1,1.74-1.94,4.94,4.94,0,0,1,2.58-.68,4.39,4.39,0,0,1,3.41,1.37,5.57,5.57,0,0,1,1.25,3.88v1.15h-6.73a2.61,2.61,0,0,0,.82,1.66,2.49,2.49,0,0,0,1.75.63,3,3,0,0,0,2.54-1.19l1.39,1.56a4.26,4.26,0,0,1-1.72,1.4A5.69,5.69,0,0,1,149.54,702.3Zm-.32-8.68a1.74,1.74,0,0,0-1.36.57,2.88,2.88,0,0,0-.67,1.63h3.92v-.23a2.08,2.08,0,0,0-.51-1.46A1.8,1.8,0,0,0,149.22,693.62Z"/><path class="cls-2" d="M155.05,696.72a6.33,6.33,0,0,1,.6-2.8,4.47,4.47,0,0,1,1.75-1.9,5.06,5.06,0,0,1,2.64-.68,4.83,4.83,0,0,1,3.49,1.31,5.31,5.31,0,0,1,1.51,3.56l0,.72a5.55,5.55,0,0,1-1.36,3.9,4.71,4.71,0,0,1-3.64,1.47,4.76,4.76,0,0,1-3.65-1.46,5.63,5.63,0,0,1-1.36-4Zm2.82.2a3.94,3.94,0,0,0,.57,2.31,1.85,1.85,0,0,0,1.62.8,1.9,1.9,0,0,0,1.6-.79,4.38,4.38,0,0,0,.58-2.52,4,4,0,0,0-.58-2.29,1.89,1.89,0,0,0-1.62-.81,1.83,1.83,0,0,0-1.6.81A4.34,4.34,0,0,0,157.87,696.92Z"/><path class="cls-2" d="M176,698.27l1.38-6.73h2.73l-2.7,10.57H175l-2-6.65-2,6.65h-2.35L166,691.54h2.72l1.38,6.72,1.93-6.72h2Z"/><path class="cls-2" d="M184.09,691.54l.09,1.22a3.7,3.7,0,0,1,3-1.42,3.06,3.06,0,0,1,2.5,1,4.69,4.69,0,0,1,.84,2.95v6.83h-2.83v-6.76a1.85,1.85,0,0,0-.39-1.31,1.74,1.74,0,0,0-1.3-.4,1.94,1.94,0,0,0-1.78,1v7.46h-2.83V691.54Z"/><path class="cls-2" d="M197.56,702.3a5.21,5.21,0,0,1-3.79-1.42,5.1,5.1,0,0,1-1.46-3.8v-.28a6.34,6.34,0,0,1,.62-2.84,4.56,4.56,0,0,1,1.74-1.94,4.91,4.91,0,0,1,2.57-.68,4.4,4.4,0,0,1,3.42,1.37,5.57,5.57,0,0,1,1.24,3.88v1.15h-6.73a2.67,2.67,0,0,0,.83,1.66,2.48,2.48,0,0,0,1.74.63,3,3,0,0,0,2.55-1.19l1.39,1.56a4.26,4.26,0,0,1-1.72,1.4A5.69,5.69,0,0,1,197.56,702.3Zm-.32-8.68a1.77,1.77,0,0,0-1.37.57,3,3,0,0,0-.67,1.63h3.93v-.23a2.08,2.08,0,0,0-.51-1.46A1.82,1.82,0,0,0,197.24,693.62Z"/><path class="cls-2" d="M209.44,694.19a6.47,6.47,0,0,0-1-.08,2.07,2.07,0,0,0-2.1,1.08v6.92H203.5V691.54h2.67l.08,1.26a2.62,2.62,0,0,1,2.35-1.46,3.12,3.12,0,0,1,.88.13Z"/><path class="cls-2" d="M218.9,697.1v5H216V687.89h5.54a6.43,6.43,0,0,1,2.82.58,4.34,4.34,0,0,1,1.87,1.67,4.61,4.61,0,0,1,.65,2.45,4.06,4.06,0,0,1-1.43,3.3,6,6,0,0,1-4,1.21Zm0-2.38h2.61a2.57,2.57,0,0,0,1.77-.54,2,2,0,0,0,.62-1.57,2.36,2.36,0,0,0-.62-1.69,2.29,2.29,0,0,0-1.7-.66H218.9Z"/><path class="cls-2" d="M234.62,694.19a6.59,6.59,0,0,0-1-.08,2.07,2.07,0,0,0-2.1,1.08v6.92h-2.82V691.54h2.67l.07,1.26a2.64,2.64,0,0,1,2.36-1.46,3.17,3.17,0,0,1,.88.13Z"/><path class="cls-2" d="M240.65,702.3a5.17,5.17,0,0,1-3.78-1.42,5.1,5.1,0,0,1-1.46-3.8v-.28A6.34,6.34,0,0,1,236,694a4.58,4.58,0,0,1,1.75-1.94,4.91,4.91,0,0,1,2.57-.68,4.38,4.38,0,0,1,3.41,1.37,5.57,5.57,0,0,1,1.25,3.88v1.15h-6.73a2.62,2.62,0,0,0,.83,1.66,2.46,2.46,0,0,0,1.74.63,3,3,0,0,0,2.55-1.19l1.38,1.56a4.23,4.23,0,0,1-1.71,1.4A5.77,5.77,0,0,1,240.65,702.3Zm-.32-8.68a1.76,1.76,0,0,0-1.36.57,3,3,0,0,0-.67,1.63h3.93v-.23a2.18,2.18,0,0,0-.51-1.46A1.84,1.84,0,0,0,240.33,693.62Z"/><path class="cls-2" d="M252.09,697.15h-5.5v-2.27h5.5Z"/><path class="cls-2" d="M254.54,702.11V687.89h5a6.57,6.57,0,0,1,3.93,1,3.39,3.39,0,0,1,1.33,2.9,3.26,3.26,0,0,1-.53,1.84,3.08,3.08,0,0,1-1.5,1.17,3,3,0,0,1,1.73,1.1,3.3,3.3,0,0,1,.63,2,3.75,3.75,0,0,1-1.31,3.1,6,6,0,0,1-3.73,1.08Zm2.93-8.27h2.17c1.48,0,2.21-.61,2.21-1.76a1.64,1.64,0,0,0-.56-1.4,3,3,0,0,0-1.77-.42h-2Zm0,2.07v3.84H260a2.43,2.43,0,0,0,1.62-.49,1.71,1.71,0,0,0,.58-1.36,1.79,1.79,0,0,0-2-2Z"/><path class="cls-2" d="M267.1,688.8a1.39,1.39,0,0,1,.42-1,1.63,1.63,0,0,1,1.16-.41,1.6,1.6,0,0,1,1.15.41,1.36,1.36,0,0,1,.43,1,1.39,1.39,0,0,1-.43,1.06,1.62,1.62,0,0,1-1.15.41,1.63,1.63,0,0,1-1.15-.41A1.39,1.39,0,0,1,267.1,688.8Zm3,13.31h-2.84V691.54h2.84Z"/><path class="cls-2" d="M272,696.74a6.36,6.36,0,0,1,1.11-3.93,3.59,3.59,0,0,1,3-1.47,3.24,3.24,0,0,1,2.55,1.16v-5.39h2.83v15H279l-.13-1.13a3.33,3.33,0,0,1-2.72,1.32,3.58,3.58,0,0,1-3-1.47A6.59,6.59,0,0,1,272,696.74Zm2.82.21a4.18,4.18,0,0,0,.52,2.28,1.7,1.7,0,0,0,1.5.8,1.89,1.89,0,0,0,1.85-1.11v-4.18a1.87,1.87,0,0,0-1.83-1.1C275.48,693.64,274.8,694.74,274.8,697Z"/><path class="cls-2" d="M113.77,719.32a8.54,8.54,0,0,1-.65,3.46,5.93,5.93,0,0,1-1.78,2.36L113.7,727l-1.87,1.65-3-2.43a6.38,6.38,0,0,1-1.08.09,5.85,5.85,0,0,1-3.15-.85,5.61,5.61,0,0,1-2.15-2.43,8.34,8.34,0,0,1-.77-3.62v-.71a8.42,8.42,0,0,1,.76-3.69,5.56,5.56,0,0,1,2.13-2.45,6.24,6.24,0,0,1,6.32,0A5.58,5.58,0,0,1,113,715a8.4,8.4,0,0,1,.76,3.68Zm-3-.65a6,6,0,0,0-.8-3.39,2.82,2.82,0,0,0-4.56,0,5.84,5.84,0,0,0-.81,3.37v.69a6,6,0,0,0,.8,3.38,2.8,2.8,0,0,0,4.57,0,6,6,0,0,0,.8-3.37Z"/><path class="cls-2" d="M122.06,725a3.53,3.53,0,0,1-2.89,1.27,3.3,3.3,0,0,1-2.59-1,4.17,4.17,0,0,1-.92-2.86v-6.92h2.83v6.83c0,1.1.5,1.66,1.5,1.66a2,2,0,0,0,2-1v-7.49h2.83v10.57h-2.65Z"/><path class="cls-2" d="M133.05,726.11a3.23,3.23,0,0,1-.29-1,3.41,3.41,0,0,1-2.66,1.14,3.76,3.76,0,0,1-2.58-.9,2.88,2.88,0,0,1-1-2.26,3,3,0,0,1,1.25-2.58,6.16,6.16,0,0,1,3.6-.91h1.3V719a1.77,1.77,0,0,0-.38-1.17,1.5,1.5,0,0,0-1.19-.44,1.69,1.69,0,0,0-1.12.35,1.14,1.14,0,0,0-.4.93h-2.82a2.91,2.91,0,0,1,.56-1.7,3.84,3.84,0,0,1,1.6-1.22,5.8,5.8,0,0,1,2.33-.45,4.6,4.6,0,0,1,3.1,1,3.43,3.43,0,0,1,1.15,2.75v4.58a4.87,4.87,0,0,0,.42,2.28v.17Zm-2.34-2a2.36,2.36,0,0,0,1.15-.28,1.78,1.78,0,0,0,.79-.74V721.3h-1.06c-1.41,0-2.16.49-2.26,1.47v.16a1.14,1.14,0,0,0,.38.87A1.4,1.4,0,0,0,130.71,724.14Z"/><path class="cls-2" d="M140.62,726.11h-2.83v-15h2.83Z"/><path class="cls-2" d="M142.93,712.8a1.39,1.39,0,0,1,.42-1,1.63,1.63,0,0,1,1.16-.41,1.6,1.6,0,0,1,1.15.41,1.36,1.36,0,0,1,.43,1,1.39,1.39,0,0,1-.43,1.06,1.62,1.62,0,0,1-1.15.41,1.63,1.63,0,0,1-1.15-.41A1.39,1.39,0,0,1,142.93,712.8Zm3,13.31h-2.84V715.54h2.84Z"/><path class="cls-2" d="M149,726.11v-8.5h-1.57v-2.07H149v-.9a3.67,3.67,0,0,1,1-2.76,4,4,0,0,1,2.86-1,6.56,6.56,0,0,1,1.43.2l0,2.18a3.65,3.65,0,0,0-.86-.08c-1.07,0-1.6.49-1.6,1.49v.85H154v2.07h-2.1v8.5Z"/><path class="cls-2" d="M155.4,712.8a1.39,1.39,0,0,1,.42-1,1.63,1.63,0,0,1,1.16-.41,1.6,1.6,0,0,1,1.15.41,1.36,1.36,0,0,1,.43,1,1.39,1.39,0,0,1-.43,1.06,1.62,1.62,0,0,1-1.15.41,1.63,1.63,0,0,1-1.15-.41A1.39,1.39,0,0,1,155.4,712.8Zm3,13.31h-2.83V715.54h2.83Z"/><path class="cls-2" d="M165.12,724a1.89,1.89,0,0,0,1.27-.43,1.52,1.52,0,0,0,.5-1.15h2.65a3.59,3.59,0,0,1-.59,2,3.85,3.85,0,0,1-1.57,1.39,5,5,0,0,1-2.22.49,4.58,4.58,0,0,1-3.57-1.44,5.72,5.72,0,0,1-1.31-4v-.18a5.67,5.67,0,0,1,1.3-3.9,4.54,4.54,0,0,1,3.57-1.46,4.42,4.42,0,0,1,3.17,1.13,4,4,0,0,1,1.22,3h-2.65a2,2,0,0,0-.5-1.34,1.72,1.72,0,0,0-1.29-.51,1.69,1.69,0,0,0-1.49.72,4.1,4.1,0,0,0-.51,2.33V721a4.23,4.23,0,0,0,.5,2.35A1.72,1.72,0,0,0,165.12,724Z"/><path class="cls-2" d="M177.27,726.11a3.24,3.24,0,0,1-.28-1,3.41,3.41,0,0,1-2.67,1.14,3.75,3.75,0,0,1-2.57-.9,2.88,2.88,0,0,1-1-2.26,3,3,0,0,1,1.25-2.58,6.15,6.15,0,0,1,3.59-.91h1.3V719a1.76,1.76,0,0,0-.37-1.17,1.5,1.5,0,0,0-1.19-.44,1.69,1.69,0,0,0-1.12.35,1.14,1.14,0,0,0-.4.93H171a2.84,2.84,0,0,1,.56-1.7,3.78,3.78,0,0,1,1.6-1.22,5.8,5.8,0,0,1,2.33-.45,4.6,4.6,0,0,1,3.1,1,3.43,3.43,0,0,1,1.15,2.75v4.58a4.87,4.87,0,0,0,.42,2.28v.17Zm-2.33-2a2.36,2.36,0,0,0,1.15-.28,1.81,1.81,0,0,0,.78-.74V721.3h-1.05c-1.41,0-2.17.49-2.26,1.47v.16a1.16,1.16,0,0,0,.37.87A1.45,1.45,0,0,0,174.94,724.14Z"/><path class="cls-2" d="M185.25,712.94v2.6h1.81v2.07h-1.81v5.27a1.26,1.26,0,0,0,.23.84,1.12,1.12,0,0,0,.86.26,5,5,0,0,0,.83-.07v2.14a5.85,5.85,0,0,1-1.71.25q-3,0-3-3v-5.69h-1.54v-2.07h1.54v-2.6Z"/><path class="cls-2" d="M188.61,712.8a1.36,1.36,0,0,1,.43-1,1.6,1.6,0,0,1,1.15-.41,1.63,1.63,0,0,1,1.16.41,1.48,1.48,0,0,1,0,2.1,1.8,1.8,0,0,1-2.29,0A1.39,1.39,0,0,1,188.61,712.8Zm3,13.31h-2.83V715.54h2.83Z"/><path class="cls-2" d="M193.49,720.72a6.33,6.33,0,0,1,.61-2.8,4.45,4.45,0,0,1,1.74-1.9,5.1,5.1,0,0,1,2.65-.68,4.84,4.84,0,0,1,3.49,1.31,5.31,5.31,0,0,1,1.51,3.56v.72a5.54,5.54,0,0,1-1.35,3.9,5.27,5.27,0,0,1-7.29,0,5.64,5.64,0,0,1-1.37-4Zm2.83.2a4,4,0,0,0,.56,2.31,1.88,1.88,0,0,0,1.62.8,1.9,1.9,0,0,0,1.61-.79,4.38,4.38,0,0,0,.57-2.52,4,4,0,0,0-.57-2.29,1.89,1.89,0,0,0-1.62-.81,1.86,1.86,0,0,0-1.61.81A4.43,4.43,0,0,0,196.32,720.92Z"/><path class="cls-2" d="M207.84,715.54l.09,1.22a3.7,3.7,0,0,1,3-1.42,3.06,3.06,0,0,1,2.5,1,4.69,4.69,0,0,1,.84,2.95v6.83h-2.83v-6.76a1.85,1.85,0,0,0-.39-1.31,1.74,1.74,0,0,0-1.3-.4,1.94,1.94,0,0,0-1.78,1v7.46h-2.83V715.54Z"/><line class="cls-9" x1="306" y1="673.14" x2="98.65" y2="673.14"/><path class="cls-2" d="M485.94,697.37a5,5,0,0,1-1.69,3.61,6,6,0,0,1-4,1.32,5.34,5.34,0,0,1-4.3-1.84,7.52,7.52,0,0,1-1.57-5.05v-.87a8.6,8.6,0,0,1,.72-3.62,5.46,5.46,0,0,1,2.07-2.39,6.44,6.44,0,0,1,7.09.48,5.38,5.38,0,0,1,1.73,3.7H483a3,3,0,0,0-.76-2,2.86,2.86,0,0,0-2-.62,2.48,2.48,0,0,0-2.19,1,5.83,5.83,0,0,0-.75,3.26v1.07a6.25,6.25,0,0,0,.7,3.37,2.44,2.44,0,0,0,2.2,1.07,2.92,2.92,0,0,0,2-.62,2.79,2.79,0,0,0,.76-1.92Z"/><path class="cls-2" d="M490.66,702.11h-2.83v-15h2.83Z"/><path class="cls-2" d="M492.55,696.72a6.33,6.33,0,0,1,.6-2.8,4.45,4.45,0,0,1,1.74-1.9,5.1,5.1,0,0,1,2.65-.68,4.83,4.83,0,0,1,3.49,1.31,5.31,5.31,0,0,1,1.51,3.56l0,.72a5.55,5.55,0,0,1-1.36,3.9,5.27,5.27,0,0,1-7.29,0,5.63,5.63,0,0,1-1.36-4Zm2.82.2a4,4,0,0,0,.56,2.31,2,2,0,0,0,3.23,0,4.38,4.38,0,0,0,.57-2.52,4,4,0,0,0-.57-2.29,1.89,1.89,0,0,0-1.62-.81,1.86,1.86,0,0,0-1.61.81A4.43,4.43,0,0,0,495.37,696.92Z"/><path class="cls-2" d="M510,699.19a.9.9,0,0,0-.52-.82,5.58,5.58,0,0,0-1.64-.53c-2.52-.53-3.77-1.6-3.77-3.21a2.9,2.9,0,0,1,1.17-2.34,4.67,4.67,0,0,1,3.05-.95,5.1,5.1,0,0,1,3.22.95,3,3,0,0,1,1.2,2.46h-2.82a1.36,1.36,0,0,0-.39-1,2.09,2.09,0,0,0-2.33-.07,1,1,0,0,0-.39.82.86.86,0,0,0,.45.75,4.29,4.29,0,0,0,1.5.5,11.59,11.59,0,0,1,1.77.48,2.92,2.92,0,0,1,2.24,2.84,2.76,2.76,0,0,1-1.24,2.34,5.38,5.38,0,0,1-3.2.89,5.68,5.68,0,0,1-2.36-.47,4,4,0,0,1-1.62-1.3,3,3,0,0,1-.58-1.78h2.67a1.48,1.48,0,0,0,.56,1.15,2.19,2.19,0,0,0,1.39.4,2,2,0,0,0,1.22-.31A.94.94,0,0,0,510,699.19Z"/><path class="cls-2" d="M519.44,702.3a5.17,5.17,0,0,1-3.78-1.42,5.06,5.06,0,0,1-1.46-3.8v-.28a6.34,6.34,0,0,1,.61-2.84,4.56,4.56,0,0,1,1.74-1.94,4.94,4.94,0,0,1,2.58-.68,4.39,4.39,0,0,1,3.41,1.37,5.57,5.57,0,0,1,1.25,3.88v1.15h-6.73a2.61,2.61,0,0,0,.82,1.66,2.49,2.49,0,0,0,1.75.63,3,3,0,0,0,2.54-1.19l1.39,1.56a4.2,4.2,0,0,1-1.72,1.4A5.69,5.69,0,0,1,519.44,702.3Zm-.32-8.68a1.74,1.74,0,0,0-1.36.57,2.88,2.88,0,0,0-.67,1.63H521v-.23a2.08,2.08,0,0,0-.51-1.46A1.8,1.8,0,0,0,519.12,693.62Z"/><path class="cls-2" d="M533.75,688.94v2.6h1.8v2.07h-1.8v5.27a1.26,1.26,0,0,0,.22.84,1.13,1.13,0,0,0,.86.26,5,5,0,0,0,.83-.07v2.14a5.75,5.75,0,0,1-1.71.25q-3,0-3-3v-5.69h-1.54v-2.07h1.54v-2.6Z"/><path class="cls-2" d="M539.88,692.69a3.52,3.52,0,0,1,2.82-1.35c2.29,0,3.46,1.34,3.49,4v6.77h-2.82v-6.69a2,2,0,0,0-.39-1.35,1.68,1.68,0,0,0-1.3-.43,1.92,1.92,0,0,0-1.8,1v7.51h-2.82v-15h2.82Z"/><path class="cls-2" d="M553.18,702.3a5.17,5.17,0,0,1-3.78-1.42,5.06,5.06,0,0,1-1.46-3.8v-.28a6.34,6.34,0,0,1,.61-2.84,4.56,4.56,0,0,1,1.74-1.94,4.94,4.94,0,0,1,2.58-.68,4.39,4.39,0,0,1,3.41,1.37,5.57,5.57,0,0,1,1.25,3.88v1.15H550.8a2.61,2.61,0,0,0,.82,1.66,2.49,2.49,0,0,0,1.75.63,3,3,0,0,0,2.54-1.19l1.39,1.56a4.2,4.2,0,0,1-1.72,1.4A5.69,5.69,0,0,1,553.18,702.3Zm-.32-8.68a1.74,1.74,0,0,0-1.36.57,2.88,2.88,0,0,0-.67,1.63h3.92v-.23a2.08,2.08,0,0,0-.51-1.46A1.8,1.8,0,0,0,552.86,693.62Z"/><path class="cls-2" d="M564.29,702.11V687.89h4.38a6.64,6.64,0,0,1,3.35.84,5.87,5.87,0,0,1,2.31,2.4,7.34,7.34,0,0,1,.83,3.54v.66a7.43,7.43,0,0,1-.81,3.52,5.91,5.91,0,0,1-2.3,2.4,6.81,6.81,0,0,1-3.35.86Zm2.93-11.85v9.49h1.42a3.18,3.18,0,0,0,2.63-1.12,5.09,5.09,0,0,0,.92-3.21v-.76a5.19,5.19,0,0,0-.89-3.28,3.17,3.17,0,0,0-2.63-1.12Z"/><path class="cls-2" d="M582,702.3a5.17,5.17,0,0,1-3.78-1.42,5.06,5.06,0,0,1-1.46-3.8v-.28a6.34,6.34,0,0,1,.61-2.84,4.56,4.56,0,0,1,1.74-1.94,4.94,4.94,0,0,1,2.58-.68,4.39,4.39,0,0,1,3.41,1.37,5.57,5.57,0,0,1,1.25,3.88v1.15h-6.73a2.61,2.61,0,0,0,.82,1.66,2.49,2.49,0,0,0,1.75.63,3,3,0,0,0,2.54-1.19l1.39,1.56a4.26,4.26,0,0,1-1.72,1.4A5.69,5.69,0,0,1,582,702.3Zm-.32-8.68a1.74,1.74,0,0,0-1.36.57,2.88,2.88,0,0,0-.67,1.63h3.92v-.23a2.08,2.08,0,0,0-.51-1.46A1.8,1.8,0,0,0,581.65,693.62Z"/><path class="cls-2" d="M594,702.11a3.24,3.24,0,0,1-.28-1,3.44,3.44,0,0,1-2.67,1.14,3.75,3.75,0,0,1-2.57-.9,2.88,2.88,0,0,1-1-2.26,3,3,0,0,1,1.24-2.58,6.16,6.16,0,0,1,3.6-.91h1.3V695a1.77,1.77,0,0,0-.38-1.17,1.47,1.47,0,0,0-1.18-.44,1.67,1.67,0,0,0-1.12.35,1.15,1.15,0,0,0-.41.93h-2.82a2.85,2.85,0,0,1,.57-1.7,3.72,3.72,0,0,1,1.6-1.22,5.75,5.75,0,0,1,2.32-.45,4.56,4.56,0,0,1,3.1,1,3.4,3.4,0,0,1,1.15,2.75v4.58a5.13,5.13,0,0,0,.42,2.28v.17Zm-2.33-2a2.39,2.39,0,0,0,1.15-.28,1.81,1.81,0,0,0,.78-.74V697.3h-1c-1.42,0-2.17.49-2.26,1.47v.16a1.13,1.13,0,0,0,.37.87A1.45,1.45,0,0,0,591.71,700.14Z"/><path class="cls-2" d="M601.62,702.11h-2.83v-15h2.83Z"/><line class="cls-9" x1="678.68" y1="673.14" x2="471.32" y2="673.14"/><path class="cls-2" d="M860,700.31a5.07,5.07,0,0,1-2.23,1.47,9.36,9.36,0,0,1-3.21.52,6.37,6.37,0,0,1-3.23-.8,5.37,5.37,0,0,1-2.15-2.34,8.17,8.17,0,0,1-.78-3.61v-1a8.74,8.74,0,0,1,.72-3.69,5.31,5.31,0,0,1,2.07-2.38,6,6,0,0,1,3.17-.83,5.9,5.9,0,0,1,4,1.21,5.11,5.11,0,0,1,1.69,3.51h-2.85a2.86,2.86,0,0,0-.86-1.79,2.76,2.76,0,0,0-1.84-.57,2.6,2.6,0,0,0-2.28,1.13,5.94,5.94,0,0,0-.79,3.34v.91a5.56,5.56,0,0,0,.85,3.37,2.9,2.9,0,0,0,2.49,1.15,3.24,3.24,0,0,0,2.35-.71v-2.45h-2.66v-2.16H860Z"/><path class="cls-2" d="M867.06,702.3a5.17,5.17,0,0,1-3.78-1.42,5.1,5.1,0,0,1-1.46-3.8v-.28a6.34,6.34,0,0,1,.61-2.84,4.58,4.58,0,0,1,1.75-1.94,4.91,4.91,0,0,1,2.57-.68,4.38,4.38,0,0,1,3.41,1.37,5.57,5.57,0,0,1,1.25,3.88v1.15h-6.73a2.62,2.62,0,0,0,.83,1.66,2.48,2.48,0,0,0,1.74.63,3,3,0,0,0,2.55-1.19l1.38,1.56a4.23,4.23,0,0,1-1.71,1.4A5.77,5.77,0,0,1,867.06,702.3Zm-.32-8.68a1.76,1.76,0,0,0-1.36.57,3,3,0,0,0-.67,1.63h3.93v-.23a2.18,2.18,0,0,0-.51-1.46A1.84,1.84,0,0,0,866.74,693.62Z"/><path class="cls-2" d="M876.39,688.94v2.6h1.81v2.07h-1.81v5.27a1.32,1.32,0,0,0,.22.84,1.13,1.13,0,0,0,.86.26,5,5,0,0,0,.83-.07v2.14a5.75,5.75,0,0,1-1.71.25q-3,0-3-3v-5.69H872v-2.07h1.55v-2.6Z"/><path class="cls-2" d="M887.86,697.1v5h-2.93V687.89h5.55a6.43,6.43,0,0,1,2.82.58,4.34,4.34,0,0,1,1.87,1.67,4.61,4.61,0,0,1,.65,2.45,4.06,4.06,0,0,1-1.43,3.3,6,6,0,0,1-4,1.21Zm0-2.38h2.62a2.57,2.57,0,0,0,1.77-.54,2,2,0,0,0,.61-1.57,2.36,2.36,0,0,0-.61-1.69,2.29,2.29,0,0,0-1.7-.66h-2.69Z"/><path class="cls-2" d="M903.67,702.11a3.23,3.23,0,0,1-.29-1,3.41,3.41,0,0,1-2.66,1.14,3.76,3.76,0,0,1-2.58-.9,2.88,2.88,0,0,1-1-2.26,3,3,0,0,1,1.25-2.58,6.16,6.16,0,0,1,3.6-.91h1.29V695a1.76,1.76,0,0,0-.37-1.17,1.5,1.5,0,0,0-1.19-.44,1.69,1.69,0,0,0-1.12.35,1.14,1.14,0,0,0-.4.93h-2.82a2.91,2.91,0,0,1,.56-1.7,3.78,3.78,0,0,1,1.6-1.22,5.83,5.83,0,0,1,2.33-.45,4.6,4.6,0,0,1,3.1,1,3.43,3.43,0,0,1,1.15,2.75v4.58a4.87,4.87,0,0,0,.42,2.28v.17Zm-2.34-2a2.36,2.36,0,0,0,1.15-.28,1.7,1.7,0,0,0,.78-.74V697.3h-1c-1.41,0-2.16.49-2.26,1.47v.16a1.14,1.14,0,0,0,.38.87A1.4,1.4,0,0,0,901.33,700.14Z"/><path class="cls-2" d="M908.25,688.8a1.39,1.39,0,0,1,.42-1,1.83,1.83,0,0,1,2.31,0,1.36,1.36,0,0,1,.43,1,1.39,1.39,0,0,1-.44,1.06,1.8,1.8,0,0,1-2.29,0A1.39,1.39,0,0,1,908.25,688.8Zm3,13.31h-2.83V691.54h2.83Z"/><path class="cls-2" d="M913.13,696.74a6.36,6.36,0,0,1,1.11-3.93,3.59,3.59,0,0,1,3-1.47,3.24,3.24,0,0,1,2.55,1.16v-5.39h2.83v15H920.1L920,701a3.3,3.3,0,0,1-2.71,1.32,3.58,3.58,0,0,1-3-1.47A6.52,6.52,0,0,1,913.13,696.74ZM916,697a4.09,4.09,0,0,0,.52,2.28,1.67,1.67,0,0,0,1.5.8,1.9,1.9,0,0,0,1.85-1.11v-4.18a1.87,1.87,0,0,0-1.83-1.1C916.63,693.64,916,694.74,916,697Z"/><line class="cls-9" x1="1052.66" y1="673.14" x2="845.3" y2="673.14"/><path class="cls-3" d="M328.28,538.24c0,6.76-7.17,12.49-8.84,18.72-1.72,6.46,1.57,15-1.7,20.64s-12.38,7.13-17,11.78-6,13.72-11.77,17-14.19,0-20.64,1.7c-6.24,1.67-12,8.83-18.73,8.83s-12.49-7.16-18.73-8.83c-6.45-1.73-15,1.56-20.64-1.7s-7.12-12.39-11.77-17-13.72-6-17-11.78,0-14.18-1.7-20.64c-1.67-6.23-8.83-12-8.83-18.72s7.16-12.5,8.83-18.73c1.72-6.45-1.57-15,1.7-20.64s12.39-7.13,17-11.78,6.05-13.72,11.78-17,14.18,0,20.63-1.71c6.24-1.66,12-8.83,18.73-8.83s12.49,7.17,18.73,8.83c6.45,1.73,15-1.56,20.64,1.71s7.13,12.38,11.78,17,13.72,6.05,17,11.78,0,14.19,1.7,20.64C321.11,525.75,328.28,531.47,328.28,538.24Z"/><path class="cls-18" d="M317.13,538.24c0,5.8-6.15,10.72-7.58,16.07-1.48,5.54,1.34,12.87-1.46,17.72s-10.63,6.12-14.63,10.11-5.19,11.78-10.11,14.62-12.17,0-17.71,1.46c-5.36,1.44-10.27,7.59-16.08,7.59s-10.72-6.15-16.08-7.59c-5.53-1.48-12.86,1.35-17.71-1.46s-6.12-10.63-10.11-14.62S193.88,577,191,572s0-12.18-1.46-17.72C188.14,549,182,544,182,538.24s6.15-10.73,7.58-16.08c1.48-5.54-1.34-12.87,1.46-17.72s10.64-6.12,14.63-10.11,5.19-11.78,10.11-14.62,12.18,0,17.71-1.46c5.36-1.43,10.28-7.58,16.08-7.58s10.72,6.15,16.08,7.58c5.54,1.48,12.86-1.35,17.71,1.46s6.12,10.63,10.12,14.62,11.77,5.2,14.62,10.11,0,12.18,1.46,17.72C311,527.51,317.13,532.43,317.13,538.24Z"/><path class="cls-19" d="M228.75,578.32l-16.14-13.41a.65.65,0,0,1-.23-.49V533.77a8.69,8.69,0,0,0-8.69-8.69H188.92a8.7,8.7,0,0,0-8.7,8.69v2.79a.63.63,0,0,1-1,.49l-10.53-8.8a15.68,15.68,0,0,0-19.6,0L89,578.33a8.11,8.11,0,0,0-1,11.36l5.15,6.15a8.19,8.19,0,0,0,5.31,2.84,6.73,6.73,0,0,0,.89.05,8.31,8.31,0,0,0,4.85-1.6l.16-.11,1.2-1v38.74a11.43,11.43,0,0,0,11.4,11.4h36.21a.64.64,0,0,0,.64-.64V612a.63.63,0,0,1,.63-.64h9.33a.64.64,0,0,1,.64.64v33.52a.64.64,0,0,0,.64.64H201.2a11.41,11.41,0,0,0,11.4-11.4V599.2a1.49,1.49,0,0,1,2.2-1.31h0a8.2,8.2,0,0,0,3.64.82H219l.34-.05a8.14,8.14,0,0,0,5.22-2.8l5.18-6.19A8.2,8.2,0,0,0,228.75,578.32Z"/><polyline class="cls-20" points="227.77 534.03 247.74 554.01 284.93 516.82"/><path class="cls-21" d="M225.65,586.23l-5.18,6.19a2.8,2.8,0,0,1-1.76.91h-.25a2.69,2.69,0,0,1-1.76-.58l-57.85-48.23L101,592.75a2.91,2.91,0,0,1-2,.58,2.73,2.73,0,0,1-1.76-.93l-5.17-6.17a2.72,2.72,0,0,1,.33-3.77l60.09-50.07a10.32,10.32,0,0,1,12.71,0l20.41,17.06V533.14a2.64,2.64,0,0,1,2.67-2.68h16.05a2.64,2.64,0,0,1,2.67,2.68v34.11l18.31,15.21A2.76,2.76,0,0,1,225.65,586.23Z"/><path class="cls-21" d="M207.2,592.59V635.4a5.4,5.4,0,0,1-5.36,5.36H169.75V606H148.34v34.8h-32.1a5.39,5.39,0,0,1-5.34-5.36V592.59c0-.17.08-.35.08-.52l48.07-39.62,48.06,39.62a1.06,1.06,0,0,1,.09.52Z"/><line x1="590.88" y1="593.14" x2="615.83" y2="618.1"/><path class="cls-2" d="M629.47,521.69s-10.28,11.39-18.69,18.55c-4.27,3.63-12.37,5.23-20.25,1.65-11.11-6.45-20.4-3.39-20.4-3.39l-22.23,8s-14-11.11-31-25.32c-24.6,6.57-34.59,34.54-34.59,34.54l25.88,24.45,3.22,11.1.13.14c-.17.14-.33.28-.48.43l-5.54,5.54a6.11,6.11,0,0,0,0,8.62l.87.88a6.12,6.12,0,0,0,8.56.07l3.34-3.34,2.26-2.27a2.29,2.29,0,0,0,.21-.23l2.14,2.25-2.41,2.4-3.29,3.3-.07.07-.92.91a6.13,6.13,0,0,0,0,8.63l.88.87a6.1,6.1,0,0,0,8.62,0l6.44-6.44,2.13,2.23-6.39,6.39a6.11,6.11,0,0,0,0,8.63l.88.87a6.1,6.1,0,0,0,8.62,0l6.15-6.15,2.13,2.24-5.11,5.11a6.11,6.11,0,0,0,0,8.62l.87.87a6.25,6.25,0,0,0,8.62,0l4.87-4.87.93,1s.22.17,3.92,3.41c8.33,7.25,16.12-1.8,20.06-5.74,11.83,2.89,15.69-1,20.06-6.09,14.33-.71,14.33-7.16,15.76-11.82,12.9.72,15.84-9.58,14-15.76,10.75-10.39,12.84-19.27,12.84-19.27s8.86-14.25,20.33-23.2C654.14,529.51,629.47,521.69,629.47,521.69Z"/><path class="cls-1" d="M664.78,557.52c-9.39-29.41-28.2-41.12-31.67-40.49-1.65.27-4.47,3-11.54,10.31-4.73,4.87-10.63,10.94-13,12.11-5.09,2.55-10.26,4.56-17.29,1.38-11.57-6.72-21.25-3.65-21.7-3.5l-21.42,7.75c-3-2.39-15.57-12.47-30.34-24.76l-.62-.51-.77.21c-25.09,6.69-35.23,34.33-35.65,35.51l-.34,1,26.31,24.84,2.27,8.19-.22.2-5.53,5.54a9.2,9.2,0,0,0,0,13l.87.88h0a9.15,9.15,0,0,0,6.49,2.69,9.26,9.26,0,0,0,1.05-.07A9.21,9.21,0,0,0,514,620.9l.88.87a9.15,9.15,0,0,0,6.49,2.69,10.1,10.1,0,0,0,1.81-.18,9.18,9.18,0,0,0,2.5,8.3l.88.87a9.15,9.15,0,0,0,6.49,2.69,9.46,9.46,0,0,0,2.68-.4,8.93,8.93,0,0,0-.07,1,9.11,9.11,0,0,0,2.69,6.49l.87.88a9.22,9.22,0,0,0,13,0l3.69-3.69c.58.49,1.46,1.26,2.82,2.46a11.33,11.33,0,0,0,7.54,3.12c5.88,0,11-5.17,13.82-8.1h0a2,2,0,0,0,.4-.16c11.14,2.44,15.52-1,20.11-6.33,13.31-.86,14.91-6.93,16.08-11.38,0-.13.06-.25.1-.37h.1c6.47,0,10-2.73,11.89-5.1a14.33,14.33,0,0,0,2.54-11.76c9.34-9.28,12-17.43,12.45-19.26,5-6.27,17.93-22.11,20.58-24.41l.77-.66ZM506.34,606.93l-.87-.88a6.11,6.11,0,0,1,0-8.62l5.54-5.54a6.11,6.11,0,0,1,8.62,0l.87.88a6.11,6.11,0,0,1,0,8.62l-2.26,2.27L514.9,607A6.12,6.12,0,0,1,506.34,606.93ZM517,619.59l-.88-.87a6.13,6.13,0,0,1,0-8.63l.92-.91.07-.07,3.29-3.3,6.19-6.17a6,6,0,0,1,4.31-1.78,6.08,6.08,0,0,1,4.31,1.77l.87.88a6.11,6.11,0,0,1,0,8.62l-10.46,10.46A6.1,6.1,0,0,1,517,619.59Zm11.68,11.68-.88-.87a6.11,6.11,0,0,1,0-8.63l10.46-10.46a6.13,6.13,0,0,1,8.63,0l.87.87a6.1,6.1,0,0,1,0,8.62l-1,1h0l-.11.11-9.36,9.36A6.1,6.1,0,0,1,528.72,631.27ZM550,642a6.25,6.25,0,0,1-8.62,0l-.87-.87a6.11,6.11,0,0,1,0-8.62L549,624a6.08,6.08,0,0,1,8.62,0l.87.87a6.11,6.11,0,0,1,0,8.62Zm76.33-29.29c-2.13,2.7-5.6,4-10.11,3.9L592,592.32a1.55,1.55,0,0,0-2.19,2.18l24.09,24.09c-.06.22-.13.44-.19.67-1.08,4.07-2.18,8.28-12.89,9.06L580,607.52a1.55,1.55,0,0,0-2.19,2.18l20.11,20.11c-3.55,4.09-7.12,7.31-17.77,4.71l-.23-.06-4.81-4.81a1.55,1.55,0,0,0-2.19,2.18l4.45,4.44c-5.14,5.18-10.65,9.53-16.63,4.32-1.22-1.08-2.07-1.82-2.66-2.33l2.6-2.61a9.17,9.17,0,0,0,0-13l-.87-.87a9.12,9.12,0,0,0-7.53-2.62A9.21,9.21,0,0,0,550,610l-.87-.87a9.36,9.36,0,0,0-8.33-2.41,9.21,9.21,0,0,0,.2-1.9,9.1,9.1,0,0,0-2.68-6.49l-.87-.87a9.46,9.46,0,0,0-12.08-.78,9.13,9.13,0,0,0-2.66-6.09l-.87-.88a9.21,9.21,0,0,0-10.06-2l-2.25-8.08-25.44-24c2-4.76,11.9-26.49,32.42-32.43,13,10.82,24.23,19.84,28.55,23.3l-5.2,2.25a5.57,5.57,0,0,0-2.83,3.66c-.33,1.75.33,3.56,2,5.39,2.37,2.66,11.26,11.12,26.1,8.21,5.89-1.23,12.17-2.88,12.43-3s4.64-1.8,9.36,2.65c5.25,4.94,37.66,34.16,41.32,37.46A11.29,11.29,0,0,1,626.33,612.67Zm14.8-30.78-.31.63c0,.08-2,8.23-11.31,17.69-6-5.45-35.57-32.07-40.53-36.74-6.25-5.88-12.41-3.37-12.46-3.33s-6.27,1.65-12.06,2.85c-13.23,2.59-21.09-4.88-23.18-7.23A3.81,3.81,0,0,1,540,553a2.53,2.53,0,0,1,1.12-1.46h0l9.29-4,20.17-7.3c.08,0,8.76-2.77,19.28,3.33,8.38,3.81,14.76,1.3,20.08-1.36,2.82-1.41,8.41-7.16,13.81-12.72,3.68-3.79,8.72-9,9.74-9.41,2.72.08,19.14,10.54,28,37.46C656.88,562.26,641.81,581,641.13,581.89Z"/><path class="cls-11" d="M531.37,528.56l-38.49,44.66-15.67-11.84a4.35,4.35,0,0,1-1.16-5.59l27.35-48.44a4.12,4.12,0,0,1,6.54-.84Z"/><path class="cls-11" d="M617.27,528.11l38.49,44.66,15.67-11.85a4.33,4.33,0,0,0,1.16-5.58L645.24,506.9a4.11,4.11,0,0,0-6.53-.85Z"/><path class="cls-2" d="M929.74,579.22a44.72,44.72,0,0,0,11,4.89,40.47,40.47,0,0,0,23.28,0,44.46,44.46,0,0,0,11-4.89,25.3,25.3,0,0,0,8.27-8.32,21.06,21.06,0,0,0,3.2-11.22H918.27a21,21,0,0,0,3.19,11.22A25.42,25.42,0,0,0,929.74,579.22Z"/><path class="cls-2" d="M994.35,559.68v47.13a21,21,0,0,0-21,21h-42a21,21,0,0,0-21-21V559.68H899.9v73.37a5.33,5.33,0,0,0,5.25,5.24H999.6a5.33,5.33,0,0,0,5.25-5.24V559.68Z"/><path class="cls-11" d="M1035.7,515.8H869.19a9.14,9.14,0,0,0-9.14,9.14v76.68a9.14,9.14,0,0,0,9.14,9.14h17.65v-57.7a6.71,6.71,0,0,1,6.72-6.71h117.63a6.71,6.71,0,0,1,6.72,6.71v57.7h17.79a9.14,9.14,0,0,0,9.14-9.14V524.94A9.14,9.14,0,0,0,1035.7,515.8Z"/><circle class="cls-1" cx="515.29" cy="528.43" r="5.49"/><line class="cls-9" x1="406.46" y1="300.03" x2="369.65" y2="300.03"/><polyline class="cls-9" points="398.05 291.58 406.5 300.03 398.05 308.48"/><line class="cls-9" x1="780.7" y1="300.03" x2="743.89" y2="300.03"/><polyline class="cls-9" points="772.29 291.58 780.74 300.03 772.29 308.48"/><line class="cls-9" x1="406.46" y1="673.14" x2="369.65" y2="673.14"/><polyline class="cls-9" points="398.05 664.69 406.5 673.14 398.05 681.59"/><line class="cls-9" x1="780.7" y1="673.14" x2="743.89" y2="673.14"/><polyline class="cls-9" points="772.29 664.69 780.74 673.14 772.29 681.59"/><path class="cls-22" d="M1000.78,474h-8.54a6.68,6.68,0,0,0-1.09-4.19,3.49,3.49,0,0,0-2.89-1.39,3.21,3.21,0,0,0-2.71,1.14,4.63,4.63,0,0,0-.88,2.89,4.3,4.3,0,0,0,1,2.89,9.94,9.94,0,0,0,3.52,2.25,32.31,32.31,0,0,1,8.8,5.1q2.82,2.55,2.82,7.27a9.6,9.6,0,0,1-2.83,7.23,12.41,12.41,0,0,1-7.6,3.23v5.19h-4.11v-5.22a14,14,0,0,1-8.31-3.5q-3.31-3-3.2-8.82l.07-.15h8.5c0,2.13.46,3.67,1.39,4.61a4.87,4.87,0,0,0,3.62,1.4,3.54,3.54,0,0,0,2.81-1.08,4.12,4.12,0,0,0,1-2.84,4.67,4.67,0,0,0-1-3.16,9.93,9.93,0,0,0-3.49-2.21,30.58,30.58,0,0,1-8.87-4.92q-2.78-2.49-2.77-7.32a9.55,9.55,0,0,1,2.94-7.19,12.69,12.69,0,0,1,7.85-3.29v-5.45h4.1V462a11.09,11.09,0,0,1,10,11.85Z"/><path class="cls-22" d="M963.11,474h-8.55a6.75,6.75,0,0,0-1.08-4.19,3.5,3.5,0,0,0-2.89-1.39,3.19,3.19,0,0,0-2.71,1.14,4.56,4.56,0,0,0-.88,2.89,4.3,4.3,0,0,0,.94,2.89,10,10,0,0,0,3.52,2.25,32.39,32.39,0,0,1,8.81,5.1c1.88,1.7,2.81,4.12,2.81,7.27a9.63,9.63,0,0,1-2.82,7.23,12.44,12.44,0,0,1-7.61,3.23v5.19h-4.1v-5.22a14,14,0,0,1-8.32-3.5q-3.3-3-3.2-8.82l.08-.15h8.49c0,2.13.47,3.67,1.4,4.61a4.84,4.84,0,0,0,3.61,1.4,3.58,3.58,0,0,0,2.82-1.08,4.17,4.17,0,0,0,1-2.84,4.62,4.62,0,0,0-1-3.16,9.87,9.87,0,0,0-3.48-2.21,30.44,30.44,0,0,1-8.87-4.92q-2.77-2.49-2.78-7.32a9.55,9.55,0,0,1,2.94-7.19,12.72,12.72,0,0,1,7.85-3.29v-5.45h4.11V462a11.07,11.07,0,0,1,10,11.85Z"/><path class="cls-22" d="M925.43,474h-8.54a6.68,6.68,0,0,0-1.09-4.19,3.49,3.49,0,0,0-2.89-1.39,3.21,3.21,0,0,0-2.71,1.14,4.63,4.63,0,0,0-.88,2.89,4.3,4.3,0,0,0,.95,2.89,9.94,9.94,0,0,0,3.52,2.25,32.31,32.31,0,0,1,8.8,5.1q2.82,2.55,2.82,7.27a9.6,9.6,0,0,1-2.83,7.23,12.41,12.41,0,0,1-7.6,3.23v5.19h-4.11v-5.22a14,14,0,0,1-8.31-3.5q-3.31-3-3.2-8.82l.07-.15h8.5c0,2.13.46,3.67,1.39,4.61a4.87,4.87,0,0,0,3.62,1.4,3.54,3.54,0,0,0,2.81-1.08,4.12,4.12,0,0,0,1-2.84,4.67,4.67,0,0,0-1-3.16,9.93,9.93,0,0,0-3.49-2.21,30.58,30.58,0,0,1-8.87-4.92q-2.77-2.49-2.77-7.32a9.55,9.55,0,0,1,2.94-7.19,12.69,12.69,0,0,1,7.85-3.29v-5.45h4.1V462a11.09,11.09,0,0,1,10,11.85Z"/></g></g></svg>