<svg xmlns="http://www.w3.org/2000/svg" xmlns:xlink="http://www.w3.org/1999/xlink" width="84" height="84" viewBox="0 0 84 84">
  <defs>
    <clipPath id="clip-path">
      <path id="Clip_6" data-name="Clip 6" d="M0,0H46.691V34.8H0Z" transform="translate(0 0.291)" fill="none"/>
    </clipPath>
  </defs>
  <g id="Group_3" data-name="Group 3" transform="translate(-993 -861)">
    <path id="Fill_9_Copy" data-name="Fill 9 Copy" d="M42,0A42,42,0,1,0,84,42,42,42,0,0,0,42,0" transform="translate(993 861)" fill="#0079c2"/>
    <g id="Group_8" data-name="Group 8" transform="translate(1012 885)">
      <g id="Group_7" data-name="Group 7">
        <path id="Clip_6-2" data-name="Clip 6" d="M0,0H46.691V34.8H0Z" transform="translate(0 0.291)" fill="none"/>
        <g id="Group_7-2" data-name="Group 7" clip-path="url(#clip-path)">
          <path id="Fill_5" data-name="Fill 5" d="M45.716,34.8H.976A.976.976,0,0,1,0,33.829V.975A.976.976,0,0,1,.976,0h3.64a.976.976,0,0,1,.976.975V29.213H45.716a.975.975,0,0,1,.975.976v3.641a.975.975,0,0,1-.975.975" transform="translate(0 0.291)" fill="#fefefe"/>
        </g>
      </g>
      <path id="Fill_8" data-name="Fill 8" d="M2.737,19.113.318,16.694a1.085,1.085,0,0,1,0-1.534L11.166,4.311a1.086,1.086,0,0,1,1.535,0L17.76,9.37,27.13,0l3.954,3.954L18.527,16.511a1.085,1.085,0,0,1-1.534,0l-5.06-5.059L4.272,19.113a1.086,1.086,0,0,1-1.535,0" transform="translate(8.629 7.153)" fill="#fefefe"/>
      <path id="Fill_10" data-name="Fill 10" d="M11.493,14.26.578,3.345A1.959,1.959,0,0,1,1.963,0H12.878a1.959,1.959,0,0,1,1.959,1.959V12.875a1.959,1.959,0,0,1-3.344,1.385" transform="translate(28.997 3.108)" fill="#fefefe"/>
    </g>
  </g>
</svg>
