<svg xmlns="http://www.w3.org/2000/svg" width="84.148" height="84.147" viewBox="0 0 84.148 84.147">
  <g id="Group_29_Copy_2" data-name="Group 29 Copy 2" transform="translate(1.387 1.597)">
    <g id="Group_26" data-name="Group 26">
      <path id="Fill_23" data-name="Fill 23" d="M80.841,40.42A40.42,40.42,0,1,1,40.421,0a40.419,40.419,0,0,1,40.42,40.42" transform="translate(0.267 0.057)" fill="#0087cd"/>
      <path id="Stroke_25" data-name="Stroke 25" d="M80.841,40.42A40.42,40.42,0,1,1,40.421,0a40.419,40.419,0,0,1,40.42,40.42" transform="translate(0.267 0.057)" fill="none" stroke="#fefefe" stroke-miterlimit="10" stroke-width="3.307"/>
    </g>
    <path id="Fill_27" data-name="Fill 27" d="M30.438,40.931a1.19,1.19,0,0,1-1.191-1.187V38.1a16.972,16.972,0,0,1,1.388-5.469l.013-.036c1.062-2.9,2.16-5.892.568-7.979l-5.14-6.743v5.552a1.192,1.192,0,0,1-1.191,1.191,1.211,1.211,0,0,1-.935-.426l-4.759-5-.057-.07a1.763,1.763,0,0,0-1.222-.685.962.962,0,0,0-.873.6,2,2,0,0,0,.367,2.062c4.318,5.266,3.89,6.735,3.181,9.168l-.007.026-.014.045a10.183,10.183,0,0,0-.555,3.228,1.175,1.175,0,0,1-1.188,1.187v.016H14.9a9.881,9.881,0,0,1,.5,1.571,14.692,14.692,0,0,1,.3,3.3,1.2,1.2,0,1,1-2.395,0,14.047,14.047,0,0,0-.226-2.791,6.977,6.977,0,0,0-.85-2.081H5.65a1.211,1.211,0,0,1-1.217-1.2V28.908L.979,25.437H.962A3.339,3.339,0,0,1,0,23.086a3.3,3.3,0,0,1,.962-2.32v-.017L1,20.713a3.805,3.805,0,0,1,.7-.515l-.155-.141a3.714,3.714,0,0,1-.894-2.408,3.178,3.178,0,0,1,.894-2.267,3.3,3.3,0,0,1,2.35-.963,2.3,2.3,0,0,1,.538.042V1.19A1.2,1.2,0,0,1,5.65,0H24.886a1.206,1.206,0,0,1,1.191,1.19V13.939L33.1,23.171A6.687,6.687,0,0,1,34.362,28.2a23.159,23.159,0,0,1-1.489,5.257l-.024.065A15.177,15.177,0,0,0,31.64,38.1v1.642A1.182,1.182,0,0,1,30.438,40.931ZM6.841,2.381v30H17.69a13.633,13.633,0,0,1,.583-2.735l.012-.042,0-.013a3.865,3.865,0,0,0,.133-2.5,14.772,14.772,0,0,0-2.855-4.472,4.2,4.2,0,0,1-.7-4.528,3.5,3.5,0,0,1,3.087-2.072,4.059,4.059,0,0,1,2.969,1.5l.03.027,2.733,2.89V2.381ZM3.323,22.186a.973.973,0,0,0-.866.61.833.833,0,0,0,.2.944l1.772,1.785V22.946l-.48-.48-.017-.017-.013-.014L3.9,22.408A.888.888,0,0,0,3.323,22.186Zm.583-5.379a.944.944,0,0,0-.84.606.841.841,0,0,0,.179.944l1.188,1.218V17A.859.859,0,0,0,3.906,16.807ZM17.237,6.233H13.286a1.2,1.2,0,0,1,0-2.408h3.951a1.2,1.2,0,0,1,0,2.408Z" transform="translate(23.477 19.958)" fill="#fefefe"/>
  </g>
</svg>
