<svg xmlns="http://www.w3.org/2000/svg" width="52" height="47.45" viewBox="0 0 52 47.45"><path d="M44.282,47.45H4.433a4.424,4.424,0,0,1-3.14-1.284A4.363,4.363,0,0,1,0,43.047V4.4A4.363,4.363,0,0,1,1.293,1.284,4.424,4.424,0,0,1,4.433,0H36.564A4.424,4.424,0,0,1,39.7,1.284,4.363,4.363,0,0,1,41,4.4v8.533h6.568A4.451,4.451,0,0,1,52,17.393V39.786a7.588,7.588,0,0,1-2.258,5.422A7.7,7.7,0,0,1,44.282,47.45ZM41,17.393V39.84A3.277,3.277,0,0,0,44.282,43.1a2.96,2.96,0,0,0,2.826-1.631,4.132,4.132,0,0,0,.4-1.631V17.393ZM19.205,36.467a.71.71,0,0,0-.712.707V38.73a.71.71,0,0,0,.712.707H35.62a.71.71,0,0,0,.711-.707V37.174a.71.71,0,0,0-.711-.707Zm-8.714-5.533a3.726,3.726,0,1,0,3.752,3.726A3.744,3.744,0,0,0,10.491,30.934Zm8.714-.838a.71.71,0,0,0-.712.707v1.556a.71.71,0,0,0,.712.707H35.62a.71.71,0,0,0,.711-.707V30.8a.71.71,0,0,0-.711-.707ZM5.533,23.726a.709.709,0,0,0-.711.706v1.556a.71.71,0,0,0,.711.707H35.62a.71.71,0,0,0,.711-.707V24.431a.709.709,0,0,0-.711-.706Zm0-6.371a.71.71,0,0,0-.711.706v1.556a.71.71,0,0,0,.711.706H35.62a.71.71,0,0,0,.711-.706V18.061a.71.71,0,0,0-.711-.706Zm0-13.121a.71.71,0,0,0-.711.707v7.233a.71.71,0,0,0,.711.707H35.62a.71.71,0,0,0,.711-.707V4.94a.71.71,0,0,0-.711-.707Z" fill="#fff"/></svg>