<svg xmlns="http://www.w3.org/2000/svg" xmlns:xlink="http://www.w3.org/1999/xlink" width="46.177" height="51.433" viewBox="0 0 46.177 51.433"><defs><clipPath id="a"><path d="M0,0H46.176V14.557H0Z" transform="translate(0.001 0.567)" fill="none"/></clipPath><clipPath id="b"><path d="M0,0H46.176V30.449H0Z" transform="translate(0 0.101)" fill="none"/></clipPath></defs><g transform="translate(0 -0.65)"><g transform="translate(0 0.083)"><path d="M0,0H46.176V14.557H0Z" transform="translate(0.001 0.567)" fill="none"/><g clip-path="url(#a)"><path d="M41.343,5.256H37.916v-4.2A1.053,1.053,0,0,0,36.863,0H31.086a1.053,1.053,0,0,0-1.053,1.054v4.2H16.142v-4.2A1.053,1.053,0,0,0,15.089,0H9.312A1.053,1.053,0,0,0,8.259,1.054v4.2H4.833A4.834,4.834,0,0,0,0,10.09V13.9a.655.655,0,0,0,.654.655H45.521a.656.656,0,0,0,.655-.655V10.09a4.835,4.835,0,0,0-4.834-4.834" transform="translate(0.001 0.567)" fill="#fff"/></g></g><g transform="translate(0 21.533)"><path d="M0,0H46.176V30.449H0Z" transform="translate(0 0.101)" fill="none"/><g clip-path="url(#b)"><path d="M41.343,30.449H4.834A4.839,4.839,0,0,1,0,25.616V.654A.655.655,0,0,1,.654,0H45.521a.655.655,0,0,1,.655.654V25.616A4.838,4.838,0,0,1,41.343,30.449ZM23.088,21.783a.727.727,0,0,1,.338.084l4.9,2.574a.721.721,0,0,0,.338.085.729.729,0,0,0,.558-.262.711.711,0,0,0,.157-.589l-.934-5.451a.725.725,0,0,1,.209-.643l3.96-3.86a.726.726,0,0,0-.4-1.238l-5.474-.8a.727.727,0,0,1-.546-.4l-2.448-4.96a.726.726,0,0,0-1.3,0l-2.448,4.96a.724.724,0,0,1-.547.4l-5.473.8a.726.726,0,0,0-.4,1.238l3.962,3.86a.728.728,0,0,1,.209.643L16.8,23.675a.712.712,0,0,0,.158.589.722.722,0,0,0,.9.177l4.9-2.574A.727.727,0,0,1,23.088,21.783Z" transform="translate(0 0.101)" fill="#fff"/></g></g></g></svg>