<svg id="Layer_1" data-name="Layer 1" xmlns="http://www.w3.org/2000/svg" viewBox="0 0 1000 1000"><defs><style>.cls-1{fill:#0079c2;}.cls-2{fill:#fff;}</style></defs><title>PaymentOptions</title><path class="cls-1" d="M500,76.29C266,76.29,76.29,266,76.29,500S266,923.71,500,923.71,923.71,734,923.71,500,734,76.29,500,76.29"/><path class="cls-2" d="M453.34,549.25h31.09V479.3H484q-3.19,4.84-13.37,13.85l-18.7-19.45,35.95-33.28h27.72V549.25h31.09v23.36h-93.3ZM558.19,443.31a75.79,75.79,0,0,0-24.66-24.54,64.07,64.07,0,0,0-67.08,0,75.06,75.06,0,0,0-24.64,24.54,131.5,131.5,0,0,0-14.49,32.57,119.47,119.47,0,0,0,0,69,131.31,131.31,0,0,0,14.49,32.59A75,75,0,0,0,466.45,602a64.07,64.07,0,0,0,67.08,0,75.73,75.73,0,0,0,24.66-24.52,131.94,131.94,0,0,0,14.45-32.59,119,119,0,0,0,0-69,132.13,132.13,0,0,0-14.45-32.57m100,147.52a60,60,0,0,0-18.22,44H360a62.21,62.21,0,0,0-62.22-62.19V448.18a60.06,60.06,0,0,0,44-18.22c12.12-12.17,18.22-26.8,18.22-44h279.9c0,17.2,6.1,31.83,18.22,44a60,60,0,0,0,44,18.22V572.61a59.87,59.87,0,0,0-44,18.22m70.49-231.34a15,15,0,0,0-11-4.61H282.27a15.74,15.74,0,0,0-15.53,15.55V650.35a15.76,15.76,0,0,0,15.53,15.56H717.69a15.76,15.76,0,0,0,15.57-15.56V370.43a15.07,15.07,0,0,0-4.61-10.94"/></svg>