<svg id="Layer_1" data-name="Layer 1" xmlns="http://www.w3.org/2000/svg" viewBox="0 0 1000 1000"><defs><style>.cls-1{fill:#0079c2;}.cls-2{fill:#fff;}</style></defs><title>PaymentOptions</title><path class="cls-1" d="M500,76.31C266,76.31,76.29,266,76.29,500S266,923.69,500,923.69,923.71,734,923.71,500,734,76.31,500,76.31"/><path class="cls-2" d="M508.14,585.17v60c8-1.07,13.8-2.88,17.44-5.59,6.4-4.67,9.58-12.84,9.58-24.37,0-8.74-3-15.76-9-20.85-3.51-2.95-9.54-6.07-18-9.23"/><path class="cls-2" d="M549.24,666.8c-11.53,7.18-25.26,11.35-41.1,12.6v30.8H493.28V679.69q-30.22-3.39-45.16-13.22Q422,648.85,422.37,606.4h41.47c1.37,12.82,3.37,21.46,5.93,25.89,4,6.81,11.82,11.33,23.51,13.38v-65.5l-12.45-3.75c-19.55-5.67-33.3-13.69-41.35-23.84s-12-22.58-12-37a69.6,69.6,0,0,1,4.68-26,59.49,59.49,0,0,1,13.13-20.08,58.68,58.68,0,0,1,24.25-15c5.38-1.73,13.34-3,23.78-3.84V430.3h14.86V451c16.6,1.31,29.59,5.41,39.09,12.27,17.19,10.91,26.06,28.68,26.71,53.16H533.58c-.76-9.07-2.3-15.7-4.55-19.9q-5.73-10.91-20.89-12V543Q544.43,555.6,557,565.26q20.63,16.1,20.65,45.38,0,38.6-28.38,56.16M500,205.21,251.61,453.61l105.12,0V750.46l286.53,0,0-296.87,105.09,0Z"/><path class="cls-2" d="M467,510.67c0,8.54,3.22,15.39,9.64,20.4,3.57,2.75,9.14,5.31,16.62,7.63V484.88q-13.41.35-19.8,7.14c-4.33,4.56-6.46,10.71-6.46,18.65"/></svg>