<?xml version="1.0" encoding="utf-8"?>
<!-- Generator: Adobe Illustrator 16.0.0, SVG Export Plug-In . SVG Version: 6.00 Build 0)  -->
<!DOCTYPE svg PUBLIC "-//W3C//DTD SVG 1.1//EN" "http://www.w3.org/Graphics/SVG/1.1/DTD/svg11.dtd">
<svg version="1.1" id="Layer_1" xmlns="http://www.w3.org/2000/svg" xmlns:xlink="http://www.w3.org/1999/xlink" x="0px" y="0px"
	 width="57.949px" height="69.231px" viewBox="0 0 57.949 69.231" enable-background="new 0 0 57.949 69.231" xml:space="preserve">
<g>
	<path fill="none" stroke="#1279BF" stroke-width="4" stroke-linecap="round" stroke-linejoin="round" stroke-miterlimit="10" d="
		M-117.21,7.111c14.207-14.206,37.239-14.206,51.445,0s14.206,37.239,0,51.445C-72.868,65.66-82.178,69.21-91.487,69.21v28.586"/>
	
		<polyline fill="none" stroke="#4E4E4E" stroke-width="4" stroke-linecap="round" stroke-linejoin="round" stroke-miterlimit="10" points="
		-77.958,16.892 -91.488,32.833 -86.16,44.856 	"/>
	
		<polyline fill="none" stroke="#1279BF" stroke-width="4" stroke-linecap="round" stroke-linejoin="round" stroke-miterlimit="10" points="
		-101.53,9.372 -119.938,9.372 -119.938,-9.035 	"/>
	<path fill="#1279BF" d="M-106.727,69.615c-0.507,0-1.022-0.104-1.515-0.323l-0.31-0.14c-1.872-0.853-2.699-3.062-1.847-4.934
		c0.853-1.872,3.06-2.7,4.934-1.847l0.257,0.116c1.878,0.838,2.723,3.039,1.885,4.918C-103.94,68.792-105.301,69.615-106.727,69.615
		 M-119.79,59.792c-1.057,0-2.107-0.447-2.843-1.317l-0.22-0.261c-1.317-1.581-1.104-3.93,0.476-5.246
		c1.583-1.316,3.93-1.104,5.247,0.477l0.18,0.215c1.33,1.57,1.136,3.92-0.434,5.25C-118.083,59.503-118.939,59.792-119.79,59.792
		 M-127.321,45.283c-1.657,0-3.168-1.113-3.603-2.792l-0.082-0.321c-0.505-1.994,0.703-4.02,2.698-4.525
		c1.989-0.505,4.019,0.702,4.524,2.698l0.072,0.28c0.516,1.991-0.681,4.024-2.672,4.539
		C-126.697,45.244-127.012,45.283-127.321,45.283 M-127.795,28.909c-0.23,0-0.463-0.022-0.697-0.067
		c-2.015-0.389-3.343-2.301-2.961-4.317c0.008-0.038,0.029-0.143,0.037-0.181l0.036-0.183c0.416-2.015,2.387-3.315,4.4-2.896
		c2.015,0.415,3.311,2.386,2.896,4.4l-0.041,0.206C-124.477,27.65-126.045,28.909-127.795,28.909"/>
</g>
<g>
	<polyline fill="none" stroke="#1279BF" stroke-width="4" stroke-linecap="round" stroke-miterlimit="10" points="49.191,41.982 
		28.795,62.378 8.399,41.982 	"/>
	<line fill="none" stroke="#1279BF" stroke-width="4" stroke-miterlimit="10" x1="28.795" y1="4.531" x2="28.795" y2="62.378"/>
</g>
</svg>
