<svg xmlns="http://www.w3.org/2000/svg" width="84.148" height="84.148" viewBox="0 0 84.148 84.148">
  <g id="Group_5" data-name="Group 5" transform="translate(-785.613 -633.649)">
    <g id="Group_39_Copy_2" data-name="Group 39 Copy 2" transform="translate(787 635)">
      <path id="Fill_36" data-name="Fill 36" d="M80.841,40.421A40.42,40.42,0,1,1,40.421,0a40.42,40.42,0,0,1,40.42,40.421" transform="translate(0.267 0.302)" fill="#0087cd"/>
      <path id="Stroke_38" data-name="Stroke 38" d="M80.841,40.421A40.42,40.42,0,1,1,40.421,0a40.42,40.42,0,0,1,40.42,40.421" transform="translate(0.267 0.302)" fill="none" stroke="#fefefe" stroke-miterlimit="10" stroke-width="3.307"/>
    </g>
    <path id="Fill_40_Copy_2" data-name="Fill 40 Copy 2" d="M26.474,37A20.77,20.77,0,0,1,19.9,35.881,29.741,29.741,0,0,1,8.419,28.589,29.773,29.773,0,0,1,1.117,17.1,18.791,18.791,0,0,1,.855,5.167,11.863,11.863,0,0,1,1.935,2.8V2.783A11.087,11.087,0,0,1,3.188,1.108,3.8,3.8,0,0,1,4.42.248L4.542.208A3.708,3.708,0,0,1,5.8,0h.1A3.66,3.66,0,0,1,7.34.385l.067.046,1.072.908,5.454,7.023.081.106a3.685,3.685,0,0,1,.544,1.13,3.526,3.526,0,0,1,.083,1.39,3.782,3.782,0,0,1-.465,1.3l-.059.086a3.269,3.269,0,0,1-.87.932l-.1.062L10.5,15.3a2.258,2.258,0,0,0,.365,2.272,34.374,34.374,0,0,0,3.9,4.667,35.92,35.92,0,0,0,4.673,3.9,2.574,2.574,0,0,0,1.486.523,2.011,2.011,0,0,0,.787-.159l1.98-2.738a3.567,3.567,0,0,1,1.02-.942,3.631,3.631,0,0,1,1.3-.455l.059-.012a3.89,3.89,0,0,1,.455-.028,3.177,3.177,0,0,1,.88.12l.079.014a3.615,3.615,0,0,1,1.152.6V23.06l7.028,5.46.1.1a3.2,3.2,0,0,1,.848,1.056,3.488,3.488,0,0,1,.131,2.908h.01a3.72,3.72,0,0,1-.87,1.231,9.471,9.471,0,0,1-1.674,1.256l-.081.047a12.088,12.088,0,0,1-2.292,1.035A16.96,16.96,0,0,1,26.474,37ZM4.361,4.256a10.231,10.231,0,0,0-.83,1.8A16.182,16.182,0,0,0,3.8,16.214a27.01,27.01,0,0,0,6.626,10.361A26.985,26.985,0,0,0,20.79,33.2a18.041,18.041,0,0,0,5.68.969,14.063,14.063,0,0,0,4.47-.708,9.06,9.06,0,0,0,1.745-.778l.06-.046a7,7,0,0,0,1.213-.9.762.762,0,0,0,.16-.222V31.5a.635.635,0,0,0,.041-.272.554.554,0,0,0-.072-.267.392.392,0,0,0-.119-.163l-.051-.041-7.03-5.451A.414.414,0,0,0,26.7,25.2l-.022-.013a.741.741,0,0,0-.156-.017.657.657,0,0,0-.085.006l-.019,0a.514.514,0,0,0-.235.076h-.007a.7.7,0,0,0-.183.177l-2.142,2.944a1.672,1.672,0,0,1-.463.443l-.013.008a4.718,4.718,0,0,1-2.461.686,5.374,5.374,0,0,1-3.1-1.05,36.5,36.5,0,0,1-5.047-4.224,36.292,36.292,0,0,1-4.224-5.048,5.178,5.178,0,0,1-.983-3.933,4.4,4.4,0,0,1,.622-1.638,1.294,1.294,0,0,1,.391-.418l2.9-2.121.1-.072a.77.77,0,0,0,.149-.148l.033-.041a.728.728,0,0,0,.078-.236,1.062,1.062,0,0,0-.019-.256l0-.007a.547.547,0,0,0-.079-.164l-.04-.049L6.235,3.088a.374.374,0,0,0-.17-.164l-.031-.013a.583.583,0,0,0-.261-.068H5.726a.765.765,0,0,0-.186.024l-.049.018a.8.8,0,0,0-.222.158,6.771,6.771,0,0,0-.9,1.215Z" transform="translate(809 657)" fill="#fefefe"/>
  </g>
</svg>
