<svg xmlns="http://www.w3.org/2000/svg" width="84" height="84" viewBox="0 0 84 84">
  <g id="Group_2" data-name="Group 2" transform="translate(-632 -861)">
    <path id="Fill_61_Copy" data-name="Fill 61 Copy" d="M84,42A42,42,0,1,1,42,0,42,42,0,0,1,84,42" transform="translate(632 861)" fill="#007ac2"/>
    <path id="Fill_12" data-name="Fill 12" d="M29.78,26.446H17.951V24.9a1.267,1.267,0,0,0-1.265-1.266H13.2A1.267,1.267,0,0,0,11.937,24.9v1.549H0V18.471a1.856,1.856,0,0,1,.54-1.3l4.622-4.623a2.948,2.948,0,0,1,2.094-.867h4.772V3.41A3.414,3.414,0,0,1,15.437,0h16.55A3.414,3.414,0,0,1,35.4,3.41v8.267h5.08a2.981,2.981,0,0,1,2.093.867l4.623,4.623a1.856,1.856,0,0,1,.54,1.3v7.973H35.8V24.9a1.267,1.267,0,0,0-1.265-1.266H31.046A1.268,1.268,0,0,0,29.78,24.9v1.549ZM17.738,5.71v5.967H29.686V5.71Z" transform="translate(650 878)" fill="#fefefe"/>
    <path id="Fill_14" data-name="Fill 14" d="M35.8,1.819A1.265,1.265,0,0,1,34.53,3.084H31.047a1.265,1.265,0,0,1-1.266-1.266V0H17.951V1.819a1.265,1.265,0,0,1-1.266,1.266H13.2a1.265,1.265,0,0,1-1.266-1.266V0H0V9.881a2.3,2.3,0,0,0,2.3,2.3H45.43a2.3,2.3,0,0,0,2.3-2.3V0H35.8Z" transform="translate(650 907.491)" fill="#fefefe"/>
  </g>
</svg>
