<?xml version="1.0" encoding="utf-8"?>
<!-- Generator: Adobe Illustrator 24.0.1, SVG Export Plug-In . SVG Version: 6.00 Build 0)  -->
<svg version="1.1" id="Layer_1" xmlns="http://www.w3.org/2000/svg" xmlns:xlink="http://www.w3.org/1999/xlink" x="0px" y="0px"
	 viewBox="0 0 1000 1000" style="enable-background:new 0 0 1000 1000;" xml:space="preserve">
<style type="text/css">
	.st0{fill-rule:evenodd;clip-rule:evenodd;fill:#0979BE;}
	.st1{fill-rule:evenodd;clip-rule:evenodd;fill:#FFFFFF;}
</style>
<g>
	<path class="st1" d="M689.1,498.2c77.2,0,139.7-62.5,139.7-139.8c0-77.2-62.5-139.7-139.7-139.7c-77.3,0-139.7,62.5-139.7,139.7
		C549.3,435.7,611.8,498.2,689.1,498.2z"/>
	<path class="st1" d="M785.8,535.5h-10.4c-26.2,12.8-55.3,20.5-86.3,20.5s-60-7.7-86.3-20.5h-10.5c-80.1,0-145.2,65.9-145.2,147.2
		v36.8c0,33.8,27.1,61.3,60.5,61.3h362.9c33.4,0,60.5-27.5,60.5-61.3v-36.8C931,601.4,866,535.5,785.8,535.5z"/>
	<path class="st1" d="M414.1,723.7v-36.4c0-12.1,1.5-23.8,4.3-35h-21.1c-17.9,0-22.2-12.6-26.1-29.3c-1.1-4.6-4.5-8.3-9.3-8.3H182
		V294.2c0-20.8,16.9-37.7,37.6-37.7h332.2c9.7-14.7,22.2-27.5,36.6-37.7H219.6c-41.5,0-75.3,33.8-75.3,75.4v320.5H87.8
		c-10.4,0-18.8,8.4-18.8,18.9V690c0,52,42.2,94.2,94.1,94.2h285.9C415.7,784.3,414.1,757.1,414.1,723.7z"/>
</g>
</svg>
