<svg id="Layer_1" data-name="Layer 1" xmlns="http://www.w3.org/2000/svg" viewBox="0 0 1000 1000"><defs><style>.cls-1{fill:#0979be;}.cls-2{fill:#fff;}</style></defs><title>Benefits</title><path class="cls-1" d="M500,49.23C251.09,49.23,49.23,251.05,49.23,500S251.09,950.77,500,950.77,950.77,748.94,950.77,500,749,49.23,500,49.23"/><path class="cls-2" d="M587.62,569.91H566.54a158.9,158.9,0,0,1-133.08,0H412.38A116.83,116.83,0,0,0,295.55,686.74,29.21,29.21,0,0,0,324.76,716H675.24a29.21,29.21,0,0,0,29.21-29.21A116.83,116.83,0,0,0,587.62,569.91ZM339.36,453.08a14.6,14.6,0,0,0,14.6-14.6V423.87c0-80.52,65.52-146,146-146s146,65.51,146,146v14.61a73.11,73.11,0,0,1-73,73H543.81a29.21,29.21,0,0,0-29.21-29.21H485.4a29.21,29.21,0,1,0,0,58.41H573A102.34,102.34,0,0,0,675.24,438.48V423.87c0-96.63-78.61-175.24-175.24-175.24S324.76,327.24,324.76,423.87v14.61A14.6,14.6,0,0,0,339.36,453.08Zm146,0h29.2a58.43,58.43,0,0,1,50.58,29.21H573a43.87,43.87,0,0,0,43.81-43.81V423.87a116.83,116.83,0,0,0-233.66,0c0,36.9,17.43,69.37,44.13,90.79-.05-1.06-.32-2.08-.32-3.16A58.49,58.49,0,0,1,485.4,453.08Z"/></svg>