<svg xmlns="http://www.w3.org/2000/svg" viewBox="0 0 125 125"><defs><style>.cls-1{fill:#057abb;}.cls-2{fill:#fff;}</style></defs><g id="Layer_2" data-name="Layer 2"><g id="Layer_1-2" data-name="Layer 1"><path class="cls-1" d="M62.5,0A62.5,62.5,0,1,0,125,62.5,62.5,62.5,0,0,0,62.5,0"/><path class="cls-2" d="M38.43,86.59H86.61V38.4H38.43ZM48,78.72a3.64,3.64,0,1,1,0-7.27,3.64,3.64,0,0,1,0,7.27m9.69-29.09a1.21,1.21,0,0,1,1.21-1.21H80.68a1.21,1.21,0,0,1,1.21,1.21v2.43a1.21,1.21,0,0,1-1.21,1.21H58.86a1.21,1.21,0,0,1-1.21-1.21Zm0,12.12a1.21,1.21,0,0,1,1.21-1.21H80.68a1.21,1.21,0,0,1,1.21,1.21v2.43a1.21,1.21,0,0,1-1.21,1.21H58.86a1.21,1.21,0,0,1-1.21-1.21Zm0,12.12a1.21,1.21,0,0,1,1.21-1.21H80.68a1.21,1.21,0,0,1,1.21,1.21V76.3a1.21,1.21,0,0,1-1.21,1.21H58.86a1.21,1.21,0,0,1-1.21-1.21ZM43.38,50.57l1.19-1.19h0a.91.91,0,0,1,1.28,0l1.72,1.68,4.83-4.8h0a.92.92,0,0,1,1.29,0L55,47.51a.92.92,0,0,1,0,1.29L49.5,54.27l-1.18,1.18a1,1,0,0,1-1.34,0l-3.6-3.59h0a.91.91,0,0,1,0-1.29m0,12.09,1.19-1.19h0a.91.91,0,0,1,1.28,0l1.72,1.68,4.83-4.83h0a.91.91,0,0,1,1.29,0L55,59.61a.9.9,0,0,1,0,1.28L49.5,66.36l-1.19,1.19a1,1,0,0,1-1.34,0L43.38,64h0a.91.91,0,0,1,0-1.29"/><path class="cls-2" d="M88,29.36H37A7.64,7.64,0,0,0,29.39,37l0,51A7.64,7.64,0,0,0,37,95.64l43.36,0H88A7.64,7.64,0,0,0,95.65,88V37A7.64,7.64,0,0,0,88,29.36M89.4,87a2.35,2.35,0,0,1-2.35,2.35H38A2.35,2.35,0,0,1,35.64,87V38A2.35,2.35,0,0,1,38,35.61H87.05A2.36,2.36,0,0,1,89.4,38Z"/></g></g></svg>