<svg xmlns="http://www.w3.org/2000/svg" viewBox="0 0 125 125"><defs><style>.cls-1{fill:#057abb;}.cls-2{fill:#fff;}</style></defs><g id="Layer_2" data-name="Layer 2"><g id="Layer_1-2" data-name="Layer 1"><path class="cls-1" d="M62.5,0A62.5,62.5,0,1,0,125,62.5,62.51,62.51,0,0,0,62.5,0"/><path class="cls-2" d="M88,41.67,74.51,28.16a3.31,3.31,0,0,0-2.34-1h-.84V44.85H89V44a3.31,3.31,0,0,0-1-2.33"/><path class="cls-2" d="M58.74,66.89a2.69,2.69,0,0,0,1.07,2.24,5.61,5.61,0,0,0,1.83.84V64.05a3,3,0,0,0-2.18.78,2.86,2.86,0,0,0-.72,2.06"/><path class="cls-2" d="M63.27,75.09v6.6a4.12,4.12,0,0,0,1.92-.61,3.11,3.11,0,0,0,1-2.68,2.88,2.88,0,0,0-1-2.3,7.21,7.21,0,0,0-2-1"/><path class="cls-2" d="M70.22,49.26A3.32,3.32,0,0,1,66.91,46V27.19H39.33A3.3,3.3,0,0,0,36,30.5v64a3.3,3.3,0,0,0,3.31,3.31H85.67A3.3,3.3,0,0,0,89,94.5V49.26ZM44.85,37.12A1.1,1.1,0,0,1,46,36H57a1.11,1.11,0,0,1,1.11,1.1v2.21A1.11,1.11,0,0,1,57,40.43H46a1.1,1.1,0,0,1-1.1-1.1Zm0,11V46a1.1,1.1,0,0,1,1.1-1.1H57A1.11,1.11,0,0,1,58.09,46v2.21A1.11,1.11,0,0,1,57,49.26H46a1.1,1.1,0,0,1-1.1-1.1M67.79,84.07a9.94,9.94,0,0,1-4.52,1.39v3.39H61.63V85.49a11.66,11.66,0,0,1-5-1.45c-1.92-1.3-2.86-3.5-2.83-6.62h4.56a7.84,7.84,0,0,0,.66,2.85,3.51,3.51,0,0,0,2.58,1.48V74.54l-1.37-.42a8.73,8.73,0,0,1-4.55-2.62,6.41,6.41,0,0,1-1.32-4.07,7.7,7.7,0,0,1,.51-2.86,6.53,6.53,0,0,1,1.45-2.21A6.41,6.41,0,0,1,59,60.71a11.56,11.56,0,0,1,2.61-.42V58h1.64v2.28a8.48,8.48,0,0,1,4.3,1.35c1.89,1.2,2.87,3.16,2.94,5.85H66.07a6.09,6.09,0,0,0-.5-2.19A2.59,2.59,0,0,0,63.27,64v6.44a20.82,20.82,0,0,1,5.37,2.45,6,6,0,0,1,2.27,5c0,2.83-1,4.9-3.12,6.18"/></g></g></svg>