<svg xmlns="http://www.w3.org/2000/svg" viewBox="0 0 50.9 50.9"><defs><style>.cls-1{fill:#0088ce;}.cls-2{fill:#fff;}</style></defs><g id="Layer_2" data-name="Layer 2"><g id="Layer_1-2" data-name="Layer 1"><path class="cls-1" d="M25.45,0A25.45,25.45,0,1,0,50.9,25.45,25.46,25.46,0,0,0,25.45,0"/><path class="cls-2" d="M39.13,30.55,36.9,32.78a1.73,1.73,0,0,1-2.43,0,1.73,1.73,0,0,1,0-2.44l2.2-2.2a1.69,1.69,0,0,1,1.2-.49,1.72,1.72,0,0,1,1.26,2.9ZM36.3,24.93a1.83,1.83,0,0,0-2.52,0l-2.52,2.52a1.81,1.81,0,0,0-.53,1.29A1.74,1.74,0,0,0,31.26,30a1.76,1.76,0,0,0,1.26.52A1.8,1.8,0,0,0,33.79,30l2.51-2.52A1.79,1.79,0,0,0,36.3,24.93Zm-4.23-3.78a1.88,1.88,0,0,0-1.3.54L28,24.45a1.83,1.83,0,0,0,0,2.6,1.83,1.83,0,0,0,2.6,0l2.76-2.76a1.85,1.85,0,0,0-1.31-3.14ZM18.36,14.76a.63.63,0,0,0,.43.21h0a.65.65,0,0,0,.42-.16.63.63,0,0,0,0-.88s0,0,0,0l-2.47-2.5a.63.63,0,0,0-.88,0,.62.62,0,0,0,0,.87Zm1.88-1.57a.62.62,0,0,0,.6.49l.14,0a.64.64,0,0,0,.39-.27.6.6,0,0,0,.08-.47l-.78-3.43a.63.63,0,0,0-.26-.4.62.62,0,0,0-.86.18.63.63,0,0,0-.09.49Zm2.81.45a.48.48,0,0,0,.2,0,.62.62,0,0,0,.59-.42L25,9.94a.61.61,0,0,0-.38-.79.59.59,0,0,0-.47,0,.66.66,0,0,0-.32.36l-1.15,3.33a.59.59,0,0,0,0,.47A.61.61,0,0,0,23.05,13.64Zm1.76,1.08a.61.61,0,0,0,.42.23h.06a.61.61,0,0,0,.39-.13l2.74-2.21a.66.66,0,0,0,.23-.42.63.63,0,0,0-.13-.46.6.6,0,0,0-.42-.22.64.64,0,0,0-.46.13L24.9,13.85A.63.63,0,0,0,24.81,14.72Zm11.51.38a1.83,1.83,0,0,0,0-2.6,1.87,1.87,0,0,0-2.6,0l-9.07,9.06A5.32,5.32,0,0,1,22.1,23a4.31,4.31,0,0,1-1,.14c-1.31,0-2.55-1.89-2.57-1.92-1-1.36-1.9-2.73-3-4.37-.41-.63-1.48-2-2.76-1.62a1.91,1.91,0,0,0-.68.44c-.6.54-.83.91-.81,1.25a4,4,0,0,0,.76,1.53c.3.47.68,1.06,1.09,1.81a11.45,11.45,0,0,1,.65,1.48c.07.17.14.35.22.52a23.28,23.28,0,0,1,.82,2.25,9.39,9.39,0,0,1,0,4.32,12.28,12.28,0,0,0-.25,2.82,9.48,9.48,0,0,0,1,3.67,11.42,11.42,0,0,0,.73,1.26l.07.07.14.2a6.54,6.54,0,0,0,2.72.52,4.65,4.65,0,0,0,3.7-2,.41.41,0,0,1,.55,0,.41.41,0,0,1,.06.57,5.44,5.44,0,0,1-4.27,2.26,6.18,6.18,0,0,1-1.14,0,6.53,6.53,0,0,1-.77-.14l.31.33.23.23a11.23,11.23,0,0,0,6.13,3.27,8.53,8.53,0,0,0,1.21.09,5.62,5.62,0,0,0,4.07-1.56l6.29-6.29L35.17,34a2.45,2.45,0,0,1-1.94-2.51v-.3l-.3.05a2.56,2.56,0,0,1-.73,0A2.53,2.53,0,0,1,30,28.56l0-.31-.32.05a2.53,2.53,0,0,1-2.22-.73,2.59,2.59,0,0,1,0-3.65Z"/></g></g></svg>