<svg xmlns="http://www.w3.org/2000/svg" viewBox="0 0 125 125"><defs><style>.cls-1{fill:#057abb;}.cls-2{fill:#fff;}</style></defs><g id="Layer_2" data-name="Layer 2"><g id="Layer_1-2" data-name="Layer 1"><path class="cls-1" d="M62.5,0A62.5,62.5,0,1,0,125,62.5,62.5,62.5,0,0,0,62.5,0"/><path class="cls-2" d="M101.14,79.27v2.55a9.68,9.68,0,0,1-9.66,9.66h-58a9.68,9.68,0,0,1-9.66-9.66V79.27a1.94,1.94,0,0,1,1.94-1.93H51a6.12,6.12,0,0,0,5.68,3.87H68.3A6.11,6.11,0,0,0,74,77.34H99.2a1.94,1.94,0,0,1,1.94,1.93m-49.68-5.8H31.59V41.25a7.74,7.74,0,0,1,7.73-7.73H85.68a7.74,7.74,0,0,1,7.73,7.73V73.47H73.54l-.07.21a5.49,5.49,0,0,1-5.17,3.66H56.71a5.49,5.49,0,0,1-5.18-3.66ZM71.67,61.7a1,1,0,0,0,.92.92h1.6a1,1,0,0,0,.92-.92V45.19a1,1,0,0,0-.92-.92h-1.6a1,1,0,0,0-.92.92Zm-6.88,0a1,1,0,0,0,.92.92h1.6a1,1,0,0,0,.92-.92V52.07a1,1,0,0,0-.92-.92h-1.6a1,1,0,0,0-.92.92Zm-6.88,0a1,1,0,0,0,.92.92h1.61a1,1,0,0,0,.91-.92V47.48a1,1,0,0,0-.91-.91H58.83a1,1,0,0,0-.92.91ZM51,61.7a1,1,0,0,0,.91.92h1.61a1,1,0,0,0,.92-.92V56.65a1,1,0,0,0-.92-.91H52a1,1,0,0,0-.91.91Zm-4.59,7.79H79.69a1.14,1.14,0,0,0,1.15-1.14V67.2a1.15,1.15,0,0,0-1.15-1.15H47.6V43.13A1.15,1.15,0,0,0,46.45,42H45.3a1.15,1.15,0,0,0-1.14,1.15V67.2a2.28,2.28,0,0,0,2.29,2.29"/></g></g></svg>