<svg id="Layer_1" data-name="Layer 1" xmlns="http://www.w3.org/2000/svg" viewBox="0 0 1000 1000"><defs><style>.cls-1{fill:#0979be;}.cls-2{fill:#fff;}</style></defs><title>Support_Icons</title><path class="cls-1" d="M500,49.24C251.09,49.24,49.24,251.06,49.24,500S251.09,950.76,500,950.76,950.76,748.94,950.76,500,749,49.24,500,49.24"/><path class="cls-2" d="M357.93,572.24V698a14.72,14.72,0,0,1-14.71,14.72H290.56A14.72,14.72,0,0,1,275.86,698V572.24H251.54a14.72,14.72,0,0,1-14.7-14.71V455.13A35.22,35.22,0,0,1,272,420h7.9a91.27,91.27,0,0,0,73.94,0h7.89a35.21,35.21,0,0,1,35.18,35.18v102.4a14.72,14.72,0,0,1-14.7,14.71Zm7.79-236.07A48.84,48.84,0,1,0,316.89,385,48.9,48.9,0,0,0,365.72,336.17Zm248.75,19.07V329.9H554.56V482.62h59.91V457.69a21.55,21.55,0,0,1,21.44-21.86h68a21.46,21.46,0,0,1,21.42,21.45v85a21.54,21.54,0,0,1-21.42,21.86h-68a21.45,21.45,0,0,1-21.44-21.44V517.4H554.56V670.09h59.91V644.76a21.45,21.45,0,0,1,21.44-21.43h68a21.45,21.45,0,0,1,21.42,21.43v85a21.45,21.45,0,0,1-21.42,21.42h-68a21.45,21.45,0,0,1-21.44-21.42V704.46H554.56v50.85a12.94,12.94,0,0,1-12.92,12.92h-8.51a13,13,0,0,1-12.94-12.92V516.83H457.72V515.7a12.84,12.84,0,0,1-7.66-11.81v-8.51a12.84,12.84,0,0,1,7.66-11.81V482.5l62.47,0V244.71a13,13,0,0,1,12.94-12.94h8.51a13,13,0,0,1,12.92,12.94v50.83h59.91V270.2a21.46,21.46,0,0,1,21.44-21.43h68a21.45,21.45,0,0,1,21.42,21.43v85a21.45,21.45,0,0,1-21.42,21.43h-68A21.46,21.46,0,0,1,614.47,355.24Zm78.22-11.4V280.47H649.18v63.37Zm-.19,376.24V656.71H649v63.37Zm0-188.76V469.21H649.18v62.11Z"/></svg>