<svg id="Layer_1" data-name="Layer 1" xmlns="http://www.w3.org/2000/svg" viewBox="0 0 1000 1000"><defs><style>.cls-1{fill:#0979be;}.cls-2{fill:#fff;}</style></defs><title>Support_Icons</title><path class="cls-1" d="M500,49.24C251.09,49.24,49.24,251.06,49.24,500S251.09,950.76,500,950.76,950.76,748.94,950.76,500,749,49.24,500,49.24"/><path class="cls-2" d="M491.71,688.35H306.76a8.92,8.92,0,1,1,0-17.84H357a7.84,7.84,0,0,0,7.43-5.35l11.16-33.5a7.84,7.84,0,0,0-7.43-10.31h-134a25.69,25.69,0,0,1-25.67-25.67V372.35a25.69,25.69,0,0,1,25.67-25.67h335a25.35,25.35,0,0,1,12.55,3.41,102.61,102.61,0,0,0-25.14,25.6H245.34a7.83,7.83,0,0,0-7.82,7.83v201a7.82,7.82,0,0,0,7.82,7.83H489.51a98.69,98.69,0,0,0-8.61,29H435.18a7.84,7.84,0,0,0-7.43,10.31l11.17,33.5a7.82,7.82,0,0,0,7.42,5.35h35.55A46,46,0,0,0,491.71,688.35ZM565.84,536.1A100.14,100.14,0,0,1,579.67,535h6.62a7.87,7.87,0,0,1,3.44.78c1.69.81,3.42,1.39,5.11,2.12v-14a102.48,102.48,0,0,1-29-22.06Zm75-188.32A85.25,85.25,0,1,0,726.11,433,85.33,85.33,0,0,0,640.87,347.78Zm145,287A83.9,83.9,0,0,0,702.08,551h-4.83c-36.27,16.88-76.14,17-112.75,0h-4.83a83.9,83.9,0,0,0-83.81,83.81v22.95A30.29,30.29,0,0,0,526.12,688H755.63a30.29,30.29,0,0,0,30.26-30.26Z"/></svg>