<svg id="Layer_1" data-name="Layer 1" xmlns="http://www.w3.org/2000/svg" viewBox="0 0 1000 1000"><defs><style>.cls-1{fill:#0979be;}.cls-2{fill:#fff;}</style></defs><title>Support_Icons</title><path class="cls-1" d="M500,49.24C251.09,49.24,49.24,251.06,49.24,500S251.09,950.76,500,950.76,950.76,748.94,950.76,500,749,49.24,500,49.24"/><path class="cls-2" d="M325.2,295.24a27.65,27.65,0,0,0-27.67,27.67v401.2a13.87,13.87,0,0,0,13.84,13.83H339a13.87,13.87,0,0,0,13.83-13.83V322.91A27.64,27.64,0,0,0,325.2,295.24ZM556.84,557.75c-49.46-13.06-96.58-24.9-176.3,9.6v59.92c160.56-79.72,191.69,46.08,343.7-20a27.14,27.14,0,0,0,16-24.9V551.27c-37.7,15-69.34,20.83-96.92,20.83C611,572,583.73,564.84,556.84,557.75Zm0-83c-49.46-13.05-96.58-24.9-176.3,9.6v53.18c82-32.51,133.67-19.63,183.39-6.57,49.46,13,96.58,24.9,176.3-9.6V468.17c-37.7,15-69.34,20.84-96.92,20.84C611,489,583.73,481.83,556.84,474.74Zm8.22-108.86c44.78,13.49,84.21,25.08,175.17-17.37V321.87c0-21.7-23.17-32.94-42.71-23-148.12,75.49-135.92-57.41-317,24.39V454.6c82-32.43,133.67-19.63,183.39-6.57,49.46,13,96.58,24.81,176.3-9.6V378.85C693.89,399.17,659.56,406,631.2,406s-51-6.74-74.1-13.74c-3.46-1-7-2.08-10.46-3V360.52C552.86,362.25,559,364.07,565.06,365.88ZM435.88,406a13.83,13.83,0,1,1,13.83-13.83A13.82,13.82,0,0,1,435.88,406Zm0-48.24a13.84,13.84,0,1,1,13.83-13.84A13.83,13.83,0,0,1,435.88,357.76Zm55.33,41.41a13.84,13.84,0,1,1,13.84-13.83A13.82,13.82,0,0,1,491.21,399.17Zm0-48.33A13.84,13.84,0,1,1,505.05,337,13.82,13.82,0,0,1,491.21,350.84Z"/></svg>