<svg id="Layer_1" data-name="Layer 1" xmlns="http://www.w3.org/2000/svg" viewBox="0 0 1000 1000"><defs><style>.cls-1{fill:#0979be;}.cls-2{fill:#fff;}</style></defs><title>Support_Icons</title><path class="cls-1" d="M500,49.24C251.09,49.24,49.24,251.06,49.24,500S251.09,950.76,500,950.76,950.76,748.94,950.76,500,749,49.24,500,49.24"/><path class="cls-2" d="M707.56,273.9H292.45a47.9,47.9,0,0,0-47.9,47.89V673a47.91,47.91,0,0,0,47.9,47.9H707.56A47.91,47.91,0,0,0,755.45,673V321.79A47.9,47.9,0,0,0,707.56,273.9ZM404.21,333.77a12,12,0,0,1,12-12h279.4a12,12,0,0,1,12,12v24a12,12,0,0,1-12,12H416.18a12,12,0,0,1-12-12Zm-111.76,0a12,12,0,0,1,12-12h39.91a12,12,0,0,1,12,12v24a12,12,0,0,1-12,12H304.42a12,12,0,0,1-12-12ZM717.13,669.43A14.15,14.15,0,0,1,703,683.56H299.85a14.13,14.13,0,0,1-14.13-14.13V412a8.15,8.15,0,0,1,8.15-8.14H709a8.15,8.15,0,0,1,8.15,8.14ZM302,667.27H700.84V420.13H302ZM419.57,528.14a8.48,8.48,0,0,1-3.94-9.53,87.21,87.21,0,0,1,22.56-39,8.46,8.46,0,0,1,10.21-1.34l11.2,6.46A68.73,68.73,0,0,1,471.18,478V465.06a8.45,8.45,0,0,1,6.29-8.17,87.91,87.91,0,0,1,45.06,0,8.45,8.45,0,0,1,6.28,8.17V478a68.19,68.19,0,0,1,11.59,6.7l11.2-6.47a8.46,8.46,0,0,1,10.21,1.34,87.3,87.3,0,0,1,22.56,39,8.48,8.48,0,0,1-3.94,9.53l-11.21,6.47a69.65,69.65,0,0,1,0,13.39l11.21,6.47a8.48,8.48,0,0,1,3.94,9.53,87.3,87.3,0,0,1-22.56,39,8.47,8.47,0,0,1-10.21,1.34l-11.2-6.47a68.87,68.87,0,0,1-11.59,6.7v12.95a8.46,8.46,0,0,1-6.28,8.17,87.91,87.91,0,0,1-45.06,0,8.46,8.46,0,0,1-6.29-8.17V604.6a68.78,68.78,0,0,1-11.58-6.7l-11.2,6.47A8.47,8.47,0,0,1,438.19,603a87.21,87.21,0,0,1-22.56-39,8.48,8.48,0,0,1,3.94-9.53L430.78,548a69.65,69.65,0,0,1,0-13.39Zm48.67,13.16a33.18,33.18,0,1,1,33.18,33.19A33.22,33.22,0,0,1,468.24,541.3Z"/></svg>