<svg xmlns="http://www.w3.org/2000/svg" viewBox="0 0 85 85"><defs><style>.cls-1{fill:#0088ce;}.cls-2{fill:#fff;}</style></defs><g id="Layer_2" data-name="Layer 2"><g id="Layer_1-2" data-name="Layer 1"><path class="cls-1" d="M42.5,0A42.5,42.5,0,1,0,85,42.5,42.5,42.5,0,0,0,42.5,0"/><path class="cls-2" d="M26.33,60H58V32.9H26.33Zm22-20.3a1.11,1.11,0,0,1,1.11-1.11h3.72A1.12,1.12,0,0,1,54.3,39.7v3.73a1.12,1.12,0,0,1-1.12,1.11H49.46a1.11,1.11,0,0,1-1.11-1.11Zm0,8.94a1.12,1.12,0,0,1,1.11-1.12h3.72a1.12,1.12,0,0,1,1.12,1.12v3.72a1.12,1.12,0,0,1-1.12,1.12H49.46a1.12,1.12,0,0,1-1.11-1.12ZM39.41,39.7a1.12,1.12,0,0,1,1.12-1.11h3.72a1.12,1.12,0,0,1,1.12,1.11v3.73a1.12,1.12,0,0,1-1.12,1.11H40.53a1.12,1.12,0,0,1-1.12-1.11Zm0,8.94a1.12,1.12,0,0,1,1.12-1.12h3.72a1.12,1.12,0,0,1,1.12,1.12v3.72a1.13,1.13,0,0,1-1.12,1.12H40.53a1.12,1.12,0,0,1-1.12-1.12ZM30.48,39.7a1.11,1.11,0,0,1,1.11-1.11h3.73a1.11,1.11,0,0,1,1.11,1.11v3.73a1.11,1.11,0,0,1-1.11,1.11H31.59a1.11,1.11,0,0,1-1.11-1.11Zm0,8.94a1.12,1.12,0,0,1,1.11-1.12h3.73a1.12,1.12,0,0,1,1.11,1.12v3.72a1.12,1.12,0,0,1-1.11,1.12H31.59a1.12,1.12,0,0,1-1.11-1.12Z"/><path class="cls-2" d="M58.77,23.7H54.3V18.86a1.12,1.12,0,0,0-1.12-1.12H49.46a1.12,1.12,0,0,0-1.11,1.12V23.7H36.43V18.86a1.12,1.12,0,0,0-1.11-1.12H31.59a1.12,1.12,0,0,0-1.11,1.12V23.7H26a4.47,4.47,0,0,0-4.47,4.46V60.92A4.47,4.47,0,0,0,26,65.39H58.77a4.47,4.47,0,0,0,4.46-4.47V28.16A4.46,4.46,0,0,0,58.77,23.7Zm.89,36.58a1.41,1.41,0,0,1-1.41,1.41H26.06a1.42,1.42,0,0,1-1.42-1.41V32.06a.84.84,0,0,1,.85-.84H58.82a.84.84,0,0,1,.84.84Z"/></g></g></svg>