<svg xmlns="http://www.w3.org/2000/svg" viewBox="0 0 85 85"><defs><style>.cls-1{fill:#0088ce;}.cls-2{fill:#fff;}</style></defs><g id="Layer_2" data-name="Layer 2"><g id="Layer_1-2" data-name="Layer 1"><path class="cls-1" d="M42.5,0A42.5,42.5,0,1,0,85,42.5,42.5,42.5,0,0,0,42.5,0"/><path class="cls-2" d="M65,45.53c-2.65-.05-1.95.43-2.95-2-.25-.62-.5-1.24-.72-1.87a.78.78,0,0,0-.81-.56H53.9a.8.8,0,0,0-.85.61c-.37,1.09-.79,2.16-1.17,3.24a.82.82,0,0,1-.9.64c-.91,0-1.82,0-2.72,0s-1-.06-.67-1L52.81,31.2c.64-1.65,1.3-3.29,1.92-4.95a1,1,0,0,1,1-.72c1,0,2,0,2.94,0a.88.88,0,0,1,.92.63q3.72,9.33,7.48,18.65c.23.57,0,.74-.52.72S65.51,45.53,65,45.53Zm-7.81-14.8c-.11.12-.17.16-.19.22-.75,2-1.48,4-2.22,6.05-.17.46,0,.55.43.54,1.27,0,2.53,0,3.8,0,.58,0,.71-.14.5-.7-.63-1.6-1.21-3.22-1.81-4.83C57.53,31.61,57.36,31.2,57.18,30.73Zm15.07.34c-.38,0-.77,0-1.15,0-.56,0-.77-.22-.75-.77s0-1.1,0-1.65c0-.28-.07-.5-.41-.57-1.39-.31-1.79,0-1.79,1.37v.08c0,1.7.08,1.53-1.57,1.54-1.5,0-1.57.08-1.45,1.57,0,.5.26.68.72.67s1,0,1.51,0,.82.24.79.81,0,1,0,1.51c0,.22,0,.49.23.57a2.58,2.58,0,0,0,1.69,0c.45-.15.27-.62.27-1,0-1.93,0-1.93,2-1.95,1.07,0,1.08,0,1.08-1.08S73.38,31.07,72.25,31.07Zm1.08,22.79a25.29,25.29,0,0,1-.09,3A2.36,2.36,0,0,1,71.46,59a3.2,3.2,0,0,1-3.23-.6.7.7,0,0,1-.13-.17c-.2-.38-.55-.86-.13-1.15s.84,0,1.14.42a1.59,1.59,0,0,0,2,.46,1.37,1.37,0,0,0,.9-1.41c0-.32-.09-.41-.44-.29-2.23.79-3.9-.35-4-2.73a4.25,4.25,0,0,1,.36-2,2.59,2.59,0,0,1,3.65-1.3c.27.14.42.22.72,0,.48-.42,1-.1,1,.56C73.35,51.69,73.33,52.6,73.33,53.86Zm-1.2-.59c0-1.35-.68-2.26-1.68-2.26s-1.67,1-1.64,2.3.65,2.18,1.65,2.19S72.13,54.65,72.13,53.27ZM53.52,49.93c1.79,0,2.46.68,2.48,2.46a24.67,24.67,0,0,0,.12,3.44c0,.23.32.55,0,.7s-.78.2-1-.14-.48-.3-.8-.12a3.13,3.13,0,0,1-2.35.38,1.85,1.85,0,0,1-1.58-1.71A2,2,0,0,1,51.69,53a15.91,15.91,0,0,1,2-.38c.41-.1,1,0,1-.67s-.5-.85-1-.93a1.57,1.57,0,0,0-1.84.77c-.26.5-.69.4-1,.21s-.12-.55,0-.81A2.78,2.78,0,0,1,53.52,49.93Zm-.62,5.75a1.71,1.71,0,0,0,1.83-1.46c.07-.47,0-.75-.6-.6s-.93.17-1.4.27c-.74.14-1.13.51-1,1S52.34,55.68,52.9,55.68Zm8.89.28c0,.59.35.67.81.61s.41-.39.42-.7a26.14,26.14,0,0,1,.11-3.65,1.42,1.42,0,0,1,1.57-1.16c.74.06,1.11.5,1.12,1.39,0,1.12,0,2.24,0,3.37,0,.41,0,.75.6.77s.69-.3.69-.76c0-1.27,0-2.53-.06-3.8A2.11,2.11,0,0,0,64.42,50a2.69,2.69,0,0,0-1.12.46c-.15.11-.31.26-.42-.07s-.45-.3-.73-.25-.35.34-.35.61c0,.86,0,1.72,0,2.58S61.8,55.08,61.79,56Zm-19-32.44c0-.24,0-.48,0-.71s0-.44-.23-.45-.26.27-.29.47,0,.24,0,.36q0,18.5,0,37c0,.29-.21.83.27.81s.24-.54.24-.83c0-6.13,0-12.26,0-18.39ZM57.08,53.43c0,.58,0,1.15,0,1.72A1.45,1.45,0,0,0,59,56.64c.26,0,.56-.07.52-.45s0-.65-.47-.67-.7-.42-.71-.89c0-.86,0-1.72,0-2.58,0-.54.05-1,.73-1,.25,0,.36-.2.37-.45s0-.5-.29-.5c-1,0-.78-.68-.81-1.26,0-.28.18-.76-.23-.78a1,1,0,0,0-1,.72,1.42,1.42,0,0,0,0,.36.92.92,0,0,1-.5,1,.48.48,0,0,0,0,.9.8.8,0,0,1,.46.87c0,.5,0,1,0,1.5Zm-9.5-3.31c-.41.12-.31.5-.31.79,0,1.63,0,3.25,0,4.88,0,.45.05.81.64.8s.6-.36.6-.77c0-1,0-2,0-3,.06-1.21.57-1.73,1.57-1.49.5.12.52-.31.63-.61s-.07-.48-.33-.6a1.55,1.55,0,0,0-1.93.53A.62.62,0,0,0,47.58,50.12ZM61,50.74c0-.43-.18-.67-.65-.67s-.64.23-.64.67c0,1.72,0,3.44,0,5.16,0,.41.12.68.61.69s.68-.24.68-.69V50.74ZM19,41.25l3.53,2.55c.61.43.66.87.37,1.33l.51.38L25.21,43a3.35,3.35,0,0,0-.63-4.8L21,35.63a.89.89,0,0,1-.24-1.23L20.27,34l-1.9,2.62A3.56,3.56,0,0,0,19,41.25Zm2.37-8.11,4.87,3.58a2.75,2.75,0,0,1,.4,3.52l.41.31,3.36-4.73a5,5,0,0,0-.94-7l-5.22-3.79a1.59,1.59,0,0,1-.49-2.29l-.44-.32-3,4.1A5.08,5.08,0,0,0,21.38,33.14Zm9.3,13.27H16l-.52,1.75h3.93l.7,2.38h6.42l.7-2.38h3.93ZM17.35,56.13a2,2,0,0,0,1.12-1.81c0-1.63-1.34-2.29-2.79-2.29H11.62v8.63h4c1.72,0,3.54-.75,3.25-2.73C18.72,56.8,18.27,56.53,17.35,56.13Zm-3.9-2.45h2.12a.92.92,0,1,1,.08,1.84h-2.2ZM15.81,59H13.45v-2h2.36C17.54,57.06,17.44,59,15.81,59Zm9.61-2.9a2,2,0,0,0,1.11-1.81c0-1.63-1.33-2.29-2.78-2.29H19.68v8.63h4c1.72,0,3.54-.75,3.25-2.73C26.79,56.8,26.33,56.53,25.42,56.13Zm-3.9-2.45h2.11a.92.92,0,1,1,.09,1.84h-2.2ZM23.88,59H21.52v-2h2.36C25.61,57.06,25.5,59,23.88,59Zm9.61-2.9a2,2,0,0,0,1.11-1.81c0-1.63-1.33-2.29-2.79-2.29H27.75v8.63h4c1.71,0,3.54-.75,3.24-2.73C34.86,56.8,34.4,56.53,33.49,56.13Zm-3.9-2.45H31.7a.92.92,0,1,1,.08,1.84H29.59ZM31.94,59H29.59v-2h2.35C33.67,57.06,33.57,59,31.94,59Zm3.8,1.18a.35.35,0,0,0-.09-.07l-.14,0L35.39,60l-.07,0a.1.1,0,0,1,0-.05v0a.13.13,0,0,1,0-.06l0,0,.06,0h.09a.27.27,0,0,1,.13,0,.34.34,0,0,1,.11.07l.07-.09a.33.33,0,0,0-.13-.07.47.47,0,0,0-.17,0h-.13l-.1.05a.21.21,0,0,0-.06.08.2.2,0,0,0,0,.11.29.29,0,0,0,0,.09.18.18,0,0,0,0,.07.2.2,0,0,0,.09.06l.13.06.12,0,.07,0,0,.06s0,0,0,.06a.14.14,0,0,1-.06.12.22.22,0,0,1-.15,0,.37.37,0,0,1-.15,0l-.12-.08-.07.08a.34.34,0,0,0,.14.09.41.41,0,0,0,.19,0,.32.32,0,0,0,.14,0,.24.24,0,0,0,.11-.06.16.16,0,0,0,.06-.08.2.2,0,0,0,0-.11.25.25,0,0,0,0-.09A.22.22,0,0,0,35.74,60.21Zm1-.55-.24.59,0,0,0,.06,0,0v0l0,0,0-.06,0,0-.24-.59H36v1h.11v-.73s0,0,0,0l0,0s0,0,0,0l.27.63.27-.63v0l0,0,0,0v.73h.1v-1Z"/></g></g></svg>