<svg xmlns="http://www.w3.org/2000/svg" viewBox="0 0 85 85"><defs><style>.cls-1{fill:#0088ce;}.cls-2{fill:#fff;}</style></defs><g id="Layer_2" data-name="Layer 2"><g id="Layer_1-2" data-name="Layer 1"><path class="cls-1" d="M42.5,0A42.5,42.5,0,1,0,85,42.5,42.5,42.5,0,0,0,42.5,0"/><path class="cls-2" d="M42.5,28,22.6,45.54a5.09,5.09,0,0,1-.5.3V62.69a1.45,1.45,0,0,0,1.46,1.45H61.44a1.45,1.45,0,0,0,1.46-1.45V45.85a5.55,5.55,0,0,1-.48-.29ZM35.79,58.24A2.29,2.29,0,1,1,32.56,55L42,46.17a3.94,3.94,0,0,0,.36.45h0l1.82,1.82a4.7,4.7,0,0,0,.43.35ZM53,48l-3.35,3.35a.6.6,0,0,1-.84,0L48,50.53a.6.6,0,0,1,0-.84l.42-.41L47.32,48.2A2.37,2.37,0,0,1,45,47.6l-1.82-1.82a2.4,2.4,0,0,1-.69-1.68v-.69l-3.36-1.68a5.93,5.93,0,0,1,8.39,0l1.68,1.68a2.37,2.37,0,0,1,.6,2.28l1.07,1.07.42-.42a.6.6,0,0,1,.84,0l.84.84A.6.6,0,0,1,53,48Zm15.36-6.93-2,2.17h0a1.46,1.46,0,0,1-2.06.11L43.46,25a1.44,1.44,0,0,0-1.92,0L20.65,43.37h0a1.46,1.46,0,0,1-2.06-.11l-1.94-2.17h0A1.45,1.45,0,0,1,16.76,39L40.07,18.45a3.65,3.65,0,0,1,4.87,0l9.22,8.14v-4.7a1.45,1.45,0,0,1,1.45-1.46h5.83a1.46,1.46,0,0,1,1.46,1.46V34.31L68.24,39A1.47,1.47,0,0,1,68.36,41.09Z"/></g></g></svg>