<svg xmlns="http://www.w3.org/2000/svg" viewBox="0 0 85 85"><defs><style>.cls-1{fill:#0088ce;}.cls-2{fill:#fff;}</style></defs><g id="Layer_2" data-name="Layer 2"><g id="Layer_1-2" data-name="Layer 1"><path class="cls-1" d="M42.5,0A42.5,42.5,0,1,0,85,42.5,42.5,42.5,0,0,0,42.5,0"/><path class="cls-2" d="M25.86,35.28V49.15H24.47a1.39,1.39,0,0,0-1.39,1.39V54.7H61.92V50.54a1.39,1.39,0,0,0-1.39-1.39H59.14V35.28H53.59V49.15H45.27V35.28H39.73V49.15H31.41V35.28Z"/><rect class="cls-2" x="20.31" y="57.47" width="44.38" height="5.55" rx="1.39"/><path class="cls-2" d="M41.42,23.79a.79.79,0,0,0,.32.66,1.61,1.61,0,0,0,.54.25V22.94a.9.9,0,0,0-.65.24A.84.84,0,0,0,41.42,23.79Z"/><path class="cls-2" d="M42.77,26.23v2a1.19,1.19,0,0,0,.57-.18.92.92,0,0,0,.31-.8.85.85,0,0,0-.29-.68A2.11,2.11,0,0,0,42.77,26.23Z"/><path class="cls-2" d="M63.79,26.62l-20.32-7.8a2.7,2.7,0,0,0-1.94,0l-20.32,7.8a1.4,1.4,0,0,0-.9,1.3v3.2a1.39,1.39,0,0,0,1.39,1.39H63.3a1.39,1.39,0,0,0,1.39-1.39v-3.2A1.4,1.4,0,0,0,63.79,26.62ZM44.11,28.9a3,3,0,0,1-1.34.41v1h-.49v-1a3.48,3.48,0,0,1-1.48-.43,2.18,2.18,0,0,1-.84-2h1.36a2.48,2.48,0,0,0,.19.85,1.07,1.07,0,0,0,.77.44V26.06l-.41-.12a2.62,2.62,0,0,1-1.35-.78,1.93,1.93,0,0,1-.4-1.21,2.26,2.26,0,0,1,.16-.85,1.76,1.76,0,0,1,.43-.66A1.9,1.9,0,0,1,41.5,22a3.66,3.66,0,0,1,.78-.13v-.67h.49v.68a2.62,2.62,0,0,1,1.28.4A2,2,0,0,1,44.92,24H43.6a1.77,1.77,0,0,0-.15-.65.79.79,0,0,0-.68-.39v1.92a6.38,6.38,0,0,1,1.6.72A1.78,1.78,0,0,1,45,27.06,2,2,0,0,1,44.11,28.9Z"/></g></g></svg>