<svg xmlns="http://www.w3.org/2000/svg" viewBox="0 0 85 85"><defs><style>.cls-1{fill:#0088ce;}.cls-2{fill:#fff;fill-rule:evenodd;}</style></defs><g id="Layer_2" data-name="Layer 2"><g id="Layer_1-2" data-name="Layer 1"><path class="cls-1" d="M42.5,0A42.5,42.5,0,1,0,85,42.5,42.5,42.5,0,0,0,42.5,0"/><path class="cls-2" d="M27.74,37.8h7.7c6.94,0,11.36,4.27,11.36,10.93,0,7.37-4.9,11-12.72,11H27.74V37.8Zm7.22,5c-.28,0-.64,0-1.12,0V54.67c3.91,0,6.94-1.56,6.94-6.07,0-3.86-2.47-5.78-5.82-5.78Zm35.69,1.35V38.39a11.91,11.91,0,0,0-4.9-1A11.3,11.3,0,0,0,54.18,48.68,11.09,11.09,0,0,0,65.63,59.81a7.82,7.82,0,0,0,5-1.4V52.63A8.25,8.25,0,0,1,66,54.22a5.59,5.59,0,0,1-5.74-5.82A5.69,5.69,0,0,1,66,42.54a8.43,8.43,0,0,1,4.7,1.63ZM14.35,33.41v1h4.26v-1c-1.23,0-1.43-.2-1.43-1V27.15l2.55,7.3h1.08l2.75-7.3v5.1c0,1.08,0,1.08-1.52,1.16v1H27v-1c-1.44,0-1.48-.16-1.48-.92v-5.1c0-.84.12-1.12,1.48-1.12V25.19H22.76l-2.15,5.87-2-5.87H14.35v1.08c1.19,0,1.39,0,1.39,1v4.9c0,1,0,1.2-1.39,1.2Zm20.69,0v1h4v-1c-1,0-1-.16-1-1.48V30.82c0-1.08.48-2,1.48-2,.79,0,1,.52,1,1.24v2.35c0,.8,0,1-1,1v1h3.54v-1c-.83,0-.91-.08-.91-.88V30.9c0-1.12.52-2.08,1.55-2.08.8,0,1,.48,1,1.44v2.39c0,.68,0,.76-1,.76v1h3.91v-1c-1.2,0-1.27,0-1.27-.64V30.1c0-1.52-.36-2.39-1.92-2.39a2.88,2.88,0,0,0-2.27,1.15,2,2,0,0,0-1.92-1.19A2.68,2.68,0,0,0,38,28.94V27.87H35v.95c1.2,0,1.31,0,1.31,1V32c0,1.4,0,1.4-1.31,1.4ZM14.54,37.8V59.69h6l0-8.37h5.86V46.25H20.64l0-3.39h6.3V37.8ZM48.12,25.2h2.79v3.39a2.8,2.8,0,0,1,2-.88c1.6,0,2.68,1.43,2.68,3.43s-1.08,3.55-2.91,3.55a2.52,2.52,0,0,1-2-.92l-.56.76h-.83V27.35c0-1.08-.08-1.2-1.12-1.2V25.2Zm5.58,5.94c0-1.52-.55-2.28-1.35-2.28-1,0-1.48.84-1.48,2.39,0,1.36.52,2.28,1.44,2.28.76,0,1.39-.72,1.39-2.39Zm10.37,2.27v1h4.31v-1c-1.2,0-1.32,0-1.32-.92V31.06c0-1.32.44-2.52,1.64-2.52a1.07,1.07,0,0,1,.4.08,1,1,0,0,0-.68.92.87.87,0,0,0,.92.88,1.08,1.08,0,0,0,1.07-1.2,1.46,1.46,0,0,0-1.51-1.51A2.45,2.45,0,0,0,67,28.78v-.91h-3v.95c1,0,1.32,0,1.32.88v2.71c0,.92,0,1-1.32,1Zm-5.42-2.07c0,1.27.6,2.15,1.67,2.15a1.48,1.48,0,0,0,1.56-1.43h1.19a2.73,2.73,0,0,1-2.91,2.59,3.13,3.13,0,0,1-3.35-3.39A3.25,3.25,0,0,1,60,27.71c1.88,0,3.07,1.43,3.07,3.63ZM60,28.74c-.79,0-1.27.56-1.27,1.56h2.51c0-1-.4-1.56-1.24-1.56Zm-30.38,2.6c0,1.27.63,2.15,1.71,2.15a1.48,1.48,0,0,0,1.56-1.43H34a2.7,2.7,0,0,1-2.87,2.59,3.16,3.16,0,0,1-3.39-3.39A3.28,3.28,0,0,1,31,27.71c1.88,0,3,1.43,3,3.63ZM31,28.74c-.8,0-1.28.56-1.28,1.56h2.48c0-1.08-.4-1.56-1.2-1.56Zm16.43,31h6V37.8h-6V59.69Z"/></g></g></svg>