<svg xmlns="http://www.w3.org/2000/svg" viewBox="0 0 85 85"><defs><style>.cls-1{fill:#0088ce;}.cls-2{fill:#fff;}</style></defs><g id="Layer_2" data-name="Layer 2"><g id="Layer_1-2" data-name="Layer 1"><path class="cls-1" d="M42.5,0A42.5,42.5,0,1,0,85,42.5,42.5,42.5,0,0,0,42.5,0"/><path class="cls-2" d="M26,23.19a2.61,2.61,0,0,0-2.61,2.61V63.63a1.3,1.3,0,0,0,1.3,1.3h2.61a1.31,1.31,0,0,0,1.31-1.3V25.8A2.61,2.61,0,0,0,26,23.19ZM47.86,47.94c-4.66-1.23-9.11-2.34-16.62.91V54.5c15.14-7.52,18.07,4.34,32.4-1.88a2.57,2.57,0,0,0,1.51-2.35V47.33a24.72,24.72,0,0,1-9.14,2A31,31,0,0,1,47.86,47.94Zm0-7.82c-4.66-1.23-9.11-2.35-16.62.9v5C39,43,43.84,44.19,48.53,45.42s9.1,2.35,16.62-.91v-5a24.68,24.68,0,0,1-9.14,2A30.6,30.6,0,0,1,47.86,40.12Zm.77-10.27c4.23,1.28,7.94,2.37,16.52-1.63V25.71a2.65,2.65,0,0,0-4-2.17c-14,7.11-12.81-5.42-29.88,2.3V38.22c7.73-3.06,12.6-1.85,17.29-.62s9.1,2.34,16.62-.91V31.08a25.64,25.64,0,0,1-10.28,2.56,22.92,22.92,0,0,1-7-1.3l-1-.28V29.35ZM36.45,33.64a1.31,1.31,0,1,1,1.31-1.31A1.31,1.31,0,0,1,36.45,33.64Zm0-4.55a1.31,1.31,0,1,1,1.31-1.31A1.31,1.31,0,0,1,36.45,29.09ZM41.67,33A1.31,1.31,0,1,1,43,31.69,1.3,1.3,0,0,1,41.67,33Zm0-4.55A1.31,1.31,0,1,1,43,27.13,1.31,1.31,0,0,1,41.67,28.44Z"/></g></g></svg>