<?xml version="1.0" encoding="UTF-8"?>
<svg width="87px" height="87px" viewBox="0 0 87 87" version="1.1" xmlns="http://www.w3.org/2000/svg" xmlns:xlink="http://www.w3.org/1999/xlink">
    <title>grow-average-project</title>
    <g id="Page-1" stroke="none" stroke-width="1" fill="none" fill-rule="evenodd">
        <g id="grow-average-project" fill-rule="nonzero">
            <path d="M43.5241905,0.190281 C19.7979705,0.190281 0.5592405,19.427226 0.5592405,43.153446 C0.5592405,66.877881 19.7979705,86.114826 43.5241905,86.114826 C67.2521955,86.114826 86.4873555,66.877881 86.4873555,43.153446 C86.4873555,19.427226 67.2521955,0.190281 43.5241905,0.190281" id="Fill-18" fill="#0077c8"></path>
            <path d="M44.348682,51.7880265 L44.348682,57.8766615 C45.160857,57.7677765 45.749907,57.5857065 46.117617,57.3108165 C46.765572,56.8360065 47.088657,56.0077665 47.088657,54.8385915 C47.088657,53.9514465 46.785207,53.2410165 46.176522,52.7251515 C45.821307,52.4252715 45.209052,52.1093265 44.348682,51.7880265" id="Fill-20" fill="#FEFEFE"></path>
            <path d="M43.5206205,13.261479 L18.3378405,38.447829 L28.9960755,38.453184 L28.9960755,68.548284 L58.0505205,68.553639 L58.0540905,38.451399 L68.7105405,38.447829 L43.5206205,13.261479 Z M48.5168355,60.065964 C47.3476605,60.794244 45.9553605,61.217289 44.3488605,61.344024 L44.3488605,64.467774 L42.8423205,64.467774 L42.8423205,61.372584 C40.8002805,61.144104 39.2741055,60.699639 38.2637955,60.033834 C36.4948605,58.841454 35.6255655,56.808339 35.6523405,53.941629 L39.8578005,53.941629 C39.9970305,55.241109 40.1987355,56.117544 40.4593455,56.567364 C40.8645405,57.256374 41.6570805,57.715119 42.8423205,57.923964 L42.8423205,51.281979 L41.5803255,50.901774 C39.5971905,50.327004 38.2031055,49.513044 37.3873605,48.483099 C36.5734005,47.440659 36.1664205,46.194729 36.1664205,44.732814 C36.1664205,43.765344 36.3270705,42.890694 36.6412305,42.099939 C36.9607455,41.310969 37.3980705,40.634454 37.9728405,40.063254 C38.7082605,39.329619 39.5275755,38.819109 40.4325705,38.540649 C40.9769955,38.365719 41.7838155,38.231844 42.8423205,38.151519 L42.8423205,36.086274 L44.3488605,36.086274 L44.3488605,38.183649 C46.0321155,38.317524 47.3494455,38.733429 48.3133455,39.429579 C50.0555055,40.536279 50.9551455,42.337344 51.0211905,44.820279 L46.9299705,44.820279 C46.8514305,43.901004 46.6961355,43.228059 46.4676555,42.801444 C46.0803105,42.064239 45.3734505,41.660829 44.3488605,41.585859 L44.3488605,47.515629 C46.8014505,48.365289 48.4561455,49.118559 49.3004505,49.770084 C50.6945355,50.857149 51.3942555,52.395819 51.3942555,54.371814 C51.3942555,56.981484 50.4374955,58.882509 48.5168355,60.065964 L48.5168355,60.065964 Z" id="Fill-22" fill="#FEFEFE"></path>
            <path d="M40.1808855,44.234799 C40.1808855,45.100524 40.5075405,45.794889 41.1590655,46.301829 C41.5196355,46.580289 42.0836955,46.840899 42.8441055,47.076519 L42.8441055,41.619774 C41.9373255,41.641194 41.2661655,41.883954 40.8359805,42.342699 C40.3968705,42.805014 40.1808855,43.429764 40.1808855,44.234799" id="Fill-24" fill="#FEFEFE"></path>
        </g>
    </g>
</svg>