<svg id="Layer_1" data-name="Layer 1" xmlns="http://www.w3.org/2000/svg" viewBox="0 0 1000 1000"><defs><style>.cls-1{fill:#0979be;}.cls-2{fill:#fff;}</style></defs><title>Benefits</title><path class="cls-1" d="M500,49.23C251.08,49.23,49.23,251.05,49.23,500S251.08,950.77,500,950.77,950.77,748.94,950.77,500,749,49.23,500,49.23"/><path class="cls-2" d="M500,346.09,288.92,532.23c-1.56,1.41-3.56,2.06-5.28,3.23V714.1a15.46,15.46,0,0,0,15.46,15.45H700.91a15.46,15.46,0,0,0,15.46-15.45V535.5c-1.64-1.12-3.6-1.76-5.08-3.09ZM428.87,666.92a24.3,24.3,0,1,1-34.35-34.35L494.79,539a37.44,37.44,0,0,0,3.87,4.7h0L518,563a37.63,37.63,0,0,0,4.5,3.7Zm182.49-108.4L575.79,594.1a6.31,6.31,0,0,1-8.9,0L558,585.2a6.28,6.28,0,0,1,0-8.89l4.44-4.45L551.08,560.5a25,25,0,0,1-24.21-6.42l-19.32-19.32A25.12,25.12,0,0,1,500.18,517v-7.37l-35.57-17.79a62.91,62.91,0,0,1,88.94,0l17.78,17.79a25,25,0,0,1,6.43,24.21l11.36,11.36,4.44-4.44a6.29,6.29,0,0,1,8.9,0l8.89,8.89A6.29,6.29,0,0,1,611.36,558.52Zm162.88-73.47-20.67,23h0a15.45,15.45,0,0,1-21.82,1.17L510.23,313.85a15.45,15.45,0,0,0-20.44,0L268.28,509.24h0a15.46,15.46,0,0,1-21.83-1.17l-20.68-23h0a15.46,15.46,0,0,1,1.17-21.83L474.21,245a38.48,38.48,0,0,1,51.63,0l97.8,86.33V281.37a15.45,15.45,0,0,1,15.46-15.45h61.81a15.45,15.45,0,0,1,15.46,15.45v131.8l56.69,50.06A15.46,15.46,0,0,1,774.24,485.05Z"/></svg>