<svg id="Layer_1" data-name="Layer 1" xmlns="http://www.w3.org/2000/svg" viewBox="0 0 1000 1000"><defs><style>.cls-1{fill:#0979be;}.cls-2{fill:#fff;}</style></defs><title>Benefits</title><path class="cls-1" d="M500,49.23C251.08,49.23,49.23,251.05,49.23,500S251.08,950.77,500,950.77,950.77,748.94,950.77,500,749,49.23,500,49.23"/><path class="cls-2" d="M497.19,397.55H451.51V482h51.64q23.82-.66,38.39-11.54t14.56-28.69q0-24.06-12.9-34.12T497.19,397.55Z"/><path class="cls-2" d="M556.18,300.85A205.49,205.49,0,0,0,500.51,293c-88.28.37-163.71,55.8-193.73,133.26A206.31,206.31,0,0,0,293,500a202.53,202.53,0,0,0,15.13,77.43,8.64,8.64,0,0,1,.29,1.5C339.54,654,413.65,707,500,707a203.27,203.27,0,0,0,77.45-15.13,8,8,0,0,1,1.62-.31c75-31.06,127.92-104.95,127.92-191C706.57,405.68,642.7,325.64,556.18,300.85Zm50.57,335.36h-48q-4.63-11.93-4.63-42.54t-1-36.24q-5.31-31.78-43.37-33.1H451.51V636.21H404.83v-281h91.36q50.66,0,78.62,21.69t28,63.05q0,40.72-42.37,62.23,40.38,16.56,40.71,67.53v20.19q0,28.47,5.63,41Z"/><path class="cls-2" d="M573.56,263.86a245.44,245.44,0,0,0-73.85-11.33c-102.12,0-190,62.45-227.52,151.38a244.94,244.94,0,0,0-19.66,96.38c0,119.15,85,218.94,197.9,241.9l.85.71c15.6,3.38,32.3,4.57,49,4.57,119.32,0,219.2-85.26,242-198l.63-.76c3.38-15.6,4.57-32.3,4.57-49C747.47,389.05,674.14,295.09,573.56,263.86Zm147.2,280.56a8.53,8.53,0,0,1-.75,1.72C698.86,648.1,608.38,725,500.26,725c-17.09,0-31.71-1.37-44.68-4.19a8.48,8.48,0,0,1-2.26-1C351.62,698.26,275.05,608,275.05,500.25a221.84,221.84,0,0,1,14.77-79.13c32-85.19,113.88-146.07,209.92-146.07A222.15,222.15,0,0,1,563,284.33c93.46,27.13,162,113.34,162,215.41C725,516.8,723.59,531.41,720.76,544.42Z"/></svg>