<svg id="Layer_1" data-name="Layer 1" xmlns="http://www.w3.org/2000/svg" viewBox="0 0 1000 1000"><defs><style>.cls-1{fill:#0979be;}.cls-2{fill:#fff;}</style></defs><title>Benefits</title><path class="cls-1" d="M500,49.23C251.08,49.23,49.23,251.05,49.23,500S251.08,950.77,500,950.77,950.77,748.94,950.77,500,749,49.23,500,49.23"/><path class="cls-2" d="M249.7,653a41.73,41.73,0,0,0,41.72,41.72H708.58A41.73,41.73,0,0,0,750.3,653V388.76H249.7ZM563.06,491l39.68-5.78,17.73-35.95a8.7,8.7,0,0,1,15.59,0l17.73,35.95L693.47,491a8.7,8.7,0,0,1,4.8,14.83l-28.7,28,6.79,39.51a8.69,8.69,0,0,1-12.6,9.15l-35.5-18.65-35.49,18.65a8.68,8.68,0,0,1-12.6-9.15L587,533.75l-28.7-28A8.7,8.7,0,0,1,563.06,491ZM420.37,444.38A55.62,55.62,0,1,1,364.75,500,55.67,55.67,0,0,1,420.37,444.38ZM303,617.72a69.05,69.05,0,0,1,65.62-47.62h8.83a111,111,0,0,0,85.76,0h8.84a69.05,69.05,0,0,1,65.61,47.62c3.45,10.67-5.6,21.34-16.81,21.34h-201C308.65,639.06,299.6,628.28,303,617.72ZM750.3,347v13.9H249.7V347a41.73,41.73,0,0,1,41.72-41.72H708.58A41.73,41.73,0,0,1,750.3,347Z"/></svg>