<svg id="Layer_1" data-name="Layer 1" xmlns="http://www.w3.org/2000/svg" viewBox="0 0 1000 1000"><defs><style>.cls-1{fill:#0979be;}.cls-2{fill:#fff;}</style></defs><title>Benefits</title><path class="cls-1" d="M500,49.23C251.08,49.23,49.23,251.05,49.23,500S251.08,950.77,500,950.77,950.77,748.94,950.77,500,749,49.23,500,49.23"/><path class="cls-2" d="M491.71,688.36h-185a8.93,8.93,0,0,1,0-17.85H357a7.81,7.81,0,0,0,7.43-5.35l11.17-33.5a7.83,7.83,0,0,0-7.43-10.3h-134a25.7,25.7,0,0,1-25.67-25.68V372.35a25.7,25.7,0,0,1,25.67-25.68h335a25.31,25.31,0,0,1,12.54,3.41,102.82,102.82,0,0,0-25.14,25.61H245.34a7.83,7.83,0,0,0-7.83,7.82v201a7.83,7.83,0,0,0,7.83,7.82H489.51a98.85,98.85,0,0,0-8.61,29H435.18a7.82,7.82,0,0,0-7.43,10.3l11.17,33.5a7.81,7.81,0,0,0,7.42,5.35h35.55A46,46,0,0,0,491.71,688.36ZM565.84,536.1A100.16,100.16,0,0,1,579.68,535h6.61a8.09,8.09,0,0,1,3.45.78c1.68.81,3.41,1.39,5.11,2.12v-14a102.39,102.39,0,0,1-29-22.06Zm75-188.32A85.25,85.25,0,1,0,726.12,433,85.34,85.34,0,0,0,640.88,347.78Zm145,287A83.9,83.9,0,0,0,702.08,551h-4.82c-36.27,16.88-76.15,17-112.76,0h-4.82a83.9,83.9,0,0,0-83.82,83.81v22.95A30.3,30.3,0,0,0,526.12,688H755.64a30.3,30.3,0,0,0,30.26-30.27Z"/></svg>