<svg id="Layer_1" data-name="Layer 1" xmlns="http://www.w3.org/2000/svg" viewBox="0 0 1000 1000"><defs><style>.cls-1{fill:#0979be;}.cls-2{fill:#fff;fill-rule:evenodd;}</style></defs><title>Benefits</title><path class="cls-1" d="M500,49.23C251.08,49.23,49.23,251.05,49.23,500S251.08,950.77,500,950.77,950.77,748.94,950.77,500,749,49.23,500,49.23"/><path class="cls-2" d="M343.46,450.14H425.1c73.6,0,120.56,45.26,120.56,115.9,0,78.26-52,116.33-134.94,116.33H343.46V450.14Zm76.59,53.26c-3,0-6.77.43-11.85.43V629c41.46,0,73.6-16.5,73.6-64.3,0-41-26.22-61.34-61.75-61.34Zm378.57,14.34V456.41c-16.5-6.77-31.31-10.58-52-10.58-68.11,0-122.67,51.61-122.67,119.71s53.72,118,121.4,118c24.11,0,40.61-5.07,53.3-14.8V607.42c-19,11.85-32.15,16.92-49.92,16.92-34.26,0-60.91-25-60.91-61.76,0-36,27.07-62.18,60.91-62.18,18.61,0,32.15,6.35,49.92,17.34ZM201.38,403.58v11h45.27v-11c-13.12-.43-15.23-2.12-15.23-11V337.17l27.07,77.41h11.42l29.19-77.41v54.14c0,11.42,0,11.42-16.08,12.27v11h52.46v-11c-15.23,0-15.65-1.7-15.65-9.73V339.7c0-8.88,1.26-11.84,15.65-11.84V316.44H290.64L267.8,378.62l-21.15-62.18H201.38v11.42c12.69,0,14.81,0,14.81,11v52c0,10.15,0,12.69-14.81,12.69Zm219.48,0v11h41.88v-11c-10.15-.43-10.15-1.7-10.15-15.65V376.08c0-11.42,5.07-20.73,15.65-20.73,8.46,0,11,5.5,11,13.12v24.95c0,8.46-.43,10.16-10.58,10.16v11h37.65v-11c-8.88,0-9.73-.85-9.73-9.31V376.93c0-11.85,5.5-22,16.5-22,8.46,0,10.15,5.08,10.15,15.23v25.38c0,7.19,0,8-10.15,8v11h41.45v-11c-12.69,0-13.54.42-13.54-6.77V368.47c0-16.08-3.8-25.38-20.3-25.38-9.73,0-16.07,3.8-24.11,12.26-4.23-7.61-10.15-12.69-20.3-12.69-10.58,0-17.77,5.5-23.69,13.54V344.78H420.86v10.15c12.69,0,14,.42,14,10.58v23.26c0,14.81,0,14.81-14,14.81ZM203.42,450.14V682.37h63.87l.42-88.83h62.18V539.82H268.13l-.42-36h66.84V450.14ZM559.6,316.47h29.61v35.95c8-6.76,13.11-9.3,21.15-9.3,16.92,0,28.34,15.23,28.34,36.38,0,22.84-11.42,37.64-30.88,37.64-9.31,0-15.23-3-21.58-9.73l-5.92,8h-8.88V339.31c0-11.42-.85-12.69-11.84-12.69V316.47Zm59.23,63c0-16.07-5.92-24.11-14.38-24.11-11,0-15.65,8.88-15.65,25.38,0,14.38,5.5,24.11,15.23,24.11,8,0,14.8-7.61,14.8-25.38Zm110,24.12v11h45.68v-11c-12.69,0-14,.42-14-9.73V378.62c0-14,4.66-26.65,17.35-26.65a11.3,11.3,0,0,1,4.23.85c-4.23,2.11-7.2,5.07-7.2,9.73,0,5.5,4.24,9.3,9.73,9.3,6.77,0,11.42-5.07,11.42-12.69,0-9.3-6.76-16.07-16.07-16.07-7.61,0-13.11,3.8-19.88,11.42v-9.73h-31.3v10.15c11,0,14,0,14,9.31V393c0,9.73,0,10.58-14,10.58Zm-57.53-22c0,13.53,6.35,22.84,17.77,22.84,10.15,0,14.8-5.93,16.5-15.23h12.69c-2.12,17.77-14,27.5-30.88,27.5-20.31,0-35.53-12.27-35.53-36,0-21.57,13.53-37.65,33.84-37.65,19.88,0,32.57,15.23,32.57,38.5Zm14.39-27.56c-8.46,0-13.54,5.92-13.54,16.5h26.65c0-11-4.23-16.5-13.11-16.5ZM363.34,381.62c0,13.53,6.77,22.84,18.19,22.84,10.15,0,14.8-5.93,16.49-15.23h12.27c-2.11,17.77-13.53,27.5-30.45,27.5-20.31,0-36-12.27-36-36,0-21.57,14-37.65,34.26-37.65,19.88,0,32.15,15.23,32.15,38.5Zm14.8-27.56c-8.46,0-13.54,5.92-13.54,16.5h26.23c0-11.42-4.23-16.5-12.69-16.5ZM552.43,682.37H616.3V450.14H552.43V682.37Z"/></svg>