<svg id="Layer_1" data-name="Layer 1" xmlns="http://www.w3.org/2000/svg" viewBox="0 0 1000 1000"><defs><style>.cls-1{fill:#0979be;}.cls-2{fill:#fff;}</style></defs><title>Benefits</title><path class="cls-1" d="M500,49.23C251.08,49.23,49.23,251.05,49.23,500S251.08,950.77,500,950.77,950.77,748.94,950.77,500,749,49.23,500,49.23"/><path class="cls-2" d="M742.26,590.32l-39.44,39.44a30.51,30.51,0,1,1-43.15-43.14l39-39a30.52,30.52,0,0,1,43.62,42.68Zm-50.07-99.48c-11.94-11.9-32.74-11.9-44.68,0l-44.64,44.62a31.62,31.62,0,1,0,44.73,44.69l44.59-44.62A31.69,31.69,0,0,0,692.19,490.84Zm-75-67a32.68,32.68,0,0,0-23,9.55l-48.83,48.86a32.58,32.58,0,0,0,46.08,46.07l48.83-48.86a32.58,32.58,0,0,0-23.11-55.62ZM374.42,310.69a11,11,0,0,0,7.55,3.6h.62a10.87,10.87,0,0,0,7.3-2.8,11,11,0,0,0,.88-15.5c-.25-.27-.52-.53-.73-.72L346.2,251a11,11,0,1,0-15.61,15.45Zm33.28-27.8a11,11,0,0,0,21.43-4.84l-13.78-60.76a10.9,10.9,0,0,0-4.7-7,11.11,11.11,0,0,0-8.24-1.61,10.94,10.94,0,0,0-7,4.68,11.17,11.17,0,0,0-1.52,8.7Zm49.72,8a11,11,0,0,0,14-6.75l20.46-58.89A11,11,0,1,0,471.11,218l-20.46,58.89a11,11,0,0,0,6.77,14ZM488.63,310a10.87,10.87,0,0,0,7.37,4c.4,0,.8.07,1.19.07a10.91,10.91,0,0,0,6.88-2.44l48.51-39.14A11,11,0,0,0,554.26,257a10.94,10.94,0,0,0-7.38-4.05,11.46,11.46,0,0,0-8.06,2.37l-48.54,39.17A11,11,0,0,0,488.63,310Zm203.83,6.66a32.63,32.63,0,0,0,0-46.08c-12.26-12.24-33.71-12.31-46.07,0L485.87,431.12A96.43,96.43,0,0,1,440.62,457a81.59,81.59,0,0,1-17.88,2.35c-23.16-.52-45.19-33.5-45.54-34-17.59-23.95-33.71-48.25-52.47-77.35-7.15-11.08-26.1-36-48.73-28.64-4,1.27-7.95,3.79-12.19,7.7-10.5,9.7-14.65,16.14-14.3,22.22.38,6.56,5.86,15.12,13.49,27.05,5.39,8.41,12.09,18.86,19.27,32,4.67,8.54,8.09,17.22,11.62,26.18,1.21,3.06,2.47,6.24,3.77,9.36a385.15,385.15,0,0,1,14.49,39.71c7.85,26.81,3.67,52.06-.4,76.51-2.81,17.06-5.48,33.18-4.48,50,1.25,21.39,7.32,43.23,18.06,64.91a206.88,206.88,0,0,0,12.94,22.41l1.26,1.26,2.49,3.54c14.23,5.86,30.82,9.81,48.23,9.1,26.85-1,48.7-12.59,65.42-35.08a6.66,6.66,0,0,1,4.55-2.47,7.46,7.46,0,0,1,5.25,1.51,7.19,7.19,0,0,1,1,10.14c-18.56,25-44.71,38.82-75.65,40a122.3,122.3,0,0,1-20.23-.94q-6.87-.93-13.54-2.52l5.48,5.78c1.34,1.4,2.68,2.79,4,4.12,31.5,31.53,70.09,52.09,108.67,57.9a143,143,0,0,0,21.41,1.66c28.85,0,54-9.51,72.09-27.63L680.08,652.52l-8-1.7a43.49,43.49,0,0,1-34.42-44.34l.22-5.43-5.36.86a44.14,44.14,0,0,1-12.81.26A44.73,44.73,0,0,1,580.63,555l.36-5.55-5.5.9A44.72,44.72,0,0,1,536,537.52a45.76,45.76,0,0,1,.11-64.6Z"/></svg>