<svg id="Layer_1" data-name="Layer 1" xmlns="http://www.w3.org/2000/svg" viewBox="0 0 1000 1000"><defs><style>.cls-1{fill:#fff;}</style></defs><title>PartnerPortal_Icon</title><path class="cls-1" d="M171.26,631h114.2c0-.65-.44-1.25-.44-1.9V471.43c0-14.33,14.33-28.66,28.66-28.66h50.17c14.33,0,28.66,14.33,28.66,28.66V629.09c0,.65-.39,1.25-.44,1.9H446.7c-.06-.65-.45-1.25-.45-1.9v-301c0-14.33,14.34-28.67,28.67-28.67h50.16c14.34,0,28.67,14.34,28.67,28.67v301c0,.65-.39,1.25-.45,1.9h54.64c-.06-.65-.44-1.25-.44-1.9V399.77c0-14.33,14.33-28.66,28.66-28.66h50.16c14.34,0,28.67,14.33,28.67,28.66V629.09c0,.65-.39,1.25-.45,1.9H828.75V220.69H171.26Z"/><path class="cls-1" d="M870.81,121.8H129.19a56.89,56.89,0,0,0-56.82,56.84V673a56.89,56.89,0,0,0,56.82,56.84H425.84a17.32,17.32,0,0,1,16.43,22.81l-24.71,74.15a17.32,17.32,0,0,1-16.44,11.85H289.88a19.76,19.76,0,0,0,0,39.51H710.12a19.76,19.76,0,0,0,0-39.51H598.88a17.32,17.32,0,0,1-16.44-11.85l-24.71-74.15a17.32,17.32,0,0,1,16.43-22.81H870.81A56.89,56.89,0,0,0,927.63,673V178.64A56.89,56.89,0,0,0,870.81,121.8Zm-7.4,526.52a17.33,17.33,0,0,1-17.33,17.33H153.92a17.33,17.33,0,0,1-17.33-17.33v-445A17.33,17.33,0,0,1,153.92,186H846.08a17.33,17.33,0,0,1,17.33,17.33Z"/></svg>