<svg xmlns="http://www.w3.org/2000/svg" xmlns:xlink="http://www.w3.org/1999/xlink" width="162.689" height="59.653" viewBox="0 0 162.689 59.653">
  <defs>
    <clipPath id="clip-path">
      <path id="Clip_7" data-name="Clip 7" d="M0,0H7.313V6.5H0Z" transform="translate(0.336 0.107)" fill="none"/>
    </clipPath>
    <clipPath id="clip-path-2">
      <path id="Clip_14" data-name="Clip 14" d="M0,0H6.256V6.5H0Z" transform="translate(0.008 0.107)" fill="none"/>
    </clipPath>
    <clipPath id="clip-path-3">
      <path id="Clip_17" data-name="Clip 17" d="M0,0H6.175V6.5H0Z" transform="translate(0.071 0.107)" fill="none"/>
    </clipPath>
    <clipPath id="clip-path-4">
      <path id="Clip_42" data-name="Clip 42" d="M0,59.125H57.689V0H0Z" transform="translate(0 0.344)" fill="none"/>
    </clipPath>
  </defs>
  <g id="Group" transform="translate(0 -0.348)">
    <path id="Fill_1" data-name="Fill 1" d="M89.28,59A20.328,20.328,0,0,1,75.2,53.6a18.572,18.572,0,0,1-5.779-13.649,18.86,18.86,0,0,1,5.857-13.786,20.44,20.44,0,0,1,14.213-5.54A20.945,20.945,0,0,1,98,22.328v9.9c-2.973-1.815-5.154-2.8-8.167-2.8a10.006,10.006,0,1,0,0,20.009c2.744,0,4.881-.715,8.167-2.731v9.9C95.842,58.241,93.072,59,89.28,59Zm-21.613-.573h-10.5V21.194h10.5Zm-33.273,0H23.333V21.194H36.759c5.936,0,10.934,1.744,14.451,5.044s5.373,7.979,5.373,13.539c0,6.114-2.013,10.834-5.982,14.03a19.5,19.5,0,0,1-6.989,3.47A34.1,34.1,0,0,1,34.394,58.427Zm1.9-28.641c-.2,0-.43.012-.691.027-.342.019-.73.04-1.186.04V49.835h.006c3.545,0,6.334-.763,8.291-2.269,2.236-1.72,3.369-4.408,3.369-7.991a11.79,11.79,0,0,0-.738-4.292A8.23,8.23,0,0,0,43.3,32.225,10.028,10.028,0,0,0,36.294,29.786ZM10.513,58.427H0V21.194H21.583v8.613h-11l.069,5.765H20.818v8.613H10.583l-.07,14.241ZM7.483,16.04H0v-1.8H.01c1.261,0,1.839-.111,2.132-.409s.3-.819.3-1.664v-8.5c0-.838-.07-1.337-.437-1.573A4.347,4.347,0,0,0,0,1.867V0H7.483l3.5,10.163L14.755,0h7.412V1.867h-.016a3.421,3.421,0,0,0-2.17.422c-.338.292-.4.757-.4,1.513v8.849c0,1.312.087,1.589,2.587,1.589v1.8H13.5v-1.8c2.657-.138,2.657-.138,2.657-2V3.387L11.328,16.038H9.439L4.964,3.387v9.058c0,1.46.377,1.729,2.518,1.8v1.8Zm42.27,0H43.51V14.287h.01c1.685,0,1.744-.282,1.744-1.616V8.693c0-1.426-.58-2.09-1.824-2.09s-2.595.867-2.595,3.3v1.887c0,2.243,0,2.426,1.683,2.494v1.751H35.583V14.287h.138c1.1,0,1.634-.013,1.9-.312s.272-.884.272-2.045V8.222c0-1.63-.229-1.685-2.315-1.685V4.919h5.261v1.82a4.746,4.746,0,0,1,3.928-2.156A3.617,3.617,0,0,1,48.139,6.6c1.427-1.443,2.474-1.955,4-1.955a3.063,3.063,0,0,1,2.71,1.062,5.011,5.011,0,0,1,.658,2.982v4.515c0,1.018.092,1.079,1.642,1.079h.6v1.751H50.875V14.287h.018c.8,0,1.245-.033,1.458-.216s.208-.493.208-1.064V8.962c0-2.039-.592-2.425-1.684-2.425a2.422,2.422,0,0,0-2.052,1.044,4.273,4.273,0,0,0-.684,2.459V12.8c0,1.344.151,1.482,1.614,1.482v1.751Zm44.109,0H86.333V14.277h.044c1.134,0,1.687-.038,1.968-.262s.288-.656.288-1.432V7.972c0-1.491-.487-1.491-2.3-1.491V4.854h5.159v1.56c1.219-1.335,2.107-1.831,3.276-1.831a2.527,2.527,0,0,1,2.649,2.576,1.857,1.857,0,0,1-1.881,2.034,1.5,1.5,0,0,1-1.6-1.491,1.735,1.735,0,0,1,1.186-1.56,1.93,1.93,0,0,0-.7-.135,2.411,2.411,0,0,0-2.213,1.3,6.057,6.057,0,0,0-.645,2.974v2.441c0,1.509.183,1.559,1.851,1.559h.449v1.761Zm-14.432,0a6.26,6.26,0,0,1-4.235-1.416A5.387,5.387,0,0,1,73.5,10.443a6.036,6.036,0,0,1,1.553-4.189,5.474,5.474,0,0,1,4.095-1.671c3.3,0,5.435,2.352,5.435,5.991H76.748a4.01,4.01,0,0,0,.8,2.6,2.72,2.72,0,0,0,2.169.955,2.565,2.565,0,0,0,2.753-2.37h2.117a4.749,4.749,0,0,1-1.65,3.177A5.476,5.476,0,0,1,79.43,16.039Zm.228-10.31c-1.318,0-2.074,1.044-2.074,2.864h4.083a3.743,3.743,0,0,0-.5-2.155A1.708,1.708,0,0,0,79.657,5.729Zm-13.5,10.31a4.368,4.368,0,0,1-3.5-1.55l-.96,1.28H60.255V3.64c0-1.851-.162-2.021-1.922-2.021V0h4.8V5.729a4.81,4.81,0,0,1,3.432-1.482c2.707,0,4.6,2.383,4.6,5.8A6.792,6.792,0,0,1,69.845,14.4,4.593,4.593,0,0,1,66.156,16.039ZM66.015,6.3a1.975,1.975,0,0,0-1.857,1.054,6.307,6.307,0,0,0-.575,3.059c0,2.41.907,3.907,2.366,3.907a1.876,1.876,0,0,0,1.618-.977,5.965,5.965,0,0,0,.682-3.136C68.25,7.761,67.414,6.3,66.015,6.3ZM29.334,16.039a6.379,6.379,0,0,1-4.271-1.416,5.344,5.344,0,0,1-1.729-4.181,5.977,5.977,0,0,1,1.588-4.189,5.649,5.649,0,0,1,4.129-1.671A5.07,5.07,0,0,1,32.978,6.22a6.437,6.437,0,0,1,1.439,4.354H26.581a3.955,3.955,0,0,0,.8,2.568,2.8,2.8,0,0,0,2.233.987,2.563,2.563,0,0,0,2.753-2.37h2.048C34.069,14.479,32.216,16.039,29.334,16.039ZM28.94,5.729c-1.339,0-2.107,1.044-2.107,2.864h4.083a3.832,3.832,0,0,0-.483-2.165A1.674,1.674,0,0,0,28.94,5.729Z" transform="translate(0 1)" fill="#fefefe"/>
    <g id="Group_44" data-name="Group 44" transform="translate(105)">
      <path id="Fill_1-2" data-name="Fill 1" d="M53.139,43.285H4.469V22.63H0V16.623L29.17,0,57.689,16.788V22.63h-4.55V43.284ZM29.168,6.26h0L10.4,17.286V38.023H47.531V17.286L29.168,6.26Z" transform="translate(0 0.348)" fill="#fefefe"/>
      <path id="Fill_2" data-name="Fill 2" d="M0,5.1H19.419V0H0Z" transform="translate(19.185 20.429)" fill="#fefefe"/>
      <path id="Fill_3" data-name="Fill 3" d="M0,5.1H19.419V0H0Z" transform="translate(19.185 28.027)" fill="#fefefe"/>
      <g id="Group_43" data-name="Group 43" transform="translate(0 0.004)">
        <path id="Fill_4" data-name="Fill 4" d="M3.332,6.5H0V0H3.413A5.155,5.155,0,0,1,6.4.7,3.015,3.015,0,0,1,7.556,3.374C7.556,5.978,5.94,6.5,3.332,6.5ZM1.787,1.4V5.1H3.249C4.7,5.1,5.605,4.81,5.605,3.371A1.977,1.977,0,0,0,3.411,1.4Z" transform="translate(29.76 52.968)" fill="#fefefe"/>
        <g id="Group_8" data-name="Group 8" transform="translate(47.234 52.861)">
          <path id="Clip_7-2" data-name="Clip 7" d="M0,0H7.313V6.5H0Z" transform="translate(0.336 0.107)" fill="none"/>
          <g id="Group_8-2" data-name="Group 8" clip-path="url(#clip-path)">
            <path id="Fill_6" data-name="Fill 6" d="M1.787,6.5H0V0H4.712a3.017,3.017,0,0,1,1.93.473,1.885,1.885,0,0,1,.589,1.584c0,1.042-.535,1.559-1.787,1.728L7.311,6.5l-1.948,0L3.494,3.785H1.787V6.5Zm-.008-5.1v.987h2.6c.9,0,1.138,0,1.138-.493,0-.42-.341-.494-1.057-.494Z" transform="translate(0.336 0.107)" fill="#fefefe"/>
          </g>
        </g>
        <path id="Fill_9" data-name="Fill 9" d="M5.444,4.032,2.031,0H0V6.5H1.706V2.551L5.119,6.5H7.15V0H5.444Z" transform="translate(19.964 52.968)" fill="#fefefe"/>
        <path id="Fill_11" data-name="Fill 11" d="M1.788,0H0V6.5H6.419V5.1L1.788,5.02Z" transform="translate(3.212 52.968)" fill="#fefefe"/>
        <g id="Group_15" data-name="Group 15" transform="translate(11.461 52.861)">
          <path id="Clip_14-2" data-name="Clip 14" d="M0,0H6.256V6.5H0Z" transform="translate(0.008 0.107)" fill="none"/>
          <g id="Group_15-2" data-name="Group 15" clip-path="url(#clip-path-2)">
            <path id="Fill_13" data-name="Fill 13" d="M0,6.5H6.256V5.1H1.869V3.7H5.525V2.386H1.869V1.4H6.256V0H0Z" transform="translate(0.008 0.107)" fill="#fefefe"/>
          </g>
        </g>
        <g id="Group_18" data-name="Group 18" transform="translate(39.246 52.861)">
          <path id="Clip_17-2" data-name="Clip 17" d="M0,0H6.175V6.5H0Z" transform="translate(0.071 0.107)" fill="none"/>
          <g id="Group_18-2" data-name="Group 18" clip-path="url(#clip-path-3)">
            <path id="Fill_16" data-name="Fill 16" d="M0,6.5l6.175-.082V5.1H1.788V3.7H5.525V2.386H1.788V1.4H6.175V0H0Z" transform="translate(0.071 0.107)" fill="#fefefe"/>
          </g>
        </g>
        <path id="Fill_19" data-name="Fill 19" d="M1.184,5.844H0L1.625,0H3.007L4.631,5.842H3.366L3.007,4.526H1.544L1.184,5.843Zm1.1-4.593h0l-.486,2.3H2.85Z" transform="translate(15.947 45.525)" fill="#fefefe"/>
        <path id="Fill_21" data-name="Fill 21" d="M4.469,5.925h0A11.411,11.411,0,0,1,.985,5.637C.285,5.37,0,4.857,0,3.867V2.3C0,.689.583,0,1.95,0A1.755,1.755,0,0,1,3.534.669,3.028,3.028,0,0,1,3.9,2.387V3.621a2.977,2.977,0,0,1-.325,1.563l.976.329-.082.411ZM2.026.985c-.711,0-.812.3-.812,1.4v1.4c0,1.085.164,1.4.731,1.4.66,0,.732-.266.732-1.317V2.3C2.677,1.145,2.6.985,2.026.985Z" transform="translate(6.887 45.362)" fill="#fefefe"/>
        <path id="Fill_23" data-name="Fill 23" d="M1.95,5.184c-.487,0-.812-.329-.975-.905L0,4.444c0,.9.569,1.646,1.869,1.646A1.916,1.916,0,0,0,3.9,4.444c0-1.4-2.6-2.057-2.6-2.963,0-.329.325-.494.65-.494.488,0,.731.329.975.823l.813-.329A1.642,1.642,0,0,0,1.869,0C.894,0,.081.493.081,1.481c0,1.646,2.6,2.057,2.6,3.127,0,.412-.243.576-.731.576" transform="translate(40.04 45.36)" fill="#fefefe"/>
        <path id="Fill_25" data-name="Fill 25" d="M1.95,6.089C.492,6.089,0,5.591,0,4.115V2.222C0,.748.656,0,1.95,0,3.426,0,3.9.5,3.9,2.057v1.81C3.9,5.529,3.408,6.089,1.95,6.089Zm0-5.184c-.676,0-.731.559-.731,1.235V3.95c0,.871.1,1.235.731,1.235.52,0,.732-.381.732-1.317V2.14C2.678,1.543,2.622.905,1.947.905Z" transform="translate(31.23 45.36)" fill="#fefefe"/>
        <path id="Fill_27" data-name="Fill 27" d="M2.031.905c.569,0,.894.412.975.988l.812-.329A1.645,1.645,0,0,0,1.95,0C.325,0,0,.905,0,2.139V3.868C0,5.6.488,6.089,2.113,6.089c1.258,0,1.625-.6,1.625-1.234V2.963H2.031v.9H2.6v.658c0,.494-.163.741-.569.741-.812,0-.894-.576-.894-1.4V2.551c0-.988.081-1.646.894-1.646" transform="translate(50.902 45.36)" fill="#fefefe"/>
        <path id="Fill_29" data-name="Fill 29" d="M3.819,0H2.682V3.374C2.682,4.69,2.6,5.02,1.95,5.02s-.731-.494-.731-1.728V0H0V3.374C0,5.349.334,5.98,2.041,5.98c1.3,0,1.778-.714,1.778-2.442Z" transform="translate(35.638 45.524)" fill="#fefefe"/>
        <path id="Fill_31" data-name="Fill 31" d="M3.819,5.843V0H2.844V3.621L1.544,0H0V5.843H.975V1.893l1.381,3.95Z" transform="translate(46.493 45.525)" fill="#fefefe"/>
        <path id="Fill_33" data-name="Fill 33" d="M0,0V3.538C0,5.184.163,5.925,1.788,5.925c1.869,0,1.95-.905,1.95-2.551V0H2.6V3.456c0,1.152-.162,1.481-.731,1.481-.65,0-.731-.329-.731-1.646V0Z" transform="translate(11.956 45.524)" fill="#fefefe"/>
        <path id="Fill_35" data-name="Fill 35" d="M3.656,5.843V0H2.519V2.222H1.137V0H0V5.843H1.137V3.21H2.519V5.843Z" transform="translate(26.733 45.525)" fill="#fefefe"/>
        <path id="Fill_37" data-name="Fill 37" d="M2.925.905V0H0V5.843H2.925V4.937H1.138V3.292H2.762V2.468H1.138V.905Z" transform="translate(3.13 45.525)" fill="#fefefe"/>
        <path id="Fill_39" data-name="Fill 39" d="M0,0V5.843H2.682V4.937H.975V0Z" transform="translate(21.094 45.525)" fill="#fefefe"/>
        <path id="Clip_42-2" data-name="Clip 42" d="M0,59.125H57.689V0H0Z" transform="translate(0 0.344)" fill="none"/>
        <g clip-path="url(#clip-path-4)">
          <path id="Fill_41" data-name="Fill 41" d="M0,5.843H1.056V0H0Z" transform="translate(44.536 45.525)" fill="#fefefe"/>
        </g>
      </g>
    </g>
  </g>
</svg>
