<svg id="Layer_1" data-name="Layer 1" xmlns="http://www.w3.org/2000/svg" viewBox="0 0 1000 1000"><defs><style>.cls-1{fill:#0079c2;}.cls-2{fill:#fff;}</style></defs><title>PaymentOptions</title><path class="cls-1" d="M500,76.29C266,76.29,76.29,266,76.29,500S266,923.71,500,923.71,923.71,734,923.71,500,734.05,76.29,500,76.29"/><path class="cls-2" d="M684.7,539.77a12.94,12.94,0,0,1-3.71,9.54,12.78,12.78,0,0,1-9.48,3.72h-97.3a19,19,0,0,1-14-5.79,20.08,20.08,0,0,1,0-28.19l26.37-26.54L526.38,431.2l-60.21,61.31a27.82,27.82,0,0,1-37.94,0l-56.08-57.16a13.06,13.06,0,0,1,0-19l18.14-18.25a12.92,12.92,0,0,1,19,0l37.92,38.13,60.21-61.33a27.88,27.88,0,0,1,37.94,0l79.16,79.55,26.39-26.51a19.83,19.83,0,0,1,28,0A19.24,19.24,0,0,1,684.7,442Zm13.2,66.3a12.79,12.79,0,0,1,9.48,3.73,12.93,12.93,0,0,1,3.71,9.52v26.54a12.93,12.93,0,0,1-3.71,9.52,12.79,12.79,0,0,1-9.48,3.73H315.3a25.23,25.23,0,0,1-18.55-7.88,25.5,25.5,0,0,1-7.84-18.65V354.15a12.92,12.92,0,0,1,3.71-9.54,12.77,12.77,0,0,1,9.48-3.71h26.39a12.83,12.83,0,0,1,9.48,3.71,13,13,0,0,1,3.71,9.54V606.07Z"/></svg>