<svg id="Layer_1" data-name="Layer 1" xmlns="http://www.w3.org/2000/svg" viewBox="0 0 1000 1000"><defs><style>.cls-1{fill:#0079c2;}.cls-2{fill:#fff;}</style></defs><title>PaymentOptions</title><path class="cls-1" d="M500,76.3C266,76.3,76.29,266,76.29,500S266,923.7,500,923.7,923.71,734,923.71,500,734,76.3,500,76.3"/><path class="cls-2" d="M566.33,616.9c-11.1,0-20.76,9.21-20.76,20.54,0,11.16,10.16,20.33,20.76,20.33a20.79,20.79,0,0,0,20.34-20.33C586.67,626.6,577.48,616.9,566.33,616.9Z"/><path class="cls-2" d="M434.13,538.33c-10.89,0-20.78,9.21-20.78,20.29S423,579.2,434.13,579.2c10.88,0,20.54-9.64,20.54-20.58S445,538.33,434.13,538.33Z"/><path class="cls-2" d="M500,205.2,251.6,453.6l105.13.06V750.47l286.53,0,0-296.87,105.1,0ZM380.7,558.62c0-29,24.42-52.91,53.43-52.91s53.17,23.67,53.17,52.91a53.32,53.32,0,0,1-53.17,53.19C404.87,611.81,380.7,587.9,380.7,558.62Zm55.59,133.7L538.8,504.25h24.42L460.7,692.32Zm130-1.92c-28.76,0-53.41-23.46-53.41-52.72,0-29,24.42-53.43,53.41-53.43,29.27,0,53,24.42,53,53.43A52.75,52.75,0,0,1,566.33,690.4Z"/></svg>