<svg id="Layer_1" data-name="Layer 1" xmlns="http://www.w3.org/2000/svg" viewBox="0 0 1000 1000"><defs><style>.cls-1{fill:#0079c2;}.cls-2{fill:#fff;}</style></defs><title>PaymentOptions</title><path class="cls-1" d="M500,76.29C266,76.29,76.29,266,76.29,500S266,923.71,500,923.71,923.71,734,923.71,500,734,76.29,500,76.29"/><path class="cls-2" d="M610.66,390a151.83,151.83,0,0,0-62.57-38.09,159.49,159.49,0,0,0-71.94-5.5,157.78,157.78,0,0,0-66.4,25.82L628.51,589.69A159.07,159.07,0,0,0,649,452.17Q637.86,417.05,610.64,390ZM389.31,610a152.17,152.17,0,0,0,62.57,38.09,161.68,161.68,0,0,0,138.34-20.32L371.46,410.29a159.19,159.19,0,0,0-20.41,137.52q11,35.12,38.29,62.19ZM500,290.15q57,0,105.55,28.34a212.59,212.59,0,0,1,77,76.57,207.27,207.27,0,0,1,0,209.85,212.62,212.62,0,0,1-77,76.58Q557,709.84,500,709.85T394.44,681.49a212.66,212.66,0,0,1-77-76.58,207.21,207.21,0,0,1,0-209.85,212.64,212.64,0,0,1,77-76.57Q442.95,290.17,500,290.15"/></svg>