<svg id="Layer_1" data-name="Layer 1" xmlns="http://www.w3.org/2000/svg" viewBox="0 0 1000 1000"><defs><style>.cls-1{fill:#0079c2;}.cls-2{fill:#fff;}</style></defs><title>PaymentOptions</title><path class="cls-1" d="M500,76.29C266,76.29,76.29,266,76.29,500S266,923.71,500,923.71,923.71,734,923.71,500,734,76.29,500,76.29"/><path class="cls-2" d="M667,285.28l-324.84-1.15-.22,55.71-37.68-.15-.14,37.8,37.71.1-.22,56.53-37.7-.1-.14,37.69,37.73.15-.22,55.34-37.67-.1-.15,37.73,37.68.12L341,621.53l-37.71-.17-.13,37.76,37.68.12-.19,55.46,324.88,1.15A29.92,29.92,0,0,0,695.56,686l1.32-370.52A30,30,0,0,0,667,285.28m-43.6,310.14a9.22,9.22,0,0,1-4.84,8H418.74a9.27,9.27,0,0,1-4.8-8V568.57c.35-.25,60.08-31.28,60.08-31.28s17.75-8,17.75-26.65L488.38,504l-6.91-20.78s-8.58-5.83-8.58-19.13c0-8.37,3.3-12,3.3-12s-3.3-12.46-3.3-21.32,8.58-37.74,45.49-37.74c34.39,0,45.49,28.85,45.49,37.74s-3.32,21.32-3.32,21.32,3.32,3.36,3.32,12c0,13.3-8.59,18.84-8.59,18.84l-6.1,19.68-4.16,8c0,17.36,17.77,26.65,17.77,26.65s60.53,31.19,60.59,31.28Z"/></svg>